<?xml version="1.0" standalone="no"?>
<!DOCTYPE svg PUBLIC "-//W3C//DTD SVG 1.1//EN" "http://www.w3.org/Graphics/SVG/1.1/DTD/svg11.dtd" >
<svg xmlns="http://www.w3.org/2000/svg" xmlns:xlink="http://www.w3.org/1999/xlink" version="1.1">
<metadata>
Created by FontForge 20201107 at Sun Jun  2 09:40:00 2024
 By 
Copyright 2012 AE Type. http://www.aetype.com Administration Contact: info@aetype.com
</metadata>
<defs>
<font id="Sorren-Semibold" horiz-adv-x="514" >
  <font-face 
    font-family="Sorren-Semibold"
    font-weight="400"
    font-stretch="normal"
    units-per-em="2048"
    panose-1="2 0 5 8 5 0 0 2 0 4"
    ascent="1714"
    descent="-334"
    x-height="1143"
    cap-height="1391"
    bbox="-85 -384 1139 1911"
    underline-thickness="71"
    underline-position="-91"
    unicode-range="U+0020-FB04"
  />
<missing-glyph horiz-adv-x="621" 
d="M63 0v1391h495v-1391h-495zM93 1361v-1331h434v1331h-434z" />
    <glyph glyph-name="AE" unicode="AE" horiz-adv-x="656" 
d="M351 0l-21 256h-148l-21 -256h-142l148 1391h451v-130h-259l51 -494h179v-131h-166l52 -506h143v-130h-267zM256 1119l-62 -737h124z" />
    <glyph glyph-name="ae" unicode="ae" horiz-adv-x="735" 
d="M48 468q0 62 12 100q12 37 35 63q19 22 74 62l93 69q26 19 31 31q7 16 7 43v83q0 60 -14 82q-15 24 -44 24q-30 0 -45 -24t-15 -82v-140h-134v134q0 115 53 179q53 63 141 63q76 0 126 -48q50 48 126 48q88 0 140 -63q53 -64 53 -179v-445h-252v-244q0 -58 15 -82t44 -24
t44 24t15 82v146h134v-141q0 -114 -53 -178q-52 -63 -140 -63q-114 0 -164 99q-44 -99 -144 -99q-62 0 -100 53t-38 155v272zM182 488v-261q0 -106 50 -106q48 0 69 74q-1 11 -1 34v416l-84 -75q-34 -30 -34 -82zM553 590v329q0 58 -15 82t-44 24t-44 -24t-15 -82v-329h118z
" />
    <glyph glyph-name="OE" unicode="OE" horiz-adv-x="694" 
d="M333 0q-35 -12 -74 -12q-93 0 -149 63q-56 64 -56 178v932q0 114 56 178t149 64q39 0 74 -12h323v-130h-192v-494h163v-131h-163v-506h192v-130h-323zM195 1166v-942q0 -59 16 -82q17 -24 48 -24t48 24q16 23 16 82v942q0 60 -16 83q-17 24 -48 24q-33 0 -49 -24
q-15 -22 -15 -83z" />
    <glyph glyph-name="oe" unicode="oe" horiz-adv-x="747" 
d="M48 229v684q0 117 55 179q56 63 145 63q82 0 132 -54q48 54 126 54q88 0 141 -63q52 -62 52 -179v-445h-252v-244q0 -58 15 -82t44 -24t44 24t15 82v146h134v-141q0 -116 -52 -178q-53 -63 -141 -63q-78 0 -126 54q-50 -54 -132 -54q-90 0 -145 63q-55 62 -55 178z
M182 919v-695q0 -57 17 -82q16 -24 49 -24q32 0 49 24q16 23 16 82v695q0 59 -16 82q-17 24 -49 24q-33 0 -49 -24q-17 -25 -17 -82zM447 919v-329h118v329q0 58 -15 82t-44 24t-44 -24t-15 -82z" />
    <glyph glyph-name="ff" unicode="ff" horiz-adv-x="738" 
d="M17 1007v136h68v49q0 199 203 199h68v-130h-58q-42 0 -60 -18q-19 -19 -19 -60v-40h113v-136h-113v-1007h-134v1007h-68zM387 1007v136h68v49q0 199 202 199h69v-130h-58q-43 0 -61 -18t-18 -60v-40h112v-136h-112v-1007h-134v1007h-68z" />
    <glyph glyph-name="fi" unicode="fi" horiz-adv-x="604" 
d="M420 0v1143h134v-1143h-134zM420 1214v177h134v-177h-134zM17 1007v136h68v49q0 199 203 199h68v-130h-58q-42 0 -60 -18q-19 -19 -19 -60v-40h113v-136h-113v-1007h-134v1007h-68z" />
    <glyph glyph-name="fl" unicode="fl" horiz-adv-x="604" 
d="M420 0v1391h134v-1391h-134zM17 1007v136h68v49q0 199 203 199h68v-130h-58q-42 0 -60 -18q-19 -19 -19 -60v-40h113v-136h-113v-1007h-134v1007h-68z" />
    <glyph glyph-name="ffi" unicode="ffi" horiz-adv-x="972" 
d="M788 0v1143h135v-1143h-135zM788 1214v177h135v-177h-135zM17 1007v136h68v49q0 199 203 199h68v-130h-58q-42 0 -60 -18q-19 -19 -19 -60v-40h113v-136h-113v-1007h-134v1007h-68zM387 1007v136h68v49q0 199 202 199h69v-130h-58q-43 0 -61 -18t-18 -60v-40h112v-136
h-112v-1007h-134v1007h-68z" />
    <glyph glyph-name="ffl" unicode="ffl" horiz-adv-x="972" 
d="M788 0v1391h135v-1391h-135zM17 1007v136h68v49q0 199 203 199h68v-130h-58q-42 0 -60 -18q-19 -19 -19 -60v-40h113v-136h-113v-1007h-134v1007h-68zM387 1007v136h68v49q0 199 202 199h69v-130h-58q-43 0 -61 -18t-18 -60v-40h112v-136h-112v-1007h-134v1007h-68z" />
    <glyph glyph-name="fj" unicode="fj" horiz-adv-x="604" 
d="M420 1214v177h134v-177h-134zM554 -43q0 -120 -59 -172q-61 -54 -150 -55v130q39 3 56 22q19 21 19 72v1189h134v-1186zM17 1007v136h68v49q0 199 203 199h68v-130h-58q-42 0 -60 -18q-19 -19 -19 -60v-40h113v-136h-113v-1007h-134v1007h-68z" />
    <glyph glyph-name="ffj" unicode="ffj" horiz-adv-x="972" 
d="M788 1214v177h135v-177h-135zM923 -43q0 -119 -59 -172q-60 -54 -150 -55v130q39 3 56 22q18 20 18 72v1189h135v-1186zM17 1007v136h68v49q0 199 203 199h68v-130h-58q-42 0 -60 -18q-19 -19 -19 -60v-40h113v-136h-113v-1007h-134v1007h-68zM387 1007v136h68v49
q0 199 202 199h69v-130h-58q-43 0 -61 -18t-18 -60v-40h112v-136h-112v-1007h-134v1007h-68z" />
    <glyph glyph-name=".notdef" horiz-adv-x="621" 
d="M63 0v1391h495v-1391h-495zM93 1361v-1331h434v1331h-434z" />
    <glyph glyph-name=".null" horiz-adv-x="0" 
 />
    <glyph glyph-name="nonmarkingreturn" horiz-adv-x="681" 
 />
    <glyph glyph-name="space" unicode=" " horiz-adv-x="188" 
 />
    <glyph glyph-name="exclam" unicode="!" horiz-adv-x="243" 
d="M73 292l-28 1099h155l-29 -1099h-98zM55 0v227h133v-227h-133z" />
    <glyph glyph-name="quotedbl" unicode="&#x22;" horiz-adv-x="412" 
d="M207 1391l-82 -420h-83l29 420h136zM391 1391l-82 -420h-83l29 420h136z" />
    <glyph glyph-name="numbersign" unicode="#" horiz-adv-x="665" 
d="M75 801v113h111l73 477h121l-72 -477h116l73 477h120l-72 -477h93v-113h-111l-31 -211h95v-114h-113l-71 -476h-121l71 476h-115l-72 -476h-122l72 476h-92v114h109l32 211h-94zM291 801l-32 -211h116l32 211h-116z" />
    <glyph glyph-name="dollar" unicode="$" horiz-adv-x="499" 
d="M182 -111v110q-63 21 -97 80q-35 61 -35 150v283h140v-288q0 -58 15 -82t45 -24q29 0 44 24q14 22 14 82v244q0 43 -7 63q-7 21 -33 48l-138 150q-47 50 -64 96q-16 44 -16 126v210q0 90 35 151q34 59 97 80v113h134v-112q62 -21 98 -81t36 -151v-278h-142v283
q0 61 -14 83q-15 24 -44 24q-30 0 -45 -24t-15 -83v-231q0 -38 9 -63q7 -20 32 -48l139 -150q47 -50 64 -96q16 -44 16 -126v-223q0 -91 -36 -151q-36 -59 -98 -80v-109h-134z" />
    <glyph glyph-name="percent" unicode="%" horiz-adv-x="796" 
d="M164 0l357 1391h113l-358 -1391h-112zM46 707v510q0 86 46 137q45 49 119 49t120 -49t46 -137v-510q0 -88 -46 -137t-120 -49t-119 49q-46 51 -46 137zM168 1220v-517q0 -70 43 -70q44 0 44 70v517q0 71 -44 71q-43 0 -43 -71zM420 174v510q0 86 45 136q45 49 120 49
q74 0 120 -49t46 -136v-510q0 -88 -46 -137t-120 -49q-75 0 -120 49t-45 137zM542 687v-517q0 -71 43 -71q44 0 44 71v517q0 71 -44 71q-43 0 -43 -71z" />
    <glyph glyph-name="ampersand" unicode="&#x26;" horiz-adv-x="567" 
d="M66 1103v58q0 115 54 178q55 64 146 64q90 0 146 -64q55 -62 55 -178v-164h-141v169q0 61 -14 84t-46 23t-46 -24q-14 -25 -14 -83v-63q0 -55 9 -93q11 -44 29 -94l122 -333l51 314h125l-90 -550l127 -347h-145l-37 98q-46 -110 -159 -110q-93 0 -145 64q-53 65 -53 177
v226q0 101 9 146q8 42 40 96l52 89l-31 86q-22 59 -34 112q-10 46 -10 119zM180 470v-246q0 -57 14 -82q14 -24 44 -24q28 0 44 25q14 22 27 95l12 67l-117 313q-16 -32 -20 -57q-4 -24 -4 -91z" />
    <glyph glyph-name="quotesingle" unicode="'" horiz-adv-x="228" 
d="M207 1391l-82 -420h-83l29 420h136z" />
    <glyph glyph-name="parenleft" unicode="(" horiz-adv-x="332" 
d="M186 130q0 -50 21 -76q21 -25 54 -25h40v-109h-41q-86 0 -142 59t-56 163v1094q0 104 56 163t142 59h41v-108h-40q-33 0 -54 -25q-21 -26 -21 -77v-1118z" />
    <glyph glyph-name="parenright" unicode=")" horiz-adv-x="332" 
d="M146 130v1118q0 53 -20 77q-21 25 -54 25h-40v108h41q86 0 142 -59q55 -58 55 -163v-1094q0 -105 -55 -163q-56 -59 -142 -59h-41v109h40q33 0 54 25q20 24 20 76z" />
    <glyph glyph-name="asterisk" unicode="*" horiz-adv-x="524" 
d="M490 1190l-161 -85l161 -87l-50 -112l-139 124l17 -225h-113l19 226l-140 -125l-50 112l162 87l-162 85l50 112l140 -123l-19 224h113l-17 -223l139 122z" />
    <glyph glyph-name="plus" unicode="+" horiz-adv-x="552" 
d="M40 475v131h170v171h132v-171h171v-131h-171v-171h-132v171h-170z" />
    <glyph glyph-name="comma" unicode="," horiz-adv-x="230" 
d="M46 0v227h138v-179q0 -75 -20 -119l-35 -83h-83l46 154h-46z" />
    <glyph glyph-name="hyphen" unicode="-" horiz-adv-x="378" 
d="M40 475v131h299v-131h-299z" />
    <glyph glyph-name="period" unicode="." horiz-adv-x="230" 
d="M46 0v227h138v-227h-138z" />
    <glyph glyph-name="slash" unicode="/" horiz-adv-x="387" 
d="M15 0l236 1391h121l-236 -1391h-121z" />
    <glyph glyph-name="zero" unicode="0" horiz-adv-x="518" 
d="M54 229v932q0 114 56 178t149 64t149 -64t56 -178v-932q0 -114 -56 -178q-56 -63 -149 -63t-149 63q-56 64 -56 178zM195 1166v-942q0 -59 16 -82q17 -24 48 -24t48 24q16 23 16 82v942q0 60 -16 83q-17 24 -48 24q-33 0 -49 -24q-15 -22 -15 -83z" />
    <glyph glyph-name="one" unicode="1" horiz-adv-x="348" 
d="M292 1391v-1391h-141v1156l-127 -22v131q35 5 64 20q28 15 45 33q16 17 28 34t16 27l4 12h111z" />
    <glyph glyph-name="two" unicode="2" horiz-adv-x="497" 
d="M454 1023q0 -131 -41 -231l-200 -476q-14 -31 -19 -66q-6 -44 -6 -104v-16h266v-130h-406v146q0 78 9 129q10 56 32 106l200 475q14 35 18 66q5 37 5 101v143q0 59 -15 83t-46 24q-32 0 -47 -24q-16 -26 -16 -83v-227h-140v222q0 116 55 178q56 64 148 64q91 0 147 -64
t56 -178v-138z" />
    <glyph glyph-name="three" unicode="3" horiz-adv-x="512" 
d="M178 792h77q32 0 47 24t15 81v269q0 59 -15 83t-47 24t-47 -24q-14 -22 -14 -83v-227h-142v222q0 114 56 178t147 64q92 0 148 -64q55 -62 55 -178v-247q0 -123 -65 -188q65 -65 65 -188v-309q0 -116 -55 -178q-55 -63 -148 -63q-91 0 -147 63q-56 64 -56 178v284h142
v-289q0 -58 15 -82t46 -24q32 0 47 24t15 82v331q0 57 -15 81t-47 24h-77v132z" />
    <glyph glyph-name="four" unicode="4" horiz-adv-x="528" 
d="M22 231v129l224 1031h175v-1031h84v-129h-84v-231h-141v231h-258zM140 360h140v730z" />
    <glyph glyph-name="five" unicode="5" 
d="M54 741v650h396v-130h-255v-350q44 71 119 71q67 0 106 -53q40 -54 40 -155v-545q0 -114 -56 -178q-56 -63 -147 -63q-92 0 -148 63q-55 62 -55 178v364h141v-369q0 -58 15 -82t47 -24q31 0 46 24t15 82v518q0 62 -12 83q-14 24 -40 24q-65 0 -83 -108h-129z" />
    <glyph glyph-name="six" unicode="6" 
d="M460 754v-525q0 -114 -56 -178q-56 -63 -147 -63q-92 0 -148 63q-55 62 -55 178v932q0 116 55 178q56 64 148 64q91 0 147 -64t56 -178v-89h-142v94q0 61 -14 83q-15 24 -47 24t-47 -24t-15 -83v-275q44 71 119 71q67 0 106 -53q40 -54 40 -155zM318 224v498
q0 106 -50 106q-34 0 -53 -36q-20 -37 -20 -59v-509q0 -58 15 -82t47 -24q31 0 46 24t15 82z" />
    <glyph glyph-name="seven" unicode="7" horiz-adv-x="463" 
d="M438 1391v-106l-267 -1285h-141l262 1261h-256v130h402z" />
    <glyph glyph-name="eight" unicode="8" 
d="M54 229v309q0 121 64 188q-64 67 -64 188v247q0 116 55 178q56 64 148 64q91 0 147 -64t56 -178v-247q0 -123 -65 -188q65 -65 65 -188v-309q0 -114 -56 -178q-56 -63 -147 -63q-92 0 -148 63q-55 62 -55 178zM195 555v-331q0 -58 15 -82t47 -24q31 0 46 24t15 82v331
q0 59 -14 81q-15 24 -47 24t-47 -24t-15 -81zM195 1166v-269q0 -57 15 -81t47 -24t47 24q14 22 14 81v269q0 61 -14 83q-15 24 -47 24t-47 -24t-15 -83z" />
    <glyph glyph-name="nine" unicode="9" 
d="M54 637v524q0 114 56 178t147 64q92 0 148 -64q55 -62 55 -178v-932q0 -116 -55 -178q-55 -63 -148 -63q-91 0 -147 63q-56 64 -56 178v89h142v-94q0 -60 14 -82q15 -24 47 -24t47 24t15 82v276q-44 -71 -119 -71q-67 0 -106 53q-40 54 -40 155zM196 1166v-497
q0 -107 50 -107q34 0 54 37q19 35 19 58v509q0 58 -15 82q-16 25 -47 25t-46 -24t-15 -83z" />
    <glyph glyph-name="colon" unicode=":" horiz-adv-x="230" 
d="M46 0v227h138v-227h-138zM46 915v228h138v-228h-138z" />
    <glyph glyph-name="semicolon" unicode=";" horiz-adv-x="230" 
d="M46 0v227h138v-179q0 -75 -20 -119l-35 -83h-83l46 154h-46zM46 915v228h138v-228h-138z" />
    <glyph glyph-name="less" unicode="&#x3c;" horiz-adv-x="552" 
d="M40 471v139l473 166v-135l-317 -100l317 -101v-135z" />
    <glyph glyph-name="equal" unicode="=" horiz-adv-x="552" 
d="M40 596v128h473v-128h-473zM40 357v128h473v-128h-473z" />
    <glyph glyph-name="greater" unicode="&#x3e;" horiz-adv-x="552" 
d="M513 610v-139l-473 -166v135l317 101l-317 100v135z" />
    <glyph glyph-name="question" unicode="?" horiz-adv-x="497" 
d="M187 296v92q0 81 8 121q8 42 29 86l59 127q14 31 19 63q5 33 5 103v278q0 107 -65 107q-66 0 -66 -107v-323h-140v318q0 113 57 178q57 64 149 64t149 -64q56 -63 56 -178v-273q0 -98 -8 -137q-10 -46 -32 -87l-72 -136q-27 -50 -32 -70q-7 -26 -7 -70v-92h-109zM175 0
v227h133v-227h-133z" />
    <glyph glyph-name="at" unicode="@" horiz-adv-x="797" 
d="M216 480q0 82 24 123q23 39 88 86l87 64q20 15 30 29q10 15 10 38v69q0 55 -14 78q-13 22 -43 22q-28 0 -42 -23t-14 -77v-117h-126v112q0 107 50 168q50 60 132 60q84 0 133 -60q51 -62 51 -168v-743q0 -31 10 -44t35 -13h33q25 0 35 13q11 14 11 44v877q0 89 -64 155
q-63 64 -154 64h-179q-90 0 -153 -64q-64 -66 -64 -155v-893q0 -89 64 -155q63 -64 153 -64h330v-42h-330q-107 0 -184 77t-77 184v893q0 107 77 184t184 77h179q108 0 185 -77t77 -184v-877q0 -49 -24 -74t-66 -25h-65q-52 0 -81 19q-30 20 -45 65q-41 -95 -123 -95
q-59 0 -95 50q-35 48 -35 146v253zM342 498v-241q0 -100 47 -100q45 0 67 71q-1 14 -1 33v384l-81 -70q-32 -27 -32 -77z" />
    <glyph glyph-name="A" unicode="A" horiz-adv-x="507" 
d="M19 0l148 1391h179l142 -1391h-137l-22 256h-147l-21 -256h-142zM257 1123l-63 -741h123z" />
    <glyph glyph-name="B" unicode="B" horiz-adv-x="518" 
d="M56 0v1391h181q98 0 159 -64q62 -65 62 -178v-252q0 -122 -73 -189q79 -64 79 -194v-272q0 -113 -62 -178q-61 -64 -159 -64h-187zM243 640h-46v-510h46q80 0 80 107v298q0 105 -80 105zM237 1261h-40v-490h40q79 0 79 107v276q0 107 -79 107z" />
    <glyph glyph-name="C" unicode="C" horiz-adv-x="505" 
d="M195 1166v-942q0 -60 14 -82q15 -24 45 -24q29 0 44 24q14 22 14 82v376h142v-371q0 -114 -55 -178q-54 -63 -145 -63t-145 63q-55 64 -55 178v932q0 114 55 178t145 64t145 -64t55 -178v-358h-142v363q0 61 -14 83q-15 24 -44 24q-30 0 -45 -24q-14 -22 -14 -83z" />
    <glyph glyph-name="D" unicode="D" horiz-adv-x="509" 
d="M56 0v1391h178q99 0 160 -64q62 -65 62 -178v-907q0 -113 -62 -178q-61 -64 -160 -64h-178zM234 1261h-37v-1131h37q80 0 80 107v917q0 107 -80 107z" />
    <glyph glyph-name="E" unicode="E" horiz-adv-x="428" 
d="M56 0v1391h334v-130h-193v-494h163v-131h-163v-506h193v-130h-334z" />
    <glyph glyph-name="F" unicode="F" horiz-adv-x="413" 
d="M56 0v1391h334v-130h-193v-494h163v-131h-163v-636h-141z" />
    <glyph glyph-name="G" unicode="G" horiz-adv-x="516" 
d="M462 0h-114l-11 57q-43 -69 -126 -69q-73 0 -115 54t-42 154v965q0 114 56 178t148 64q93 0 149 -64q55 -62 55 -178v-199h-140v204q0 60 -16 83q-16 24 -48 24t-48 -24q-15 -22 -15 -83v-939q0 -60 15 -82q16 -24 48 -24t48 24q16 23 16 82v401h-64v131h204v-759z" />
    <glyph glyph-name="H" unicode="H" horiz-adv-x="542" 
d="M345 0v636h-148v-636h-141v1391h141v-624h148v624h141v-1391h-141z" />
    <glyph glyph-name="I" unicode="I" horiz-adv-x="252" 
d="M56 0v1391h141v-1391h-141z" />
    <glyph glyph-name="J" unicode="J" 
d="M195 521v-297q0 -58 15 -82t47 -24q31 0 46 24t15 82v1167h142v-1162q0 -114 -56 -178q-56 -63 -147 -63q-92 0 -148 63q-55 62 -55 178v292h141z" />
    <glyph glyph-name="K" unicode="K" horiz-adv-x="533" 
d="M56 0v1391h141v-625h20l148 625h146l-168 -669l187 -722h-149l-161 636h-23v-636h-141z" />
    <glyph glyph-name="L" unicode="L" horiz-adv-x="432" 
d="M56 0v1391h141v-1261h207v-130h-348z" />
    <glyph glyph-name="M" unicode="M" horiz-adv-x="792" 
d="M596 0v993l-138 -993h-124l-137 993v-993h-141v1391h187l152 -1062l155 1062h186v-1391h-140z" />
    <glyph glyph-name="N" unicode="N" horiz-adv-x="567" 
d="M343 0l-149 964v-964h-138v1391h167l151 -970v970h137v-1391h-168z" />
    <glyph glyph-name="O" unicode="O" horiz-adv-x="518" 
d="M54 229v932q0 114 56 178t149 64t149 -64t56 -178v-932q0 -114 -56 -178q-56 -63 -149 -63t-149 63q-56 64 -56 178zM195 1166v-942q0 -59 16 -82q17 -24 48 -24t48 24q16 23 16 82v942q0 60 -16 83q-17 24 -48 24q-33 0 -49 -24q-15 -22 -15 -83z" />
    <glyph glyph-name="P" unicode="P" horiz-adv-x="503" 
d="M56 0v1391h185q98 0 159 -64q62 -65 62 -178v-311q0 -113 -62 -178q-61 -64 -159 -64h-44v-596h-141zM241 1261h-44v-535h44q80 0 80 107v321q0 107 -80 107z" />
    <glyph glyph-name="Q" unicode="Q" horiz-adv-x="518" 
d="M54 229v932q0 114 56 178t149 64t149 -64t56 -178v-932q0 -124 -68 -190l68 -53v-153l-205 155q-93 0 -149 63q-56 64 -56 178zM195 1166v-942q0 -59 16 -82q17 -24 48 -24t48 24q16 23 16 82v942q0 60 -16 83q-17 24 -48 24q-33 0 -49 -24q-15 -22 -15 -83z" />
    <glyph glyph-name="R" unicode="R" horiz-adv-x="522" 
d="M56 0v1391h189q98 0 159 -64q62 -65 62 -178v-259q0 -134 -84 -198q84 -64 84 -197v-239q0 -69 8 -138q7 -64 15 -91l8 -27h-140q-5 8 -9 23q-6 21 -14 80q-9 65 -9 147v270q0 107 -80 107h-48v-627h-141zM245 1261h-48v-504h48q80 0 80 106v291q0 107 -80 107z" />
    <glyph glyph-name="S" unicode="S" horiz-adv-x="505" 
d="M190 512v-288q0 -56 16 -82q15 -24 47 -24q31 0 46 24t15 82v244q0 43 -7 63q-7 21 -33 48l-144 150q-47 48 -64 95q-16 44 -16 127v210q0 116 55 178q56 64 148 64q91 0 147 -64t56 -178v-278h-142v283q0 61 -14 83q-15 24 -47 24t-47 -24q-16 -26 -16 -83v-231
q0 -38 9 -63q7 -20 32 -48l145 -150q47 -48 64 -95q16 -44 16 -127v-223q0 -114 -56 -178q-56 -63 -147 -63q-93 0 -148 63q-55 62 -55 178v283h140z" />
    <glyph glyph-name="T" unicode="T" horiz-adv-x="435" 
d="M288 1261v-1261h-141v1261h-132v130h405v-130h-132z" />
    <glyph glyph-name="U" unicode="U" 
d="M195 1391v-1167q0 -58 15 -82t47 -24q31 0 46 24t15 82v1167h142v-1162q0 -114 -56 -178q-56 -63 -147 -63q-92 0 -148 63q-55 62 -55 178v1162h141z" />
    <glyph glyph-name="V" unicode="V" horiz-adv-x="487" 
d="M150 0l-131 1391h143l81 -1151l86 1151h139l-133 -1391h-185z" />
    <glyph glyph-name="W" unicode="W" horiz-adv-x="786" 
d="M134 0l-108 1391h140l67 -1105l78 1105h164l78 -1105l68 1105h140l-109 -1391h-184l-75 1065l-75 -1065h-184z" />
    <glyph glyph-name="X" unicode="X" horiz-adv-x="523" 
d="M369 0l-105 535l-107 -535h-148l166 722l-166 669h148l107 -502l105 502h145l-166 -669l166 -722h-145z" />
    <glyph glyph-name="Y" unicode="Y" horiz-adv-x="520" 
d="M189 0v397l-180 994h145l106 -734l106 734h145l-181 -994v-397h-141z" />
    <glyph glyph-name="Z" unicode="Z" horiz-adv-x="432" 
d="M30 0v117l226 1144h-220v130h366v-117l-227 -1144h227v-130h-372z" />
    <glyph glyph-name="bracketleft" unicode="[" horiz-adv-x="348" 
d="M62 -68v1514h254v-109h-130v-1296h130v-109h-254z" />
    <glyph glyph-name="backslash" unicode="\" horiz-adv-x="387" 
d="M136 1391l236 -1391h-121l-236 1391h121z" />
    <glyph glyph-name="bracketright" unicode="]" horiz-adv-x="348" 
d="M286 1446v-1514h-254v109h130v1296h-130v109h254z" />
    <glyph glyph-name="asciicircum" unicode="^" horiz-adv-x="516" 
d="M323 1391l153 -578h-129l-89 370l-89 -370h-129l153 578h130z" />
    <glyph glyph-name="underscore" unicode="_" horiz-adv-x="581" 
d="M40 0v130h502v-130h-502z" />
    <glyph glyph-name="grave" unicode="`" horiz-adv-x="301" 
d="M151 1208l-119 222h165l64 -222h-110z" />
    <glyph glyph-name="a" unicode="a" horiz-adv-x="485" 
d="M48 468q0 62 12 100q12 37 35 63q19 22 74 62l93 69q26 19 31 31q7 16 7 43v83q0 60 -14 82q-15 24 -44 24q-30 0 -45 -24t-15 -82v-140h-134v134q0 115 53 179q53 63 141 63t140 -63q53 -64 53 -179v-657q0 -86 4 -143q5 -72 8 -88l5 -25h-129q-9 34 -13 82
q-39 -94 -124 -94q-62 0 -100 53t-38 155v272zM182 488v-261q0 -106 50 -106q48 0 70 76q-2 42 -2 105v343l-84 -75q-34 -30 -34 -82z" />
    <glyph glyph-name="b" unicode="b" horiz-adv-x="491" 
d="M443 947v-751q0 -102 -38 -155t-100 -53q-84 0 -123 86l-7 -74h-125v1391h134v-318q37 82 121 82q61 0 100 -54q38 -53 38 -154zM308 227v688q0 107 -50 107q-25 0 -43 -21q-20 -24 -25 -40l-6 -22v-734q1 -4 7 -23q5 -14 24 -38q19 -23 43 -23q50 0 50 106z" />
    <glyph glyph-name="c" unicode="c" horiz-adv-x="481" 
d="M182 919v-695q0 -58 15 -82t45 -24t45 24q14 22 14 82v246h134v-241q0 -114 -53 -178q-52 -63 -141 -63q-87 0 -140 63q-53 64 -53 178v684q0 115 53 179q53 63 140 63q89 0 141 -63q53 -64 53 -179v-240h-134v246q0 60 -14 82q-15 24 -45 24t-45 -24t-15 -82z" />
    <glyph glyph-name="d" unicode="d" horiz-adv-x="491" 
d="M48 196v751q0 100 39 154t99 54q80 0 120 -82v318h135v-1391h-126l-7 74q-41 -86 -122 -86q-61 0 -99 53q-39 54 -39 155zM182 915v-688q0 -106 51 -106q25 0 42 20q20 23 25 41l6 22v735q-2 10 -6 23q-4 12 -24 37q-18 23 -43 23q-51 0 -51 -107z" />
    <glyph glyph-name="e" unicode="e" horiz-adv-x="483" 
d="M182 468v-244q0 -58 15 -82t45 -24q29 0 44 24t15 82v146h134v-141q0 -114 -53 -178q-52 -63 -140 -63t-141 63q-53 64 -53 178v684q0 115 53 179q53 63 141 63t140 -63q53 -64 53 -179v-445h-253zM182 919v-329h119v329q0 58 -15 82t-44 24q-30 0 -45 -24t-15 -82z" />
    <glyph glyph-name="f" unicode="f" horiz-adv-x="369" 
d="M17 1007v136h68v49q0 199 203 199h68v-130h-58q-42 0 -60 -18q-19 -19 -19 -60v-40h113v-136h-113v-1007h-134v1007h-68z" />
    <glyph glyph-name="g" unicode="g" horiz-adv-x="491" 
d="M48 196v751q0 100 39 154t99 54q81 0 122 -86l7 74h126v-1186q0 -111 -51 -169t-145 -58q-91 0 -142 52q-50 52 -55 158h134q2 -48 17 -65q17 -18 46 -18q32 0 46 20q15 21 15 74v119q-40 -82 -120 -82q-61 0 -99 53q-39 54 -39 155zM182 915v-688q0 -106 51 -106
q25 0 43 21t24 42l6 21v734q-2 10 -6 23q-4 12 -24 37q-18 23 -43 23q-51 0 -51 -107z" />
    <glyph glyph-name="h" unicode="h" horiz-adv-x="493" 
d="M443 947v-947h-135v915q0 107 -50 107q-25 0 -43 -21q-20 -24 -25 -40l-6 -22v-939h-134v1391h134v-318q37 82 121 82q61 0 100 -54q38 -53 38 -154z" />
    <glyph glyph-name="i" unicode="i" horiz-adv-x="234" 
d="M50 0v1143h134v-1143h-134zM50 1211v180h134v-180h-134z" />
    <glyph glyph-name="j" unicode="j" horiz-adv-x="234" 
d="M50 1211v180h134v-180h-134zM184 -43q0 -119 -59 -172q-60 -54 -150 -55v130q35 1 56 22q19 19 19 72v1189h134v-1186z" />
    <glyph glyph-name="k" unicode="k" horiz-adv-x="502" 
d="M50 0v1391h134v-741h9l165 493h143l-188 -557l188 -586h-145l-165 520h-7v-520h-134z" />
    <glyph glyph-name="l" unicode="l" horiz-adv-x="234" 
d="M50 0v1391h134v-1391h-134z" />
    <glyph glyph-name="m" unicode="m" horiz-adv-x="751" 
d="M701 947v-947h-134v915q0 107 -50 107q-24 0 -42 -21q-19 -22 -24 -40l-8 -22v-939h-135v915q0 107 -50 107q-25 0 -43 -21q-20 -24 -25 -40l-6 -22v-939h-134v1143h125l7 -74q39 86 123 86q43 0 77 -29q34 -30 49 -84q36 113 132 113q61 0 100 -54q38 -53 38 -154z" />
    <glyph glyph-name="n" unicode="n" horiz-adv-x="493" 
d="M443 947v-947h-135v915q0 107 -50 107q-25 0 -43 -21q-20 -24 -25 -40l-6 -22v-939h-134v1143h125l7 -74q39 86 123 86q61 0 100 -54q38 -53 38 -154z" />
    <glyph glyph-name="o" unicode="o" horiz-adv-x="495" 
d="M48 229v684q0 117 55 179q56 63 145 63q90 0 145 -63q54 -61 54 -179v-684q0 -117 -54 -178q-55 -63 -145 -63t-145 63q-55 62 -55 178zM182 919v-695q0 -57 17 -82q16 -24 49 -24q32 0 49 24q16 23 16 82v695q0 59 -16 82q-17 24 -49 24q-33 0 -49 -24q-17 -25 -17 -82z
" />
    <glyph glyph-name="p" unicode="p" horiz-adv-x="491" 
d="M443 947v-751q0 -102 -38 -155t-100 -53q-84 0 -121 82v-328h-134v1401h125l7 -74q39 86 123 86q61 0 100 -54q38 -53 38 -154zM308 227v688q0 107 -50 107q-25 0 -43 -21q-20 -24 -25 -40l-6 -22v-734q1 -4 7 -23q5 -14 24 -38q19 -23 43 -23q50 0 50 106z" />
    <glyph glyph-name="q" unicode="q" horiz-adv-x="491" 
d="M48 196v751q0 100 39 154t99 54q81 0 122 -86l7 74h126v-1401h-135v328q-40 -82 -120 -82q-61 0 -99 53q-39 54 -39 155zM182 915v-688q0 -106 51 -106q25 0 42 20q20 23 25 41l6 22v735q-2 10 -6 23q-4 12 -24 37q-18 23 -43 23q-51 0 -51 -107z" />
    <glyph glyph-name="r" unicode="r" horiz-adv-x="363" 
d="M336 1143v-136q-25 0 -52 -10q-24 -9 -48 -30t-38 -64q-14 -44 -14 -101v-802h-134v1143h125l8 -88q54 88 153 88z" />
    <glyph glyph-name="s" unicode="s" horiz-adv-x="479" 
d="M44 810v103q0 116 54 179t142 63q87 0 141 -64q54 -65 54 -178v-176h-135v182q0 58 -15 82t-45 24q-31 0 -46 -24q-16 -26 -16 -82v-109q0 -37 8 -61t31 -47l139 -147q43 -46 61 -89q18 -44 18 -114v-123q0 -113 -54 -177t-141 -64q-88 0 -142 63t-54 178v189h134v-194
q0 -106 62 -106q30 0 45 24t15 82v128q0 37 -8 61t-31 47l-139 147q-42 44 -61 89q-17 41 -17 114z" />
    <glyph glyph-name="t" unicode="t" horiz-adv-x="356" 
d="M22 1007v136h67v162l134 80v-242h102v-136h-102v-798q0 -42 17 -61q16 -18 57 -18h28v-130h-36q-200 0 -200 203v804h-67z" />
    <glyph glyph-name="u" unicode="u" horiz-adv-x="493" 
d="M50 196v947h134v-919q0 -106 52 -106q24 0 42 21q18 22 24 41l6 21v942h135v-1143h-126l-7 72q-40 -84 -122 -84q-61 0 -99 53q-39 54 -39 155z" />
    <glyph glyph-name="v" unicode="v" horiz-adv-x="467" 
d="M148 1143l86 -903l84 903h137l-134 -1143h-175l-133 1143h135z" />
    <glyph glyph-name="w" unicode="w" horiz-adv-x="763" 
d="M465 0l-85 853l-81 -853h-171l-115 1143h135l70 -898l88 898h156l86 -897l70 897h133l-115 -1143h-171z" />
    <glyph glyph-name="x" unicode="x" horiz-adv-x="479" 
d="M17 1143h138l86 -386l84 386h137l-141 -537l141 -606h-141l-85 421l-78 -421h-141l139 606z" />
    <glyph glyph-name="y" unicode="y" horiz-adv-x="470" 
d="M144 1143l76 -828l105 828h136l-213 -1401h-131l38 232l-146 1169h135z" />
    <glyph glyph-name="z" unicode="z" horiz-adv-x="409" 
d="M28 0v122l215 891h-209v130h348v-122l-215 -891h215v-130h-354z" />
    <glyph glyph-name="braceleft" unicode="{" horiz-adv-x="407" 
d="M122 142v372q0 122 -77 122h-15v107h15q77 0 77 122v371q0 105 55 163q56 59 142 59h57v-108h-55q-34 0 -55 -25q-20 -24 -20 -77v-359q0 -143 -95 -200q95 -54 95 -199v-360q0 -52 20 -76q21 -25 55 -25h55v-109h-57q-86 0 -142 59q-55 58 -55 163z" />
    <glyph glyph-name="bar" unicode="|" horiz-adv-x="219" 
d="M50 -143v1648h119v-1648h-119z" />
    <glyph glyph-name="braceright" unicode="}" horiz-adv-x="407" 
d="M286 514v-372q0 -104 -56 -163t-142 -59h-56v109h55q33 0 54 25q21 26 21 76v360q0 145 95 199q-95 57 -95 200v359q0 51 -21 77q-21 25 -54 25h-55v108h56q86 0 142 -59t56 -163v-371q0 -122 76 -122h16v-107h-16q-76 0 -76 -122z" />
    <glyph glyph-name="asciitilde" unicode="~" horiz-adv-x="587" 
d="M260 631l107 -58q19 -10 32 -10q17 0 17 20v79h132v-108q0 -134 -118 -134q-42 0 -102 31l-107 57q-20 10 -33 10q-16 0 -16 -19v-79h-132v107q0 135 118 135q42 0 102 -31z" />
    <glyph glyph-name="nbspace" unicode="&#xa0;" horiz-adv-x="188" 
 />
    <glyph glyph-name="exclamdown" unicode="&#xa1;" horiz-adv-x="243" 
d="M45 -258l28 1105h98l29 -1105h-155zM55 915v228h133v-228h-133z" />
    <glyph glyph-name="cent" unicode="&#xa2;" horiz-adv-x="475" 
d="M174 0v122q-60 21 -93 81t-33 150v684q0 92 34 151t92 80v123h128v-123q57 -20 93 -81q34 -58 34 -150v-240h-134v245q0 58 -14 83q-13 24 -42 24t-43 -24q-14 -25 -14 -83v-694q0 -57 14 -82q13 -24 43 -24q29 0 42 24q14 25 14 82v246h134v-241q0 -91 -34 -150
q-35 -61 -93 -81v-122h-128z" />
    <glyph glyph-name="sterling" unicode="&#xa3;" horiz-adv-x="538" 
d="M30 622v117h63v422q0 115 54 178q55 64 145 64t145 -64q53 -62 53 -178v-254h-141v259q0 61 -14 83q-15 24 -43 24q-29 0 -44 -24t-15 -83v-427h219v-117h-219v-111h219v-118h-219v-113q0 -108 -48 -150h305v-130h-460v130h6q57 0 57 74v189h-63v118h63v111h-63z" />
    <glyph glyph-name="currency" unicode="&#xa4;" horiz-adv-x="486" 
d="M154 272h-130l69 192q-15 38 -15 89v285q0 52 15 89l-69 192h130l36 -102q21 7 53 7t53 -7l37 102h130l-71 -192q17 -42 17 -89v-285q0 -49 -17 -89l71 -192h-130l-38 103q-21 -7 -52 -7q-32 0 -53 7zM200 841v-291q0 -71 43 -71q44 0 44 71v291q0 70 -44 70
q-43 0 -43 -70z" />
    <glyph glyph-name="yen" unicode="&#xa5;" horiz-adv-x="524" 
d="M515 1391l-136 -734h120v-117h-142l-20 -111h162v-118h-167v-311h-141v311h-165v118h159l-20 111h-139v117h117l-134 734h145l107 -737l109 737h145z" />
    <glyph glyph-name="brokenbar" unicode="&#xa6;" horiz-adv-x="219" 
d="M50 -143v773h119v-773h-119zM50 730v775h119v-775h-119z" />
    <glyph glyph-name="section" unicode="&#xa7;" horiz-adv-x="509" 
d="M458 585v-26q0 -97 -39 -162q39 -59 39 -155v-92q0 -115 -56 -179q-56 -63 -147 -63q-93 0 -148 63q-55 62 -55 179v223h141v-229q0 -58 15 -82t47 -24q31 0 46 24t15 82v115q0 42 -7 63q-8 24 -31 47l-146 151q-44 46 -62 89t-18 117v26q0 97 38 161q-38 61 -38 156v92
q0 116 55 178q56 64 148 64q91 0 147 -64t56 -178v-223h-142v228q0 61 -14 83q-15 24 -47 24t-47 -24t-15 -83v-114q0 -38 8 -62q8 -23 31 -48l146 -151q43 -45 62 -90q18 -43 18 -116zM187 715q0 -39 8 -63q7 -22 32 -47l96 -100v91q0 35 -9 62q-8 23 -31 48l-96 99v-90z
" />
    <glyph glyph-name="dieresis" unicode="&#xa8;" horiz-adv-x="421" 
d="M48 1208v206h128v-206h-128zM245 1208v206h129v-206h-129z" />
    <glyph glyph-name="copyright" unicode="&#xa9;" horiz-adv-x="797" 
d="M750 1142v-893q0 -107 -77 -184t-185 -77h-179q-107 0 -184 77t-77 184v893q0 107 77 184t184 77h179q108 0 185 -77t77 -184zM92 1142v-893q0 -89 64 -155q63 -64 153 -64h179q91 0 154 64q64 66 64 155v893q0 89 -64 155q-63 64 -154 64h-179q-90 0 -153 -64
q-64 -66 -64 -155zM216 1000q0 112 50 174t132 62q83 0 133 -62t50 -174v-203h-136v208q0 58 -11 80q-12 24 -36 24q-23 0 -35 -24t-12 -80v-619q0 -57 12 -81q11 -23 35 -23t36 23q11 22 11 81v208h136v-204q0 -111 -50 -173t-133 -62q-82 0 -132 62t-50 173v610z" />
    <glyph glyph-name="ordfeminine" unicode="&#xaa;" horiz-adv-x="374" 
d="M48 947q0 61 17 90t66 62l66 43q30 21 30 55v46q0 63 -38 63t-38 -63v-86h-103v83q0 76 39 120q39 43 102 43t102 -43q39 -44 39 -120v-444q0 -54 3 -97q1 -21 5 -60l3 -16h-97q-7 29 -10 54q-27 -63 -89 -63q-42 0 -70 37q-27 36 -27 103v193zM151 958v-182
q0 -63 33 -63q15 0 25 10q11 11 15 22l4 11q-1 14 -1 70v229l-54 -43q-22 -16 -22 -54z" />
    <glyph glyph-name="guillemotleft" unicode="&#xab;" horiz-adv-x="523" 
d="M152 219l-133 352l133 353h133l-132 -353l132 -352h-133zM366 219l-133 352l133 353h132l-132 -353l132 -352h-132z" />
    <glyph glyph-name="logicalnot" unicode="&#xac;" horiz-adv-x="552" 
d="M40 475v131h473v-302h-132v171h-341z" />
    <glyph glyph-name="uni00AD" unicode="&#xad;" horiz-adv-x="378" 
d="M40 475v131h299v-131h-299z" />
    <glyph glyph-name="registered" unicode="&#xae;" horiz-adv-x="541" 
d="M341 1397q56 0 98 -40q40 -39 40 -95v-465q0 -57 -40 -96q-41 -39 -98 -39h-141q-57 0 -98 39q-40 39 -40 96v465q0 56 40 95q42 40 98 40h141zM200 688h141q45 0 77 32t32 77v465q0 44 -32 76t-77 32h-141q-45 0 -77 -32t-32 -76v-465q0 -45 32 -77t77 -32zM395 759h-82
q-12 24 -12 98v72q0 42 -34 42h-22v-212h-84v540h106q53 0 86 -30q32 -29 32 -85v-83q0 -62 -43 -93q43 -31 43 -94v-54q0 -30 3 -55q4 -30 5 -35zM245 1225v-179h22q34 0 34 41v97q0 41 -34 41h-22z" />
    <glyph glyph-name="macron" unicode="&#xaf;" horiz-adv-x="442" 
d="M48 1230v123h346v-123h-346z" />
    <glyph glyph-name="degree" unicode="&#xb0;" horiz-adv-x="427" 
d="M48 697v520q0 86 46 137q45 49 119 49t120 -49t46 -137v-520q0 -89 -46 -136q-47 -49 -120 -49t-119 49t-46 136zM170 1220v-526q0 -70 43 -70q44 0 44 70v526q0 71 -44 71q-43 0 -43 -71z" />
    <glyph glyph-name="plusminus" unicode="&#xb1;" horiz-adv-x="552" 
d="M40 427v131h170v171h132v-171h171v-131h-171v-171h-132v171h-170zM40 0v130h473v-130h-473z" />
    <glyph glyph-name="twosuperior" unicode="&#xb2;" horiz-adv-x="393" 
d="M353 1302q0 -84 -31 -143l-147 -283q-18 -36 -18 -103v-5h196v-104h-309v109q0 87 30 146l147 282q19 38 19 101v55q0 71 -41 71q-42 0 -42 -71v-117h-113v110q0 87 42 135t113 48q70 0 112 -48t42 -135v-48z" />
    <glyph glyph-name="threesuperior" unicode="&#xb3;" horiz-adv-x="408" 
d="M142 1165h62q42 0 42 72v120q0 71 -42 71q-41 0 -41 -71v-112h-114v106q0 86 42 134t113 48q70 0 112 -48t42 -134v-90q0 -102 -55 -148q55 -49 55 -147v-127q0 -87 -42 -135t-112 -48q-71 0 -113 48t-42 135v142h114v-148q0 -72 41 -72q42 0 42 72v156q0 72 -42 72h-62
v104z" />
    <glyph glyph-name="acute" unicode="&#xb4;" horiz-adv-x="301" 
d="M269 1430l-118 -222h-111l64 222h165z" />
    <glyph glyph-name="mu" unicode="&#xb5;" horiz-adv-x="493" 
d="M184 -10v-248h-134v1401h134v-919q0 -106 53 -106q24 0 42 21q18 22 24 41l5 22v941h135v-1143h-126l-7 68q-36 -80 -106 -80z" />
    <glyph glyph-name="paragraph" unicode="&#xb6;" horiz-adv-x="661" 
d="M263 -80v621q-99 0 -160 64t-61 177v367q0 114 61 178t160 64h342v-1471h-129v1341h-84v-1341h-129z" />
    <glyph glyph-name="periodcentered" unicode="&#xb7;" horiz-adv-x="230" 
d="M46 427v227h138v-227h-138z" />
    <glyph glyph-name="cedilla" unicode="&#xb8;" horiz-adv-x="315" 
d="M137 -93l-51 93h119l42 -76q28 -52 28 -90q0 -92 -115 -92h-116v115h88q19 0 19 17q0 8 -14 33z" />
    <glyph glyph-name="onesuperior" unicode="&#xb9;" horiz-adv-x="280" 
d="M225 1526v-862h-112v692l-94 -13v105q25 3 48 12q22 9 34 21q3 3 7.5 7t7.5 7.5t6 6.5q9 10 12 18l3 6h88z" />
    <glyph glyph-name="ordmasculine" unicode="&#xba;" horiz-adv-x="377" 
d="M48 777v463q0 76 39 120q39 43 102 43t102 -43q39 -44 39 -120v-463q0 -77 -39 -120t-102 -43t-102 43t-39 120zM151 1243v-469q0 -62 38 -62t38 62v469q0 63 -38 63t-38 -63z" />
    <glyph glyph-name="guillemotright" unicode="&#xbb;" horiz-adv-x="523" 
d="M504 571l-132 -352h-133l132 352l-132 353h133zM290 571l-132 -352h-132l132 352l-132 353h132z" />
    <glyph glyph-name="onequarter" unicode="&#xbc;" horiz-adv-x="961" 
d="M225 1385v-862h-112v692l-94 -12v105q25 3 48 12t34 20q15 15 21 22q10 11 12 16l3 7h88zM569 133v104l168 625h135v-625h64v-104h-64v-133h-112v133h-191zM663 237h97v420zM193 0l443 1391h96l-443 -1391h-96z" />
    <glyph glyph-name="onehalf" unicode="&#xbd;" horiz-adv-x="1015" 
d="M225 1385v-862h-112v692l-94 -12v105q25 3 48 12t34 20q15 15 21 22q10 11 12 16l3 7h88zM193 0l443 1391h96l-443 -1391h-96zM976 638q0 -81 -32 -142l-146 -284q-19 -38 -19 -102v-6h197v-104h-309v110q0 88 29 145l148 283q18 36 18 100v55q0 72 -41 72q-42 0 -42 -72
v-116h-112v109q0 87 42 135t112 48q71 0 113 -48t42 -135v-48z" />
    <glyph glyph-name="threequarters" unicode="&#xbe;" horiz-adv-x="1064" 
d="M142 1025h62q42 0 42 72v120q0 71 -42 71q-41 0 -41 -71v-112h-114v105q0 87 42 135t113 48q70 0 112 -48t42 -135v-90q0 -101 -55 -147q55 -49 55 -148v-127q0 -86 -42 -134t-112 -48q-71 0 -113 48t-42 134v143h114v-149q0 -71 41 -71q42 0 42 71v157q0 72 -42 72h-62
v104zM672 133v104l168 625h135v-625h63v-104h-63v-133h-113v133h-190zM765 237h97v420zM296 0l443 1391h97l-444 -1391h-96z" />
    <glyph glyph-name="questiondown" unicode="&#xbf;" horiz-adv-x="497" 
d="M310 847v-103q0 -85 -7 -120q-8 -38 -30 -86l-57 -127q-16 -34 -20 -64q-6 -40 -6 -102v-279q0 -106 66 -106t66 106v324h140v-319q0 -112 -57 -177q-57 -64 -149 -64t-149 64q-57 65 -57 177v274q0 93 9 137q10 46 32 87l72 135q26 49 32 71q7 26 7 69v103h108z
M323 1143v-228h-134v228h134z" />
    <glyph glyph-name="Agrave" unicode="&#xc0;" horiz-adv-x="507" 
d="M19 0l148 1391h179l142 -1391h-137l-22 256h-147l-21 -256h-142zM257 1123l-63 -741h123zM199 1456l-119 221h165l64 -221h-110z" />
    <glyph glyph-name="Aacute" unicode="&#xc1;" horiz-adv-x="507" 
d="M19 0l148 1391h179l142 -1391h-137l-22 256h-147l-21 -256h-142zM257 1123l-63 -741h123zM428 1677l-119 -221h-110l64 221h165z" />
    <glyph glyph-name="Acircumflex" unicode="&#xc2;" horiz-adv-x="507" 
d="M19 0l148 1391h179l142 -1391h-137l-22 256h-147l-21 -256h-142zM257 1123l-63 -741h123zM322 1456l-68 98l-68 -98h-115l107 221h152l107 -221h-115z" />
    <glyph glyph-name="Atilde" unicode="&#xc3;" horiz-adv-x="507" 
d="M19 0l148 1391h179l142 -1391h-137l-22 256h-147l-21 -256h-142zM257 1123l-63 -741h123zM292 1476l-73 41q-17 9 -24 9q-12 0 -12 -16v-54h-115v114q0 94 77 94q32 0 71 -22l73 -40q18 -10 24 -10q12 0 12 16v54h115v-114q0 -94 -78 -94q-31 0 -70 22z" />
    <glyph glyph-name="Adieresis" unicode="&#xc4;" horiz-adv-x="507" 
d="M19 0l148 1391h179l142 -1391h-137l-22 256h-147l-21 -256h-142zM257 1123l-63 -741h123zM91 1456v206h128v-206h-128zM288 1456v206h129v-206h-129z" />
    <glyph glyph-name="Aring" unicode="&#xc5;" horiz-adv-x="507" 
d="M19 0l148 1391h179l142 -1391h-137l-22 256h-147l-21 -256h-142zM257 1123l-63 -741h123zM92 1582q0 65 46 103q44 37 116 37q70 0 116 -37t46 -103t-46 -103t-116 -37q-72 0 -116 37q-46 38 -46 103zM254 1527q26 0 40 13q15 14 15 42q0 30 -15 43q-14 13 -40 13
q-24 0 -40 -13t-16 -43q0 -28 16 -41q17 -14 40 -14z" />
    <glyph glyph-name="Ccedilla" unicode="&#xc7;" horiz-adv-x="505" 
d="M195 1166v-942q0 -60 14 -82q15 -24 45 -24q29 0 44 24q14 22 14 82v376h142v-371q0 -97 -41 -159t-112 -77l38 -69q29 -53 29 -90q0 -92 -116 -92h-116v115h88q19 0 19 17q0 8 -14 33l-52 94q-57 23 -90 82t-33 146v932q0 114 55 178t145 64t145 -64t55 -178v-358h-142
v363q0 61 -14 83q-15 24 -44 24q-30 0 -45 -24q-14 -22 -14 -83z" />
    <glyph glyph-name="Egrave" unicode="&#xc8;" horiz-adv-x="428" 
d="M169 1456l-119 221h165l65 -221h-111zM56 0v1391h334v-130h-193v-494h163v-131h-163v-506h193v-130h-334z" />
    <glyph glyph-name="Eacute" unicode="&#xc9;" horiz-adv-x="428" 
d="M396 1677l-118 -221h-111l64 221h165zM56 0v1391h334v-130h-193v-494h163v-131h-163v-506h193v-130h-334z" />
    <glyph glyph-name="Ecircumflex" unicode="&#xca;" horiz-adv-x="428" 
d="M291 1456l-68 98l-67 -98h-116l107 221h152l108 -221h-116zM56 0v1391h334v-130h-193v-494h163v-131h-163v-506h193v-130h-334z" />
    <glyph glyph-name="Edieresis" unicode="&#xcb;" horiz-adv-x="428" 
d="M60 1456v206h128v-206h-128zM257 1456v206h129v-206h-129zM56 0v1391h334v-130h-193v-494h163v-131h-163v-506h193v-130h-334z" />
    <glyph glyph-name="Igrave" unicode="&#xcc;" horiz-adv-x="252" 
d="M56 0v1391h141v-1391h-141zM73 1456l-119 221h165l64 -221h-110z" />
    <glyph glyph-name="Iacute" unicode="&#xcd;" horiz-adv-x="252" 
d="M56 0v1391h141v-1391h-141zM299 1677l-119 -221h-110l64 221h165z" />
    <glyph glyph-name="Icircumflex" unicode="&#xce;" horiz-adv-x="252" 
d="M56 0v1391h141v-1391h-141zM195 1456l-68 98l-68 -98h-115l107 221h152l107 -221h-115z" />
    <glyph glyph-name="Idieresis" unicode="&#xcf;" horiz-adv-x="252" 
d="M56 0v1391h141v-1391h-141zM-36 1456v206h128v-206h-128zM161 1456v206h129v-206h-129z" />
    <glyph glyph-name="Eth" unicode="&#xd0;" horiz-adv-x="530" 
d="M10 636v131h67v624h178q99 0 160 -64t61 -178v-907q0 -114 -61 -178t-160 -64h-178v636h-67zM255 1261h-38v-494h59v-131h-59v-506h38q80 0 80 107v917q0 107 -80 107z" />
    <glyph glyph-name="Ntilde" unicode="&#xd1;" horiz-adv-x="567" 
d="M343 0l-149 964v-964h-138v1391h167l151 -970v970h137v-1391h-168zM322 1476l-73 41q-17 9 -25 9q-11 0 -11 -16v-54h-116v114q0 94 78 94q32 0 71 -22l72 -40q18 -10 25 -10q11 0 11 16v54h116v-114q0 -94 -78 -94q-31 0 -70 22z" />
    <glyph glyph-name="Ograve" unicode="&#xd2;" horiz-adv-x="518" 
d="M205 1456l-119 221h165l64 -221h-110zM54 229v932q0 114 56 178t149 64t149 -64t56 -178v-932q0 -114 -56 -178q-56 -63 -149 -63t-149 63q-56 64 -56 178zM195 1166v-942q0 -59 16 -82q17 -24 48 -24t48 24q16 23 16 82v942q0 60 -16 83q-17 24 -48 24q-33 0 -49 -24
q-15 -22 -15 -83z" />
    <glyph glyph-name="Oacute" unicode="&#xd3;" horiz-adv-x="518" 
d="M432 1677l-119 -221h-110l64 221h165zM54 229v932q0 114 56 178t149 64t149 -64t56 -178v-932q0 -114 -56 -178q-56 -63 -149 -63t-149 63q-56 64 -56 178zM195 1166v-942q0 -59 16 -82q17 -24 48 -24t48 24q16 23 16 82v942q0 60 -16 83q-17 24 -48 24q-33 0 -49 -24
q-15 -22 -15 -83z" />
    <glyph glyph-name="Ocircumflex" unicode="&#xd4;" horiz-adv-x="518" 
d="M327 1456l-68 98l-68 -98h-115l107 221h152l107 -221h-115zM54 229v932q0 114 56 178t149 64t149 -64t56 -178v-932q0 -114 -56 -178q-56 -63 -149 -63t-149 63q-56 64 -56 178zM195 1166v-942q0 -59 16 -82q17 -24 48 -24t48 24q16 23 16 82v942q0 60 -16 83
q-17 24 -48 24q-33 0 -49 -24q-15 -22 -15 -83z" />
    <glyph glyph-name="Otilde" unicode="&#xd5;" horiz-adv-x="518" 
d="M54 229v932q0 114 56 178t149 64t149 -64t56 -178v-932q0 -114 -56 -178q-56 -63 -149 -63t-149 63q-56 64 -56 178zM195 1166v-942q0 -59 16 -82q17 -24 48 -24t48 24q16 23 16 82v942q0 60 -16 83q-17 24 -48 24q-33 0 -49 -24q-15 -22 -15 -83zM297 1476l-73 41
q-16 9 -24 9q-12 0 -12 -16v-54h-115v114q0 94 78 94q31 0 70 -22l73 -40q18 -10 24 -10q12 0 12 16v54h115v-114q0 -94 -77 -94q-32 0 -71 22z" />
    <glyph glyph-name="Odieresis" unicode="&#xd6;" horiz-adv-x="518" 
d="M96 1456v206h128v-206h-128zM293 1456v206h129v-206h-129zM54 229v932q0 114 56 178t149 64t149 -64t56 -178v-932q0 -114 -56 -178q-56 -63 -149 -63t-149 63q-56 64 -56 178zM195 1166v-942q0 -59 16 -82q17 -24 48 -24t48 24q16 23 16 82v942q0 60 -16 83
q-17 24 -48 24q-33 0 -49 -24q-15 -22 -15 -83z" />
    <glyph glyph-name="multiply" unicode="&#xd7;" horiz-adv-x="532" 
d="M44 671l92 92l130 -130l130 130l92 -92l-130 -130l130 -130l-92 -93l-130 131l-130 -131l-92 93l130 130z" />
    <glyph glyph-name="Oslash" unicode="&#xd8;" horiz-adv-x="518" 
d="M54 -73l361 1536h49l-361 -1536h-49zM54 229v932q0 114 56 178t149 64t149 -64t56 -178v-932q0 -114 -56 -178q-56 -63 -149 -63t-149 63q-56 64 -56 178zM195 1166v-942q0 -59 16 -82q17 -24 48 -24t48 24q16 23 16 82v942q0 60 -16 83q-17 24 -48 24q-33 0 -49 -24
q-15 -22 -15 -83z" />
    <glyph glyph-name="Ugrave" unicode="&#xd9;" 
d="M203 1456l-119 221h165l64 -221h-110zM195 1391v-1167q0 -58 15 -82t47 -24q31 0 46 24t15 82v1167h142v-1162q0 -114 -56 -178q-56 -63 -147 -63q-92 0 -148 63q-55 62 -55 178v1162h141z" />
    <glyph glyph-name="Uacute" unicode="&#xda;" 
d="M430 1677l-119 -221h-110l64 221h165zM195 1391v-1167q0 -58 15 -82t47 -24q31 0 46 24t15 82v1167h142v-1162q0 -114 -56 -178q-56 -63 -147 -63q-92 0 -148 63q-55 62 -55 178v1162h141z" />
    <glyph glyph-name="Ucircumflex" unicode="&#xdb;" 
d="M325 1456l-68 98l-68 -98h-115l107 221h152l107 -221h-115zM195 1391v-1167q0 -58 15 -82t47 -24q31 0 46 24t15 82v1167h142v-1162q0 -114 -56 -178q-56 -63 -147 -63q-92 0 -148 63q-55 62 -55 178v1162h141z" />
    <glyph glyph-name="Udieresis" unicode="&#xdc;" 
d="M94 1456v206h128v-206h-128zM291 1456v206h129v-206h-129zM195 1391v-1167q0 -58 15 -82t47 -24q31 0 46 24t15 82v1167h142v-1162q0 -114 -56 -178q-56 -63 -147 -63q-92 0 -148 63q-55 62 -55 178v1162h141z" />
    <glyph glyph-name="Yacute" unicode="&#xdd;" horiz-adv-x="520" 
d="M189 0v397l-180 994h145l106 -734l106 734h145l-181 -994v-397h-141zM433 1677l-119 -221h-110l64 221h165z" />
    <glyph glyph-name="Thorn" unicode="&#xde;" horiz-adv-x="503" 
d="M56 0v1391h141v-236h44q98 0 159 -64q62 -65 62 -178v-311q0 -113 -62 -178q-61 -64 -159 -64h-44v-360h-141zM241 1025h-44v-535h44q80 0 80 107v322q0 106 -80 106z" />
    <glyph glyph-name="germandbls" unicode="&#xdf;" horiz-adv-x="497" 
d="M237 0v130h16q31 0 46 24t15 83v298q0 57 -15 81t-48 24h-14v131h12q30 0 45 24q14 22 14 82v289q0 59 -15 83t-46 24q-32 0 -47 -24q-16 -26 -16 -83v-1166h-134v1161q0 115 54 178q55 64 143 64t142 -64q54 -65 54 -178v-264q0 -123 -63 -189q70 -67 70 -194v-272
q0 -115 -55 -179q-54 -63 -144 -63h-14z" />
    <glyph glyph-name="agrave" unicode="&#xe0;" horiz-adv-x="485" 
d="M48 468q0 62 12 100q12 37 35 63q19 22 74 62l93 69q26 19 31 31q7 16 7 43v83q0 60 -14 82q-15 24 -44 24q-30 0 -45 -24t-15 -82v-140h-134v134q0 115 53 179q53 63 141 63t140 -63q53 -64 53 -179v-657q0 -86 4 -143q5 -72 8 -88l5 -25h-129q-9 34 -13 82
q-39 -94 -124 -94q-62 0 -100 53t-38 155v272zM182 488v-261q0 -106 50 -106q48 0 70 76q-2 42 -2 105v343l-84 -75q-34 -30 -34 -82zM187 1208l-118 222h164l65 -222h-111z" />
    <glyph glyph-name="aacute" unicode="&#xe1;" horiz-adv-x="485" 
d="M48 468q0 62 12 100q12 37 35 63q19 22 74 62l93 69q26 19 31 31q7 16 7 43v83q0 60 -14 82q-15 24 -44 24q-30 0 -45 -24t-15 -82v-140h-134v134q0 115 53 179q53 63 141 63t140 -63q53 -64 53 -179v-657q0 -86 4 -143q5 -72 8 -88l5 -25h-129q-9 34 -13 82
q-39 -94 -124 -94q-62 0 -100 53t-38 155v272zM182 488v-261q0 -106 50 -106q48 0 70 76q-2 42 -2 105v343l-84 -75q-34 -30 -34 -82zM415 1430l-119 -222h-111l65 222h165z" />
    <glyph glyph-name="acircumflex" unicode="&#xe2;" horiz-adv-x="485" 
d="M48 468q0 62 12 100q12 37 35 63q19 22 74 62l93 69q26 19 31 31q7 16 7 43v83q0 60 -14 82q-15 24 -44 24q-30 0 -45 -24t-15 -82v-140h-134v134q0 115 53 179q53 63 141 63t140 -63q53 -64 53 -179v-657q0 -86 4 -143q5 -72 8 -88l5 -25h-129q-9 34 -13 82
q-39 -94 -124 -94q-62 0 -100 53t-38 155v272zM182 488v-261q0 -106 50 -106q48 0 70 76q-2 42 -2 105v343l-84 -75q-34 -30 -34 -82zM309 1208l-67 99l-68 -99h-116l108 222h151l108 -222h-116z" />
    <glyph glyph-name="atilde" unicode="&#xe3;" horiz-adv-x="485" 
d="M48 468q0 62 12 100q12 37 35 63q19 22 74 62l93 69q26 19 31 31q7 16 7 43v83q0 60 -14 82q-15 24 -44 24q-30 0 -45 -24t-15 -82v-140h-134v134q0 115 53 179q53 63 141 63t140 -63q53 -64 53 -179v-657q0 -86 4 -143q5 -72 8 -88l5 -25h-129q-9 34 -13 82
q-39 -94 -124 -94q-62 0 -100 53t-38 155v272zM182 488v-261q0 -106 50 -106q48 0 70 76q-2 42 -2 105v343l-84 -75q-34 -30 -34 -82zM280 1228l-73 41q-16 9 -25 9q-11 0 -11 -15v-55h-116v114q0 94 78 94q33 0 71 -21l72 -41q16 -9 25 -9q11 0 11 15v54h116v-114
q0 -94 -78 -94q-31 0 -70 22z" />
    <glyph glyph-name="adieresis" unicode="&#xe4;" horiz-adv-x="485" 
d="M48 468q0 62 12 100q12 37 35 63q19 22 74 62l93 69q26 19 31 31q7 16 7 43v83q0 60 -14 82q-15 24 -44 24q-30 0 -45 -24t-15 -82v-140h-134v134q0 115 53 179q53 63 141 63t140 -63q53 -64 53 -179v-657q0 -86 4 -143q5 -72 8 -88l5 -25h-129q-9 34 -13 82
q-39 -94 -124 -94q-62 0 -100 53t-38 155v272zM182 488v-261q0 -106 50 -106q48 0 70 76q-2 42 -2 105v343l-84 -75q-34 -30 -34 -82zM79 1208v206h128v-206h-128zM275 1208v206h129v-206h-129z" />
    <glyph glyph-name="aring" unicode="&#xe5;" horiz-adv-x="485" 
d="M48 468q0 62 12 100q12 37 35 63q19 22 74 62l93 69q26 19 31 31q7 16 7 43v83q0 60 -14 82q-15 24 -44 24q-30 0 -45 -24t-15 -82v-140h-134v134q0 115 53 179q53 63 141 63t140 -63q53 -64 53 -179v-657q0 -86 4 -143q5 -72 8 -88l5 -25h-129q-9 34 -13 82
q-39 -94 -124 -94q-62 0 -100 53t-38 155v272zM182 488v-261q0 -106 50 -106q48 0 70 76q-2 42 -2 105v343l-84 -75q-34 -30 -34 -82zM80 1334q0 66 45 103q46 38 117 38q68 0 115 -38q46 -37 46 -103t-46 -103t-115 -37q-73 0 -117 37q-45 37 -45 103zM242 1279q26 0 40 13
q15 14 15 42q0 30 -15 43q-16 14 -40 14t-41 -14q-16 -13 -16 -43q0 -28 16 -41q17 -14 41 -14z" />
    <glyph glyph-name="ccedilla" unicode="&#xe7;" horiz-adv-x="483" 
d="M182 919v-695q0 -58 15 -82t45 -24t45 24q14 22 14 82v246h134v-241q0 -97 -39 -159t-108 -77l39 -69q28 -52 28 -90q0 -92 -115 -92h-116v115h88q18 0 18 17q0 10 -13 33l-52 95q-56 24 -86 82q-31 60 -31 145v684q0 115 53 179q53 63 140 63q89 0 141 -63
q53 -64 53 -179v-240h-134v246q0 60 -14 82q-15 24 -45 24t-45 -24t-15 -82z" />
    <glyph glyph-name="egrave" unicode="&#xe8;" horiz-adv-x="483" 
d="M187 1208l-118 222h164l65 -222h-111zM182 468v-244q0 -58 15 -82t45 -24q29 0 44 24t15 82v146h134v-141q0 -114 -53 -178q-52 -63 -140 -63t-141 63q-53 64 -53 178v684q0 115 53 179q53 63 141 63t140 -63q53 -64 53 -179v-445h-253zM182 919v-329h119v329
q0 58 -15 82t-44 24q-30 0 -45 -24t-15 -82z" />
    <glyph glyph-name="eacute" unicode="&#xe9;" horiz-adv-x="483" 
d="M415 1430l-119 -222h-111l65 222h165zM182 468v-244q0 -58 15 -82t45 -24q29 0 44 24t15 82v146h134v-141q0 -114 -53 -178q-52 -63 -140 -63t-141 63q-53 64 -53 178v684q0 115 53 179q53 63 141 63t140 -63q53 -64 53 -179v-445h-253zM182 919v-329h119v329
q0 58 -15 82t-44 24q-30 0 -45 -24t-15 -82z" />
    <glyph glyph-name="ecircumflex" unicode="&#xea;" horiz-adv-x="483" 
d="M242 1307l-68 -99h-116l108 222h151l108 -222h-116zM182 468v-244q0 -58 15 -82t45 -24q29 0 44 24t15 82v146h134v-141q0 -114 -53 -178q-52 -63 -140 -63t-141 63q-53 64 -53 178v684q0 115 53 179q53 63 141 63t140 -63q53 -64 53 -179v-445h-253zM182 919v-329h119
v329q0 58 -15 82t-44 24q-30 0 -45 -24t-15 -82z" />
    <glyph glyph-name="edieresis" unicode="&#xeb;" horiz-adv-x="483" 
d="M404 1414v-206h-128v206h128zM208 1414v-206h-129v206h129zM182 468v-244q0 -58 15 -82t45 -24q29 0 44 24t15 82v146h134v-141q0 -114 -53 -178q-52 -63 -140 -63t-141 63q-53 64 -53 178v684q0 115 53 179q53 63 141 63t140 -63q53 -64 53 -179v-445h-253zM182 919
v-329h119v329q0 58 -15 82t-44 24q-30 0 -45 -24t-15 -82z" />
    <glyph glyph-name="igrave" unicode="&#xec;" horiz-adv-x="234" 
d="M63 1208l-118 222h165l64 -222h-111zM50 0v1143h134v-1143h-134z" />
    <glyph glyph-name="iacute" unicode="&#xed;" horiz-adv-x="234" 
d="M290 1430l-119 -222h-111l65 222h165zM50 0v1143h134v-1143h-134z" />
    <glyph glyph-name="icircumflex" unicode="&#xee;" horiz-adv-x="234" 
d="M185 1208l-67 99l-68 -99h-116l108 222h152l107 -222h-116zM50 0v1143h134v-1143h-134z" />
    <glyph glyph-name="idieresis" unicode="&#xef;" horiz-adv-x="234" 
d="M-45 1208v206h128v-206h-128zM152 1208v206h129v-206h-129zM50 0v1143h134v-1143h-134z" />
    <glyph glyph-name="eth" unicode="&#xf0;" horiz-adv-x="489" 
d="M441 937v-708q0 -113 -54 -177t-142 -64q-89 0 -143 63t-54 178v718q0 104 35 155q36 53 94 53q38 0 67 -19q28 -18 41 -39l11 -20q-17 37 -67 110l-137 204h149l101 -151q57 -85 79 -152q20 -61 20 -151zM182 915v-691q0 -56 16 -82q15 -24 47 -24q31 0 46 24t15 82v715
q-1 1 -1.5 4t-0.5 5l-8 20q-5 12 -14 25q-8 11 -21 20t-29 9q-50 0 -50 -107zM69 1177v98l372 116v-100z" />
    <glyph glyph-name="ntilde" unicode="&#xf1;" horiz-adv-x="493" 
d="M443 0v947q0 101 -38 154q-39 54 -100 54q-84 0 -123 -86l-7 74h-125v-1143h134v939q1 4 7 23q5 15 24 37q20 23 43 23q50 0 50 -107v-915h135zM285 1228l-73 41q-17 9 -25 9q-11 0 -11 -15v-55h-116v114q0 94 78 94q34 0 71 -21l73 -41q16 -9 24 -9q11 0 11 15v54h116
v-114q0 -94 -78 -94q-31 0 -70 22z" />
    <glyph glyph-name="ograve" unicode="&#xf2;" horiz-adv-x="495" 
d="M194 1208l-119 222h165l64 -222h-110zM48 229v684q0 117 55 179q56 63 145 63q90 0 145 -63q54 -61 54 -179v-684q0 -117 -54 -178q-55 -63 -145 -63t-145 63q-55 62 -55 178zM182 919v-695q0 -57 17 -82q16 -24 49 -24q32 0 49 24q16 23 16 82v695q0 59 -16 82
q-17 24 -49 24q-33 0 -49 -24q-17 -25 -17 -82z" />
    <glyph glyph-name="oacute" unicode="&#xf3;" horiz-adv-x="495" 
d="M421 1430l-119 -222h-111l65 222h165zM48 229v684q0 117 55 179q56 63 145 63q90 0 145 -63q54 -61 54 -179v-684q0 -117 -54 -178q-55 -63 -145 -63t-145 63q-55 62 -55 178zM182 919v-695q0 -57 17 -82q16 -24 49 -24q32 0 49 24q16 23 16 82v695q0 59 -16 82
q-17 24 -49 24q-33 0 -49 -24q-17 -25 -17 -82z" />
    <glyph glyph-name="ocircumflex" unicode="&#xf4;" horiz-adv-x="495" 
d="M315 1208l-67 99l-68 -99h-115l107 222h152l107 -222h-116zM48 229v684q0 117 55 179q56 63 145 63q90 0 145 -63q54 -61 54 -179v-684q0 -117 -54 -178q-55 -63 -145 -63t-145 63q-55 62 -55 178zM182 919v-695q0 -57 17 -82q16 -24 49 -24q32 0 49 24q16 23 16 82v695
q0 59 -16 82q-17 24 -49 24q-33 0 -49 -24q-17 -25 -17 -82z" />
    <glyph glyph-name="otilde" unicode="&#xf5;" horiz-adv-x="495" 
d="M48 229v684q0 117 55 179q56 63 145 63q90 0 145 -63q54 -61 54 -179v-684q0 -117 -54 -178q-55 -63 -145 -63t-145 63q-55 62 -55 178zM182 919v-695q0 -57 17 -82q16 -24 49 -24q32 0 49 24q16 23 16 82v695q0 59 -16 82q-17 24 -49 24q-33 0 -49 -24q-17 -25 -17 -82z
M286 1228l-73 41q-16 9 -25 9q-11 0 -11 -15v-55h-116v114q0 94 78 94q33 0 71 -21l73 -41q17 -9 24 -9q11 0 11 15v54h116v-114q0 -94 -78 -94q-31 0 -70 22z" />
    <glyph glyph-name="odieresis" unicode="&#xf6;" horiz-adv-x="495" 
d="M85 1208v206h128v-206h-128zM282 1208v206h129v-206h-129zM48 229v684q0 117 55 179q56 63 145 63q90 0 145 -63q54 -61 54 -179v-684q0 -117 -54 -178q-55 -63 -145 -63t-145 63q-55 62 -55 178zM182 919v-695q0 -57 17 -82q16 -24 49 -24q32 0 49 24q16 23 16 82v695
q0 59 -16 82q-17 24 -49 24q-33 0 -49 -24q-17 -25 -17 -82z" />
    <glyph glyph-name="divide" unicode="&#xf7;" horiz-adv-x="552" 
d="M344 670h-135v168h135v-168zM209 412h135v-168h-135v168zM40 475v131h473v-131h-473z" />
    <glyph glyph-name="oslash" unicode="&#xf8;" horiz-adv-x="495" 
d="M48 -73l350 1288h49l-350 -1288h-49zM48 229v684q0 117 55 179q56 63 145 63q90 0 145 -63q54 -61 54 -179v-684q0 -117 -54 -178q-55 -63 -145 -63t-145 63q-55 62 -55 178zM182 919v-695q0 -57 17 -82q16 -24 49 -24q32 0 49 24q16 23 16 82v695q0 59 -16 82
q-17 24 -49 24q-33 0 -49 -24q-17 -25 -17 -82z" />
    <glyph glyph-name="ugrave" unicode="&#xf9;" horiz-adv-x="493" 
d="M193 1208l-119 222h165l64 -222h-110zM50 196v947h134v-919q0 -106 52 -106q24 0 42 21q18 22 24 41l6 21v942h135v-1143h-126l-7 72q-40 -84 -122 -84q-61 0 -99 53q-39 54 -39 155z" />
    <glyph glyph-name="uacute" unicode="&#xfa;" horiz-adv-x="493" 
d="M420 1430l-119 -222h-111l65 222h165zM50 1143v-947q0 -101 39 -155q38 -53 99 -53q82 0 122 84l7 -72h126v1143h-135v-942q0 -1 -0.5 -2.5l-1 -3t-0.5 -3.5t-1.5 -4.5t-3.5 -7t-3 -8.5q-5 -12 -14 -25t-20 -20q-14 -9 -28 -9q-52 0 -52 106v919h-134z" />
    <glyph glyph-name="ucircumflex" unicode="&#xfb;" horiz-adv-x="493" 
d="M314 1208l-67 99l-68 -99h-116l108 222h152l107 -222h-116zM50 1143v-947q0 -101 39 -155q38 -53 99 -53q82 0 122 84l7 -72h126v1143h-135v-942q0 -1 -0.5 -2.5l-1 -3t-0.5 -3.5t-1.5 -4.5t-3.5 -7t-3 -8.5q-5 -12 -14 -25t-20 -20q-14 -9 -28 -9q-52 0 -52 106v919
h-134z" />
    <glyph glyph-name="udieresis" unicode="&#xfc;" horiz-adv-x="493" 
d="M84 1208v206h128v-206h-128zM281 1208v206h129v-206h-129zM50 1143v-947q0 -101 39 -155q38 -53 99 -53q82 0 122 84l7 -72h126v1143h-135v-942q0 -1 -0.5 -2.5l-1 -3t-0.5 -3.5t-1.5 -4.5t-3.5 -7t-3 -8.5q-5 -12 -14 -25t-20 -20q-14 -9 -28 -9q-52 0 -52 106v919h-134
z" />
    <glyph glyph-name="yacute" unicode="&#xfd;" horiz-adv-x="470" 
d="M144 1143l76 -828l105 828h136l-213 -1401h-131l38 232l-146 1169h135zM408 1430l-119 -222h-111l65 222h165z" />
    <glyph glyph-name="thorn" unicode="&#xfe;" horiz-adv-x="491" 
d="M443 947v-751q0 -102 -38 -155t-100 -53q-84 0 -121 82v-328h-134v1649h134v-318q37 82 121 82q61 0 100 -54q38 -53 38 -154zM308 227v688q0 107 -50 107q-23 0 -42 -22q-20 -22 -24 -36q-7 -21 -8 -25v-734q1 -4 7 -23q5 -14 24 -38q19 -23 43 -23q50 0 50 106z" />
    <glyph glyph-name="ydieresis" unicode="&#xff;" horiz-adv-x="470" 
d="M144 1143l76 -828l105 828h136l-213 -1401h-131l38 232l-146 1169h135zM72 1208v206h128v-206h-128zM268 1208v206h129v-206h-129z" />
    <glyph glyph-name="Amacron" unicode="&#x100;" horiz-adv-x="507" 
d="M19 0l148 1391h179l142 -1391h-137l-22 256h-147l-21 -256h-142zM257 1123l-63 -741h123zM81 1478v123h346v-123h-346z" />
    <glyph glyph-name="amacron" unicode="&#x101;" horiz-adv-x="485" 
d="M48 468q0 62 12 100q12 37 35 63q19 22 74 62l93 69q26 19 31 31q7 16 7 43v83q0 60 -14 82q-15 24 -44 24q-30 0 -45 -24t-15 -82v-140h-134v134q0 115 53 179q53 63 141 63t140 -63q53 -64 53 -179v-657q0 -86 4 -143q5 -72 8 -88l5 -25h-129q-9 34 -13 82
q-39 -94 -124 -94q-62 0 -100 53t-38 155v272zM182 488v-261q0 -106 50 -106q48 0 70 76q-2 42 -2 105v343l-84 -75q-34 -30 -34 -82zM69 1230v123h346v-123h-346z" />
    <glyph glyph-name="Abreve" unicode="&#x102;" horiz-adv-x="507" 
d="M19 0l148 1391h179l142 -1391h-137l-22 256h-147l-21 -256h-142zM257 1123l-63 -741h123zM424 1673v-19q0 -96 -45 -149t-125 -53t-125 53t-45 149v19h113v-18q0 -106 57 -106t57 106v18h113z" />
    <glyph glyph-name="abreve" unicode="&#x103;" horiz-adv-x="485" 
d="M48 468q0 62 12 100q12 37 35 63q19 22 74 62l93 69q26 19 31 31q7 16 7 43v83q0 60 -14 82q-15 24 -44 24q-30 0 -45 -24t-15 -82v-140h-134v134q0 115 53 179q53 63 141 63t140 -63q53 -64 53 -179v-657q0 -86 4 -143q5 -72 8 -88l5 -25h-129q-9 34 -13 82
q-39 -94 -124 -94q-62 0 -100 53t-38 155v272zM182 488v-261q0 -106 50 -106q48 0 70 76q-2 42 -2 105v343l-84 -75q-34 -30 -34 -82zM412 1425v-19q0 -96 -45 -149t-125 -53t-125 53t-45 149v19h112v-18q0 -105 58 -105q57 0 57 105v18h113z" />
    <glyph glyph-name="Aogonek" unicode="&#x104;" horiz-adv-x="507" 
d="M19 0l148 1391h179l142 -1391l-93 -102q-13 -14 -13 -27q0 -14 17 -14h81v-115h-134q-106 0 -106 85q0 27 12 50q10 20 43 57l56 64l-22 258h-147l-21 -256h-142zM257 1123l-63 -741h123z" />
    <glyph glyph-name="aogonek" unicode="&#x105;" horiz-adv-x="485" 
d="M48 468q0 62 12 100q12 37 35 63q19 22 74 62l93 69q26 19 31 31q7 16 7 43v83q0 60 -14 82q-15 24 -44 24q-30 0 -45 -24t-15 -82v-140h-134v134q0 115 53 179q53 63 141 63t140 -63q53 -64 53 -179v-657q0 -86 4 -143q5 -72 8 -88l5 -25l-94 -102q-13 -14 -13 -27
q0 -14 17 -14h81v-115h-134q-106 0 -106 85q0 27 12 50q10 20 43 57l64 72q-7 29 -12 76q-39 -94 -124 -94q-62 0 -100 53t-38 155v272zM182 488v-261q0 -106 50 -106q48 0 70 76q-2 42 -2 105v343l-84 -75q-34 -30 -34 -82z" />
    <glyph glyph-name="Cacute" unicode="&#x106;" horiz-adv-x="505" 
d="M427 1677l-119 -221h-110l64 221h165zM195 1166v-942q0 -60 14 -82q15 -24 45 -24q29 0 44 24q14 22 14 82v376h142v-371q0 -114 -55 -178q-54 -63 -145 -63t-145 63q-55 64 -55 178v932q0 114 55 178t145 64t145 -64t55 -178v-358h-142v363q0 61 -14 83q-15 24 -44 24
q-30 0 -45 -24q-14 -22 -14 -83z" />
    <glyph glyph-name="cacute" unicode="&#x107;" horiz-adv-x="483" 
d="M415 1430l-119 -222h-111l65 222h165zM182 919v-695q0 -58 15 -82t45 -24t45 24q14 22 14 82v246h134v-241q0 -114 -53 -178q-52 -63 -141 -63q-87 0 -140 63q-53 64 -53 178v684q0 115 53 179q53 63 140 63q89 0 141 -63q53 -64 53 -179v-240h-134v246q0 60 -14 82
q-15 24 -45 24t-45 -24t-15 -82z" />
    <glyph glyph-name="Ccircumflex" unicode="&#x108;" horiz-adv-x="505" 
d="M322 1456l-68 98l-68 -98h-115l107 221h152l107 -221h-115zM195 1166v-942q0 -60 14 -82q15 -24 45 -24q29 0 44 24q14 22 14 82v376h142v-371q0 -114 -55 -178q-54 -63 -145 -63t-145 63q-55 64 -55 178v932q0 114 55 178t145 64t145 -64t55 -178v-358h-142v363
q0 61 -14 83q-15 24 -44 24q-30 0 -45 -24q-14 -22 -14 -83z" />
    <glyph glyph-name="ccircumflex" unicode="&#x109;" horiz-adv-x="483" 
d="M309 1208l-67 99l-68 -99h-116l108 222h151l108 -222h-116zM182 919v-695q0 -58 15 -82t45 -24t45 24q14 22 14 82v246h134v-241q0 -114 -53 -178q-52 -63 -141 -63q-87 0 -140 63q-53 64 -53 178v684q0 115 53 179q53 63 140 63q89 0 141 -63q53 -64 53 -179v-240h-134
v246q0 60 -14 82q-15 24 -45 24t-45 -24t-15 -82z" />
    <glyph glyph-name="Cdotaccent" unicode="&#x10a;" horiz-adv-x="505" 
d="M195 1166v-942q0 -60 14 -82q15 -24 45 -24q29 0 44 24q14 22 14 82v376h142v-371q0 -114 -55 -178q-54 -63 -145 -63t-145 63q-55 64 -55 178v932q0 114 55 178t145 64t145 -64t55 -178v-358h-142v363q0 61 -14 83q-15 24 -44 24q-30 0 -45 -24q-14 -22 -14 -83z
M181 1456v184h146v-184h-146z" />
    <glyph glyph-name="cdotaccent" unicode="&#x10b;" horiz-adv-x="483" 
d="M182 919v-695q0 -58 15 -82t45 -24t45 24q14 22 14 82v246h134v-241q0 -114 -53 -178q-52 -63 -141 -63q-87 0 -140 63q-53 64 -53 178v684q0 115 53 179q53 63 140 63q89 0 141 -63q53 -64 53 -179v-240h-134v246q0 60 -14 82q-15 24 -45 24t-45 -24t-15 -82zM169 1208
v185h145v-185h-145z" />
    <glyph glyph-name="Ccaron" unicode="&#x10c;" horiz-adv-x="505" 
d="M254 1579l68 98h115l-107 -221h-152l-107 221h115zM195 1166v-942q0 -60 14 -82q15 -24 45 -24q29 0 44 24q14 22 14 82v376h142v-371q0 -114 -55 -178q-54 -63 -145 -63t-145 63q-55 64 -55 178v932q0 114 55 178t145 64t145 -64t55 -178v-358h-142v363q0 61 -14 83
q-15 24 -44 24q-30 0 -45 -24q-14 -22 -14 -83z" />
    <glyph glyph-name="ccaron" unicode="&#x10d;" horiz-adv-x="483" 
d="M242 1331l67 99h116l-108 -222h-151l-108 222h116zM182 919v-695q0 -58 15 -82t45 -24t45 24q14 22 14 82v246h134v-241q0 -114 -53 -178q-52 -63 -141 -63q-87 0 -140 63q-53 64 -53 178v684q0 115 53 179q53 63 140 63q89 0 141 -63q53 -64 53 -179v-240h-134v246
q0 60 -14 82q-15 24 -45 24t-45 -24t-15 -82z" />
    <glyph glyph-name="Dcaron" unicode="&#x10e;" horiz-adv-x="509" 
d="M250 1579l67 98h116l-107 -221h-152l-107 221h115zM56 0v1391h178q99 0 160 -64q62 -65 62 -178v-907q0 -113 -62 -178q-61 -64 -160 -64h-178zM234 1261h-37v-1131h37q80 0 80 107v917q0 107 -80 107z" />
    <glyph glyph-name="dcaron" unicode="&#x10f;" horiz-adv-x="491" 
d="M652 1391l-59 -223h-101l13 223h147zM48 947v-751q0 -101 39 -155q38 -53 99 -53q81 0 122 86l7 -74h126v1391h-135v-318q-40 82 -120 82q-60 0 -99 -54t-39 -154zM182 227v688q0 107 51 107q25 0 43 -21q19 -22 24 -40l6 -22v-735q0 -1 -0.5 -2.5l-1 -3t-0.5 -3.5
l-8 -20q-5 -12 -14 -25t-20 -20q-14 -9 -29 -9q-51 0 -51 106z" />
    <glyph glyph-name="Dcroat" unicode="&#x110;" horiz-adv-x="530" 
d="M10 636v131h67v624h178q99 0 160 -64t61 -178v-907q0 -114 -61 -178t-160 -64h-178v636h-67zM255 1261h-38v-494h59v-131h-59v-506h38q80 0 80 107v917q0 107 -80 107z" />
    <glyph glyph-name="dcroat" unicode="&#x111;" horiz-adv-x="491" 
d="M48 196v751q0 100 39 154t99 54q80 0 120 -82v147h-140v96h140v75h135v-75h61v-96h-61v-1220h-126l-7 74q-41 -86 -122 -86q-61 0 -99 53q-39 54 -39 155zM182 915v-688q0 -106 51 -106q25 0 42 20q20 23 25 41l6 22v735q-2 10 -6 23q-4 12 -24 37q-18 23 -43 23
q-51 0 -51 -107z" />
    <glyph glyph-name="Emacron" unicode="&#x112;" horiz-adv-x="428" 
d="M56 0v1391h334v-130h-193v-494h163v-131h-163v-506h193v-130h-334zM50 1478v123h346v-123h-346z" />
    <glyph glyph-name="emacron" unicode="&#x113;" horiz-adv-x="483" 
d="M182 468v-244q0 -58 15 -82t45 -24q29 0 44 24t15 82v146h134v-141q0 -114 -53 -178q-52 -63 -140 -63t-141 63q-53 64 -53 178v684q0 115 53 179q53 63 141 63t140 -63q53 -64 53 -179v-445h-253zM182 919v-329h119v329q0 58 -15 82t-44 24q-30 0 -45 -24t-15 -82z
M415 1353v-123h-346v123h346z" />
    <glyph glyph-name="Ebreve" unicode="&#x114;" horiz-adv-x="428" 
d="M56 0v1391h334v-130h-193v-494h163v-131h-163v-506h193v-130h-334zM393 1673v-19q0 -96 -45 -149t-125 -53t-125 53t-45 149v19h113v-18q0 -106 57 -106q58 0 58 106v18h112z" />
    <glyph glyph-name="ebreve" unicode="&#x115;" horiz-adv-x="483" 
d="M182 468v-244q0 -58 15 -82t45 -24q29 0 44 24t15 82v146h134v-141q0 -114 -53 -178q-52 -63 -140 -63t-141 63q-53 64 -53 178v684q0 115 53 179q53 63 141 63t140 -63q53 -64 53 -179v-445h-253zM182 919v-329h119v329q0 58 -15 82t-44 24q-30 0 -45 -24t-15 -82z
M72 1406v19h112v-18q0 -105 58 -105q57 0 57 105v18h113v-19q0 -96 -45 -149t-125 -53t-125 53t-45 149z" />
    <glyph glyph-name="Edotaccent" unicode="&#x116;" horiz-adv-x="428" 
d="M56 0v1391h334v-130h-193v-494h163v-131h-163v-506h193v-130h-334zM151 1456v184h145v-184h-145z" />
    <glyph glyph-name="edotaccent" unicode="&#x117;" horiz-adv-x="483" 
d="M182 468v-244q0 -58 15 -82t45 -24q29 0 44 24t15 82v146h134v-141q0 -114 -53 -178q-52 -63 -140 -63t-141 63q-53 64 -53 178v684q0 115 53 179q53 63 141 63t140 -63q53 -64 53 -179v-445h-253zM182 919v-329h119v329q0 58 -15 82t-44 24q-30 0 -45 -24t-15 -82z
M314 1393v-185h-145v185h145z" />
    <glyph glyph-name="Eogonek" unicode="&#x118;" horiz-adv-x="428" 
d="M56 0v1391h334v-130h-193v-494h163v-131h-163v-506h193v-130l-93 -102q-13 -14 -13 -27q0 -14 17 -14h81v-115h-134q-107 0 -107 85q0 26 13 50q10 20 43 57l58 66h-199z" />
    <glyph glyph-name="eogonek" unicode="&#x119;" horiz-adv-x="483" 
d="M182 468v-244q0 -58 15 -82t45 -24q29 0 44 24t15 82v146h134v-141q0 -120 -58 -184l-134 -147q-14 -16 -14 -27q0 -14 18 -14h81v-115h-134q-107 0 -107 85q0 27 12 50q10 20 43 57l53 59q-69 15 -108 77q-39 61 -39 159v684q0 115 53 179q53 63 141 63t140 -63
q53 -64 53 -179v-445h-253zM182 919v-329h119v329q0 58 -15 82t-44 24q-30 0 -45 -24t-15 -82z" />
    <glyph glyph-name="Ecaron" unicode="&#x11a;" horiz-adv-x="428" 
d="M223 1579l68 98h116l-108 -221h-152l-107 221h116zM56 0v1391h334v-130h-193v-494h163v-131h-163v-506h193v-130h-334z" />
    <glyph glyph-name="ecaron" unicode="&#x11b;" horiz-adv-x="483" 
d="M174 1430l68 -99l67 99h116l-108 -222h-151l-108 222h116zM182 468v-244q0 -58 15 -82t45 -24q29 0 44 24t15 82v146h134v-141q0 -114 -53 -178q-52 -63 -140 -63t-141 63q-53 64 -53 178v684q0 115 53 179q53 63 141 63t140 -63q53 -64 53 -179v-445h-253zM182 919v-329
h119v329q0 58 -15 82t-44 24q-30 0 -45 -24t-15 -82z" />
    <glyph glyph-name="Gcircumflex" unicode="&#x11c;" horiz-adv-x="516" 
d="M326 1456l-68 98l-68 -98h-115l107 221h152l107 -221h-115zM462 0h-114l-11 57q-43 -69 -126 -69q-73 0 -115 54t-42 154v965q0 114 56 178t148 64q93 0 149 -64q55 -62 55 -178v-199h-140v204q0 60 -16 83q-16 24 -48 24t-48 -24q-15 -22 -15 -83v-939q0 -60 15 -82
q16 -24 48 -24t48 24q16 23 16 82v401h-64v131h204v-759z" />
    <glyph glyph-name="gcircumflex" unicode="&#x11d;" horiz-adv-x="491" 
d="M324 1208l-68 99l-68 -99h-115l107 222h152l107 -222h-115zM48 196v751q0 100 39 154t99 54q81 0 122 -86l7 74h126v-1186q0 -111 -51 -169t-145 -58q-91 0 -142 52q-50 52 -55 158h134q2 -48 17 -65q17 -18 46 -18q32 0 46 20q15 21 15 74v119q-40 -82 -120 -82
q-61 0 -99 53q-39 54 -39 155zM182 915v-688q0 -106 51 -106q25 0 43 21t24 42l6 21v734q-2 10 -6 23q-4 12 -24 37q-18 23 -43 23q-51 0 -51 -107z" />
    <glyph glyph-name="Gbreve" unicode="&#x11e;" horiz-adv-x="516" 
d="M462 0h-114l-11 57q-43 -69 -126 -69q-73 0 -115 54t-42 154v965q0 114 56 178t148 64q93 0 149 -64q55 -62 55 -178v-199h-140v204q0 60 -16 83q-16 24 -48 24t-48 -24q-15 -22 -15 -83v-939q0 -60 15 -82q16 -24 48 -24t48 24q16 23 16 82v401h-64v131h204v-759z
M428 1673v-19q0 -96 -45 -149t-125 -53t-125 53t-45 149v19h113v-18q0 -106 57 -106t57 106v18h113z" />
    <glyph glyph-name="gbreve" unicode="&#x11f;" horiz-adv-x="491" 
d="M48 196v751q0 100 39 154t99 54q81 0 122 -86l7 74h126v-1186q0 -111 -51 -169t-145 -58q-91 0 -142 52q-50 52 -55 158h134q2 -48 17 -65q17 -18 46 -18q32 0 46 20q15 21 15 74v119q-40 -82 -120 -82q-61 0 -99 53q-39 54 -39 155zM182 915v-688q0 -106 51 -106
q25 0 43 21t24 42l6 21v734q-2 10 -6 23q-4 12 -24 37q-18 23 -43 23q-51 0 -51 -107zM426 1425v-19q0 -96 -45 -149t-125 -53t-125 53t-45 149v19h113v-18q0 -105 57 -105t57 105v18h113z" />
    <glyph glyph-name="Gdotaccent" unicode="&#x120;" horiz-adv-x="516" 
d="M462 0h-114l-11 57q-43 -69 -126 -69q-73 0 -115 54t-42 154v965q0 114 56 178t148 64q93 0 149 -64q55 -62 55 -178v-199h-140v204q0 60 -16 83q-16 24 -48 24t-48 -24q-15 -22 -15 -83v-939q0 -60 15 -82q16 -24 48 -24t48 24q16 23 16 82v401h-64v131h204v-759z
M185 1456v184h146v-184h-146z" />
    <glyph glyph-name="gdotaccent" unicode="&#x121;" horiz-adv-x="491" 
d="M48 196v751q0 100 39 154t99 54q81 0 122 -86l7 74h126v-1186q0 -111 -51 -169t-145 -58q-91 0 -142 52q-50 52 -55 158h134q2 -48 17 -65q17 -18 46 -18q32 0 46 20q15 21 15 74v119q-40 -82 -120 -82q-61 0 -99 53q-39 54 -39 155zM182 915v-688q0 -106 51 -106
q25 0 43 21t24 42l6 21v734q-2 10 -6 23q-4 12 -24 37q-18 23 -43 23q-51 0 -51 -107zM183 1208v185h146v-185h-146z" />
    <glyph glyph-name="Gcommaaccent" unicode="&#x122;" horiz-adv-x="516" 
d="M193 -270v204h131v-149q0 -52 -19 -95l-35 -74h-77l46 114h-46zM462 0h-114l-11 57q-43 -69 -126 -69q-73 0 -115 54t-42 154v965q0 114 56 178t148 64q93 0 149 -64q55 -62 55 -178v-199h-140v204q0 60 -16 83q-16 24 -48 24t-48 -24q-15 -22 -15 -83v-939q0 -60 15 -82
q16 -24 48 -24t48 24q16 23 16 82v401h-64v131h204v-759z" />
    <glyph glyph-name="gcommaaccent" unicode="&#x123;" horiz-adv-x="491" 
d="M323 1413v-205h-132v150q0 52 19 95l35 74h78l-47 -114h47zM48 196v751q0 100 39 154t99 54q81 0 122 -86l7 74h126v-1186q0 -111 -51 -169t-145 -58q-91 0 -142 52q-50 52 -55 158h134q2 -48 17 -65q17 -18 46 -18q32 0 46 20q15 21 15 74v119q-40 -82 -120 -82
q-61 0 -99 53q-39 54 -39 155zM182 915v-688q0 -106 51 -106q25 0 43 21t24 42l6 21v734q-2 10 -6 23q-4 12 -24 37q-18 23 -43 23q-51 0 -51 -107z" />
    <glyph glyph-name="Hcircumflex" unicode="&#x124;" horiz-adv-x="542" 
d="M339 1456l-68 98l-67 -98h-116l108 221h151l108 -221h-116zM345 0v636h-148v-636h-141v1391h141v-624h148v624h141v-1391h-141z" />
    <glyph glyph-name="hcircumflex" unicode="&#x125;" horiz-adv-x="493" 
d="M185 1456l-67 98l-68 -98h-116l108 221h152l107 -221h-116zM443 0v947q0 101 -38 154q-39 54 -100 54q-84 0 -121 -82v318h-134v-1391h134v939q1 4 7 23q5 15 24 37q20 23 43 23q50 0 50 -107v-915h135z" />
    <glyph glyph-name="Hbar" unicode="&#x126;" horiz-adv-x="583" 
d="M366 0v636h-149v-636h-140v1027h-67v103h67v261h140v-261h149v261h141v-261h66v-103h-66v-1027h-141zM217 1027v-260h149v260h-149z" />
    <glyph glyph-name="hbar" unicode="&#x127;" horiz-adv-x="493" 
d="M-10 1220v96h60v75h134v-75h142v-96h-142v-147q37 82 121 82q61 0 100 -54q38 -53 38 -154v-947h-135v915q0 107 -50 107q-25 0 -43 -21q-20 -24 -25 -40l-6 -22v-939h-134v1220h-60z" />
    <glyph glyph-name="Itilde" unicode="&#x128;" horiz-adv-x="252" 
d="M56 0v1391h141v-1391h-141zM165 1476l-73 41q-16 9 -24 9q-12 0 -12 -16v-54h-115v114q0 94 77 94q32 0 71 -22l73 -40q18 -10 24 -10q12 0 12 16v54h115v-114q0 -94 -77 -94q-32 0 -71 22z" />
    <glyph glyph-name="itilde" unicode="&#x129;" horiz-adv-x="234" 
d="M50 0v1143h134v-1143h-134zM156 1228l-73 41q-17 9 -25 9q-11 0 -11 -15v-55h-116v114q0 94 78 94q34 0 71 -21l73 -41q17 -9 24 -9q11 0 11 15v54h116v-114q0 -94 -78 -94q-31 0 -70 22z" />
    <glyph glyph-name="Imacron" unicode="&#x12a;" horiz-adv-x="252" 
d="M56 0v1391h141v-1391h-141zM-46 1478v123h346v-123h-346z" />
    <glyph glyph-name="imacron" unicode="&#x12b;" horiz-adv-x="234" 
d="M50 0v1143h134v-1143h-134zM-55 1230v123h346v-123h-346z" />
    <glyph glyph-name="Ibreve" unicode="&#x12c;" horiz-adv-x="252" 
d="M56 0v1391h141v-1391h-141zM297 1673v-19q0 -96 -45 -149t-125 -53t-125 53t-45 149v19h113v-18q0 -106 57 -106t57 106v18h113z" />
    <glyph glyph-name="ibreve" unicode="&#x12d;" horiz-adv-x="234" 
d="M50 0v1143h134v-1143h-134zM288 1425v-19q0 -96 -45 -149t-125 -53t-125 53t-45 149v19h112v-18q0 -105 58 -105q57 0 57 105v18h113z" />
    <glyph glyph-name="Iogonek" unicode="&#x12e;" horiz-adv-x="252" 
d="M197 2l-96 -104q-13 -14 -13 -27q0 -14 17 -14h81v-115h-134q-106 0 -106 85q0 27 12 50q10 20 43 57l55 63v1394h141v-1389z" />
    <glyph glyph-name="iogonek" unicode="&#x12f;" horiz-adv-x="234" 
d="M184 0l-93 -102q-13 -14 -13 -27q0 -14 17 -14h81v-115h-134q-107 0 -107 85q0 26 13 50q10 20 43 57l59 67v1142h134v-1143zM50 1211v180h134v-180h-134z" />
    <glyph glyph-name="Idotaccent" unicode="&#x130;" horiz-adv-x="252" 
d="M56 0v1391h141v-1391h-141zM54 1456v184h146v-184h-146z" />
    <glyph glyph-name="dotlessi" unicode="&#x131;" horiz-adv-x="234" 
d="M50 0v1143h134v-1143h-134z" />
    <glyph glyph-name="IJ" unicode="&#x132;" horiz-adv-x="766" 
d="M56 0v1391h141v-1391h-141zM447 521v-297q0 -56 16 -82q15 -24 47 -24q31 0 46 24t15 82v1167h142v-1162q0 -114 -56 -178q-55 -63 -147 -63t-148 63q-55 62 -55 178v292h140z" />
    <glyph glyph-name="ij" unicode="&#x133;" horiz-adv-x="468" 
d="M50 0v1143h134v-1143h-134zM50 1211v180h134v-180h-134zM285 1211v180h134v-180h-134zM419 -43q0 -119 -59 -172q-60 -54 -150 -55v130q35 1 56 22q19 19 19 72v1189h134v-1186z" />
    <glyph glyph-name="Jcircumflex" unicode="&#x134;" 
d="M457 1456l-68 98l-67 -98h-116l107 221h152l107 -221h-115zM195 521v-297q0 -58 15 -82t47 -24q31 0 46 24t15 82v1167h142v-1162q0 -114 -56 -178q-56 -63 -147 -63q-92 0 -148 63q-55 62 -55 178v292h141z" />
    <glyph glyph-name="jcircumflex" unicode="&#x135;" horiz-adv-x="234" 
d="M185 1208l-67 99l-68 -99h-116l108 222h152l107 -222h-116zM184 -43q0 -119 -59 -172q-60 -54 -150 -55v130q35 1 56 22q19 19 19 72v1189h134v-1186z" />
    <glyph glyph-name="Kcommaaccent" unicode="&#x136;" horiz-adv-x="533" 
d="M218 -270v204h131v-149q0 -55 -18 -95l-35 -74h-78l46 114h-46zM56 0v1391h141v-625h20l148 625h146l-168 -669l187 -722h-149l-161 636h-23v-636h-141z" />
    <glyph glyph-name="kcommaaccent" unicode="&#x137;" horiz-adv-x="502" 
d="M204 -270v204h131v-149q0 -52 -19 -95l-34 -74h-78l46 114h-46zM50 0v1391h134v-741h9l165 493h143l-188 -557l188 -586h-145l-165 520h-7v-520h-134z" />
    <glyph glyph-name="kgreenlandic" unicode="&#x138;" horiz-adv-x="502" 
d="M50 0v1143h134v-493h9l165 493h143l-188 -557l188 -586h-145l-165 520h-7v-520h-134z" />
    <glyph glyph-name="Lacute" unicode="&#x139;" horiz-adv-x="432" 
d="M299 1677l-119 -221h-110l64 221h165zM56 0v1391h141v-1261h207v-130h-348z" />
    <glyph glyph-name="lacute" unicode="&#x13a;" horiz-adv-x="234" 
d="M290 1677l-119 -221h-111l65 221h165zM50 0v1391h134v-1391h-134z" />
    <glyph glyph-name="Lcommaaccent" unicode="&#x13b;" horiz-adv-x="432" 
d="M165 -270v204h131v-149q0 -55 -18 -95l-35 -74h-78l46 114h-46zM56 0v1391h141v-1261h207v-130h-348z" />
    <glyph glyph-name="lcommaaccent" unicode="&#x13c;" horiz-adv-x="234" 
d="M52 -270v204h131v-149q0 -55 -18 -95l-35 -74h-78l46 114h-46zM50 0v1391h134v-1391h-134z" />
    <glyph glyph-name="Lcaron" unicode="&#x13d;" horiz-adv-x="432" 
d="M415 1391l-60 -242h-102l13 242h149zM56 0v1391h141v-1261h207v-130h-348z" />
    <glyph glyph-name="lcaron" unicode="&#x13e;" horiz-adv-x="234" 
d="M396 1391l-59 -223h-103l14 223h148zM50 0v1391h134v-1391h-134z" />
    <glyph glyph-name="Ldot" unicode="&#x13f;" horiz-adv-x="432" 
d="M268 598v184h126v-184h-126zM56 0v1391h141v-1261h207v-130h-348z" />
    <glyph glyph-name="ldot" unicode="&#x140;" horiz-adv-x="452" 
d="M281 598v184h126v-184h-126zM50 0v1391h134v-1391h-134z" />
    <glyph glyph-name="Lslash" unicode="&#x141;" horiz-adv-x="468" 
d="M17 514v138l77 70v669h140v-540l136 124v-138l-136 -124v-583h207v-130h-347v584z" />
    <glyph glyph-name="lslash" unicode="&#x142;" horiz-adv-x="287" 
d="M11 565v135l66 62v629h134v-502l65 62v-135l-65 -62v-754h-134v627z" />
    <glyph glyph-name="Nacute" unicode="&#x143;" horiz-adv-x="567" 
d="M457 1677l-119 -221h-111l65 221h165zM343 0l-149 964v-964h-138v1391h167l151 -970v970h137v-1391h-168z" />
    <glyph glyph-name="nacute" unicode="&#x144;" horiz-adv-x="493" 
d="M420 1430l-119 -222h-111l65 222h165zM443 0v947q0 101 -38 154q-39 54 -100 54q-84 0 -123 -86l-7 74h-125v-1143h134v939q1 4 7 23q5 15 24 37q20 23 43 23q50 0 50 -107v-915h135z" />
    <glyph glyph-name="Ncommaaccent" unicode="&#x145;" horiz-adv-x="567" 
d="M218 -270v204h131v-149q0 -55 -18 -95l-35 -74h-78l46 114h-46zM343 0l-149 964v-964h-138v1391h167l151 -970v970h137v-1391h-168z" />
    <glyph glyph-name="ncommaaccent" unicode="&#x146;" horiz-adv-x="493" 
d="M181 -270v204h131v-149q0 -55 -18 -95l-35 -74h-78l46 114h-46zM443 947v-947h-135v915q0 107 -50 107q-25 0 -43 -21q-20 -24 -25 -40l-6 -22v-939h-134v1143h125l7 -74q39 86 123 86q61 0 100 -54q38 -53 38 -154z" />
    <glyph glyph-name="Ncaron" unicode="&#x147;" horiz-adv-x="567" 
d="M284 1579l67 98h116l-108 -221h-151l-108 221h116zM343 0l-149 964v-964h-138v1391h167l151 -970v970h137v-1391h-168z" />
    <glyph glyph-name="ncaron" unicode="&#x148;" horiz-adv-x="493" 
d="M247 1331l67 99h116l-107 -222h-152l-108 222h116zM443 947v-947h-135v915q0 107 -50 107q-25 0 -43 -21q-20 -24 -25 -40l-6 -22v-939h-134v1143h125l7 -74q39 86 123 86q61 0 100 -54q38 -53 38 -154z" />
    <glyph glyph-name="Eng" unicode="&#x14a;" horiz-adv-x="567" 
d="M223 1391l151 -970v970h137v-1434q0 -120 -59 -172q-61 -54 -152 -55v130q63 0 72 65l-178 1050v-975h-138v1391h167z" />
    <glyph glyph-name="eng" unicode="&#x14b;" horiz-adv-x="493" 
d="M443 947v-990q0 -120 -59 -172q-61 -54 -151 -55v130q38 2 57 22q18 20 18 72v961q0 107 -50 107q-25 0 -43 -21q-20 -24 -25 -40l-6 -22v-939h-134v1143h125l7 -74q39 86 123 86q61 0 100 -54q38 -53 38 -154z" />
    <glyph glyph-name="Omacron" unicode="&#x14c;" horiz-adv-x="518" 
d="M86 1478v123h346v-123h-346zM54 229v932q0 114 56 178t149 64t149 -64t56 -178v-932q0 -114 -56 -178q-56 -63 -149 -63t-149 63q-56 64 -56 178zM195 1166v-942q0 -59 16 -82q17 -24 48 -24t48 24q16 23 16 82v942q0 60 -16 83q-17 24 -48 24q-33 0 -49 -24
q-15 -22 -15 -83z" />
    <glyph glyph-name="omacron" unicode="&#x14d;" horiz-adv-x="495" 
d="M75 1230v123h346v-123h-346zM48 229v684q0 117 55 179q56 63 145 63q90 0 145 -63q54 -61 54 -179v-684q0 -117 -54 -178q-55 -63 -145 -63t-145 63q-55 62 -55 178zM182 919v-695q0 -57 17 -82q16 -24 49 -24q32 0 49 24q16 23 16 82v695q0 59 -16 82q-17 24 -49 24
q-33 0 -49 -24q-17 -25 -17 -82z" />
    <glyph glyph-name="Obreve" unicode="&#x14e;" horiz-adv-x="518" 
d="M54 229v932q0 114 56 178t149 64t149 -64t56 -178v-932q0 -114 -56 -178q-56 -63 -149 -63t-149 63q-56 64 -56 178zM195 1166v-942q0 -59 16 -82q17 -24 48 -24t48 24q16 23 16 82v942q0 60 -16 83q-17 24 -48 24q-33 0 -49 -24q-15 -22 -15 -83zM429 1673v-19
q0 -96 -45 -149t-125 -53t-125 53t-45 149v19h113v-18q0 -106 57 -106t57 106v18h113z" />
    <glyph glyph-name="obreve" unicode="&#x14f;" horiz-adv-x="495" 
d="M48 229v684q0 117 55 179q56 63 145 63q90 0 145 -63q54 -61 54 -179v-684q0 -117 -54 -178q-55 -63 -145 -63t-145 63q-55 62 -55 178zM182 919v-695q0 -57 17 -82q16 -24 49 -24q32 0 49 24q16 23 16 82v695q0 59 -16 82q-17 24 -49 24q-33 0 -49 -24q-17 -25 -17 -82z
M418 1425v-19q0 -96 -45 -149t-125 -53t-125 53t-45 149v19h112v-18q0 -105 58 -105q57 0 57 105v18h113z" />
    <glyph glyph-name="Ohungarumlaut" unicode="&#x150;" horiz-adv-x="518" 
d="M516 1677l-115 -221h-106l61 221h160zM317 1677l-114 -221h-107l62 221h159zM54 229v932q0 114 56 178t149 64t149 -64t56 -178v-932q0 -114 -56 -178q-56 -63 -149 -63t-149 63q-56 64 -56 178zM195 1166v-942q0 -59 16 -82q17 -24 48 -24t48 24q16 23 16 82v942
q0 60 -16 83q-17 24 -48 24q-33 0 -49 -24q-15 -22 -15 -83z" />
    <glyph glyph-name="ohungarumlaut" unicode="&#x151;" horiz-adv-x="495" 
d="M504 1430l-115 -222h-106l61 222h160zM305 1430l-115 -222h-106l61 222h160zM48 229v684q0 117 55 179q56 63 145 63q90 0 145 -63q54 -61 54 -179v-684q0 -117 -54 -178q-55 -63 -145 -63t-145 63q-55 62 -55 178zM182 919v-695q0 -57 17 -82q16 -24 49 -24q32 0 49 24
q16 23 16 82v695q0 59 -16 82q-17 24 -49 24q-33 0 -49 -24q-17 -25 -17 -82z" />
    <glyph glyph-name="Racute" unicode="&#x154;" horiz-adv-x="522" 
d="M416 1677l-119 -221h-111l65 221h165zM56 0v1391h189q98 0 159 -64q62 -65 62 -178v-259q0 -134 -84 -198q84 -64 84 -197v-239q0 -69 8 -138q7 -64 15 -91l8 -27h-140q-5 8 -9 23q-6 21 -14 80q-9 65 -9 147v270q0 107 -80 107h-48v-627h-141zM245 1261h-48v-504h48
q80 0 80 106v291q0 107 -80 107z" />
    <glyph glyph-name="racute" unicode="&#x155;" horiz-adv-x="363" 
d="M366 1430l-119 -222h-111l65 222h165zM336 1143v-136q-25 0 -52 -10q-24 -9 -48 -30t-38 -64q-14 -44 -14 -101v-802h-134v1143h125l8 -88q54 88 153 88z" />
    <glyph glyph-name="Rcommaaccent" unicode="&#x156;" horiz-adv-x="522" 
d="M209 -270v204h131v-149q0 -55 -18 -95l-35 -74h-78l46 114h-46zM56 0v1391h189q98 0 159 -64q62 -65 62 -178v-259q0 -134 -84 -198q84 -64 84 -197v-239q0 -69 8 -138q7 -64 15 -91l8 -27h-140q-5 8 -9 23q-6 21 -14 80q-9 65 -9 147v270q0 107 -80 107h-48v-627h-141z
M245 1261h-48v-504h48q80 0 80 106v291q0 107 -80 107z" />
    <glyph glyph-name="rcommaaccent" unicode="&#x157;" horiz-adv-x="363" 
d="M52 -270v204h131v-149q0 -55 -18 -95l-35 -74h-78l46 114h-46zM336 1143v-136q-25 0 -52 -10q-24 -9 -48 -30t-38 -64q-14 -44 -14 -101v-802h-134v1143h125l8 -88q54 88 153 88z" />
    <glyph glyph-name="Rcaron" unicode="&#x158;" horiz-adv-x="522" 
d="M253 1579l68 98h115l-107 -221h-152l-107 221h115zM56 0v1391h189q98 0 159 -64q62 -65 62 -178v-259q0 -134 -84 -198q84 -64 84 -197v-239q0 -69 8 -138q7 -64 15 -91l8 -27h-140q-5 8 -9 23q-6 21 -14 80q-9 65 -9 147v270q0 107 -80 107h-48v-627h-141zM245 1261h-48
v-504h48q80 0 80 106v291q0 107 -80 107z" />
    <glyph glyph-name="rcaron" unicode="&#x159;" horiz-adv-x="363" 
d="M193 1331l67 99h116l-108 -222h-151l-108 222h116zM336 1143v-136q-25 0 -52 -10q-24 -9 -48 -30t-38 -64q-14 -44 -14 -101v-802h-134v1143h125l8 -88q54 88 153 88z" />
    <glyph glyph-name="Sacute" unicode="&#x15a;" horiz-adv-x="505" 
d="M426 1677l-119 -221h-110l64 221h165zM190 512v-288q0 -56 16 -82q15 -24 47 -24q31 0 46 24t15 82v244q0 43 -7 63q-7 21 -33 48l-144 150q-47 48 -64 95q-16 44 -16 127v210q0 116 55 178q56 64 148 64q91 0 147 -64t56 -178v-278h-142v283q0 61 -14 83q-15 24 -47 24
t-47 -24q-16 -26 -16 -83v-231q0 -38 9 -63q7 -20 32 -48l145 -150q47 -48 64 -95q16 -44 16 -127v-223q0 -114 -56 -178q-56 -63 -147 -63q-93 0 -148 63q-55 62 -55 178v283h140z" />
    <glyph glyph-name="sacute" unicode="&#x15b;" horiz-adv-x="480" 
d="M413 1430l-119 -222h-111l65 222h165zM44 810v103q0 116 54 179t142 63q87 0 141 -64q54 -65 54 -178v-176h-135v182q0 58 -15 82t-45 24q-31 0 -46 -24q-16 -26 -16 -82v-109q0 -37 8 -61t31 -47l139 -147q43 -46 61 -89q18 -44 18 -114v-123q0 -113 -54 -177t-141 -64
q-88 0 -142 63t-54 178v189h134v-194q0 -106 62 -106q30 0 45 24t15 82v128q0 37 -8 61t-31 47l-139 147q-42 44 -61 89q-17 41 -17 114z" />
    <glyph glyph-name="Scircumflex" unicode="&#x15c;" horiz-adv-x="505" 
d="M321 1456l-68 98l-68 -98h-115l107 221h152l107 -221h-115zM190 512v-288q0 -56 16 -82q15 -24 47 -24q31 0 46 24t15 82v244q0 43 -7 63q-7 21 -33 48l-144 150q-47 48 -64 95q-16 44 -16 127v210q0 116 55 178q56 64 148 64q91 0 147 -64t56 -178v-278h-142v283
q0 61 -14 83q-15 24 -47 24t-47 -24q-16 -26 -16 -83v-231q0 -38 9 -63q7 -20 32 -48l145 -150q47 -48 64 -95q16 -44 16 -127v-223q0 -114 -56 -178q-56 -63 -147 -63q-93 0 -148 63q-55 62 -55 178v283h140z" />
    <glyph glyph-name="scircumflex" unicode="&#x15d;" horiz-adv-x="480" 
d="M308 1208l-67 99l-68 -99h-116l108 222h151l108 -222h-116zM44 810v103q0 116 54 179t142 63q87 0 141 -64q54 -65 54 -178v-176h-135v182q0 58 -15 82t-45 24q-31 0 -46 -24q-16 -26 -16 -82v-109q0 -37 8 -61t31 -47l139 -147q43 -46 61 -89q18 -44 18 -114v-123
q0 -113 -54 -177t-141 -64q-88 0 -142 63t-54 178v189h134v-194q0 -106 62 -106q30 0 45 24t15 82v128q0 37 -8 61t-31 47l-139 147q-42 44 -61 89q-17 41 -17 114z" />
    <glyph glyph-name="Scedilla" unicode="&#x15e;" horiz-adv-x="505" 
d="M229 -93l-51 93q-59 21 -94 80q-34 58 -34 149v283h140v-288q0 -56 16 -82q15 -24 47 -24q31 0 46 24t15 82v244q0 43 -7 63q-7 21 -33 48l-144 150q-47 48 -64 95q-16 44 -16 127v210q0 116 55 178q56 64 148 64q91 0 147 -64t56 -178v-278h-142v283q0 61 -14 83
q-15 24 -47 24t-47 -24q-16 -26 -16 -83v-231q0 -38 9 -63q7 -20 32 -48l145 -150q47 -48 64 -95q16 -44 16 -127v-223q0 -97 -42 -159q-43 -62 -113 -77l38 -69q29 -53 29 -90q0 -92 -116 -92h-116v115h88q19 0 19 17q0 8 -14 33z" />
    <glyph glyph-name="scedilla" unicode="&#x15f;" horiz-adv-x="480" 
d="M217 -93l-52 95q-56 22 -89 81q-32 57 -32 146v189h134v-194q0 -106 62 -106q30 0 45 24t15 82v128q0 37 -8 61t-31 47l-139 147q-42 44 -61 89q-17 41 -17 114v103q0 116 54 179t142 63q87 0 141 -64q54 -65 54 -178v-176h-135v182q0 58 -15 82t-45 24q-31 0 -46 -24
q-16 -26 -16 -82v-109q0 -37 8 -61t31 -47l139 -147q43 -46 61 -89q18 -44 18 -114v-123q0 -97 -40 -158q-41 -62 -107 -77l39 -70q28 -52 28 -90q0 -92 -115 -92h-116v115h88q18 0 18 17q0 10 -13 33z" />
    <glyph glyph-name="Scaron" unicode="&#x160;" horiz-adv-x="505" 
d="M253 1579l68 98h115l-107 -221h-152l-107 221h115zM190 512v-288q0 -56 16 -82q15 -24 47 -24q31 0 46 24t15 82v244q0 43 -7 63q-7 21 -33 48l-144 150q-47 48 -64 95q-16 44 -16 127v210q0 116 55 178q56 64 148 64q91 0 147 -64t56 -178v-278h-142v283q0 61 -14 83
q-15 24 -47 24t-47 -24q-16 -26 -16 -83v-231q0 -38 9 -63q7 -20 32 -48l145 -150q47 -48 64 -95q16 -44 16 -127v-223q0 -114 -56 -178q-56 -63 -147 -63q-93 0 -148 63q-55 62 -55 178v283h140z" />
    <glyph glyph-name="scaron" unicode="&#x161;" horiz-adv-x="480" 
d="M241 1331l67 99h116l-108 -222h-151l-108 222h116zM44 810v103q0 116 54 179t142 63q87 0 141 -64q54 -65 54 -178v-176h-135v182q0 58 -15 82t-45 24q-31 0 -46 -24q-16 -26 -16 -82v-109q0 -37 8 -61t31 -47l139 -147q43 -46 61 -89q18 -44 18 -114v-123
q0 -113 -54 -177t-141 -64q-88 0 -142 63t-54 178v189h134v-194q0 -106 62 -106q30 0 45 24t15 82v128q0 37 -8 61t-31 47l-139 147q-42 44 -61 89q-17 41 -17 114z" />
    <glyph glyph-name="Tcommaaccent" unicode="&#x162;" horiz-adv-x="435" 
d="M153 -270v204h131v-149q0 -52 -19 -95l-35 -74h-77l46 114h-46zM288 1261v-1261h-141v1261h-132v130h405v-130h-132z" />
    <glyph glyph-name="tcommaaccent" unicode="&#x163;" horiz-adv-x="356" 
d="M118 -270v204h131v-149q0 -52 -19 -95l-34 -74h-78l46 114h-46zM22 1007v136h67v162l134 80v-242h102v-136h-102v-798q0 -42 17 -61q16 -18 57 -18h28v-130h-36q-200 0 -200 203v804h-67z" />
    <glyph glyph-name="Tcaron" unicode="&#x164;" horiz-adv-x="435" 
d="M218 1579l68 98h115l-107 -221h-152l-107 221h116zM288 1261v-1261h-141v1261h-132v130h405v-130h-132z" />
    <glyph glyph-name="tcaron" unicode="&#x165;" horiz-adv-x="356" 
d="M437 1431l-59 -223h-102l14 223h147zM22 1007v136h67v162l134 80v-242h102v-136h-102v-798q0 -42 17 -61q16 -18 57 -18h28v-130h-36q-200 0 -200 203v804h-67z" />
    <glyph glyph-name="Tbar" unicode="&#x166;" horiz-adv-x="435" 
d="M288 1261v-496h132v-102h-132v-663h-141v663h-132v102h132v496h-132v130h405v-130h-132z" />
    <glyph glyph-name="tbar" unicode="&#x167;" horiz-adv-x="356" 
d="M22 1007v136h67v162l134 80v-242h102v-136h-102v-352h102v-98h-102v-348q0 -42 17 -61q16 -18 57 -18h28v-130h-36q-200 0 -200 203v354h-78v98h78v352h-67z" />
    <glyph glyph-name="Utilde" unicode="&#x168;" 
d="M195 1391v-1167q0 -58 15 -82t47 -24q31 0 46 24t15 82v1167h142v-1162q0 -114 -56 -178q-56 -63 -147 -63q-92 0 -148 63q-55 62 -55 178v1162h141zM295 1476l-73 41q-16 9 -24 9q-12 0 -12 -16v-54h-115v114q0 94 77 94q32 0 71 -22l73 -40q18 -10 24 -10q12 0 12 16
v54h115v-114q0 -94 -77 -94q-32 0 -71 22z" />
    <glyph glyph-name="utilde" unicode="&#x169;" horiz-adv-x="493" 
d="M50 1143v-947q0 -101 39 -155q38 -53 99 -53q82 0 122 84l7 -72h126v1143h-135v-942q0 -1 -0.5 -2.5l-1 -3t-0.5 -3.5t-1.5 -4.5t-3.5 -7t-3 -8.5q-5 -12 -14 -25t-20 -20q-14 -9 -28 -9q-52 0 -52 106v919h-134zM285 1228l-73 41q-17 9 -25 9q-11 0 -11 -15v-55h-116
v114q0 94 78 94q34 0 71 -21l73 -41q16 -9 24 -9q11 0 11 15v54h116v-114q0 -94 -78 -94q-31 0 -70 22z" />
    <glyph glyph-name="Umacron" unicode="&#x16a;" 
d="M195 1391v-1167q0 -58 15 -82t47 -24q31 0 46 24t15 82v1167h142v-1162q0 -114 -56 -178q-56 -63 -147 -63q-92 0 -148 63q-55 62 -55 178v1162h141zM84 1478v123h346v-123h-346z" />
    <glyph glyph-name="umacron" unicode="&#x16b;" horiz-adv-x="493" 
d="M50 1143v-947q0 -101 39 -155q38 -53 99 -53q82 0 122 84l7 -72h126v1143h-135v-942q0 -1 -0.5 -2.5l-1 -3t-0.5 -3.5t-1.5 -4.5t-3.5 -7t-3 -8.5q-5 -12 -14 -25t-20 -20q-14 -9 -28 -9q-52 0 -52 106v919h-134zM74 1230v123h346v-123h-346z" />
    <glyph glyph-name="Ubreve" unicode="&#x16c;" 
d="M195 1391v-1167q0 -58 15 -82t47 -24q31 0 46 24t15 82v1167h142v-1162q0 -114 -56 -178q-56 -63 -147 -63q-92 0 -148 63q-55 62 -55 178v1162h141zM427 1673v-19q0 -96 -45 -149t-125 -53t-125 53t-45 149v19h113v-18q0 -106 57 -106t57 106v18h113z" />
    <glyph glyph-name="ubreve" unicode="&#x16d;" horiz-adv-x="493" 
d="M50 1143v-947q0 -101 39 -155q38 -53 99 -53q82 0 122 84l7 -72h126v1143h-135v-942q0 -1 -0.5 -2.5l-1 -3t-0.5 -3.5t-1.5 -4.5t-3.5 -7t-3 -8.5q-5 -12 -14 -25t-20 -20q-14 -9 -28 -9q-52 0 -52 106v919h-134zM417 1425v-19q0 -96 -45 -149t-125 -53t-125 53t-45 149
v19h112v-18q0 -105 58 -105q57 0 57 105v18h113z" />
    <glyph glyph-name="Uring" unicode="&#x16e;" 
d="M95 1582q0 65 46 103q44 37 116 37q70 0 116 -37t46 -103t-46 -103t-116 -37q-72 0 -116 37q-46 38 -46 103zM257 1527q26 0 40 13q15 14 15 42q0 30 -15 43q-14 13 -40 13q-24 0 -40 -13t-16 -43q0 -28 16 -41q17 -14 40 -14zM195 1391v-1167q0 -58 15 -82t47 -24
q31 0 46 24t15 82v1167h142v-1162q0 -114 -56 -178q-56 -63 -147 -63q-92 0 -148 63q-55 62 -55 178v1162h141z" />
    <glyph glyph-name="uring" unicode="&#x16f;" horiz-adv-x="493" 
d="M85 1334q0 65 46 103t116 38q68 0 115 -38t47 -103t-47 -103q-46 -37 -115 -37q-72 0 -116 37q-46 38 -46 103zM247 1279q26 0 40 13q15 14 15 42q0 30 -15 43q-16 14 -40 14t-41 -14q-16 -13 -16 -43q0 -28 16 -41q17 -14 41 -14zM50 1143v-947q0 -101 39 -155
q38 -53 99 -53q82 0 122 84l7 -72h126v1143h-135v-942q0 -1 -0.5 -2.5l-1 -3t-0.5 -3.5t-1.5 -4.5t-3.5 -7t-3 -8.5q-5 -12 -14 -25t-20 -20q-14 -9 -28 -9q-52 0 -52 106v919h-134z" />
    <glyph glyph-name="Uhungarumlaut" unicode="&#x170;" 
d="M195 1391v-1167q0 -58 15 -82t47 -24q31 0 46 24t15 82v1167h142v-1162q0 -114 -56 -178q-56 -63 -147 -63q-92 0 -148 63q-55 62 -55 178v1162h141zM514 1677l-115 -221h-106l61 221h160zM315 1677l-114 -221h-107l62 221h159z" />
    <glyph glyph-name="uhungarumlaut" unicode="&#x171;" horiz-adv-x="493" 
d="M50 196v947h134v-919q0 -106 52 -106q24 0 42 21q18 22 24 41l6 21v942h135v-1143h-126l-7 72q-40 -84 -122 -84q-61 0 -99 53q-39 54 -39 155zM503 1430l-115 -222h-106l61 222h160zM304 1430l-115 -222h-106l61 222h160z" />
    <glyph glyph-name="Uogonek" unicode="&#x172;" 
d="M195 1391v-1167q0 -58 15 -82t47 -24q31 0 46 24t15 82v1167h142v-1162q0 -117 -60 -182l-136 -149q-13 -14 -13 -27q0 -14 17 -14h81v-115h-134q-106 0 -106 85q0 27 12 50q10 20 43 57l50 58q-76 15 -117 75q-43 63 -43 162v1162h141z" />
    <glyph glyph-name="uogonek" unicode="&#x173;" horiz-adv-x="493" 
d="M50 196v947h134v-919q0 -106 52 -106q24 0 42 21q18 22 24 41l6 21v942h135v-1143l-93 -102q-13 -14 -13 -27q0 -14 17 -14h81v-115h-134q-106 0 -106 85q0 27 12 50q10 20 43 57l66 75l-6 63q-40 -84 -122 -84q-61 0 -99 53q-39 54 -39 155z" />
    <glyph glyph-name="Wcircumflex" unicode="&#x174;" horiz-adv-x="786" 
d="M461 1456l-68 98l-67 -98h-116l107 221h152l108 -221h-116zM26 1391l108 -1391h184l75 1065l75 -1065h184l109 1391h-140l-68 -1105l-78 1105h-164l-78 -1105l-67 1105h-140z" />
    <glyph glyph-name="wcircumflex" unicode="&#x175;" horiz-adv-x="763" 
d="M450 1208l-68 99l-68 -99h-115l107 222h152l107 -222h-115zM465 0l-85 853l-81 -853h-171l-115 1143h135l70 -898l88 898h156l86 -897l70 897h133l-115 -1143h-171z" />
    <glyph glyph-name="Ycircumflex" unicode="&#x176;" horiz-adv-x="520" 
d="M189 0v397l-180 994h145l106 -734l106 734h145l-181 -994v-397h-141zM328 1456l-68 98l-67 -98h-116l107 221h152l107 -221h-115z" />
    <glyph glyph-name="ycircumflex" unicode="&#x177;" horiz-adv-x="470" 
d="M144 1143l76 -828l105 828h136l-213 -1401h-131l38 232l-146 1169h135zM302 1208l-68 99l-67 -99h-116l108 222h151l108 -222h-116z" />
    <glyph glyph-name="Ydieresis" unicode="&#x178;" horiz-adv-x="520" 
d="M189 0v397l-180 994h145l106 -734l106 734h145l-181 -994v-397h-141zM97 1456v206h128v-206h-128zM294 1456v206h129v-206h-129z" />
    <glyph glyph-name="Zacute" unicode="&#x179;" horiz-adv-x="432" 
d="M389 1677l-119 -221h-110l64 221h165zM30 0v117l226 1144h-220v130h366v-117l-227 -1144h227v-130h-372z" />
    <glyph glyph-name="zacute" unicode="&#x17a;" horiz-adv-x="409" 
d="M378 1430l-119 -222h-111l65 222h165zM28 0v122l215 891h-209v130h348v-122l-215 -891h215v-130h-354z" />
    <glyph glyph-name="Zdotaccent" unicode="&#x17b;" horiz-adv-x="432" 
d="M30 0v117l226 1144h-220v130h366v-117l-227 -1144h227v-130h-372zM152 1456v184h145v-184h-145z" />
    <glyph glyph-name="zdotaccent" unicode="&#x17c;" horiz-adv-x="409" 
d="M28 0v122l215 891h-209v130h348v-122l-215 -891h215v-130h-354zM144 1208v185h146v-185h-146z" />
    <glyph glyph-name="Zcaron" unicode="&#x17d;" horiz-adv-x="432" 
d="M30 0v117l226 1144h-220v130h366v-117l-227 -1144h227v-130h-372zM224 1579l68 98h116l-108 -221h-152l-107 221h116z" />
    <glyph glyph-name="zcaron" unicode="&#x17e;" horiz-adv-x="409" 
d="M217 1331l68 99h115l-107 -222h-152l-107 222h116zM28 0v122l215 891h-209v130h348v-122l-215 -891h215v-130h-354z" />
    <glyph glyph-name="florin" unicode="&#x192;" horiz-adv-x="425" 
d="M84 1034v109h62v93q0 104 56 163t142 59h50v-108h-49q-33 0 -54 -25q-21 -26 -21 -77v-105h100v-109h-100v-892q0 -105 -55 -163q-56 -59 -142 -59h-41v109h41q34 0 53 25q20 26 20 76v904h-62z" />
    <glyph glyph-name="Aringacute" unicode="&#x1fa;" horiz-adv-x="507" 
d="M400 1911l-85 -135h-106l27 135h164zM19 0l148 1391h179l142 -1391h-137l-22 256h-147l-21 -256h-142zM257 1123l-63 -741h123zM92 1582q0 65 46 103q44 37 116 37q70 0 116 -37t46 -103t-46 -103t-116 -37q-72 0 -116 37q-46 38 -46 103zM254 1527q26 0 40 13
q15 14 15 42q0 30 -15 43q-14 13 -40 13q-24 0 -40 -13t-16 -43q0 -28 16 -41q17 -14 40 -14z" />
    <glyph glyph-name="aringacute" unicode="&#x1fb;" horiz-adv-x="485" 
d="M386 1658l-85 -135h-106l26 135h165zM48 468q0 62 12 100q12 37 35 63q19 22 74 62l93 69q26 19 31 31q7 16 7 43v83q0 60 -14 82q-15 24 -44 24q-30 0 -45 -24t-15 -82v-140h-134v134q0 115 53 179q53 63 141 63t140 -63q53 -64 53 -179v-657q0 -86 4 -143q5 -72 8 -88
l5 -25h-129q-9 34 -13 82q-39 -94 -124 -94q-62 0 -100 53t-38 155v272zM182 488v-261q0 -106 50 -106q48 0 70 76q-2 42 -2 105v343l-84 -75q-34 -30 -34 -82zM80 1334q0 66 45 103q46 38 117 38q68 0 115 -38q46 -37 46 -103t-46 -103t-115 -37q-73 0 -117 37
q-45 37 -45 103zM242 1279q26 0 40 13q15 14 15 42q0 30 -15 43q-16 14 -40 14t-41 -14q-16 -13 -16 -43q0 -28 16 -41q17 -14 41 -14z" />
    <glyph glyph-name="AEacute" unicode="&#x1fc;" horiz-adv-x="656" 
d="M536 1677l-119 -221h-111l65 221h165zM351 0l-21 256h-148l-21 -256h-142l148 1391h451v-130h-259l51 -494h179v-131h-166l52 -506h143v-130h-267zM256 1119l-62 -737h124z" />
    <glyph glyph-name="aeacute" unicode="&#x1fd;" horiz-adv-x="735" 
d="M541 1430l-119 -222h-111l65 222h165zM48 468q0 62 12 100q12 37 35 63q19 22 74 62l93 69q26 19 31 31q7 16 7 43v83q0 60 -14 82q-15 24 -44 24q-30 0 -45 -24t-15 -82v-140h-134v134q0 115 53 179q53 63 141 63q76 0 126 -48q50 48 126 48q88 0 140 -63
q53 -64 53 -179v-445h-252v-244q0 -58 15 -82t44 -24t44 24t15 82v146h134v-141q0 -114 -53 -178q-52 -63 -140 -63q-114 0 -164 99q-44 -99 -144 -99q-62 0 -100 53t-38 155v272zM182 488v-261q0 -106 50 -106q48 0 69 74q-1 11 -1 34v416l-84 -75q-34 -30 -34 -82z
M553 590v329q0 58 -15 82t-44 24t-44 -24t-15 -82v-329h118z" />
    <glyph glyph-name="Oslashacute" unicode="&#x1fe;" horiz-adv-x="518" 
d="M431 1677l-118 -221h-110l64 221h164zM54 -73l361 1536h49l-361 -1536h-49zM54 229v932q0 114 56 178t149 64t149 -64t56 -178v-932q0 -114 -56 -178q-56 -63 -149 -63t-149 63q-56 64 -56 178zM195 1166v-942q0 -59 16 -82q17 -24 48 -24t48 24q16 23 16 82v942
q0 60 -16 83q-17 24 -48 24q-33 0 -49 -24q-15 -22 -15 -83z" />
    <glyph glyph-name="oslashacute" unicode="&#x1ff;" horiz-adv-x="495" 
d="M48 -73l350 1288h49l-350 -1288h-49zM48 229v684q0 117 55 179q56 63 145 63q90 0 145 -63q54 -61 54 -179v-684q0 -117 -54 -178q-55 -63 -145 -63t-145 63q-55 62 -55 178zM182 919v-695q0 -57 17 -82q16 -24 49 -24q32 0 49 24q16 23 16 82v695q0 59 -16 82
q-17 24 -49 24q-33 0 -49 -24q-17 -25 -17 -82zM421 1430l-119 -222h-111l65 222h165z" />
    <glyph glyph-name="Scommaaccent" unicode="&#x218;" horiz-adv-x="505" 
d="M187 -270v204h131v-149q0 -55 -18 -95l-35 -74h-78l46 114h-46zM190 512v-288q0 -56 16 -82q15 -24 47 -24q31 0 46 24t15 82v244q0 43 -7 63q-7 21 -33 48l-144 150q-47 48 -64 95q-16 44 -16 127v210q0 116 55 178q56 64 148 64q91 0 147 -64t56 -178v-278h-142v283
q0 61 -14 83q-15 24 -47 24t-47 -24q-16 -26 -16 -83v-231q0 -38 9 -63q7 -20 32 -48l145 -150q47 -48 64 -95q16 -44 16 -127v-223q0 -114 -56 -178q-56 -63 -147 -63q-93 0 -148 63q-55 62 -55 178v283h140z" />
    <glyph glyph-name="scommaaccent" unicode="&#x219;" horiz-adv-x="480" 
d="M175 -270v204h131v-149q0 -55 -18 -95l-35 -74h-78l46 114h-46zM44 810v103q0 116 54 179t142 63q87 0 141 -64q54 -65 54 -178v-176h-135v182q0 58 -15 82t-45 24q-31 0 -46 -24q-16 -26 -16 -82v-109q0 -37 8 -61t31 -47l139 -147q43 -46 61 -89q18 -44 18 -114v-123
q0 -113 -54 -177t-141 -64q-88 0 -142 63t-54 178v189h134v-194q0 -106 62 -106q30 0 45 24t15 82v128q0 37 -8 61t-31 47l-139 147q-42 44 -61 89q-17 41 -17 114z" />
    <glyph glyph-name="uni021A" unicode="&#x21a;" horiz-adv-x="435" 
d="M153 -270v204h131v-149q0 -52 -19 -95l-35 -74h-77l46 114h-46zM288 1261v-1261h-141v1261h-132v130h405v-130h-132z" />
    <glyph glyph-name="uni021B" unicode="&#x21b;" horiz-adv-x="356" 
d="M118 -270v204h131v-149q0 -52 -19 -95l-34 -74h-78l46 114h-46zM22 1007v136h67v162l134 80v-242h102v-136h-102v-798q0 -42 17 -61q16 -18 57 -18h28v-130h-36q-200 0 -200 203v804h-67z" />
    <glyph glyph-name="uni0237" unicode="&#x237;" horiz-adv-x="234" 
d="M184 -43q0 -119 -59 -172q-60 -54 -150 -55v130q35 1 56 22q19 19 19 72v1189h134v-1186z" />
    <glyph glyph-name="schwa" unicode="&#x259;" horiz-adv-x="483" 
d="M301 675v244q0 57 -15 81q-16 25 -44 25q-29 0 -45 -25q-15 -24 -15 -81v-146h-134v140q0 115 53 179q53 63 141 63t140 -63q53 -64 53 -179v-684q0 -114 -53 -178q-52 -63 -140 -63t-141 63q-53 64 -53 178v446h253zM301 224v329h-119v-329q0 -58 15 -82t45 -24
q29 0 44 24t15 82z" />
    <glyph glyph-name="circumflex" unicode="&#x2c6;" horiz-adv-x="430" 
d="M283 1208l-68 99l-68 -99h-115l107 222h152l107 -222h-115z" />
    <glyph glyph-name="caron" unicode="&#x2c7;" horiz-adv-x="430" 
d="M215 1331l68 99h115l-107 -222h-152l-107 222h115z" />
    <glyph glyph-name="uni02C9" unicode="&#x2c9;" horiz-adv-x="442" 
d="M48 1230v123h346v-123h-346z" />
    <glyph glyph-name="breve" unicode="&#x2d8;" horiz-adv-x="419" 
d="M380 1425v-19q0 -96 -45 -149t-125 -53t-125 53t-45 149v19h113v-18q0 -105 57 -105t57 105v18h113z" />
    <glyph glyph-name="dotaccent" unicode="&#x2d9;" horiz-adv-x="241" 
d="M48 1208v185h146v-185h-146z" />
    <glyph glyph-name="ring" unicode="&#x2da;" horiz-adv-x="411" 
d="M44 1334q0 65 46 103t116 38q69 0 116 -38q46 -37 46 -103t-46 -103t-116 -37q-72 0 -116 37q-46 38 -46 103zM206 1279q26 0 40 13q15 14 15 42q0 30 -15 43q-16 14 -40 14t-41 -14q-15 -12 -15 -43q0 -29 15 -41q17 -14 41 -14z" />
    <glyph glyph-name="ogonek" unicode="&#x2db;" horiz-adv-x="332" 
d="M289 0l-93 -102q-14 -16 -14 -27q0 -14 18 -14h81v-115h-135q-106 0 -106 85q0 27 12 50q10 20 43 57l59 66h135z" />
    <glyph glyph-name="tilde" unicode="&#x2dc;" horiz-adv-x="460" 
d="M268 1228l-72 41q-16 9 -25 9q-11 0 -11 -15v-55h-116v114q0 94 78 94q34 0 71 -21l72 -41q16 -9 25 -9q11 0 11 15v54h116v-114q0 -94 -78 -94q-32 0 -71 22z" />
    <glyph glyph-name="hungarumlaut" unicode="&#x2dd;" horiz-adv-x="491" 
d="M460 1430l-115 -222h-106l61 222h160zM261 1430l-115 -222h-106l61 222h160z" />
    <glyph glyph-name="anoteleia" unicode="&#x387;" horiz-adv-x="230" 
d="M46 427v227h138v-227h-138z" />
    <glyph glyph-name="pi" unicode="&#x3c0;" horiz-adv-x="663" 
d="M15 1013v130h633v-130h-125v-804q0 -42 17 -61q16 -18 56 -18h33v-130h-35q-201 0 -201 203v810h-124v-1013h-129v1013h-125z" />
    <glyph glyph-name="Wgrave" unicode="&#x1e80;" horiz-adv-x="786" 
d="M339 1456l-119 221h165l65 -221h-111zM134 0l-108 1391h140l67 -1105l78 1105h164l78 -1105l68 1105h140l-109 -1391h-184l-75 1065l-75 -1065h-184z" />
    <glyph glyph-name="wgrave" unicode="&#x1e81;" horiz-adv-x="763" 
d="M328 1208l-119 222h165l64 -222h-110zM465 0l-85 853l-81 -853h-171l-115 1143h135l70 -898l88 898h156l86 -897l70 897h133l-115 -1143h-171z" />
    <glyph glyph-name="Wacute" unicode="&#x1e82;" horiz-adv-x="786" 
d="M566 1677l-119 -221h-110l64 221h165zM26 1391l108 -1391h184l75 1065l75 -1065h184l109 1391h-140l-68 -1105l-78 1105h-164l-78 -1105l-67 1105h-140z" />
    <glyph glyph-name="wacute" unicode="&#x1e83;" horiz-adv-x="763" 
d="M555 1430l-119 -222h-110l64 222h165zM465 0l-85 853l-81 -853h-171l-115 1143h135l70 -898l88 898h156l86 -897l70 897h133l-115 -1143h-171z" />
    <glyph glyph-name="Wdieresis" unicode="&#x1e84;" horiz-adv-x="786" 
d="M230 1456v206h128v-206h-128zM427 1456v206h129v-206h-129zM26 1391l108 -1391h184l75 1065l75 -1065h184l109 1391h-140l-68 -1105l-78 1105h-164l-78 -1105l-67 1105h-140z" />
    <glyph glyph-name="wdieresis" unicode="&#x1e85;" horiz-adv-x="763" 
d="M219 1208v206h128v-206h-128zM416 1208v206h129v-206h-129zM465 0l-85 853l-81 -853h-171l-115 1143h135l70 -898l88 898h156l86 -897l70 897h133l-115 -1143h-171z" />
    <glyph glyph-name="uni1E9E" unicode="&#x1e9e;" 
d="M470 1274l-90 -567l10 -11q51 -51 65 -93q15 -45 15 -128v-233q0 -117 -55 -179q-55 -63 -145 -63h-20v130h20q29 0 44 24t15 83v253q0 43 -8 65t-32 46l-39 39v117l77 504h-51q-79 0 -79 -107v-1154h-141v1149q0 114 61 178t159 64h194v-117z" />
    <glyph glyph-name="Ygrave" unicode="&#x1ef2;" horiz-adv-x="520" 
d="M189 0v397l-180 994h145l106 -734l106 734h145l-181 -994v-397h-141zM206 1456l-119 221h165l64 -221h-110z" />
    <glyph glyph-name="ygrave" unicode="&#x1ef3;" horiz-adv-x="470" 
d="M144 1143l76 -828l105 828h136l-213 -1401h-131l38 232l-146 1169h135zM180 1208l-119 222h165l65 -222h-111z" />
    <glyph glyph-name="uni2011" unicode="&#x2011;" horiz-adv-x="378" 
d="M40 475v131h299v-131h-299z" />
    <glyph glyph-name="figuredash" unicode="&#x2012;" horiz-adv-x="634" 
d="M40 475v131h555v-131h-555z" />
    <glyph glyph-name="endash" unicode="&#x2013;" horiz-adv-x="634" 
d="M40 475v131h555v-131h-555z" />
    <glyph glyph-name="emdash" unicode="&#x2014;" horiz-adv-x="1056" 
d="M40 475v131h977v-131h-977z" />
    <glyph glyph-name="uni2015" unicode="&#x2015;" horiz-adv-x="1056" 
d="M40 475v131h977v-131h-977z" />
    <glyph glyph-name="quoteleft" unicode="&#x2018;" horiz-adv-x="230" 
d="M184 1212v-227h-138v179q0 68 15 110l40 117h83l-45 -179h45z" />
    <glyph glyph-name="quoteright" unicode="&#x2019;" horiz-adv-x="230" 
d="M46 1163v228h138v-181q0 -66 -15 -108l-40 -117h-83l46 178h-46z" />
    <glyph glyph-name="quotesinglbase" unicode="&#x201a;" horiz-adv-x="230" 
d="M46 0v227h138v-179q0 -67 -15 -109l-40 -117h-83l46 178h-46z" />
    <glyph glyph-name="quotedblleft" unicode="&#x201c;" horiz-adv-x="430" 
d="M384 1212v-227h-139v179q0 68 15 110l40 117h84l-46 -179h46zM184 1212v-227h-138v179q0 68 15 110l40 117h83l-45 -179h45z" />
    <glyph glyph-name="quotedblright" unicode="&#x201d;" horiz-adv-x="430" 
d="M245 1163v228h139v-181q0 -62 -15 -108l-40 -117h-84l46 178h-46zM46 1163v228h138v-181q0 -66 -15 -108l-40 -117h-83l46 178h-46z" />
    <glyph glyph-name="quotedblbase" unicode="&#x201e;" horiz-adv-x="430" 
d="M245 0v227h139v-179q0 -62 -15 -109l-40 -117h-84l46 178h-46zM46 0v227h138v-179q0 -67 -15 -109l-40 -117h-83l46 178h-46z" />
    <glyph glyph-name="dagger" unicode="&#x2020;" horiz-adv-x="499" 
d="M50 1081v117l146 -6l-7 199h121l-7 -199l147 6v-117l-147 6l7 -475h-121l8 475z" />
    <glyph glyph-name="daggerdbl" unicode="&#x2021;" horiz-adv-x="499" 
d="M189 1391h121l-7 -199l147 6v-117l-147 6l1 -86l-1 -86l147 7v-117l-147 6l7 -199h-121l7 199l-146 -6v117l147 -7l-1 86l1 86l-147 -6v117l146 -6z" />
    <glyph glyph-name="bullet" unicode="&#x2022;" horiz-adv-x="450" 
d="M46 539v5q0 94 51 148q50 53 128 53q79 0 129 -53t50 -148v-5q0 -95 -50 -148q-51 -54 -129 -54q-77 0 -128 54t-51 148z" />
    <glyph glyph-name="ellipsis" unicode="&#x2026;" horiz-adv-x="691" 
d="M46 0v227h138v-227h-138zM276 0v227h139v-227h-139zM507 0v227h138v-227h-138z" />
    <glyph glyph-name="perthousand" unicode="&#x2030;" horiz-adv-x="1184" 
d="M164 0l357 1391h113l-358 -1391h-112zM46 707v510q0 86 46 137q45 49 119 49t120 -49t46 -137v-510q0 -88 -46 -137t-120 -49t-119 49q-46 51 -46 137zM168 1220v-517q0 -70 43 -70q44 0 44 70v517q0 71 -44 71q-43 0 -43 -71zM420 174v510q0 86 45 136q45 49 120 49
q74 0 120 -49t46 -136v-510q0 -88 -46 -137t-120 -49q-75 0 -120 49t-45 137zM542 687v-517q0 -71 43 -71q44 0 44 71v517q0 71 -44 71q-43 0 -43 -71zM808 174v510q0 85 46 136q45 49 119 49t120 -49t46 -136v-510q0 -88 -46 -137t-120 -49t-119 49q-46 51 -46 137z
M930 687v-517q0 -71 43 -71q44 0 44 71v517q0 71 -44 71q-43 0 -43 -71z" />
    <glyph glyph-name="guilsinglleft" unicode="&#x2039;" horiz-adv-x="310" 
d="M152 219l-133 352l133 353h133l-132 -353l132 -352h-133z" />
    <glyph glyph-name="guilsinglright" unicode="&#x203a;" horiz-adv-x="310" 
d="M291 571l-132 -352h-133l132 352l-132 353h133z" />
    <glyph glyph-name="fraction" unicode="&#x2044;" horiz-adv-x="369" 
d="M-85 0l443 1391h97l-444 -1391h-96z" />
    <glyph glyph-name="zerosuperior" unicode="&#x2070;" horiz-adv-x="409" 
d="M50 839v512q0 86 42 134t113 48q70 0 112 -48t42 -134v-512q0 -87 -42 -135t-112 -48q-71 0 -113 48t-42 135zM163 1357v-524q0 -72 42 -72q41 0 41 72v524q0 71 -41 71q-42 0 -42 -71z" />
    <glyph glyph-name="foursuperior" unicode="&#x2074;" horiz-adv-x="416" 
d="M25 797v103l168 626h135v-626h63v-103h-63v-133h-113v133h-190zM118 900h97v421z" />
    <glyph glyph-name="fivesuperior" unicode="&#x2075;" horiz-adv-x="409" 
d="M50 1121v405h302v-105h-186v-167q32 41 83 41t81 -38q29 -36 29 -112v-306q0 -87 -42 -135t-112 -48q-71 0 -113 48t-42 135v196h116v-202q0 -72 39 -72t39 72v282q0 73 -34 73q-40 0 -52 -67h-108z" />
    <glyph glyph-name="sixsuperior" unicode="&#x2076;" horiz-adv-x="409" 
d="M359 1081v-242q0 -87 -42 -135t-112 -48q-71 0 -113 48t-42 135v512q0 86 42 134t113 48q70 0 112 -48t42 -134v-46h-113v52q0 71 -41 71q-42 0 -42 -71v-167q33 50 86 50q51 0 81 -40q29 -39 29 -119zM246 833v229q0 74 -33 74q-22 0 -35 -24t-15 -41v-238q0 -72 42 -72
q41 0 41 72z" />
    <glyph glyph-name="sevensuperior" unicode="&#x2077;" horiz-adv-x="358" 
d="M337 1526v-89l-196 -773h-115l190 757h-186v105h307z" />
    <glyph glyph-name="eightsuperior" unicode="&#x2078;" horiz-adv-x="409" 
d="M50 840v140q0 89 50 133q-50 44 -50 134v103q0 87 42 135t113 48q70 0 112 -48t42 -135v-103q0 -90 -50 -134q50 -44 50 -133v-140q0 -87 -42 -135q-43 -49 -112 -49q-70 0 -113 49q-42 48 -42 135zM244 833v156q0 72 -39 72t-39 -72v-156q0 -72 39 -72t39 72zM166 1357
v-120q0 -72 39 -72t39 72v120q0 71 -39 71t-39 -71z" />
    <glyph glyph-name="ninesuperior" unicode="&#x2079;" horiz-adv-x="409" 
d="M50 1108v243q0 86 42 134t113 48q70 0 112 -48t42 -134v-512q0 -87 -42 -135t-112 -48q-71 0 -113 48t-42 135v46h114v-52q0 -72 41 -72q42 0 42 72v166q-32 -50 -86 -50q-51 0 -81 41q-30 40 -30 118zM164 1357v-230q0 -73 33 -73q21 0 35 24t15 40v239q0 71 -42 71
q-41 0 -41 -71z" />
    <glyph glyph-name="uni2080" unicode="&#x2080;" horiz-adv-x="409" 
d="M50 175v512q0 87 42 135q41 47 113 47q71 0 112 -47q42 -48 42 -135v-512q0 -87 -42 -135q-41 -47 -112 -47q-72 0 -113 47q-42 48 -42 135zM163 693v-524q0 -72 42 -72q41 0 41 72v524q0 72 -41 72q-42 0 -42 -72z" />
    <glyph glyph-name="uni2081" unicode="&#x2081;" horiz-adv-x="280" 
d="M225 862v-862h-112v692l-94 -12v104q22 3 48 13q23 9 34 20q15 15 21 22q10 11 12 17l3 6h88z" />
    <glyph glyph-name="uni2082" unicode="&#x2082;" horiz-adv-x="393" 
d="M353 638q0 -83 -31 -142l-147 -284q-18 -36 -18 -102v-6h196v-104h-309v110q0 86 30 145l147 283q19 38 19 100v55q0 72 -41 72q-42 0 -42 -72v-116h-113v109q0 87 42 135t113 48q70 0 112 -48t42 -135v-48z" />
    <glyph glyph-name="uni2083" unicode="&#x2083;" horiz-adv-x="408" 
d="M142 502h62q42 0 42 71v120q0 72 -42 72q-41 0 -41 -72v-111h-114v105q0 87 42 135q41 47 113 47q71 0 112 -47q42 -48 42 -135v-90q0 -101 -55 -147q55 -49 55 -148v-127q0 -87 -42 -135q-41 -47 -112 -47q-72 0 -113 47q-42 48 -42 135v142h114v-148q0 -72 41 -72
q42 0 42 72v157q0 71 -42 71h-62v105z" />
    <glyph glyph-name="uni2084" unicode="&#x2084;" horiz-adv-x="416" 
d="M25 133v104l168 625h135v-625h63v-104h-63v-133h-113v133h-190zM118 237h97v420z" />
    <glyph glyph-name="uni2085" unicode="&#x2085;" horiz-adv-x="409" 
d="M50 458v404h302v-104h-186v-167q32 41 83 41t81 -38q29 -36 29 -113v-306q0 -87 -42 -135q-41 -47 -112 -47q-72 0 -113 47q-42 48 -42 135v197h116v-203q0 -72 39 -72t39 72v283q0 72 -34 72q-40 0 -52 -66h-108z" />
    <glyph glyph-name="uni2086" unicode="&#x2086;" horiz-adv-x="409" 
d="M359 418v-243q0 -87 -42 -135q-41 -47 -112 -47q-72 0 -113 47q-42 48 -42 135v512q0 87 42 135q41 47 113 47q71 0 112 -47q42 -48 42 -135v-46h-113v52q0 72 -41 72q-42 0 -42 -72v-167q34 51 86 51q51 0 81 -41q29 -39 29 -118zM246 169v229q0 74 -33 74
q-22 0 -35 -24q-14 -24 -15 -40v-239q0 -72 42 -72q41 0 41 72z" />
    <glyph glyph-name="uni2087" unicode="&#x2087;" horiz-adv-x="358" 
d="M337 862v-89l-196 -773h-115l190 758h-186v104h307z" />
    <glyph glyph-name="uni2088" unicode="&#x2088;" horiz-adv-x="409" 
d="M50 176v140q0 90 50 134q-50 44 -50 134v102q0 87 42 135t113 48q70 0 112 -48t42 -135v-102q0 -90 -50 -134q50 -44 50 -134v-140q0 -87 -42 -135t-112 -48q-71 0 -113 48t-42 135zM244 169v157q0 71 -39 71t-39 -71v-157q0 -72 39 -72t39 72zM166 693v-120
q0 -71 39 -71t39 71v120q0 72 -39 72t-39 -72z" />
    <glyph glyph-name="uni2089" unicode="&#x2089;" horiz-adv-x="409" 
d="M50 444v243q0 87 42 135q41 47 113 47q71 0 112 -47q42 -48 42 -135v-512q0 -87 -42 -135q-41 -47 -112 -47q-72 0 -113 47q-42 48 -42 135v46h114v-52q0 -72 41 -72q42 0 42 72v167q-32 -50 -86 -50q-51 0 -81 40t-30 118zM164 693v-229q0 -74 33 -74q21 0 35 24
q13 24 15 41v238q0 72 -42 72q-41 0 -41 -72z" />
    <glyph glyph-name="Euro" unicode="&#x20ac;" horiz-adv-x="528" 
d="M30 757v117h51v287q0 114 53 178t144 64q87 0 142 -64q54 -63 54 -178v-177h-141v182q0 58 -14 83q-13 24 -41 24q-30 0 -43 -24q-14 -25 -14 -83v-292h253v-117h-253v-111h253v-118h-253v-304q0 -106 57 -106q28 0 41 24q14 25 14 82v195h141v-190q0 -115 -54 -178
t-142 -63q-92 0 -144 63q-53 64 -53 178v299h-51v118h51v111h-51z" />
    <glyph glyph-name="numero" unicode="&#x2116;" horiz-adv-x="992" 
d="M611 706v511q0 86 46 137q45 49 119 49t119 -49q46 -51 46 -137v-511q0 -87 -46 -138q-45 -49 -119 -49t-119 49q-46 51 -46 138zM733 1220v-519q0 -70 43 -70q44 0 44 70v519q0 71 -44 71q-43 0 -43 -71zM611 342v112h330v-112h-330zM343 0l-149 964v-964h-138v1391h167
l151 -970v970h137v-1391h-168z" />
    <glyph glyph-name="uni2117" unicode="&#x2117;" horiz-adv-x="797" 
d="M750 1142v-893q0 -107 -77 -184t-185 -77h-179q-107 0 -184 77t-77 184v893q0 107 77 184t184 77h179q108 0 185 -77t77 -184zM92 1142v-893q0 -89 64 -155q63 -64 153 -64h179q91 0 154 64q64 66 64 155v893q0 89 -64 155q-63 64 -154 64h-179q-90 0 -153 -64
q-64 -66 -64 -155zM392 566h-28v-399h-136v1057h164q89 0 145 -59t56 -163v-216q0 -102 -56 -161t-145 -59zM364 1097v-404h28q66 0 66 89v225q0 90 -66 90h-28z" />
    <glyph glyph-name="servicemark" unicode="&#x2120;" horiz-adv-x="928" 
d="M155 900v-132q0 -62 39 -62q37 0 37 62v75q0 45 -25 71l-101 107q-28 29 -41 62q-12 30 -12 79v72q0 76 39 120q39 43 103 43q62 0 101 -43q39 -44 39 -120v-129h-103v132q0 62 -37 62q-39 0 -39 -62v-75q0 -46 24 -71l102 -107q28 -28 41 -61q12 -30 12 -80v-72
q0 -77 -39 -120t-101 -43q-64 0 -103 43t-39 120v129h103zM774 615v531l-93 -531h-98l-94 531v-531h-98v776h136l105 -618l104 618h136v-776h-98z" />
    <glyph glyph-name="trademark" unicode="&#x2122;" horiz-adv-x="902" 
d="M748 615v531l-94 -531h-98l-93 531v-531h-98v776h136l104 -618l105 618h136v-776h-98zM213 1293v-678h-103v678h-95v98h292v-98h-94z" />
    <glyph glyph-name="Omega" unicode="&#x2126;" horiz-adv-x="518" 
d="M54 330v831q0 114 56 178t149 64t149 -64t56 -178v-831q0 -136 -79 -200h89v-130h-176v231q25 22 25 94v841q0 60 -16 83q-17 24 -48 24q-33 0 -49 -24q-15 -22 -15 -83v-841q0 -71 25 -95v-230h-176v130h87q-77 63 -77 200z" />
    <glyph glyph-name="estimated" unicode="&#x212e;" horiz-adv-x="438" 
d="M329 281h42q-23 -131 -64 -211q-39 -76 -86 -76q-78 0 -130 197q-53 200 -53 504t53 504q53 198 130 198t130 -198q53 -200 53 -504v-20h-250v-556q31 -85 67 -85q32 0 60 64q29 64 48 183zM289 717v553q-33 85 -68 85q-36 0 -67 -85v-553h135z" />
    <glyph glyph-name="partialdiff" unicode="&#x2202;" horiz-adv-x="512" 
d="M83 1273v130h172q91 0 147 -64t56 -178v-932q0 -114 -56 -178q-56 -63 -147 -63q-93 0 -148 63q-55 62 -55 178v724q0 101 40 155q39 53 106 53q74 0 118 -69v74q0 61 -14 83q-15 24 -47 24h-172zM193 923v-699q0 -58 15 -82t47 -24q31 0 46 24t15 82v709q0 24 -19 59
q-19 36 -53 36q-51 0 -51 -105z" />
    <glyph glyph-name="Delta" unicode="&#x2206;" horiz-adv-x="503" 
d="M19 0l143 1391h180l142 -1391h-465zM252 1110l-81 -980h165z" />
    <glyph glyph-name="product" unicode="&#x220f;" horiz-adv-x="688" 
d="M15 1261v130h658v-130h-125v-1341h-130v1341h-149v-1341h-129v1341h-125z" />
    <glyph glyph-name="summation" unicode="&#x2211;" horiz-adv-x="479" 
d="M36 -80v106l187 629l-187 630v106h407v-130h-267l180 -606l-180 -605h267v-130h-407z" />
    <glyph glyph-name="minus" unicode="&#x2212;" horiz-adv-x="552" 
d="M40 475v131h473v-131h-473z" />
    <glyph glyph-name="radical" unicode="&#x221a;" horiz-adv-x="695" 
d="M40 587v108h199l87 -482l223 1245h127l-277 -1458h-146l-113 587h-100z" />
    <glyph glyph-name="infinity" unicode="&#x221e;" horiz-adv-x="780" 
d="M758 554v-27q0 -103 -50 -162t-131 -59q-59 0 -97 31t-91 105q-53 -74 -90 -105t-95 -31q-82 0 -132 59q-49 58 -49 162v27q0 105 49 163t132 58q58 0 95 -31q37 -32 90 -105q53 74 91 105t97 31q82 0 131 -58q50 -59 50 -163zM632 523v35q0 55 -15 76t-45 21
q-20 0 -33 -12q-14 -12 -41 -50l-38 -52l38 -53q27 -38 41 -50q13 -12 33 -12q30 0 45 21t15 76zM148 558v-35q0 -55 15 -76t44 -21q20 0 35 12q12 9 41 50l36 53l-36 52q-29 41 -41 50q-15 12 -35 12q-29 0 -44 -21t-15 -76z" />
    <glyph glyph-name="integral" unicode="&#x222b;" horiz-adv-x="417" 
d="M270 1248v-1106q0 -105 -55 -163q-56 -59 -142 -59h-41v109h41q34 0 53 25q20 26 20 76v1106q0 104 56 163t142 59h42v-108h-41q-33 0 -54 -25q-21 -26 -21 -77z" />
    <glyph glyph-name="approxequal" unicode="&#x2248;" horiz-adv-x="587" 
d="M260 770l107 -56q21 -12 32 -12q17 0 17 20v79h132v-101q0 -134 -118 -134q-42 0 -102 31l-107 56q-21 12 -33 12q-16 0 -16 -20v-79h-132v101q0 134 118 134q42 0 102 -31zM328 312l-107 57q-19 11 -33 11q-16 0 -16 -20v-78h-132v100q0 134 118 134q42 0 102 -31
l107 -56q19 -11 32 -11q17 0 17 19v79h132v-100q0 -134 -118 -134q-44 0 -102 30z" />
    <glyph glyph-name="notequal" unicode="&#x2260;" horiz-adv-x="552" 
d="M40 596v128h249l46 115h122l-46 -115h102v-128h-154l-44 -111h198v-128h-249l-45 -114h-123l46 114h-102v128h154l44 111h-198z" />
    <glyph glyph-name="lessequal" unicode="&#x2264;" horiz-adv-x="552" 
d="M40 407v139l473 166v-135l-317 -101l317 -100v-135zM40 0v130h473v-130h-473z" />
    <glyph glyph-name="greaterequal" unicode="&#x2265;" horiz-adv-x="552" 
d="M513 546v-139l-473 -166v135l317 100l-317 101v135zM513 130v-130h-473v130h473z" />
    <glyph glyph-name="dotmath" unicode="&#x22c5;" horiz-adv-x="230" 
d="M46 427v227h138v-227h-138z" />
    <glyph glyph-name="lozenge" unicode="&#x25ca;" horiz-adv-x="503" 
d="M19 695l143 696h180l142 -696l-142 -695h-180zM347 695l-95 557l-95 -557l95 -558z" />
    <glyph glyph-name="uniF638" unicode="&#xf638;" horiz-adv-x="518" 
d="M54 229v932q0 114 56 178t149 64t149 -64t56 -178v-932q0 -114 -56 -178q-56 -63 -149 -63t-149 63q-56 64 -56 178zM195 1166v-651l128 578v73q0 60 -16 83q-17 24 -48 24q-33 0 -49 -24q-15 -22 -15 -83zM195 293v-69q0 -59 16 -82q17 -24 48 -24t48 24q16 23 16 82
v646z" />
    <glyph glyph-name="commaaccent" unicode="&#xf6c3;" horiz-adv-x="227" 
d="M48 -270v204h131v-149q0 -55 -18 -95l-35 -74h-78l46 114h-46z" />
    <glyph glyph-name="centsuperior" unicode="&#xf6e0;" horiz-adv-x="375" 
d="M136 528v77q-44 15 -67 50q-25 37 -25 91v426q0 54 25 91q24 36 67 51v77h106v-77q44 -14 67 -50q25 -39 25 -92v-153h-111v157q0 56 -34 56t-34 -56v-433q0 -56 34 -56t34 56v160h111v-157q0 -52 -25 -91q-23 -36 -67 -51v-76h-106z" />
    <glyph glyph-name="dollarsuperior" unicode="&#xf6e4;" horiz-adv-x="397" 
d="M143 460v68q-45 15 -71 51q-26 37 -26 92v187h116v-190q0 -57 37 -57t37 57v150q0 21 -5 36q-4 11 -20 26l-108 99q-29 26 -44 56q-13 26 -13 72v141q0 55 26 92q26 36 71 50v70h111v-70q45 -14 71 -50q26 -37 26 -92v-183h-115v186q0 57 -37 57t-37 -57v-144
q0 -23 4 -35q4 -11 20 -26l108 -100q29 -26 44 -56q13 -26 13 -72v-147q0 -57 -25 -92q-26 -36 -72 -51v-68h-111z" />
    <glyph glyph-name="apple" unicode="&#xf8ff;" horiz-adv-x="897" 
d="M56 317v785h785v-785h-785zM474 574h175v33h-136v86h110v33h-110v86h136v33h-175v-271zM293 672l42 114l42 -114h-84zM219 574h40l24 65h104l24 -65h40l-99 271h-35z" />
    <glyph glyph-name="doublebar" horiz-adv-x="437" 
d="M50 -143v1648h119v-1648h-119zM387 1505v-1648h-120v1648h120z" />
    <glyph glyph-name="zero_slash.lt" 
d="M52 229v932q0 114 56 178t149 64t149 -64t56 -178v-932q0 -114 -56 -178q-56 -63 -149 -63t-149 63q-56 64 -56 178zM193 1166v-651l128 578v73q0 60 -16 83q-17 24 -48 24q-33 0 -49 -24q-15 -22 -15 -83zM193 293v-69q0 -59 16 -82q17 -24 48 -24t48 24q16 23 16 82
v646z" />
    <glyph glyph-name="zero.lt" 
d="M52 229v932q0 114 56 178t149 64t149 -64t56 -178v-932q0 -114 -56 -178q-56 -63 -149 -63t-149 63q-56 64 -56 178zM193 1166v-942q0 -59 16 -82q17 -24 48 -24t48 24q16 23 16 82v942q0 60 -16 83q-17 24 -48 24q-33 0 -49 -24q-15 -22 -15 -83z" />
    <glyph glyph-name="one.lt" 
d="M375 1391v-1391h-142v1156l-127 -22v131q35 5 64 20q30 16 46 33t28 34t16 27l4 12h111z" />
    <glyph glyph-name="two.lt" 
d="M463 1023q0 -131 -41 -231l-200 -476q-14 -31 -19 -66q-5 -37 -5 -104v-16h265v-130h-406v146q0 78 9 129q10 56 32 106l200 475q14 35 18 66q6 44 6 101v143q0 59 -15 83t-47 24t-47 -24t-15 -83v-227h-141v222q0 116 55 178q56 64 148 64t148 -64q55 -62 55 -178v-138z
" />
    <glyph glyph-name="three.lt" 
d="M179 792h77q32 0 47 24t15 81v269q0 59 -15 83t-47 24t-47 -24q-14 -22 -14 -83v-227h-142v222q0 114 56 178t147 64q92 0 148 -64q55 -62 55 -178v-247q0 -123 -65 -188q65 -65 65 -188v-309q0 -116 -55 -178q-56 -63 -148 -63t-147 63q-56 64 -56 178v284h142v-289
q0 -58 15 -82t46 -24q32 0 47 24t15 82v331q0 57 -15 81t-47 24h-77v132z" />
    <glyph glyph-name="four.lt" 
d="M15 231v129l225 1031h175v-1031h84v-129h-84v-231h-142v231h-258zM134 360h139v730z" />
    <glyph glyph-name="five.lt" 
d="M54 741v650h396v-130h-255v-350q44 71 119 71q67 0 106 -53q40 -54 40 -155v-545q0 -114 -56 -178q-56 -63 -147 -63q-92 0 -148 63q-55 62 -55 178v364h141v-369q0 -58 15 -82t47 -24q31 0 46 24t15 82v518q0 62 -12 83q-14 24 -40 24q-65 0 -83 -108h-129z" />
    <glyph glyph-name="six.lt" 
d="M460 754v-525q0 -114 -56 -178q-56 -63 -147 -63q-92 0 -148 63q-55 62 -55 178v932q0 116 55 178q56 64 148 64q91 0 147 -64t56 -178v-89h-142v94q0 61 -14 83q-15 24 -47 24t-47 -24t-15 -83v-275q44 71 119 71q67 0 106 -53q40 -54 40 -155zM318 224v498
q0 106 -50 106q-34 0 -53 -36q-20 -37 -20 -59v-509q0 -58 15 -82t47 -24q31 0 46 24t15 82z" />
    <glyph glyph-name="seven.lt" 
d="M464 1391v-106l-267 -1285h-142l262 1261h-256v130h403z" />
    <glyph glyph-name="eight.lt" 
d="M54 229v309q0 121 64 188q-64 67 -64 188v247q0 116 55 178q56 64 148 64q91 0 147 -64t56 -178v-247q0 -123 -65 -188q65 -65 65 -188v-309q0 -114 -56 -178q-56 -63 -147 -63q-92 0 -148 63q-55 62 -55 178zM195 555v-331q0 -58 15 -82t47 -24q31 0 46 24t15 82v331
q0 59 -14 81q-15 24 -47 24t-47 -24t-15 -81zM195 1166v-269q0 -57 15 -81t47 -24t47 24q14 22 14 81v269q0 61 -14 83q-15 24 -47 24t-47 -24t-15 -83z" />
    <glyph glyph-name="nine.lt" 
d="M54 637v524q0 114 56 178t147 64q92 0 148 -64q55 -62 55 -178v-932q0 -116 -55 -178q-55 -63 -148 -63q-91 0 -147 63q-56 64 -56 178v89h142v-94q0 -60 14 -82q15 -24 47 -24t47 24t15 82v276q-44 -71 -119 -71q-67 0 -106 53q-40 54 -40 155zM196 1166v-497
q0 -107 50 -107q34 0 54 37q19 35 19 58v509q0 58 -15 82q-16 25 -47 25t-46 -24t-15 -83z" />
    <glyph glyph-name="multiply.lt" 
d="M35 825l92 93l130 -131l130 131l92 -93l-130 -130l130 -130l-92 -92l-130 130l-130 -130l-92 92l130 130z" />
    <glyph glyph-name="plus.lt" 
d="M20 630v131h170v171h133v-171h171v-131h-171v-171h-133v171h-170z" />
    <glyph glyph-name="minus.lt" 
d="M20 630v131h474v-131h-474z" />
    <glyph glyph-name="divide.lt" 
d="M325 824h-136v168h136v-168zM189 566h136v-168h-136v168zM20 630v131h474v-131h-474z" />
    <glyph glyph-name="equal.lt" 
d="M20 751v128h474v-128h-474zM20 512v128h474v-128h-474z" />
    <glyph glyph-name="less.lt" 
d="M20 626v139l474 166v-135l-318 -101l318 -100v-135z" />
    <glyph glyph-name="greater.lt" 
d="M494 765v-139l-474 -166v135l318 100l-318 101v135z" />
    <glyph glyph-name="plusminus.lt" 
d="M20 582v131h170v171h133v-171h171v-131h-171v-171h-133v171h-170zM20 155v130h474v-130h-474z" />
    <glyph glyph-name="lessequal.lt" 
d="M20 561v139l474 166v-135l-318 -100l318 -101v-135zM20 155v130h474v-130h-474z" />
    <glyph glyph-name="greaterequal.lt" 
d="M494 700v-139l-474 -166v135l318 101l-318 100v135zM494 285v-130h-474v130h474z" />
    <glyph glyph-name="notequal.lt" 
d="M20 751v128h249l46 114h122l-46 -114h103v-128h-154l-44 -111h198v-128h-249l-45 -115h-123l46 115h-103v128h154l44 111h-198z" />
    <glyph glyph-name="approxequal.lt" 
d="M223 925l107 -57q19 -11 32 -11q17 0 17 20v78h132v-100q0 -134 -118 -134q-42 0 -102 31l-107 56q-19 11 -32 11q-17 0 -17 -19v-79h-132v100q0 134 118 134q43 0 102 -30zM291 467l-107 56q-21 12 -32 12q-17 0 -17 -20v-79h-132v101q0 134 118 134q42 0 102 -31
l107 -56q21 -12 32 -12q17 0 17 20v79h132v-101q0 -134 -118 -134q-42 0 -102 31z" />
    <glyph glyph-name="space.tab" horiz-adv-x="257" 
 />
    <glyph glyph-name="period.tab" horiz-adv-x="257" 
d="M59 0v227h139v-227h-139z" />
    <glyph glyph-name="comma.tab" horiz-adv-x="257" 
d="M59 0v227h139v-179q0 -72 -21 -119l-35 -83h-83l46 154h-46z" />
    <glyph glyph-name="colon.tab" horiz-adv-x="257" 
d="M59 0v227h139v-227h-139zM59 915v228h139v-228h-139z" />
    <glyph glyph-name="semicolon.tab" horiz-adv-x="257" 
d="M59 0v227h139v-179q0 -72 -21 -119l-35 -83h-83l46 154h-46zM59 915v228h139v-228h-139z" />
    <glyph glyph-name="zero_slash.op" horiz-adv-x="518" 
d="M54 229v684q0 115 56 179q56 63 149 63t149 -63q56 -64 56 -179v-684q0 -114 -56 -178q-56 -63 -149 -63t-149 63q-56 64 -56 178zM195 919v-481l128 426v55q0 59 -16 82q-17 24 -48 24q-33 0 -49 -24q-15 -22 -15 -82zM195 275v-51q0 -59 16 -82q17 -24 48 -24t48 24
q16 23 16 82v476z" />
    <glyph glyph-name="zero.op" horiz-adv-x="518" 
d="M54 229v684q0 115 56 179q56 63 149 63t149 -63q56 -64 56 -179v-684q0 -114 -56 -178q-56 -63 -149 -63t-149 63q-56 64 -56 178zM195 919v-695q0 -59 16 -82q17 -24 48 -24t48 24q16 23 16 82v695q0 59 -16 82q-17 24 -48 24q-33 0 -49 -24q-15 -22 -15 -82z" />
    <glyph glyph-name="one.op" horiz-adv-x="356" 
d="M300 1143v-1143h-141v908l-135 -22v131q36 4 67 20q28 14 47 33t30 34q11 16 16 28l5 11h111z" />
    <glyph glyph-name="two.op" horiz-adv-x="505" 
d="M48 0v146q0 67 14 112q14 46 57 111l160 253q26 40 34 67q8 29 8 79v151q0 57 -17 82q-16 24 -49 24t-50 -24q-17 -25 -17 -82v-228h-140v222q0 117 56 179q57 63 151 63t151 -63q56 -62 56 -179v-145q0 -67 -14 -112q-14 -44 -57 -111l-161 -252q-26 -41 -34 -69
q-8 -29 -8 -78v-16h274v-130h-414z" />
    <glyph glyph-name="three.op" horiz-adv-x="512" 
d="M178 544h77q32 0 47 24t15 81v270q0 58 -15 82t-47 24t-47 -24q-14 -22 -14 -82v-228h-142v222q0 115 56 179q56 63 147 63q93 0 148 -63q55 -62 55 -179v-246q0 -124 -65 -189q65 -65 65 -188v-308q0 -117 -55 -179q-56 -63 -148 -63q-91 0 -147 63q-56 64 -56 179v283
h142v-289q0 -58 15 -82t46 -24t47 25q15 24 15 81v331q0 58 -15 82t-47 24h-77v131z" />
    <glyph glyph-name="four.op" horiz-adv-x="528" 
d="M22 0v128l224 1015h175v-1015h84v-128h-84v-248h-141v248h-258zM140 128h140v719z" />
    <glyph glyph-name="five.op" 
d="M54 494v649h396v-130h-255v-349q43 70 119 70q67 0 106 -53q40 -54 40 -155v-544q0 -115 -56 -179q-56 -63 -147 -63q-92 0 -148 63q-55 62 -55 179v363h141v-369q0 -57 15 -81q16 -25 47 -25t46 24t15 82v519q0 61 -12 82q-14 24 -40 24q-65 0 -83 -107h-129z" />
    <glyph glyph-name="six.op" 
d="M460 754v-525q0 -114 -56 -178q-56 -63 -147 -63q-92 0 -148 63q-55 62 -55 178v932q0 116 55 178q56 64 148 64q91 0 147 -64t56 -178v-89h-142v94q0 61 -14 83q-15 24 -47 24t-47 -24t-15 -83v-275q44 71 119 71q67 0 106 -53q40 -54 40 -155zM318 224v498
q0 106 -50 106q-34 0 -53 -36q-20 -37 -20 -59v-509q0 -58 15 -82t47 -24q31 0 46 24t15 82z" />
    <glyph glyph-name="seven.op" horiz-adv-x="463" 
d="M438 1143v-106l-267 -1285h-141l262 1261h-256v130h402z" />
    <glyph glyph-name="eight.op" 
d="M54 229v309q0 121 64 188q-64 67 -64 188v247q0 116 55 178q56 64 148 64q91 0 147 -64t56 -178v-247q0 -123 -65 -188q65 -65 65 -188v-309q0 -114 -56 -178q-56 -63 -147 -63q-92 0 -148 63q-55 62 -55 178zM195 555v-331q0 -58 15 -82t47 -24q31 0 46 24t15 82v331
q0 59 -14 81q-15 24 -47 24t-47 -24t-15 -81zM195 1166v-269q0 -57 15 -81t47 -24t47 24q14 22 14 81v269q0 61 -14 83q-15 24 -47 24t-47 -24t-15 -83z" />
    <glyph glyph-name="nine.op" 
d="M54 389v524q0 115 56 179q56 63 147 63q93 0 148 -63q55 -62 55 -179v-931q0 -117 -55 -179q-55 -63 -148 -63q-91 0 -147 63q-56 64 -56 179v89h142v-95q0 -60 14 -82q15 -24 47 -24t47 24t15 82v276q-44 -71 -119 -71q-67 0 -106 53q-40 54 -40 155zM196 919v-498
q0 -107 50 -107q34 0 54 37q19 35 19 59v509q0 57 -15 81q-16 25 -47 25t-46 -24t-15 -82z" />
    <glyph glyph-name="multiply.op" horiz-adv-x="532" 
d="M44 671l92 92l130 -130l130 130l92 -92l-130 -130l130 -130l-92 -93l-130 131l-130 -131l-92 93l130 130z" />
    <glyph glyph-name="plus.op" horiz-adv-x="552" 
d="M40 475v131h170v171h132v-171h171v-131h-171v-171h-132v171h-170z" />
    <glyph glyph-name="minus.op" horiz-adv-x="552" 
d="M40 475v131h473v-131h-473z" />
    <glyph glyph-name="divide.op" horiz-adv-x="552" 
d="M344 670h-135v168h135v-168zM209 412h135v-168h-135v168zM40 475v131h473v-131h-473z" />
    <glyph glyph-name="equal.op" horiz-adv-x="552" 
d="M40 596v128h473v-128h-473zM40 357v128h473v-128h-473z" />
    <glyph glyph-name="less.op" horiz-adv-x="552" 
d="M40 471v139l473 166v-135l-317 -100l317 -101v-135z" />
    <glyph glyph-name="greater.op" horiz-adv-x="552" 
d="M513 610v-139l-473 -166v135l317 101l-317 100v135z" />
    <glyph glyph-name="plusminus.op" horiz-adv-x="552" 
d="M40 427v131h170v171h132v-171h171v-131h-171v-171h-132v171h-170zM40 0v130h473v-130h-473z" />
    <glyph glyph-name="lessequal.op" horiz-adv-x="552" 
d="M40 407v139l473 166v-135l-317 -101l317 -100v-135zM40 0v130h473v-130h-473z" />
    <glyph glyph-name="greaterequal.op" horiz-adv-x="552" 
d="M513 546v-139l-473 -166v135l317 100l-317 101v135zM513 130v-130h-473v130h473z" />
    <glyph glyph-name="notequal.op" horiz-adv-x="552" 
d="M40 596v128h249l46 115h122l-46 -115h102v-128h-154l-44 -111h198v-128h-249l-45 -114h-123l46 114h-102v128h154l44 111h-198z" />
    <glyph glyph-name="approxequal.op" horiz-adv-x="587" 
d="M260 770l107 -56q21 -12 32 -12q17 0 17 20v79h132v-101q0 -134 -118 -134q-42 0 -102 31l-107 56q-21 12 -33 12q-16 0 -16 -20v-79h-132v101q0 134 118 134q42 0 102 -31zM328 312l-107 57q-19 11 -33 11q-16 0 -16 -20v-78h-132v100q0 134 118 134q42 0 102 -31
l107 -56q19 -11 32 -11q17 0 17 19v79h132v-100q0 -134 -118 -134q-44 0 -102 30z" />
    <glyph glyph-name="infinity.op" horiz-adv-x="780" 
d="M758 554v-27q0 -103 -50 -162t-131 -59q-59 0 -97 31t-91 105q-53 -74 -90 -105t-95 -31q-82 0 -132 59q-49 58 -49 162v27q0 105 49 163t132 58q58 0 95 -31q37 -32 90 -105q53 74 91 105t97 31q82 0 131 -58q50 -59 50 -163zM632 523v35q0 55 -15 76t-45 21
q-20 0 -33 -12q-14 -12 -41 -50l-38 -52l38 -53q27 -38 41 -50q13 -12 33 -12q30 0 45 21t15 76zM148 558v-35q0 -55 15 -76t44 -21q20 0 35 12q12 9 41 50l36 53l-36 52q-29 41 -41 50q-15 12 -35 12q-29 0 -44 -21t-15 -76z" />
    <glyph glyph-name="zero_slash.ot" 
d="M52 229v684q0 115 56 179q56 63 149 63t149 -63q56 -64 56 -179v-684q0 -114 -56 -178q-56 -63 -149 -63t-149 63q-56 64 -56 178zM193 919v-481l128 426v55q0 59 -16 82q-17 24 -48 24q-33 0 -49 -24q-15 -22 -15 -82zM193 275v-51q0 -59 16 -82q17 -24 48 -24t48 24
q16 23 16 82v476z" />
    <glyph glyph-name="zero.ot" 
d="M52 229v684q0 115 56 179q56 63 149 63t149 -63q56 -64 56 -179v-684q0 -114 -56 -178q-56 -63 -149 -63t-149 63q-56 64 -56 178zM193 919v-695q0 -59 16 -82q17 -24 48 -24t48 24q16 23 16 82v695q0 59 -16 82q-17 24 -48 24q-33 0 -49 -24q-15 -22 -15 -82z" />
    <glyph glyph-name="one.ot" 
d="M379 1143v-1143h-141v908l-136 -22v131q36 4 67 20q30 15 48 33q19 19 30 34q13 18 17 28l4 11h111z" />
    <glyph glyph-name="two.ot" 
d="M52 0v146q0 67 14 112q14 46 57 111l160 253q26 40 34 67q8 29 8 79v151q0 57 -17 82q-16 24 -49 24t-50 -24q-16 -23 -16 -82v-228h-141v222q0 116 57 179t150 63q94 0 151 -63q56 -62 56 -179v-145q0 -67 -14 -112q-14 -44 -57 -111l-161 -252q-26 -41 -34 -69
q-7 -25 -7 -78v-16h273v-130h-414z" />
    <glyph glyph-name="three.ot" 
d="M179 544h77q32 0 47 24t15 81v270q0 58 -15 82t-47 24t-47 -24q-14 -22 -14 -82v-228h-142v222q0 115 56 179q55 63 147 63t148 -63q55 -62 55 -179v-246q0 -124 -65 -189q65 -65 65 -188v-308q0 -117 -55 -179q-56 -63 -148 -63t-147 63q-56 64 -56 179v283h142v-289
q0 -58 15 -82t46 -24t47 25q15 24 15 81v331q0 58 -15 82t-47 24h-77v131z" />
    <glyph glyph-name="four.ot" 
d="M15 0v128l225 1015h175v-1015h84v-128h-84v-248h-142v248h-258zM134 128h139v719z" />
    <glyph glyph-name="five.ot" 
d="M54 494v649h396v-130h-255v-349q43 70 119 70q67 0 106 -53q40 -54 40 -155v-544q0 -115 -56 -179q-56 -63 -147 -63q-92 0 -148 63q-55 62 -55 179v363h141v-369q0 -57 15 -81q16 -25 47 -25t46 24t15 82v519q0 61 -12 82q-14 24 -40 24q-65 0 -83 -107h-129z" />
    <glyph glyph-name="six.ot" 
d="M460 754v-525q0 -114 -56 -178q-56 -63 -147 -63q-92 0 -148 63q-55 62 -55 178v932q0 116 55 178q56 64 148 64q91 0 147 -64t56 -178v-89h-142v94q0 61 -14 83q-15 24 -47 24t-47 -24t-15 -83v-275q44 71 119 71q67 0 106 -53q40 -54 40 -155zM318 224v498
q0 106 -50 106q-34 0 -53 -36q-20 -37 -20 -59v-509q0 -58 15 -82t47 -24q31 0 46 24t15 82z" />
    <glyph glyph-name="seven.ot" 
d="M464 1143v-106l-267 -1285h-142l262 1261h-256v130h403z" />
    <glyph glyph-name="eight.ot" 
d="M54 229v309q0 121 64 188q-64 67 -64 188v247q0 116 55 178q56 64 148 64q91 0 147 -64t56 -178v-247q0 -123 -65 -188q65 -65 65 -188v-309q0 -114 -56 -178q-56 -63 -147 -63q-92 0 -148 63q-55 62 -55 178zM195 555v-331q0 -58 15 -82t47 -24q31 0 46 24t15 82v331
q0 59 -14 81q-15 24 -47 24t-47 -24t-15 -81zM195 1166v-269q0 -57 15 -81t47 -24t47 24q14 22 14 81v269q0 61 -14 83q-15 24 -47 24t-47 -24t-15 -83z" />
    <glyph glyph-name="nine.ot" 
d="M54 389v524q0 115 56 179q56 63 147 63q93 0 148 -63q55 -62 55 -179v-931q0 -117 -55 -179q-55 -63 -148 -63q-91 0 -147 63q-56 64 -56 179v89h142v-95q0 -60 14 -82q15 -24 47 -24t47 24t15 82v276q-44 -71 -119 -71q-67 0 -106 53q-40 54 -40 155zM196 919v-498
q0 -107 50 -107q34 0 54 37q19 35 19 59v509q0 57 -15 81q-16 25 -47 25t-46 -24t-15 -82z" />
    <glyph glyph-name="multiply.ot" 
d="M387 763l92 -92l-130 -130l130 -130l-92 -93l-130 131l-130 -131l-92 93l130 130l-130 130l92 92l130 -130z" />
    <glyph glyph-name="plus.ot" 
d="M20 475v131h170v171h133v-171h171v-131h-171v-171h-133v171h-170z" />
    <glyph glyph-name="minus.ot" 
d="M20 475v131h474v-131h-474z" />
    <glyph glyph-name="divide.ot" 
d="M325 670h-136v168h136v-168zM189 412h136v-168h-136v168zM20 475v131h474v-131h-474z" />
    <glyph glyph-name="equal.ot" 
d="M20 596v128h474v-128h-474zM20 357v128h474v-128h-474z" />
    <glyph glyph-name="less.ot" 
d="M20 471v139l474 166v-135l-318 -100l318 -101v-135z" />
    <glyph glyph-name="greater.ot" 
d="M494 610v-139l-474 -166v135l318 101l-318 100v135z" />
    <glyph glyph-name="plusminus.ot" 
d="M494 558v-131h-170v-171h-133v171h-171v131h171v171h133v-171h170zM494 130v-130h-474v130h474z" />
    <glyph glyph-name="lessequal.ot" 
d="M20 407v139l474 166v-135l-318 -101l318 -100v-135zM20 0v130h474v-130h-474z" />
    <glyph glyph-name="greaterequal.ot" 
d="M494 546v-139l-474 -166v135l318 100l-318 101v135zM494 130v-130h-474v130h474z" />
    <glyph glyph-name="notequal.ot" 
d="M20 596v128h249l46 115h122l-46 -115h103v-128h-154l-44 -111h198v-128h-249l-45 -114h-123l46 114h-103v128h154l44 111h-198z" />
    <glyph glyph-name="approxequal.ot" 
d="M223 770l107 -56q21 -12 32 -12q17 0 17 20v79h132v-101q0 -134 -118 -134q-42 0 -102 31l-107 56q-21 12 -32 12q-17 0 -17 -20v-79h-132v101q0 134 118 134q42 0 102 -31zM291 312l-107 57q-19 11 -32 11q-17 0 -17 -20v-78h-132v100q0 134 118 134q42 0 102 -31
l107 -56q19 -11 32 -11q17 0 17 19v79h132v-100q0 -134 -118 -134q-43 0 -102 30z" />
    <glyph glyph-name="numero.alt3" horiz-adv-x="992" 
d="M611 706v511q0 86 46 137q45 49 119 49t119 -49q46 -51 46 -137v-511q0 -87 -46 -138q-45 -49 -119 -49t-119 49q-46 51 -46 138zM733 1220v-519q0 -70 43 -70q44 0 44 70v519q0 71 -44 71q-43 0 -43 -71zM343 0l-149 964v-964h-138v1391h167l151 -970v970h137v-1391
h-168z" />
    <glyph glyph-name="Aringacute.alt" horiz-adv-x="507" 
d="M19 0l141 1328q-68 39 -68 119q0 65 46 103q44 37 116 37q70 0 116 -37t46 -103q0 -76 -64 -116l136 -1331h-137l-22 256h-147l-21 -256h-142zM257 1123l-63 -741h123zM400 1776l-85 -136h-106l27 136h164zM254 1392q26 0 40 13q15 13 15 42t-15 42q-16 14 -40 14
q-23 0 -40 -14q-16 -13 -16 -42t16 -42t40 -13z" />
    <glyph glyph-name="doublegrave" horiz-adv-x="491" 
d="M146 1208l-114 222h159l62 -222h-107zM345 1208l-115 222h160l62 -222h-107z" />
    <glyph glyph-name="caronSlovak" horiz-adv-x="225" 
d="M204 1391l-61 -223h-101l13 223h149z" />
    <glyph glyph-name="invertedbreve" horiz-adv-x="419" 
d="M380 1228v-20h-113v19q0 105 -57 105t-57 -105v-19h-113v20q0 96 45 149t125 53t125 -53t45 -149z" />
    <glyph glyph-name="altcedilla" horiz-adv-x="315" 
d="M137 -93l-67 124h117l60 -107q28 -52 28 -90q0 -92 -115 -92h-116v115h88q19 0 19 17q0 8 -14 33z" />
    <glyph glyph-name="space_uni0326" horiz-adv-x="227" 
d="M48 -270v204h131v-149q0 -55 -18 -95l-35 -74h-78l46 114h-46z" />
    <glyph glyph-name="dotbelow" horiz-adv-x="241" 
d="M48 -258v184h146v-184h-146z" />
    <glyph glyph-name="space.frac" horiz-adv-x="108" 
 />
    <glyph glyph-name="one.numr" horiz-adv-x="277" 
d="M225 1391v-863h-112v693l-94 -13v105q25 3 48 12q22 9 34 21q3 3 7.5 7t7.5 7.5t6 6.5q10 11 12 17l3 7h88z" />
    <glyph glyph-name="four.numr" horiz-adv-x="416" 
d="M25 662v103l168 626h135v-626h63v-103h-63v-134h-113v134h-190zM118 765h97v421z" />
    <glyph glyph-name="two.numr" horiz-adv-x="393" 
d="M353 1166q0 -83 -31 -142l-147 -284q-18 -36 -18 -102v-5h196v-105h-309v110q0 86 30 145l147 283q19 38 19 100v56q0 71 -41 71q-42 0 -42 -71v-117h-113v109q0 88 42 136t113 48q70 0 112 -48t42 -136v-48z" />
    <glyph glyph-name="three.numr" horiz-adv-x="408" 
d="M142 1030h62q42 0 42 72v120q0 71 -42 71q-41 0 -41 -71v-112h-114v105q0 87 42 135t113 48q70 0 112 -48t42 -135v-90q0 -101 -55 -147q55 -49 55 -148v-127q0 -86 -42 -134t-112 -48q-71 0 -113 48t-42 134v143h114v-149q0 -71 41 -71q42 0 42 71v157q0 72 -42 72h-62
v104z" />
    <glyph glyph-name="zero.numr" horiz-adv-x="409" 
d="M50 703v512q0 87 42 135t113 48q70 0 112 -48t42 -135v-512q0 -86 -42 -134t-112 -48q-71 0 -113 48t-42 134zM163 1222v-525q0 -71 42 -71q41 0 41 71v525q0 71 -41 71q-42 0 -42 -71z" />
    <glyph glyph-name="five.numr" horiz-adv-x="409" 
d="M50 986v405h302v-105h-186v-167q32 41 83 41t81 -38q29 -36 29 -112v-307q0 -86 -42 -134t-112 -48q-71 0 -113 48t-42 134v197h116v-203q0 -71 39 -71t39 71v283q0 73 -34 73q-40 0 -52 -67h-108z" />
    <glyph glyph-name="six.numr" horiz-adv-x="409" 
d="M359 946v-243q0 -86 -42 -134t-112 -48q-71 0 -113 48t-42 134v512q0 87 42 135t113 48q70 0 112 -48t42 -135v-46h-113v53q0 71 -41 71q-42 0 -42 -71v-167q33 50 86 50q51 0 81 -41q29 -39 29 -118zM246 697v230q0 73 -33 73q-22 0 -35 -24q-14 -24 -15 -40v-239
q0 -71 42 -71q41 0 41 71z" />
    <glyph glyph-name="seven.numr" horiz-adv-x="358" 
d="M337 1391v-89l-196 -774h-115l190 758h-186v105h307z" />
    <glyph glyph-name="eight.numr" horiz-adv-x="409" 
d="M50 705v140q0 89 50 133q-50 44 -50 134v102q0 88 42 136t113 48q70 0 112 -48t42 -136v-102q0 -90 -50 -134q50 -44 50 -133v-140q0 -88 -42 -136t-112 -48q-71 0 -113 48t-42 136zM244 697v157q0 72 -39 72t-39 -72v-157q0 -71 39 -71t39 71zM166 1222v-120
q0 -72 39 -72t39 72v120q0 71 -39 71t-39 -71z" />
    <glyph glyph-name="nine.numr" horiz-adv-x="409" 
d="M50 973v242q0 87 42 135t113 48q70 0 112 -48t42 -135v-512q0 -86 -42 -134t-112 -48q-71 0 -113 48t-42 134v47h114v-53q0 -71 41 -71q42 0 42 71v167q-32 -50 -86 -50q-51 0 -81 41t-30 118zM164 1222v-230q0 -73 33 -73q21 0 35 24t15 40v239q0 71 -42 71
q-41 0 -41 -71z" />
    <glyph glyph-name="zero.dnom" horiz-adv-x="409" 
d="M50 175v512q0 87 42 135q41 47 113 47q71 0 112 -47q42 -48 42 -135v-512q0 -87 -42 -135q-41 -47 -112 -47q-72 0 -113 47q-42 48 -42 135zM163 693v-524q0 -72 42 -72q41 0 41 72v524q0 72 -41 72q-42 0 -42 -72z" />
    <glyph glyph-name="one.dnom" horiz-adv-x="280" 
d="M225 862v-862h-112v692l-94 -12v104q22 3 48 13q23 9 34 20q15 15 21 22q10 11 12 17l3 6h88z" />
    <glyph glyph-name="two.dnom" horiz-adv-x="393" 
d="M353 638q0 -83 -31 -142l-147 -284q-18 -36 -18 -102v-6h196v-104h-309v110q0 86 30 145l147 283q19 38 19 100v55q0 72 -41 72q-42 0 -42 -72v-116h-113v109q0 87 42 135t113 48q70 0 112 -48t42 -135v-48z" />
    <glyph glyph-name="three.dnom" horiz-adv-x="408" 
d="M142 502h62q42 0 42 71v120q0 72 -42 72q-41 0 -41 -72v-111h-114v105q0 87 42 135q41 47 113 47q71 0 112 -47q42 -48 42 -135v-90q0 -101 -55 -147q55 -49 55 -148v-127q0 -87 -42 -135q-41 -47 -112 -47q-72 0 -113 47q-42 48 -42 135v142h114v-148q0 -72 41 -72
q42 0 42 72v157q0 71 -42 71h-62v105z" />
    <glyph glyph-name="four.dnom" horiz-adv-x="416" 
d="M25 133v104l168 625h135v-625h63v-104h-63v-133h-113v133h-190zM118 237h97v420z" />
    <glyph glyph-name="five.dnom" horiz-adv-x="409" 
d="M50 458v404h302v-104h-186v-167q32 41 83 41t81 -38q29 -36 29 -113v-306q0 -87 -42 -135q-41 -47 -112 -47q-72 0 -113 47q-42 48 -42 135v197h116v-203q0 -72 39 -72t39 72v283q0 72 -34 72q-40 0 -52 -66h-108z" />
    <glyph glyph-name="six.dnom" horiz-adv-x="409" 
d="M359 418v-243q0 -87 -42 -135q-41 -47 -112 -47q-72 0 -113 47q-42 48 -42 135v512q0 87 42 135q41 47 113 47q71 0 112 -47q42 -48 42 -135v-46h-113v52q0 72 -41 72q-42 0 -42 -72v-167q34 51 86 51q51 0 81 -41q29 -39 29 -118zM246 169v229q0 74 -33 74
q-22 0 -35 -24q-14 -24 -15 -40v-239q0 -72 42 -72q41 0 41 72z" />
    <glyph glyph-name="seven.dnom" horiz-adv-x="358" 
d="M337 862v-89l-196 -773h-115l190 758h-186v104h307z" />
    <glyph glyph-name="eight.dnom" horiz-adv-x="409" 
d="M50 176v140q0 90 50 134q-50 44 -50 134v102q0 87 42 135t113 48q70 0 112 -48t42 -135v-102q0 -90 -50 -134q50 -44 50 -134v-140q0 -87 -42 -135t-112 -48q-71 0 -113 48t-42 135zM244 169v157q0 71 -39 71t-39 -71v-157q0 -72 39 -72t39 72zM166 693v-120
q0 -71 39 -71t39 71v120q0 72 -39 72t-39 -72z" />
    <glyph glyph-name="nine.dnom" horiz-adv-x="409" 
d="M50 444v243q0 87 42 135q41 47 113 47q71 0 112 -47q42 -48 42 -135v-512q0 -87 -42 -135q-41 -47 -112 -47q-72 0 -113 47q-42 48 -42 135v46h114v-52q0 -72 41 -72q42 0 42 72v167q-32 -50 -86 -50q-51 0 -81 40t-30 118zM164 693v-229q0 -74 33 -74q21 0 35 24
q13 24 15 41v238q0 72 -42 72q-41 0 -41 -72z" />
    <glyph glyph-name="zero.inf" horiz-adv-x="409" 
d="M50 40v512q0 87 42 135q41 47 113 47q71 0 112 -47q42 -48 42 -135v-512q0 -87 -42 -135q-41 -47 -112 -47q-72 0 -113 47q-42 48 -42 135zM163 558v-524q0 -72 42 -72q41 0 41 72v524q0 72 -41 72q-42 0 -42 -72z" />
    <glyph glyph-name="one.inf" horiz-adv-x="280" 
d="M225 727v-862h-112v692l-94 -12v104q22 3 48 13q23 9 34 20q3 3 7.5 7t7.5 7.5t6 6.5q9 11 12 18l3 6h88z" />
    <glyph glyph-name="two.inf" horiz-adv-x="393" 
d="M353 501q0 -84 -31 -143l-147 -283q-18 -36 -18 -103v-5h196v-104h-309v109q0 88 30 146l147 282q19 38 19 101v55q0 72 -41 72q-42 0 -42 -72v-117h-113v110q0 87 42 135t113 48q70 0 112 -48t42 -135v-48z" />
    <glyph glyph-name="three.inf" horiz-adv-x="408" 
d="M142 367h62q42 0 42 71v120q0 72 -42 72q-41 0 -41 -72v-112h-114v106q0 87 42 135q41 47 113 47q71 0 112 -47q42 -48 42 -135v-90q0 -102 -55 -148q55 -49 55 -147v-127q0 -87 -42 -135q-41 -47 -112 -47q-72 0 -113 47q-42 48 -42 135v142h114v-148q0 -72 41 -72
q42 0 42 72v156q0 72 -42 72h-62v105z" />
    <glyph glyph-name="four.inf" horiz-adv-x="416" 
d="M25 -2v103l168 626h135v-626h63v-103h-63v-133h-113v133h-190zM118 101h97v421z" />
    <glyph glyph-name="five.inf" horiz-adv-x="409" 
d="M50 323v404h302v-104h-186v-167q32 41 83 41t81 -38q29 -36 29 -113v-306q0 -87 -42 -135q-41 -47 -112 -47q-72 0 -113 47q-42 48 -42 135v197h116v-203q0 -72 39 -72t39 72v282q0 73 -34 73q-40 0 -52 -66h-108z" />
    <glyph glyph-name="six.inf" horiz-adv-x="409" 
d="M359 283v-243q0 -87 -42 -135q-41 -47 -112 -47q-72 0 -113 47q-42 48 -42 135v512q0 87 42 135q41 47 113 47q71 0 112 -47q42 -48 42 -135v-46h-113v52q0 72 -41 72q-42 0 -42 -72v-167q33 50 86 50q51 0 81 -40q29 -39 29 -118zM246 34v229q0 74 -33 74q-22 0 -35 -24
t-15 -41v-238q0 -72 42 -72q41 0 41 72z" />
    <glyph glyph-name="seven.inf" horiz-adv-x="358" 
d="M337 727v-89l-196 -773h-115l190 758h-186v104h307z" />
    <glyph glyph-name="eight.inf" horiz-adv-x="409" 
d="M50 41v140q0 89 50 133q-50 44 -50 135v102q0 87 42 135t113 48q70 0 112 -48t42 -135v-102q0 -91 -50 -135q50 -44 50 -133v-140q0 -87 -42 -135t-112 -48q-71 0 -113 48t-42 135zM244 34v156q0 72 -39 72t-39 -72v-156q0 -72 39 -72t39 72zM166 558v-120q0 -71 39 -71
t39 71v120q0 72 -39 72t-39 -72z" />
    <glyph glyph-name="nine.inf" horiz-adv-x="409" 
d="M50 309v243q0 87 42 135q41 47 113 47q71 0 112 -47q42 -48 42 -135v-512q0 -87 -42 -135q-41 -47 -112 -47q-72 0 -113 47q-42 48 -42 135v46h114v-52q0 -72 41 -72q42 0 42 72v167q-32 -50 -86 -50q-51 0 -81 40q-30 41 -30 118zM164 558v-229q0 -74 33 -74q21 0 35 24
t15 40v239q0 72 -42 72q-41 0 -41 -72z" />
    <glyph glyph-name="hyphen.cap" horiz-adv-x="378" 
d="M40 630v131h299v-131h-299z" />
    <glyph glyph-name="endash.cap" horiz-adv-x="634" 
d="M40 630v131h555v-131h-555z" />
    <glyph glyph-name="emdash.cap" horiz-adv-x="1056" 
d="M40 630v131h977v-131h-977z" />
    <glyph glyph-name="uni2011.cap" horiz-adv-x="378" 
d="M40 630v131h299v-131h-299z" />
    <glyph glyph-name="figuredash.cap" horiz-adv-x="634" 
d="M40 630v131h555v-131h-555z" />
    <glyph glyph-name="uni2015.cap" horiz-adv-x="1056" 
d="M40 630v131h977v-131h-977z" />
    <glyph glyph-name="exclamdown.cap" horiz-adv-x="243" 
d="M45 0l28 1099h98l29 -1099h-155zM55 1163v228h133v-228h-133z" />
    <glyph glyph-name="questiondown.cap" horiz-adv-x="497" 
d="M310 1095v-93q0 -85 -7 -120q-8 -38 -30 -86l-58 -127q-14 -31 -19 -64q-6 -40 -6 -102v-279q0 -106 66 -106t66 106v324h140v-319q0 -112 -57 -177q-57 -64 -149 -64t-149 64q-57 65 -57 177v274q0 93 9 137q10 46 32 87l72 135q26 49 32 71q7 26 7 69v93h108zM323 1391
v-228h-134v228h134z" />
    <glyph glyph-name="at.cap" horiz-adv-x="797" 
d="M216 604q0 82 24 123q23 39 88 86l87 64q20 15 30 29q10 15 10 38v69q0 55 -14 78q-13 22 -43 22q-28 0 -42 -23t-14 -77v-117h-126v112q0 107 50 168q50 60 132 60q84 0 133 -60q51 -62 51 -168v-743q0 -31 10 -44t35 -13h33q25 0 35 13q11 14 11 44v877q0 89 -64 155
q-63 64 -154 64h-179q-90 0 -153 -64q-64 -66 -64 -155v-893q0 -89 64 -155q63 -64 153 -64h330v-42h-330q-107 0 -184 77t-77 184v893q0 107 77 184t184 77h179q108 0 185 -77t77 -184v-877q0 -49 -24 -74t-66 -25h-65q-52 0 -81 19q-30 20 -45 65q-41 -95 -123 -95
q-59 0 -95 50q-35 48 -35 146v253zM342 622v-241q0 -100 47 -100q45 0 67 71q-1 14 -1 33v384l-81 -70q-32 -27 -32 -77z" />
    <glyph glyph-name="guillemotleft.cap" horiz-adv-x="523" 
d="M152 343l-133 352l133 353h133l-132 -353l132 -352h-133zM366 343l-133 352l133 353h132l-132 -353l132 -352h-132z" />
    <glyph glyph-name="guillemotright.cap" horiz-adv-x="523" 
d="M504 695l-132 -352h-133l132 352l-132 353h133zM290 695l-132 -352h-132l132 352l-132 353h132z" />
    <glyph glyph-name="guilsinglleft.cap" horiz-adv-x="310" 
d="M152 343l-133 352l133 353h133l-132 -353l132 -352h-133z" />
    <glyph glyph-name="guilsinglright.cap" horiz-adv-x="310" 
d="M291 695l-132 -352h-133l132 352l-132 353h133z" />
    <glyph glyph-name="periodcentered.cap" horiz-adv-x="230" 
d="M46 582v227h138v-227h-138z" />
    <glyph glyph-name="bullet.cap" horiz-adv-x="450" 
d="M46 663v5q0 94 51 148q50 53 128 53q79 0 129 -53t50 -148v-5q0 -95 -50 -148q-51 -54 -129 -54q-77 0 -128 54t-51 148z" />
    <glyph glyph-name="registered.cap" horiz-adv-x="797" 
d="M750 1142v-893q0 -107 -77 -184t-185 -77h-179q-107 0 -184 77t-77 184v893q0 107 77 184t184 77h179q108 0 185 -77t77 -184zM92 1142v-893q0 -89 64 -155q63 -64 153 -64h179q91 0 154 64q64 66 64 155v893q0 89 -64 155q-63 64 -154 64h-179q-90 0 -153 -64
q-64 -66 -64 -155zM603 167h-133q-18 46 -18 178v159q0 89 -66 89h-29v-426h-135v1057h164q89 0 145 -59t56 -163v-161q0 -125 -80 -185q80 -59 80 -183v-124q0 -59 4 -99q5 -53 8 -64zM357 1097v-376h29q66 0 66 89v197q0 90 -66 90h-29z" />
    <glyph glyph-name="plus.cap" horiz-adv-x="552" 
d="M40 630v131h170v171h132v-171h171v-131h-171v-171h-132v171h-170z" />
    <glyph glyph-name="minus.cap" horiz-adv-x="552" 
d="M40 630v131h473v-131h-473z" />
    <glyph glyph-name="asciitilde.cap" horiz-adv-x="587" 
d="M260 785l107 -57q19 -10 32 -10q17 0 17 19v79h132v-107q0 -135 -118 -135q-42 0 -102 31l-107 58q-20 10 -33 10q-16 0 -16 -20v-79h-132v108q0 134 118 134q42 0 102 -31z" />
    <glyph glyph-name="divide.cap" horiz-adv-x="552" 
d="M344 824h-135v168h135v-168zM209 566h135v-168h-135v168zM40 630v131h473v-131h-473z" />
    <glyph glyph-name="equal.cap" horiz-adv-x="552" 
d="M40 751v128h473v-128h-473zM40 512v128h473v-128h-473z" />
    <glyph glyph-name="less.cap" horiz-adv-x="552" 
d="M40 626v139l473 166v-135l-317 -101l317 -100v-135z" />
    <glyph glyph-name="greater.cap" horiz-adv-x="552" 
d="M513 765v-139l-473 -166v135l317 100l-317 101v135z" />
    <glyph glyph-name="plusminus.cap" horiz-adv-x="552" 
d="M40 758v131h170v171h132v-171h171v-131h-171v-171h-132v171h-170zM40 331v130h473v-130h-473z" />
    <glyph glyph-name="lessequal.cap" horiz-adv-x="552" 
d="M40 746v140l473 166v-136l-317 -100l317 -100v-135zM40 340v130h473v-130h-473z" />
    <glyph glyph-name="greaterequal.cap" horiz-adv-x="552" 
d="M513 886v-140l-473 -165v135l317 100l-317 100v136zM513 470v-130h-473v130h473z" />
    <glyph glyph-name="notequal.cap" horiz-adv-x="552" 
d="M40 751v128h249l46 114h122l-46 -114h102v-128h-154l-44 -111h198v-128h-249l-45 -115h-123l46 115h-102v128h154l44 111h-198z" />
    <glyph glyph-name="approxequal.cap" horiz-adv-x="587" 
d="M260 925l107 -57q19 -11 32 -11q17 0 17 20v78h132v-100q0 -134 -118 -134q-42 0 -102 31l-107 56q-19 11 -33 11q-16 0 -16 -19v-79h-132v100q0 134 118 134q44 0 102 -30zM328 467l-107 56q-21 12 -33 12q-16 0 -16 -20v-79h-132v101q0 134 118 134q42 0 102 -31
l107 -56q21 -12 32 -12q17 0 17 20v79h132v-101q0 -134 -118 -134q-42 0 -102 31z" />
    <glyph glyph-name="logicalnot.cap" horiz-adv-x="552" 
d="M40 630v131h473v-302h-132v171h-341z" />
    <glyph glyph-name="infinity.cap" horiz-adv-x="780" 
d="M758 709v-27q0 -104 -50 -163q-49 -58 -131 -58q-59 0 -97 31t-91 105q-53 -73 -90 -105q-37 -31 -95 -31q-83 0 -132 58t-49 163v27q0 104 49 162q50 59 132 59q58 0 95 -31t90 -105q53 74 91 105t97 31q81 0 131 -59t50 -162zM632 678v35q0 55 -15 76t-45 21
q-20 0 -33 -12q-14 -12 -41 -50l-38 -53l38 -52q27 -38 41 -50q13 -12 33 -12q30 0 45 21t15 76zM148 713v-35q0 -55 15 -76t44 -21q20 0 35 12q12 9 41 50l36 52l-36 53q-29 41 -41 50q-15 12 -35 12q-28 0 -44 -22q-15 -21 -15 -75z" />
    <glyph glyph-name="anoteleia.cap" horiz-adv-x="230" 
d="M46 582v227h138v-227h-138z" />
    <glyph glyph-name="dotmath.cap" horiz-adv-x="230" 
d="M46 582v227h138v-227h-138z" />
    <glyph glyph-name="acute.cap" horiz-adv-x="301" 
d="M269 1677l-118 -221h-111l64 221h165z" />
    <glyph glyph-name="grave.cap" horiz-adv-x="301" 
d="M151 1456l-119 221h165l64 -221h-110z" />
    <glyph glyph-name="doublegrave.cap" horiz-adv-x="491" 
d="M146 1456l-114 221h159l62 -221h-107zM345 1456l-115 221h160l62 -221h-107z" />
    <glyph glyph-name="circumflex.cap" horiz-adv-x="430" 
d="M283 1456l-68 98l-68 -98h-115l107 221h152l107 -221h-115z" />
    <glyph glyph-name="dieresis.cap" horiz-adv-x="421" 
d="M48 1456v206h128v-206h-128zM245 1456v206h129v-206h-129z" />
    <glyph glyph-name="tilde.cap" horiz-adv-x="460" 
d="M268 1476l-72 41q-16 9 -25 9q-11 0 -11 -16v-54h-116v114q0 94 78 94q32 0 71 -22l72 -40q18 -10 25 -10q11 0 11 16v54h116v-114q0 -94 -78 -94q-32 0 -71 22z" />
    <glyph glyph-name="ring.cap" horiz-adv-x="411" 
d="M44 1582q0 65 46 103q44 37 116 37q70 0 116 -37t46 -103t-46 -103t-116 -37q-72 0 -116 37q-46 38 -46 103zM206 1527q26 0 40 13q15 14 15 42q0 30 -15 43q-14 13 -40 13q-25 0 -41 -13q-15 -12 -15 -43q0 -29 15 -41q17 -14 41 -14z" />
    <glyph glyph-name="caron.cap" horiz-adv-x="430" 
d="M215 1579l68 98h115l-107 -221h-152l-107 221h115z" />
    <glyph glyph-name="macron.cap" horiz-adv-x="442" 
d="M48 1478v123h346v-123h-346z" />
    <glyph glyph-name="breve.cap" horiz-adv-x="419" 
d="M380 1673v-19q0 -96 -45 -149t-125 -53t-125 53t-45 149v19h113v-18q0 -106 57 -106t57 106v18h113z" />
    <glyph glyph-name="invertedbreve.cap" horiz-adv-x="419" 
d="M380 1476v-20h-113v19q0 105 -57 105t-57 -105v-19h-113v20q0 97 45 149t125 52t125 -52t45 -149z" />
    <glyph glyph-name="dotaccent.cap" horiz-adv-x="241" 
d="M48 1456v184h146v-184h-146z" />
    <glyph glyph-name="hungarumlaut.cap" horiz-adv-x="491" 
d="M460 1677l-115 -221h-106l61 221h160zM261 1677l-115 -221h-106l61 221h160z" />
    <glyph glyph-name="hcircumflex.alt2" horiz-adv-x="493" 
d="M272 1456l-67 98l-68 -98h-115l107 221h152l107 -221h-116zM443 0v947q0 101 -38 154q-39 54 -100 54q-84 0 -121 -82v318h-134v-1391h134v939q1 4 7 23q5 15 24 37q20 23 43 23q50 0 50 -107v-915h135z" />
    <glyph glyph-name="multiply.cap" horiz-adv-x="532" 
d="M396 918l92 -93l-130 -130l130 -130l-92 -92l-130 130l-130 -130l-92 92l130 130l-130 130l92 93l130 -131z" />
    </font>
</defs>
</svg>
