<?xml version="1.0" standalone="no"?>
<!DOCTYPE svg PUBLIC "-//W3C//DTD SVG 1.1//EN" "http://www.w3.org/Graphics/SVG/1.1/DTD/svg11.dtd" >
<svg xmlns="http://www.w3.org/2000/svg" xmlns:xlink="http://www.w3.org/1999/xlink" version="1.1">
<metadata>
Created by FontForge 20201107 at Sun Jun  2 09:40:00 2024
 By 
Copyright 2012 AE Type. http://www.aetype.com Administration Contact: info@aetype.com
</metadata>
<defs>
<font id="Sorren-Medium" horiz-adv-x="507" >
  <font-face 
    font-family="Sorren-Medium"
    font-weight="400"
    font-stretch="normal"
    units-per-em="2048"
    panose-1="2 0 6 8 3 0 0 2 0 4"
    ascent="1714"
    descent="-334"
    x-height="1143"
    cap-height="1391"
    bbox="-78 -384 1113 1919"
    underline-thickness="71"
    underline-position="-91"
    unicode-range="U+0020-FB04"
  />
<missing-glyph horiz-adv-x="622" 
d="M74 0v1391h475v-1391h-475zM103 1361v-1331h415v1331h-415z" />
    <glyph glyph-name="AE" unicode="AE" horiz-adv-x="651" 
d="M606 1391v-105h-269l57 -532h183v-105h-171l58 -545h142v-104h-240l-28 278h-172l-27 -278h-112l149 1391h430zM253 1167l-77 -785h151z" />
    <glyph glyph-name="ae" unicode="ae" horiz-adv-x="735" 
d="M55 457q0 60 14 100q13 37 34 60q24 26 73 65l100 81q26 21 31 33q6 14 6 39v84q0 71 -18 101q-19 31 -56 31q-38 0 -57 -31q-18 -30 -18 -101v-151h-109v145q0 115 50 179q49 63 134 63q81 0 129 -57q48 57 129 57q83 0 133 -63q50 -64 50 -179v-441h-258v-248
q0 -72 18 -102t57 -30q38 0 56 30t18 102v131h109v-126q0 -114 -50 -178q-50 -63 -133 -63q-112 0 -158 101q-46 -101 -146 -101q-63 0 -100 51q-38 52 -38 160v258zM164 487v-263q0 -132 59 -132t91 104q-1 7 -1 33v440l-111 -97q-38 -32 -38 -85zM422 919v-347h149v347
q0 71 -18 101q-19 31 -56 31q-38 0 -57 -31q-18 -30 -18 -101z" />
    <glyph glyph-name="OE" unicode="OE" horiz-adv-x="694" 
d="M61 229v932q0 115 53 179q52 63 142 63q41 0 80 -17v5h313v-105h-198v-532h169v-105h-169v-545h198v-104h-313v3q-39 -15 -80 -15q-90 0 -142 63q-53 64 -53 178zM176 1166v-942q0 -71 20 -102q20 -30 60 -30t60 30q20 31 20 102v942q0 71 -20 102q-20 30 -60 30t-60 -30
q-20 -31 -20 -102z" />
    <glyph glyph-name="oe" unicode="oe" horiz-adv-x="747" 
d="M55 229v684q0 116 51 179t139 63q85 0 134 -59q47 59 130 59q85 0 134 -63q49 -62 49 -179v-441h-258v-248q0 -70 19 -102q18 -30 56 -30t56 30q19 32 19 102v131h108v-126q0 -116 -49 -178q-49 -63 -134 -63q-84 0 -130 58q-49 -58 -134 -58q-88 0 -139 63t-51 178z
M164 919v-695q0 -71 20 -102q20 -30 61 -30t61 30q20 31 20 102v695q0 70 -20 101t-61 31t-61 -31t-20 -101zM434 919v-347h150v347q0 69 -19 101q-19 31 -56 31t-56 -31q-19 -32 -19 -101z" />
    <glyph glyph-name="ff" unicode="ff" horiz-adv-x="727" 
d="M25 1034v109h70v49q0 199 203 199h45v-105h-39q-56 0 -78 -22t-22 -78v-43h114v-109h-114v-1034h-109v1034h-70zM388 1034v109h71v49q0 199 203 199h45v-105h-39q-56 0 -78 -22q-23 -23 -23 -78v-43h115v-109h-115v-1034h-108v1034h-71z" />
    <glyph glyph-name="fi" unicode="fi" horiz-adv-x="586" 
d="M421 0v1143h108v-1143h-108zM421 1215v176h108v-176h-108zM25 1034v109h70v49q0 199 203 199h45v-105h-39q-56 0 -78 -22t-22 -78v-43h114v-109h-114v-1034h-109v1034h-70z" />
    <glyph glyph-name="fl" unicode="fl" horiz-adv-x="586" 
d="M25 1034v109h70v49q0 199 203 199h45v-105h-39q-56 0 -78 -22t-22 -78v-43h114v-109h-114v-1034h-109v1034h-70zM421 0v1391h108v-1391h-108z" />
    <glyph glyph-name="ffi" unicode="ffi" horiz-adv-x="950" 
d="M784 0v1143h109v-1143h-109zM784 1215v176h109v-176h-109zM25 1034v109h70v49q0 199 203 199h45v-105h-39q-56 0 -78 -22t-22 -78v-43h114v-109h-114v-1034h-109v1034h-70zM388 1034v109h71v49q0 199 203 199h45v-105h-39q-56 0 -78 -22q-23 -23 -23 -78v-43h115v-109
h-115v-1034h-108v1034h-71z" />
    <glyph glyph-name="ffl" unicode="ffl" horiz-adv-x="950" 
d="M25 1034v109h70v49q0 199 203 199h45v-105h-39q-56 0 -78 -22t-22 -78v-43h114v-109h-114v-1034h-109v1034h-70zM388 1034v109h71v49q0 199 203 199h45v-105h-39q-56 0 -78 -22q-23 -23 -23 -78v-43h115v-109h-115v-1034h-108v1034h-71zM784 0v1391h109v-1391h-109z" />
    <glyph glyph-name="fj" unicode="fj" horiz-adv-x="586" 
d="M421 1215v176h108v-176h-108zM529 -49q0 -64 -18 -109q-18 -46 -48 -68q-29 -22 -61 -33q-27 -9 -63 -11v104q40 3 61 27t21 90v1192h108v-1192zM25 1034v109h70v49q0 199 203 199h45v-105h-39q-56 0 -78 -22t-22 -78v-43h114v-109h-114v-1034h-109v1034h-70z" />
    <glyph glyph-name="ffj" unicode="ffj" horiz-adv-x="950" 
d="M784 1215v176h109v-176h-109zM893 -49q0 -64 -18 -109t-49 -68q-30 -22 -60 -33q-27 -9 -64 -11v104q41 3 62 27q20 23 20 90v1192h109v-1192zM25 1034v109h70v49q0 199 203 199h45v-105h-39q-56 0 -78 -22t-22 -78v-43h114v-109h-114v-1034h-109v1034h-70zM388 1034v109
h71v49q0 199 203 199h45v-105h-39q-56 0 -78 -22q-23 -23 -23 -78v-43h115v-109h-115v-1034h-108v1034h-71z" />
    <glyph glyph-name=".notdef" horiz-adv-x="622" 
d="M74 0v1391h475v-1391h-475zM103 1361v-1331h415v1331h-415z" />
    <glyph glyph-name=".null" horiz-adv-x="0" 
 />
    <glyph glyph-name="nonmarkingreturn" horiz-adv-x="681" 
 />
    <glyph glyph-name="space" unicode=" " horiz-adv-x="198" 
 />
    <glyph glyph-name="exclam" unicode="!" horiz-adv-x="238" 
d="M81 282l-26 1109h128l-25 -1109h-77zM63 0v209h111v-209h-111z" />
    <glyph glyph-name="quotedbl" unicode="&#x22;" horiz-adv-x="391" 
d="M189 1391l-72 -411h-68l29 411h111zM362 1391l-72 -411h-68l29 411h111z" />
    <glyph glyph-name="numbersign" unicode="#" horiz-adv-x="659" 
d="M295 0l74 483h-144l-73 -483h-98l74 483h-93v92h107l37 240h-97v92h112l74 484h98l-75 -484h143l75 484h97l-75 -484h94v-92h-108l-37 -240h98v-92h-112l-74 -483h-97zM276 815l-36 -240h143l37 240h-144z" />
    <glyph glyph-name="dollar" unicode="$" horiz-adv-x="493" 
d="M193 -111v106q-64 18 -100 78t-36 156v279h115v-284q0 -72 18 -102t57 -30q38 0 56 30q19 32 19 102v244q0 45 -10 72q-9 24 -39 54l-132 137q-47 48 -66 95q-18 44 -18 121v214q0 95 36 156q35 61 100 79v109h108v-109q63 -18 99 -79t36 -156v-278h-114v283
q0 70 -19 102q-18 30 -56 30q-39 0 -57 -30t-18 -102v-231q0 -48 9 -72t39 -54l132 -137q48 -50 67 -95q17 -41 17 -121v-227q0 -96 -36 -156t-99 -78v-106h-108z" />
    <glyph glyph-name="percent" unicode="%" horiz-adv-x="790" 
d="M161 0l371 1391h99l-372 -1391h-98zM53 697v528q0 83 43 131q42 47 112 47q69 0 113 -47q43 -46 43 -131v-528q0 -85 -43 -131q-44 -47 -113 -47q-70 0 -112 47q-43 48 -43 131zM157 1228v-534q0 -83 51 -83q26 0 39 19t13 64v534q0 45 -13 64t-39 19q-51 0 -51 -83z
M427 166v527q0 83 43 131q42 47 112 47q68 0 112 -47q43 -46 43 -131v-527q0 -85 -43 -131q-44 -47 -112 -47q-70 0 -112 47q-43 48 -43 131zM530 696v-533q0 -83 52 -83q26 0 39 19t13 64v533q0 45 -13 64t-39 19q-52 0 -52 -83z" />
    <glyph glyph-name="ampersand" unicode="&#x26;" horiz-adv-x="561" 
d="M73 1103v58q0 117 50 179q51 63 140 63t140 -63t51 -179v-164h-115v169q0 74 -17 103t-59 29t-59 -29t-17 -103v-63q0 -33 7 -75q6 -36 12 -57q2 -7 22 -61l138 -372l59 359h103l-91 -553l128 -344h-120l-49 130q-21 -70 -60 -106t-104 -36q-89 0 -137 64q-48 65 -48 177
v229q0 99 9 144q8 41 40 95l55 91l-31 83q-21 58 -25 70q-8 25 -15 68q-7 42 -7 94zM162 470v-246q0 -73 16 -102q16 -30 54 -30q36 0 54 31q16 29 32 122l11 65l-126 338q-30 -51 -35 -76q-6 -28 -6 -102z" />
    <glyph glyph-name="quotesingle" unicode="'" horiz-adv-x="218" 
d="M189 1391l-72 -411h-68l29 411h111z" />
    <glyph glyph-name="parenleft" unicode="(" horiz-adv-x="319" 
d="M70 142v1094q0 105 55 163q56 59 142 59h14v-87h-14q-43 0 -70 -34q-27 -35 -27 -101v-1094q0 -66 27 -101q27 -34 70 -34h14v-87h-14q-86 0 -142 59q-55 58 -55 163z" />
    <glyph glyph-name="parenright" unicode=")" horiz-adv-x="319" 
d="M250 1236v-1094q0 -105 -55 -163q-56 -59 -143 -59h-13v87h13q44 0 71 34t27 101v1094q0 66 -27 101q-27 34 -71 34h-13v87h13q87 0 143 -59q55 -58 55 -163z" />
    <glyph glyph-name="asterisk" unicode="*" horiz-adv-x="518" 
d="M477 1191l-162 -86l162 -88l-45 -108l-138 129l17 -233h-104l19 235l-140 -131l-45 108l161 88l-161 86l45 107l140 -129l-19 234h104l-17 -231l138 126z" />
    <glyph glyph-name="plus" unicode="+" horiz-adv-x="546" 
d="M47 488v105h171v174h111v-174h171v-105h-171v-174h-111v174h-171z" />
    <glyph glyph-name="comma" unicode="," horiz-adv-x="221" 
d="M53 0v209h115v-180q0 -57 -14 -95l-30 -82h-71l41 148h-41z" />
    <glyph glyph-name="hyphen" unicode="-" horiz-adv-x="372" 
d="M47 488v105h279v-105h-279z" />
    <glyph glyph-name="period" unicode="." horiz-adv-x="221" 
d="M53 0v209h115v-209h-115z" />
    <glyph glyph-name="slash" unicode="/" horiz-adv-x="380" 
d="M23 0l238 1391h97l-238 -1391h-97z" />
    <glyph glyph-name="zero" unicode="0" horiz-adv-x="512" 
d="M61 229v932q0 115 53 179q52 63 142 63t142 -63q53 -64 53 -179v-932q0 -114 -53 -178q-52 -63 -142 -63t-142 63q-53 64 -53 178zM176 1166v-942q0 -71 20 -102q20 -30 60 -30t60 30q20 31 20 102v942q0 71 -20 102q-20 30 -60 30t-60 -30q-20 -31 -20 -102z" />
    <glyph glyph-name="one" unicode="1" horiz-adv-x="342" 
d="M279 1391v-1391h-115v1185l-133 -25v105q33 4 63 20t46 33t28 34t16 27l4 12h91z" />
    <glyph glyph-name="two" unicode="2" horiz-adv-x="491" 
d="M440 1032q0 -135 -40 -231l-206 -503q-15 -33 -19 -69q-5 -40 -5 -111v-14h270v-104h-385v118q0 141 40 237l207 503q14 33 19 68q5 38 5 106v134q0 73 -19 102q-19 30 -59 30t-59 -30q-19 -29 -19 -102v-214h-115v209q0 115 52 179q51 63 141 63t141 -63t51 -179v-129z
" />
    <glyph glyph-name="three" unicode="3" horiz-adv-x="505" 
d="M185 778h67q40 0 59 30q19 29 19 102v256q0 73 -19 102q-19 30 -59 30t-59 -30q-19 -29 -19 -102v-214h-115v209q0 115 52 179q51 63 141 63t141 -63t51 -179v-241q0 -132 -65 -194q65 -62 65 -194v-303q0 -115 -51 -178t-141 -63t-141 63q-52 64 -52 178v271h115v-276
q0 -73 19 -102q19 -30 59 -30t59 30q19 29 19 102v318q0 73 -19 102q-19 30 -59 30h-67v104z" />
    <glyph glyph-name="four" unicode="4" horiz-adv-x="522" 
d="M29 244v104l223 1043h156v-1043h84v-104h-84v-244h-115v244h-264zM133 348h160v821z" />
    <glyph glyph-name="five" unicode="5" 
d="M61 750v641h375v-105h-260v-398q42 94 130 94q62 0 102 -52q38 -50 38 -159v-542q0 -115 -51 -178t-141 -63t-141 63q-52 64 -52 178v346h115v-351q0 -73 19 -102q19 -30 59 -30t59 30q19 29 19 102v521q0 70 -16 102q-16 31 -48 31t-61 -29t-42 -99h-104z" />
    <glyph glyph-name="six" unicode="6" 
d="M446 751v-522q0 -115 -51 -178t-141 -63t-141 63q-52 64 -52 178v932q0 115 52 179q51 63 141 63t141 -63t51 -179v-76h-114v81q0 73 -19 102q-20 30 -59 30q-40 0 -59 -30q-19 -29 -19 -102v-299q42 95 130 95q62 0 102 -52q38 -50 38 -159zM332 224v501q0 71 -15 101
q-15 31 -46 31t-55 -29t-32 -58l-8 -29v-517q0 -73 19 -102q19 -30 59 -30t59 30q19 29 19 102z" />
    <glyph glyph-name="seven" unicode="7" horiz-adv-x="457" 
d="M425 1391v-80l-274 -1311h-114l269 1286h-263v105h382z" />
    <glyph glyph-name="eight" unicode="8" 
d="M61 229v303q0 131 66 194q-66 63 -66 194v241q0 115 52 179q51 63 141 63t141 -63t51 -179v-241q0 -132 -65 -194q65 -62 65 -194v-303q0 -115 -51 -178t-141 -63t-141 63q-52 64 -52 178zM176 542v-318q0 -73 19 -102q19 -30 59 -30t59 30q19 29 19 102v318
q0 73 -19 102q-20 30 -59 30q-40 0 -59 -30q-19 -29 -19 -102zM176 1166v-256q0 -73 19 -102q19 -30 59 -30t59 30q19 29 19 102v256q0 73 -19 102q-20 30 -59 30q-40 0 -59 -30q-19 -29 -19 -102z" />
    <glyph glyph-name="nine" unicode="9" 
d="M61 640v521q0 115 52 179q51 63 141 63t141 -63t51 -179v-932q0 -115 -51 -178t-141 -63t-141 63q-52 64 -52 178v76h115v-81q0 -73 19 -102q19 -30 59 -30t59 30q19 29 19 102v299q-42 -94 -130 -94q-62 0 -102 52q-39 51 -39 159zM176 1166v-500q0 -72 15 -102t46 -30
t55 29t32 58l8 28v517q0 73 -19 102q-20 30 -59 30q-40 0 -59 -30q-19 -29 -19 -102z" />
    <glyph glyph-name="colon" unicode=":" horiz-adv-x="221" 
d="M53 0v209h115v-209h-115zM53 934v209h115v-209h-115z" />
    <glyph glyph-name="semicolon" unicode=";" horiz-adv-x="221" 
d="M53 0v209h115v-180q0 -57 -14 -95l-30 -82h-71l41 148h-41zM53 934v209h115v-209h-115z" />
    <glyph glyph-name="less" unicode="&#x3c;" horiz-adv-x="546" 
d="M47 485v111l453 170v-110l-322 -115l322 -116v-110z" />
    <glyph glyph-name="equal" unicode="=" horiz-adv-x="546" 
d="M47 609v105h453v-105h-453zM47 368v104h453v-104h-453z" />
    <glyph glyph-name="greater" unicode="&#x3e;" horiz-adv-x="546" 
d="M500 596v-111l-453 -170v110l322 116l-322 115v110z" />
    <glyph glyph-name="question" unicode="?" horiz-adv-x="495" 
d="M199 282v92q0 85 7 120q8 38 30 87l63 141q14 31 19 63q6 40 6 103v278q0 132 -83 132t-83 -132v-323h-115v318q0 115 54 178q55 64 144 64q88 0 143 -64q54 -63 54 -178v-273q0 -97 -8 -136q-9 -43 -33 -88l-76 -150q-28 -56 -32 -71q-6 -23 -6 -69v-92h-84zM185 0v209
h111v-209h-111z" />
    <glyph glyph-name="at" unicode="@" horiz-adv-x="791" 
d="M222 471q0 41 5 73q4 27 22 53q18 27 34 41q24 22 54 46l90 72q15 12 21 18t12 18t6 28v68q0 67 -17 96t-54 29q-35 0 -53 -29q-17 -27 -17 -96v-123h-103v119q0 107 47 168q47 60 126 60q81 0 127 -60q47 -61 47 -168v-743q0 -33 12 -48t40 -15h26q28 0 40 15
q11 14 11 48v877q0 93 -65 160q-64 65 -158 65h-159q-94 0 -158 -65q-65 -67 -65 -160v-893q0 -93 65 -160q64 -65 158 -65h310v-36h-310q-107 0 -184 77t-77 184v893q0 107 77 184t184 77h159q107 0 184 -77t77 -184v-877q0 -49 -24 -74t-65 -25h-57q-52 0 -78 19t-37 68
q-37 -98 -123 -98q-58 0 -94 49q-36 50 -36 150v241zM325 500v-245q0 -125 56 -125q28 0 49 24q22 25 29 47l8 23q-1 14 -1 37v410l-106 -90q-35 -29 -35 -81z" />
    <glyph glyph-name="A" unicode="A" horiz-adv-x="501" 
d="M27 0l149 1391h154l145 -1391h-109l-28 278h-172l-27 -278h-112zM253 1167l-77 -785h151z" />
    <glyph glyph-name="B" unicode="B" horiz-adv-x="512" 
d="M63 0v1391h160q99 0 160 -64t61 -178v-245q0 -131 -80 -195q87 -66 87 -201v-266q0 -113 -62 -178q-61 -64 -160 -64h-166zM229 653h-51v-549h51q107 0 107 133v284q0 132 -107 132zM223 1286h-45v-527h45q107 0 107 132v263q0 132 -107 132z" />
    <glyph glyph-name="C" unicode="C" horiz-adv-x="499" 
d="M176 1166v-942q0 -70 19 -102q18 -30 56 -30t56 30q19 32 19 102v363h114v-358q0 -116 -50 -178q-51 -63 -139 -63t-139 63t-51 178v932q0 116 51 179t139 63t139 -63q50 -62 50 -179v-345h-114v350q0 70 -19 102q-18 30 -56 30t-56 -30q-19 -32 -19 -102z" />
    <glyph glyph-name="D" unicode="D" horiz-adv-x="503" 
d="M63 0v1391h158q99 0 160 -64t61 -178v-907q0 -114 -61 -178t-160 -64h-158zM221 1286h-43v-1182h43q107 0 107 133v917q0 132 -107 132z" />
    <glyph glyph-name="E" unicode="E" horiz-adv-x="421" 
d="M63 0v1391h314v-105h-199v-532h169v-105h-169v-545h199v-104h-314z" />
    <glyph glyph-name="F" unicode="F" horiz-adv-x="407" 
d="M63 0v1391h314v-105h-199v-532h169v-105h-169v-649h-115z" />
    <glyph glyph-name="G" unicode="G" 
d="M446 0h-89l-12 58q-43 -70 -125 -70q-75 0 -116 54q-43 57 -43 157v962q0 115 52 179q51 63 141 63t141 -63t51 -179v-186h-114v191q0 73 -19 102q-20 30 -59 30q-40 0 -59 -30q-19 -29 -19 -102v-942q0 -73 19 -102q19 -30 59 -30t59 30q19 29 19 102v417h-78v104h192
v-745z" />
    <glyph glyph-name="H" unicode="H" horiz-adv-x="536" 
d="M358 0v649h-180v-649h-115v1391h115v-637h180v637h115v-1391h-115z" />
    <glyph glyph-name="I" unicode="I" horiz-adv-x="241" 
d="M63 0v1391h115v-1391h-115z" />
    <glyph glyph-name="J" unicode="J" 
d="M176 521v-297q0 -73 19 -102q19 -30 59 -30t59 30q19 29 19 102v1167h114v-1162q0 -115 -51 -178t-141 -63t-141 63q-52 64 -52 178v292h115z" />
    <glyph glyph-name="K" unicode="K" horiz-adv-x="527" 
d="M63 0v1391h115v-637h23l176 637h121l-189 -676l208 -715h-122l-187 649h-30v-649h-115z" />
    <glyph glyph-name="L" unicode="L" horiz-adv-x="425" 
d="M63 0v1391h115v-1287h213v-104h-328z" />
    <glyph glyph-name="M" unicode="M" horiz-adv-x="786" 
d="M608 0v1072l-157 -1072h-115l-158 1072v-1072h-115v1391h159l171 -1144l171 1144h159v-1391h-115z" />
    <glyph glyph-name="N" unicode="N" horiz-adv-x="561" 
d="M346 0l-172 1077v-1077h-111v1391h152l172 -1078v1078h111v-1391h-152z" />
    <glyph glyph-name="O" unicode="O" horiz-adv-x="512" 
d="M61 229v932q0 115 53 179q52 63 142 63t142 -63q53 -64 53 -179v-932q0 -114 -53 -178q-52 -63 -142 -63t-142 63q-53 64 -53 178zM176 1166v-942q0 -71 20 -102q20 -30 60 -30t60 30q20 31 20 102v942q0 71 -20 102q-20 30 -60 30t-60 -30q-20 -31 -20 -102z" />
    <glyph glyph-name="P" unicode="P" horiz-adv-x="497" 
d="M63 0v1391h164q99 0 160 -64q62 -65 62 -178v-311q0 -113 -62 -178q-61 -64 -160 -64h-49v-596h-115zM227 1286h-49v-586h49q107 0 107 133v321q0 132 -107 132z" />
    <glyph glyph-name="Q" unicode="Q" horiz-adv-x="512" 
d="M61 229v932q0 115 53 179q52 63 142 63t142 -63q53 -64 53 -179v-932q0 -140 -76 -201l76 -64v-131l-195 155q-90 0 -142 63q-53 64 -53 178zM176 1166v-942q0 -71 20 -102q20 -30 60 -30t60 30q20 31 20 102v942q0 71 -20 102q-20 30 -60 30t-60 -30q-20 -31 -20 -102z
" />
    <glyph glyph-name="R" unicode="R" horiz-adv-x="516" 
d="M63 0v1391h168q99 0 160 -64q62 -65 62 -178v-256q0 -133 -84 -198q84 -64 84 -197v-242q0 -78 7 -138q7 -64 15 -91l8 -27h-112q-7 11 -10 23q-6 21 -14 80q-9 65 -9 147v261q0 132 -107 132h-53v-643h-115zM231 1286h-53v-538h53q107 0 107 132v274q0 132 -107 132z
" />
    <glyph glyph-name="S" unicode="S" horiz-adv-x="499" 
d="M172 508v-284q0 -73 19 -102q19 -30 59 -30t59 30q19 29 19 102v244q0 44 -10 72q-10 27 -38 54l-139 137q-47 47 -66 93q-18 44 -18 123v214q0 115 52 179q51 63 141 63t141 -63t51 -179v-278h-114v283q0 73 -19 102q-19 30 -59 30t-59 -30q-19 -29 -19 -102v-231
q0 -47 9 -72t39 -54l138 -137q49 -49 67 -93q17 -41 17 -123v-227q0 -115 -51 -178t-141 -63t-141 63q-52 64 -52 178v279h115z" />
    <glyph glyph-name="T" unicode="T" horiz-adv-x="411" 
d="M263 1286v-1286h-115v1286h-125v105h366v-105h-126z" />
    <glyph glyph-name="U" unicode="U" 
d="M176 1391v-1167q0 -73 19 -102q19 -30 59 -30t59 30q19 29 19 102v1167h114v-1162q0 -115 -51 -178t-141 -63t-141 63q-52 64 -52 178v1162h115z" />
    <glyph glyph-name="V" unicode="V" horiz-adv-x="481" 
d="M157 0l-130 1391h113l101 -1183l103 1183h111l-134 -1391h-164z" />
    <glyph glyph-name="W" unicode="W" horiz-adv-x="780" 
d="M144 0l-111 1391h113l87 -1173l83 1173h148l83 -1173l87 1173h114l-112 -1391h-164l-82 1135l-82 -1135h-164z" />
    <glyph glyph-name="X" unicode="X" horiz-adv-x="525" 
d="M136 1391l128 -503l127 503h118l-184 -665l184 -726h-118l-127 546l-128 -546h-120l184 726l-184 665h120z" />
    <glyph glyph-name="Y" unicode="Y" horiz-adv-x="514" 
d="M200 0v397l-184 994h117l124 -761l124 761h117l-184 -994v-397h-114z" />
    <glyph glyph-name="Z" unicode="Z" horiz-adv-x="425" 
d="M37 0v96l233 1190h-227v105h346v-97l-234 -1190h234v-104h-352z" />
    <glyph glyph-name="bracketleft" unicode="[" horiz-adv-x="342" 
d="M70 -68v1514h233v-87h-133v-1340h133v-87h-233z" />
    <glyph glyph-name="backslash" unicode="\" horiz-adv-x="380" 
d="M120 1391l238 -1391h-97l-238 1391h97z" />
    <glyph glyph-name="bracketright" unicode="]" horiz-adv-x="342" 
d="M272 1446v-1514h-233v87h133v1340h-133v87h233z" />
    <glyph glyph-name="asciicircum" unicode="^" horiz-adv-x="509" 
d="M310 1391l153 -578h-106l-102 410l-102 -410h-106l153 578h110z" />
    <glyph glyph-name="underscore" unicode="_" horiz-adv-x="575" 
d="M47 0v104h481v-104h-481z" />
    <glyph glyph-name="grave" unicode="`" horiz-adv-x="294" 
d="M158 1208l-119 222h143l66 -222h-90z" />
    <glyph glyph-name="a" unicode="a" horiz-adv-x="479" 
d="M55 457q0 60 14 100q13 37 34 60q24 26 73 65l100 81q26 21 31 33q6 14 6 39v84q0 71 -18 101q-19 31 -56 31q-38 0 -57 -31q-18 -30 -18 -101v-151h-109v145q0 115 50 179q49 63 134 63q83 0 133 -63q50 -64 50 -179v-657q0 -86 4 -143q5 -72 8 -88l4 -25h-102
q-7 27 -13 90q-41 -102 -130 -102q-63 0 -100 51q-38 52 -38 160v258zM164 487v-263q0 -132 59 -132q31 0 53 27q24 29 31 53l8 27q-2 84 -2 103v367l-111 -97q-38 -32 -38 -85z" />
    <glyph glyph-name="b" unicode="b" horiz-adv-x="485" 
d="M430 944v-745q0 -110 -38 -160q-39 -51 -100 -51q-86 0 -128 94l-7 -82h-100v1391h109v-327q42 91 126 91q60 0 100 -52q38 -50 38 -159zM166 935v-727q1 -3 3 -13q1 -4 10 -28q5 -14 18 -35q10 -17 27 -28q18 -12 37 -12q31 0 46 31q15 30 15 101v695q0 71 -15 101
q-15 31 -46 31t-55 -29q-25 -29 -32 -57z" />
    <glyph glyph-name="c" unicode="c" horiz-adv-x="477" 
d="M164 919v-695q0 -72 18 -102t58 -30q39 0 57 30t18 102v233h109v-228q0 -114 -50 -178q-50 -63 -134 -63q-86 0 -135 63q-50 64 -50 178v684q0 115 50 179q49 63 135 63q84 0 134 -63q50 -64 50 -179v-227h-109v233q0 71 -18 101q-19 31 -57 31q-39 0 -58 -31
q-18 -30 -18 -101z" />
    <glyph glyph-name="d" unicode="d" horiz-adv-x="485" 
d="M55 199v745q0 108 39 159q40 52 100 52q83 0 125 -91v327h109v-1391h-99l-8 82q-40 -94 -127 -94q-61 0 -100 51t-39 160zM319 208v727q-1 3 -3 13q0 2 -10 27q-6 17 -18 36q-9 15 -27 27q-19 13 -37 13q-30 0 -45 -31q-15 -30 -15 -101v-695q0 -71 15 -101
q15 -31 45 -31q32 0 56 29q23 28 31 57z" />
    <glyph glyph-name="e" unicode="e" horiz-adv-x="477" 
d="M164 472v-248q0 -72 18 -102t57 -30q38 0 56 30t18 102v131h109v-126q0 -114 -50 -178q-50 -63 -133 -63q-85 0 -134 63q-50 64 -50 178v684q0 115 50 179q49 63 134 63q83 0 133 -63q50 -64 50 -179v-441h-258zM164 919v-347h149v347q0 71 -18 101q-19 31 -56 31
q-38 0 -57 -31q-18 -30 -18 -101z" />
    <glyph glyph-name="f" unicode="f" horiz-adv-x="363" 
d="M25 1034v109h70v49q0 199 203 199h45v-105h-39q-56 0 -78 -22t-22 -78v-43h114v-109h-114v-1034h-109v1034h-70z" />
    <glyph glyph-name="g" unicode="g" horiz-adv-x="485" 
d="M55 199v745q0 108 39 159q40 52 100 52q87 0 127 -94l8 82h99v-1183q0 -112 -49 -172q-48 -58 -137 -58q-85 0 -133 51q-50 53 -54 152h109q2 -57 21 -78t57 -21q39 0 59 25q18 22 18 92v128q-40 -91 -125 -91q-61 0 -100 51t-39 160zM319 935q-1 3 -3 13q0 2 -10 27
q-6 17 -18 36q-9 15 -27 27q-19 13 -37 13q-30 0 -45 -31q-15 -30 -15 -101v-695q0 -71 15 -101q15 -31 45 -31q32 0 56 29q23 28 31 57l8 30v727z" />
    <glyph glyph-name="h" unicode="h" horiz-adv-x="487" 
d="M430 944v-944h-108v919q0 71 -15 101q-15 31 -46 31t-55 -29q-25 -29 -32 -57l-8 -30v-935h-109v1391h109v-327q42 91 126 91q60 0 100 -52q38 -50 38 -159z" />
    <glyph glyph-name="i" unicode="i" horiz-adv-x="223" 
d="M57 0v1143h109v-1143h-109zM57 1215v176h109v-176h-109z" />
    <glyph glyph-name="j" unicode="j" horiz-adv-x="223" 
d="M57 1215v176h109v-176h-109zM166 -49q0 -64 -18 -109t-49 -68q-30 -22 -60 -33q-27 -9 -64 -11v104q41 3 62 27q20 23 20 90v1192h109v-1192z" />
    <glyph glyph-name="k" unicode="k" horiz-adv-x="496" 
d="M57 0v1391h109v-750h4l200 502h117l-220 -554l220 -589h-117l-201 537h-3v-537h-109z" />
    <glyph glyph-name="l" unicode="l" horiz-adv-x="223" 
d="M57 0v1391h109v-1391h-109z" />
    <glyph glyph-name="m" unicode="m" horiz-adv-x="751" 
d="M694 944v-944h-108v919q0 71 -15 101q-15 31 -46 31t-55 -29q-25 -29 -32 -57l-8 -30v-935h-108v919q0 71 -15 101q-15 31 -46 31t-55 -29q-25 -29 -32 -57l-8 -30v-935h-109v1143h100l7 -82q42 94 128 94q100 0 128 -118q37 118 136 118q60 0 100 -52q38 -50 38 -159z
" />
    <glyph glyph-name="n" unicode="n" horiz-adv-x="487" 
d="M430 944v-944h-108v919q0 71 -15 101q-15 31 -46 31t-55 -29q-25 -29 -32 -57l-8 -30v-935h-109v1143h100l7 -82q42 94 128 94q60 0 100 -52q38 -50 38 -159z" />
    <glyph glyph-name="o" unicode="o" horiz-adv-x="489" 
d="M55 229v684q0 116 51 179t139 63q87 0 138 -63t51 -179v-684q0 -115 -51 -178t-138 -63q-88 0 -139 63t-51 178zM164 919v-695q0 -71 20 -102q20 -30 61 -30t61 30q20 31 20 102v695q0 70 -20 101t-61 31t-61 -31t-20 -101z" />
    <glyph glyph-name="p" unicode="p" horiz-adv-x="485" 
d="M430 944v-745q0 -110 -38 -160q-39 -51 -100 -51q-86 0 -126 91v-337h-109v1401h100l7 -82q42 94 128 94q60 0 100 -52q38 -50 38 -159zM166 935v-727q1 -3 3 -13q1 -4 10 -28q5 -14 18 -35q10 -17 27 -28q18 -12 37 -12q31 0 46 31q15 30 15 101v695q0 71 -15 101
q-15 31 -46 31t-55 -29q-25 -29 -32 -57z" />
    <glyph glyph-name="q" unicode="q" horiz-adv-x="485" 
d="M55 199v745q0 108 39 159q40 52 100 52q87 0 127 -94l8 82h99v-1401h-109v337q-40 -91 -125 -91q-61 0 -100 51t-39 160zM319 208v727q-1 3 -3 13q0 2 -10 27q-6 17 -18 36q-9 15 -27 27q-19 13 -37 13q-30 0 -45 -31q-15 -30 -15 -101v-695q0 -71 15 -101q15 -31 45 -31
q32 0 56 29q23 28 31 57z" />
    <glyph glyph-name="r" unicode="r" horiz-adv-x="357" 
d="M323 1143v-109q-28 0 -55 -11q-24 -10 -49 -35q-23 -23 -39 -72q-14 -43 -14 -112v-804h-109v1143h100l8 -92q57 92 158 92z" />
    <glyph glyph-name="s" unicode="s" horiz-adv-x="473" 
d="M51 809v104q0 115 50 179q49 63 136 63q85 0 135 -63q50 -64 50 -179v-176h-109v182q0 72 -19 101q-20 31 -57 31q-38 0 -58 -31q-19 -29 -19 -101v-110q0 -49 8 -70q9 -24 38 -53l134 -134q46 -46 64 -88t18 -112v-123q0 -114 -50 -178q-50 -63 -135 -63q-87 0 -136 63
q-50 64 -50 178v189h109v-194q0 -73 19 -102q19 -30 58 -30q37 0 57 30q19 29 19 102v128q0 42 -9 68t-38 55l-134 134q-44 44 -63 88q-18 42 -18 112z" />
    <glyph glyph-name="t" unicode="t" horiz-adv-x="350" 
d="M29 1034v109h70v177l109 65v-242h103v-109h-103v-829q0 -57 20 -78q21 -23 72 -23h11v-104h-17q-195 0 -195 199v835h-70z" />
    <glyph glyph-name="u" unicode="u" horiz-adv-x="487" 
d="M57 199v944h109v-919q0 -71 15 -101q15 -31 45 -31q32 0 56 29q23 28 31 57l9 30v935h108v-1143h-99l-8 82q-40 -94 -127 -94q-61 0 -100 51t-39 160z" />
    <glyph glyph-name="v" unicode="v" horiz-adv-x="461" 
d="M131 1143l99 -942l103 942h108l-134 -1143h-153l-134 1143h111z" />
    <glyph glyph-name="w" unicode="w" horiz-adv-x="757" 
d="M478 0l-99 939l-99 -939h-147l-113 1143h109l82 -936l98 936h142l98 -940l82 940h106l-112 -1143h-147z" />
    <glyph glyph-name="x" unicode="x" horiz-adv-x="473" 
d="M25 1143h114l98 -391l97 391h115l-150 -540l150 -603h-115l-98 439l-97 -439h-114l147 603z" />
    <glyph glyph-name="y" unicode="y" horiz-adv-x="463" 
d="M127 1143l86 -863l126 863h108l-223 -1401h-108l42 243l-142 1158h111z" />
    <glyph glyph-name="z" unicode="z" horiz-adv-x="403" 
d="M35 0v96l219 942h-213v105h328v-96l-219 -943h219v-104h-334z" />
    <glyph glyph-name="braceleft" unicode="{" horiz-adv-x="401" 
d="M129 142v369q0 67 -21 101t-56 34h-15v87h15q35 0 56 34q21 35 21 101v368q0 105 55 163q56 59 143 59h35v-87h-35q-44 0 -71 -34q-27 -35 -27 -101v-351q0 -139 -85 -196q85 -57 85 -194v-353q0 -66 27 -101q27 -34 71 -34h35v-87h-35q-87 0 -143 59q-55 58 -55 163z
" />
    <glyph glyph-name="bar" unicode="|" horiz-adv-x="210" 
d="M57 -143v1648h97v-1648h-97z" />
    <glyph glyph-name="braceright" unicode="}" horiz-adv-x="401" 
d="M272 511v-369q0 -105 -55 -163q-56 -59 -142 -59h-36v87h36q43 0 70 34t27 101v353q0 137 85 194q-85 57 -85 196v351q0 66 -27 101q-27 34 -70 34h-36v87h36q86 0 142 -59q55 -58 55 -163v-368q0 -66 21 -101q21 -34 56 -34h16v-87h-16q-35 0 -56 -34t-21 -101z" />
    <glyph glyph-name="asciitilde" unicode="~" horiz-adv-x="581" 
d="M248 624l125 -66q19 -11 35 -11t16 20v84h111v-100q0 -60 -26 -91q-25 -30 -80 -30q-41 0 -95 28l-125 65q-21 12 -35 12q-16 0 -16 -21v-84h-111v100q0 62 25 91q26 30 81 30q43 0 95 -27z" />
    <glyph glyph-name="nbspace" unicode="&#xa0;" horiz-adv-x="198" 
 />
    <glyph glyph-name="exclamdown" unicode="&#xa1;" horiz-adv-x="238" 
d="M55 -258l26 1119h77l25 -1119h-128zM63 934v209h111v-209h-111z" />
    <glyph glyph-name="cent" unicode="&#xa2;" horiz-adv-x="471" 
d="M185 0v119q-60 18 -95 78q-35 61 -35 156v684q0 95 35 156q35 62 95 79v119h103v-119q60 -18 95 -79t35 -156v-227h-109v232q0 72 -18 102q-19 31 -54 31q-36 0 -55 -31q-18 -30 -18 -102v-694q0 -72 18 -102t55 -30q36 0 54 30t18 102v233h109v-228q0 -94 -35 -155
t-95 -79v-119h-103z" />
    <glyph glyph-name="sterling" unicode="&#xa3;" horiz-adv-x="532" 
d="M37 635v94h61v432q0 116 51 179t139 63q87 0 138 -63t51 -179v-240h-115v245q0 72 -18 102t-56 30q-39 0 -57 -30t-18 -102v-437h236v-94h-236v-137h236v-95h-236v-139q0 -116 -48 -160h312v-104h-440v104h6q55 3 55 74v225h-61v95h61v137h-61z" />
    <glyph glyph-name="currency" unicode="&#xa4;" horiz-adv-x="480" 
d="M141 283h-110l69 186q-15 37 -15 87v279q0 49 15 87l-69 186h110l39 -107q28 12 60 12t59 -12l40 107h111l-70 -186q15 -38 15 -87v-279q0 -50 -15 -87l70 -186h-111l-40 105q-23 -10 -59 -10q-34 0 -60 10zM188 838v-285q0 -83 52 -83q26 0 39 19t13 64v285q0 45 -13 64
t-39 19q-52 0 -52 -83z" />
    <glyph glyph-name="yen" unicode="&#xa5;" horiz-adv-x="518" 
d="M33 553v94h122l-139 744h117l126 -764l126 764h117l-140 -744h123v-94h-140l-26 -137h166v-94h-169v-322h-114v322h-169v94h165l-26 137h-139z" />
    <glyph glyph-name="brokenbar" unicode="&#xa6;" horiz-adv-x="210" 
d="M57 -143v773h97v-773h-97zM57 730v775h97v-775h-97z" />
    <glyph glyph-name="section" unicode="&#xa7;" horiz-adv-x="503" 
d="M444 589v-27q0 -99 -36 -159q36 -52 36 -148v-105q0 -116 -51 -179t-141 -63t-141 63q-52 64 -52 179v246h115v-252q0 -73 19 -102q19 -30 59 -30t59 30q19 29 19 102v111q0 47 -9 72t-39 54l-139 137q-47 47 -65 89q-19 44 -19 115v27q0 95 37 157q-37 53 -37 150v105
q0 115 52 179q51 63 141 63t141 -63t51 -179v-247h-114v252q0 73 -19 102q-19 30 -59 30t-59 -30q-19 -29 -19 -102v-110q0 -46 9 -72t39 -54l138 -137q49 -49 66 -89q18 -42 18 -115zM174 722q0 -46 9 -72t39 -54l108 -107v100q0 47 -9 72t-39 54l-108 106v-99z" />
    <glyph glyph-name="dieresis" unicode="&#xa8;" horiz-adv-x="415" 
d="M55 1208v198h111v-198h-111zM250 1208v198h110v-198h-110z" />
    <glyph glyph-name="copyright" unicode="&#xa9;" horiz-adv-x="791" 
d="M736 1142v-893q0 -107 -77 -184t-184 -77h-159q-107 0 -184 77t-77 184v893q0 107 77 184t184 77h159q107 0 184 -77t77 -184zM93 1142v-893q0 -93 65 -160q64 -65 158 -65h159q94 0 158 65q65 67 65 160v893q0 93 -65 160q-64 65 -158 65h-159q-94 0 -158 -65
q-65 -67 -65 -160zM223 994q0 117 46 179q47 63 126 63t126 -64q46 -62 46 -178v-184h-114v189q0 71 -14 102t-44 31q-29 0 -43 -31t-14 -102v-608q0 -71 14 -102q13 -30 43 -30q31 0 44 30q14 31 14 102v190h114v-185q0 -116 -46 -178q-47 -63 -126 -63t-126 63
q-46 62 -46 178v598z" />
    <glyph glyph-name="ordfeminine" unicode="&#xaa;" horiz-adv-x="379" 
d="M55 942q0 41 8 68q7 24 25 42q24 24 50 42l70 48q17 13 23 25q7 14 7 32v44q0 76 -47 76q-23 0 -34 -17q-12 -18 -12 -59v-91h-90v88q0 76 38 120q37 43 98 43q62 0 99 -43q38 -44 38 -120v-444q0 -54 3 -97q1 -21 5 -60l3 -16h-84q-7 30 -10 56q-29 -65 -91 -65
q-45 0 -72 36t-27 106v186zM145 958v-183q0 -77 39 -77q18 0 32 14t18 27l6 15q-2 58 -2 72v241l-69 -54q-24 -19 -24 -55z" />
    <glyph glyph-name="guillemotleft" unicode="&#xab;" horiz-adv-x="497" 
d="M159 219l-132 352l132 353h107l-132 -353l132 -352h-107zM357 219l-132 352l132 353h108l-132 -353l132 -352h-108z" />
    <glyph glyph-name="logicalnot" unicode="&#xac;" horiz-adv-x="546" 
d="M47 488v105h453v-279h-111v174h-342z" />
    <glyph glyph-name="uni00AD" unicode="&#xad;" horiz-adv-x="372" 
d="M47 488v105h279v-105h-279z" />
    <glyph glyph-name="registered" unicode="&#xae;" horiz-adv-x="546" 
d="M207 662q-57 0 -97 39t-40 96v465q0 56 40 95q42 40 97 40h132q56 0 98 -40q40 -39 40 -95v-465q0 -57 -40 -96q-41 -39 -98 -39h-132zM339 1370h-132q-45 0 -77 -32t-32 -76v-465q0 -45 32 -77t77 -32h132q45 0 77 32q31 31 31 77v465q0 45 -31 76q-32 32 -77 32z
M393 759h-72q-11 24 -11 89v76q0 49 -43 49h-26v-214h-74v540h100q53 0 85 -30t32 -85v-80q0 -67 -48 -97q48 -30 48 -97v-60q0 -28 3 -50q1 -7 2 -18t2 -14zM241 1231v-190h26q43 0 43 50v93q0 47 -43 47h-26z" />
    <glyph glyph-name="macron" unicode="&#xaf;" horiz-adv-x="436" 
d="M55 1230v104h326v-104h-326z" />
    <glyph glyph-name="degree" unicode="&#xb0;" horiz-adv-x="420" 
d="M55 697v528q0 83 43 131q42 47 112 47q69 0 113 -47q43 -46 43 -131v-528q0 -85 -43 -131q-44 -47 -113 -47q-70 0 -112 47q-43 48 -43 131zM159 1228v-534q0 -83 51 -83q26 0 39 19t13 64v534q0 45 -13 64t-39 19q-51 0 -51 -83z" />
    <glyph glyph-name="plusminus" unicode="&#xb1;" horiz-adv-x="546" 
d="M47 440v105h171v174h111v-174h171v-105h-171v-174h-111v174h-171zM47 0v104h453v-104h-453z" />
    <glyph glyph-name="twosuperior" unicode="&#xb2;" horiz-adv-x="395" 
d="M348 1303q0 -81 -31 -143l-152 -297q-18 -35 -18 -106v-5h201v-88h-297v93q0 87 30 146l152 296q19 40 19 104v50q0 92 -52 92q-53 0 -53 -92v-106h-96v101q0 89 40 136q41 49 109 49q67 0 108 -49q40 -47 40 -136v-45z" />
    <glyph glyph-name="threesuperior" unicode="&#xb3;" horiz-adv-x="411" 
d="M151 1157h55q52 0 52 92v104q0 92 -52 92t-52 -92v-106h-97v102q0 89 40 136q41 48 109 48t108 -48q40 -47 40 -136v-84q0 -103 -55 -152q55 -49 55 -151v-121q0 -89 -40 -136q-41 -49 -108 -49q-68 0 -109 49q-40 47 -40 136v138h97v-142q0 -93 52 -93t52 93v140
q0 92 -52 92h-55v88z" />
    <glyph glyph-name="acute" unicode="&#xb4;" horiz-adv-x="294" 
d="M256 1430l-119 -222h-90l66 222h143z" />
    <glyph glyph-name="mu" unicode="&#xb5;" horiz-adv-x="487" 
d="M57 -258v1401h109v-919q0 -132 62 -132q33 0 56 29q22 29 30 57l8 30v935h108v-1143h-99l-7 75q-34 -87 -104 -87q-30 0 -54 18v-264h-109z" />
    <glyph glyph-name="paragraph" unicode="&#xb6;" horiz-adv-x="644" 
d="M270 -80v621q-98 0 -159 64q-62 65 -62 177v367q0 113 62 178q61 64 159 64h311v-1471h-109v1366h-93v-1366h-109z" />
    <glyph glyph-name="periodcentered" unicode="&#xb7;" horiz-adv-x="221" 
d="M53 436v209h115v-209h-115z" />
    <glyph glyph-name="cedilla" unicode="&#xb8;" horiz-adv-x="309" 
d="M144 -112l-59 112h97l51 -96q29 -56 29 -86q0 -76 -99 -76h-112v99h88q17 0 17 16q0 10 -12 31z" />
    <glyph glyph-name="onesuperior" unicode="&#xb9;" horiz-adv-x="282" 
d="M219 1526v-862h-96v710l-96 -14v88q40 4 70 25t38 36l9 17h75z" />
    <glyph glyph-name="ordmasculine" unicode="&#xba;" horiz-adv-x="382" 
d="M55 777v463q0 76 38 120q37 43 98 43q62 0 99 -43q38 -44 38 -120v-463q0 -76 -38 -120q-37 -43 -99 -43q-61 0 -98 43q-38 44 -38 120zM145 1243v-469q0 -76 46 -76q47 0 47 76v469q0 76 -47 76q-46 0 -46 -76z" />
    <glyph glyph-name="guillemotright" unicode="&#xbb;" horiz-adv-x="497" 
d="M471 571l-132 -352h-108l133 352l-133 353h108zM272 571l-132 -352h-107l132 352l-132 353h107z" />
    <glyph glyph-name="onequarter" unicode="&#xbc;" horiz-adv-x="973" 
d="M219 1391v-863h-96v711l-96 -14v88q42 5 70 24q30 20 38 37l9 17h75zM585 141v88l168 633h123v-633h63v-88h-63v-141h-97v141h-194zM670 229h109v464zM201 0l437 1391h94l-437 -1391h-94z" />
    <glyph glyph-name="onehalf" unicode="&#xbd;" horiz-adv-x="1025" 
d="M219 1391v-863h-96v711l-96 -14v88q42 5 70 24q30 20 38 37l9 17h75zM978 639q0 -80 -31 -142l-152 -297q-18 -35 -18 -107v-5h201v-88h-297v93q0 89 30 147l152 296q19 40 19 103v50q0 92 -53 92q-52 0 -52 -92v-105h-96v100q0 90 40 137q41 48 108 48q69 0 109 -48
q40 -47 40 -137v-45zM201 0l437 1391h94l-437 -1391h-94z" />
    <glyph glyph-name="threequarters" unicode="&#xbe;" horiz-adv-x="1082" 
d="M151 1022h55q52 0 52 92v104q0 92 -52 92t-52 -92v-106h-97v101q0 90 40 137q41 48 109 48t108 -48q40 -47 40 -137v-84q0 -102 -55 -151q55 -49 55 -152v-120q0 -90 -40 -137q-40 -48 -108 -48t-109 48q-40 47 -40 137v138h97v-143q0 -92 52 -92t52 92v141q0 92 -52 92
h-55v88zM309 0l437 1391h95l-438 -1391h-94zM693 141v88l168 633h123v-633h64v-88h-64v-141h-96v141h-195zM778 229h110v464z" />
    <glyph glyph-name="questiondown" unicode="&#xbf;" horiz-adv-x="495" 
d="M297 861v-102q0 -85 -7 -120q-8 -37 -30 -87l-63 -141q-16 -34 -20 -64q-5 -33 -5 -102v-279q0 -132 83 -132t83 132v324h115v-319q0 -114 -55 -178q-54 -63 -143 -63t-143 63q-55 64 -55 178v274q0 93 9 136q9 46 32 88l77 149q25 51 31 72q7 26 7 69v102h84zM310 1143
v-209h-110v209h110z" />
    <glyph glyph-name="Agrave" unicode="&#xc0;" horiz-adv-x="501" 
d="M27 0l149 1391h154l145 -1391h-109l-28 278h-172l-27 -278h-112zM253 1167l-77 -785h151zM206 1456l-119 221h143l66 -221h-90z" />
    <glyph glyph-name="Aacute" unicode="&#xc1;" horiz-adv-x="501" 
d="M27 0l149 1391h154l145 -1391h-109l-28 278h-172l-27 -278h-112zM253 1167l-77 -785h151zM415 1677l-119 -221h-90l65 221h144z" />
    <glyph glyph-name="Acircumflex" unicode="&#xc2;" horiz-adv-x="501" 
d="M27 0l149 1391h154l145 -1391h-109l-28 278h-172l-27 -278h-112zM253 1167l-77 -785h151zM334 1456l-83 114l-83 -114h-90l105 221h135l106 -221h-90z" />
    <glyph glyph-name="Atilde" unicode="&#xc3;" horiz-adv-x="501" 
d="M27 0l149 1391h154l145 -1391h-109l-28 278h-172l-27 -278h-112zM253 1167l-77 -785h151zM291 1478l-81 48q-17 10 -25 10q-11 0 -11 -15v-65h-99v114q0 86 67 86q30 0 69 -24l81 -48q17 -10 24 -10q12 0 12 15v65h99v-114q0 -86 -68 -86q-29 0 -68 24z" />
    <glyph glyph-name="Adieresis" unicode="&#xc4;" horiz-adv-x="501" 
d="M27 0l149 1391h154l145 -1391h-109l-28 278h-172l-27 -278h-112zM253 1167l-77 -785h151zM98 1456v198h111v-198h-111zM293 1456v198h110v-198h-110z" />
    <glyph glyph-name="Aring" unicode="&#xc5;" horiz-adv-x="501" 
d="M27 0l149 1391h154l145 -1391h-109l-28 278h-172l-27 -278h-112zM253 1167l-77 -785h151zM99 1587q0 63 45 102q44 38 107 38t107 -38t44 -102t-44 -102t-107 -38t-107 38q-45 39 -45 102zM251 1523q26 0 43 16t17 48t-17 48q-19 17 -43 17t-43 -17q-18 -17 -18 -48
t18 -48q17 -16 43 -16z" />
    <glyph glyph-name="Ccedilla" unicode="&#xc7;" horiz-adv-x="499" 
d="M176 1166v-942q0 -70 19 -102q18 -30 56 -30t56 30q19 32 19 102v363h114v-358q0 -105 -42 -166t-116 -73l46 -86q28 -55 28 -86q0 -76 -99 -76h-112v99h88q17 0 17 16q0 12 -11 31l-61 113q-56 23 -86 81q-31 60 -31 147v932q0 116 51 179t139 63t139 -63
q50 -62 50 -179v-345h-114v350q0 70 -19 102q-18 30 -56 30t-56 -30q-19 -32 -19 -102z" />
    <glyph glyph-name="Egrave" unicode="&#xc8;" horiz-adv-x="421" 
d="M63 0v1391h314v-105h-199v-532h169v-105h-169v-545h199v-104h-314zM176 1456l-119 221h144l65 -221h-90z" />
    <glyph glyph-name="Eacute" unicode="&#xc9;" horiz-adv-x="421" 
d="M63 0v1391h314v-105h-199v-532h169v-105h-169v-545h199v-104h-314zM383 1677l-119 -221h-90l66 221h143z" />
    <glyph glyph-name="Ecircumflex" unicode="&#xca;" horiz-adv-x="421" 
d="M63 0v1391h314v-105h-199v-532h169v-105h-169v-545h199v-104h-314zM303 1456l-83 114l-83 -114h-90l106 221h135l105 -221h-90z" />
    <glyph glyph-name="Edieresis" unicode="&#xcb;" horiz-adv-x="421" 
d="M63 0v1391h314v-105h-199v-532h169v-105h-169v-545h199v-104h-314zM68 1456v198h110v-198h-110zM262 1456v198h111v-198h-111z" />
    <glyph glyph-name="Igrave" unicode="&#xcc;" horiz-adv-x="241" 
d="M63 0v1391h115v-1391h-115zM77 1456l-119 221h143l66 -221h-90z" />
    <glyph glyph-name="Iacute" unicode="&#xcd;" horiz-adv-x="241" 
d="M63 0v1391h115v-1391h-115zM284 1677l-119 -221h-90l65 221h144z" />
    <glyph glyph-name="Icircumflex" unicode="&#xce;" horiz-adv-x="241" 
d="M63 0v1391h115v-1391h-115zM204 1456l-83 114l-83 -114h-90l105 221h135l106 -221h-90z" />
    <glyph glyph-name="Idieresis" unicode="&#xcf;" horiz-adv-x="241" 
d="M63 0v1391h115v-1391h-115zM-32 1456v198h111v-198h-111zM163 1456v198h110v-198h-110z" />
    <glyph glyph-name="Eth" unicode="&#xd0;" horiz-adv-x="524" 
d="M10 649v105h74v637h158q98 0 159 -64q62 -65 62 -178v-907q0 -113 -62 -178q-61 -64 -159 -64h-158v649h-74zM242 1286h-43v-532h74v-105h-74v-545h43q106 0 106 133v917q0 132 -106 132z" />
    <glyph glyph-name="Ntilde" unicode="&#xd1;" horiz-adv-x="561" 
d="M346 0l-172 1077v-1077h-111v1391h152l172 -1078v1078h111v-1391h-152zM321 1478l-81 48q-17 10 -25 10q-11 0 -11 -15v-65h-100v114q0 86 68 86q30 0 69 -24l81 -48q17 -10 24 -10q11 0 11 15v65h100v-114q0 -86 -68 -86q-29 0 -68 24z" />
    <glyph glyph-name="Ograve" unicode="&#xd2;" horiz-adv-x="512" 
d="M61 229v932q0 115 53 179q52 63 142 63t142 -63q53 -64 53 -179v-932q0 -114 -53 -178q-52 -63 -142 -63t-142 63q-53 64 -53 178zM176 1166v-942q0 -71 20 -102q20 -30 60 -30t60 30q20 31 20 102v942q0 71 -20 102q-20 30 -60 30t-60 -30q-20 -31 -20 -102zM212 1456
l-119 221h144l65 -221h-90z" />
    <glyph glyph-name="Oacute" unicode="&#xd3;" horiz-adv-x="512" 
d="M61 229v932q0 115 53 179q52 63 142 63t142 -63q53 -64 53 -179v-932q0 -114 -53 -178q-52 -63 -142 -63t-142 63q-53 64 -53 178zM176 1166v-942q0 -71 20 -102q20 -30 60 -30t60 30q20 31 20 102v942q0 71 -20 102q-20 30 -60 30t-60 -30q-20 -31 -20 -102zM419 1677
l-119 -221h-90l65 221h144z" />
    <glyph glyph-name="Ocircumflex" unicode="&#xd4;" horiz-adv-x="512" 
d="M61 229v932q0 115 53 179q52 63 142 63t142 -63q53 -64 53 -179v-932q0 -114 -53 -178q-52 -63 -142 -63t-142 63q-53 64 -53 178zM176 1166v-942q0 -71 20 -102q20 -30 60 -30t60 30q20 31 20 102v942q0 71 -20 102q-20 30 -60 30t-60 -30q-20 -31 -20 -102zM339 1456
l-83 114l-83 -114h-90l105 221h136l105 -221h-90z" />
    <glyph glyph-name="Otilde" unicode="&#xd5;" horiz-adv-x="512" 
d="M61 229v932q0 115 53 179q52 63 142 63t142 -63q53 -64 53 -179v-932q0 -114 -53 -178q-52 -63 -142 -63t-142 63q-53 64 -53 178zM176 1166v-942q0 -71 20 -102q20 -30 60 -30t60 30q20 31 20 102v942q0 71 -20 102q-20 30 -60 30t-60 -30q-20 -31 -20 -102zM296 1478
l-81 48q-17 10 -25 10q-11 0 -11 -15v-65h-99v114q0 86 67 86q30 0 69 -24l81 -48q17 -10 25 -10q11 0 11 15v65h99v-114q0 -86 -67 -86q-30 0 -69 24z" />
    <glyph glyph-name="Odieresis" unicode="&#xd6;" horiz-adv-x="512" 
d="M61 229v932q0 115 53 179q52 63 142 63t142 -63q53 -64 53 -179v-932q0 -114 -53 -178q-52 -63 -142 -63t-142 63q-53 64 -53 178zM176 1166v-942q0 -71 20 -102q20 -30 60 -30t60 30q20 31 20 102v942q0 71 -20 102q-20 30 -60 30t-60 -30q-20 -31 -20 -102zM103 1456
v198h111v-198h-111zM298 1456v198h111v-198h-111z" />
    <glyph glyph-name="multiply" unicode="&#xd7;" horiz-adv-x="516" 
d="M51 671l77 77l130 -131l130 131l77 -77l-130 -130l130 -130l-77 -77l-130 130l-130 -130l-77 77l130 130z" />
    <glyph glyph-name="Oslash" unicode="&#xd8;" horiz-adv-x="512" 
d="M61 -73l340 1536h50l-340 -1536h-50zM61 229v932q0 115 53 179q52 63 142 63t142 -63q53 -64 53 -179v-932q0 -114 -53 -178q-52 -63 -142 -63t-142 63q-53 64 -53 178zM176 1166v-942q0 -71 20 -102q20 -30 60 -30t60 30q20 31 20 102v942q0 71 -20 102q-20 30 -60 30
t-60 -30q-20 -31 -20 -102z" />
    <glyph glyph-name="Ugrave" unicode="&#xd9;" 
d="M176 1391v-1167q0 -73 19 -102q19 -30 59 -30t59 30q19 29 19 102v1167h114v-1162q0 -115 -51 -178t-141 -63t-141 63q-52 64 -52 178v1162h115zM210 1456l-119 221h143l66 -221h-90z" />
    <glyph glyph-name="Uacute" unicode="&#xda;" 
d="M176 1391v-1167q0 -73 19 -102q19 -30 59 -30t59 30q19 29 19 102v1167h114v-1162q0 -115 -51 -178t-141 -63t-141 63q-52 64 -52 178v1162h115zM417 1677l-119 -221h-90l65 221h144z" />
    <glyph glyph-name="Ucircumflex" unicode="&#xdb;" 
d="M176 1391v-1167q0 -73 19 -102q19 -30 59 -30t59 30q19 29 19 102v1167h114v-1162q0 -115 -51 -178t-141 -63t-141 63q-52 64 -52 178v1162h115zM337 1456l-83 114l-83 -114h-90l105 221h136l105 -221h-90z" />
    <glyph glyph-name="Udieresis" unicode="&#xdc;" 
d="M176 1391v-1167q0 -73 19 -102q19 -30 59 -30t59 30q19 29 19 102v1167h114v-1162q0 -115 -51 -178t-141 -63t-141 63q-52 64 -52 178v1162h115zM101 1456v198h111v-198h-111zM296 1456v198h111v-198h-111z" />
    <glyph glyph-name="Yacute" unicode="&#xdd;" horiz-adv-x="514" 
d="M200 0v397l-184 994h117l124 -761l124 761h117l-184 -994v-397h-114zM420 1677l-119 -221h-90l65 221h144z" />
    <glyph glyph-name="Thorn" unicode="&#xde;" horiz-adv-x="497" 
d="M63 0v1391h115v-236h49q99 0 160 -64q62 -65 62 -178v-311q0 -113 -62 -178q-61 -64 -160 -64h-49v-360h-115zM227 1051h-49v-586h49q107 0 107 132v322q0 132 -107 132z" />
    <glyph glyph-name="germandbls" unicode="&#xdf;" horiz-adv-x="491" 
d="M230 0v104h20q39 0 59 31q19 29 19 102v284q0 71 -20 102q-20 30 -61 30h-17v105h17q39 0 57 30t18 102v276q0 73 -19 102q-19 30 -59 30t-59 -30q-19 -29 -19 -102v-1166h-109v1161q0 115 51 178q52 64 136 64q83 0 135 -64q51 -63 51 -178v-258q0 -133 -65 -195
q71 -62 71 -200v-266q0 -117 -50 -179q-51 -63 -136 -63h-20z" />
    <glyph glyph-name="agrave" unicode="&#xe0;" horiz-adv-x="479" 
d="M55 457q0 60 14 100q13 37 34 60q24 26 73 65l100 81q26 21 31 33q6 14 6 39v84q0 71 -18 101q-19 31 -56 31q-38 0 -57 -31q-18 -30 -18 -101v-151h-109v145q0 115 50 179q49 63 134 63q83 0 133 -63q50 -64 50 -179v-657q0 -86 4 -143q5 -72 8 -88l4 -25h-102
q-7 27 -13 90q-41 -102 -130 -102q-63 0 -100 51q-38 52 -38 160v258zM164 487v-263q0 -132 59 -132q31 0 53 27q24 29 31 53l8 27q-2 84 -2 103v367l-111 -97q-38 -32 -38 -85zM195 1208l-119 222h143l66 -222h-90z" />
    <glyph glyph-name="aacute" unicode="&#xe1;" horiz-adv-x="479" 
d="M55 457q0 60 14 100q13 37 34 60q24 26 73 65l100 81q26 21 31 33q6 14 6 39v84q0 71 -18 101q-19 31 -56 31q-38 0 -57 -31q-18 -30 -18 -101v-151h-109v145q0 115 50 179q49 63 134 63q83 0 133 -63q50 -64 50 -179v-657q0 -86 4 -143q5 -72 8 -88l4 -25h-102
q-7 27 -13 90q-41 -102 -130 -102q-63 0 -100 51q-38 52 -38 160v258zM164 487v-263q0 -132 59 -132q31 0 53 27q24 29 31 53l8 27q-2 84 -2 103v367l-111 -97q-38 -32 -38 -85zM401 1430l-118 -222h-90l65 222h143z" />
    <glyph glyph-name="acircumflex" unicode="&#xe2;" horiz-adv-x="479" 
d="M55 457q0 60 14 100q13 37 34 60q24 26 73 65l100 81q26 21 31 33q6 14 6 39v84q0 71 -18 101q-19 31 -56 31q-38 0 -57 -31q-18 -30 -18 -101v-151h-109v145q0 115 50 179q49 63 134 63q83 0 133 -63q50 -64 50 -179v-657q0 -86 4 -143q5 -72 8 -88l4 -25h-102
q-7 27 -13 90q-41 -102 -130 -102q-63 0 -100 51q-38 52 -38 160v258zM164 487v-263q0 -132 59 -132q31 0 53 27q24 29 31 53l8 27q-2 84 -2 103v367l-111 -97q-38 -32 -38 -85zM322 1208l-83 114l-83 -114h-90l105 222h135l106 -222h-90z" />
    <glyph glyph-name="atilde" unicode="&#xe3;" horiz-adv-x="479" 
d="M55 457q0 60 14 100q13 37 34 60q24 26 73 65l100 81q26 21 31 33q6 14 6 39v84q0 71 -18 101q-19 31 -56 31q-38 0 -57 -31q-18 -30 -18 -101v-151h-109v145q0 115 50 179q49 63 134 63q83 0 133 -63q50 -64 50 -179v-657q0 -86 4 -143q5 -72 8 -88l4 -25h-102
q-7 27 -13 90q-41 -102 -130 -102q-63 0 -100 51q-38 52 -38 160v258zM164 487v-263q0 -132 59 -132q31 0 53 27q24 29 31 53l8 27q-2 84 -2 103v367l-111 -97q-38 -32 -38 -85zM279 1230l-81 48q-17 10 -25 10q-11 0 -11 -15v-65h-100v114q0 86 68 86q30 0 69 -24l81 -48
q17 -10 24 -10q11 0 11 15v65h100v-114q0 -86 -68 -86q-29 0 -68 24z" />
    <glyph glyph-name="adieresis" unicode="&#xe4;" horiz-adv-x="479" 
d="M55 457q0 60 14 100q13 37 34 60q24 26 73 65l100 81q26 21 31 33q6 14 6 39v84q0 71 -18 101q-19 31 -56 31q-38 0 -57 -31q-18 -30 -18 -101v-151h-109v145q0 115 50 179q49 63 134 63q83 0 133 -63q50 -64 50 -179v-657q0 -86 4 -143q5 -72 8 -88l4 -25h-102
q-7 27 -13 90q-41 -102 -130 -102q-63 0 -100 51q-38 52 -38 160v258zM164 487v-263q0 -132 59 -132q31 0 53 27q24 29 31 53l8 27q-2 84 -2 103v367l-111 -97q-38 -32 -38 -85zM86 1208v198h111v-198h-111zM281 1208v198h110v-198h-110z" />
    <glyph glyph-name="aring" unicode="&#xe5;" horiz-adv-x="479" 
d="M55 457q0 60 14 100q13 37 34 60q24 26 73 65l100 81q26 21 31 33q6 14 6 39v84q0 71 -18 101q-19 31 -56 31q-38 0 -57 -31q-18 -30 -18 -101v-151h-109v145q0 115 50 179q49 63 134 63q83 0 133 -63q50 -64 50 -179v-657q0 -86 4 -143q5 -72 8 -88l4 -25h-102
q-7 27 -13 90q-41 -102 -130 -102q-63 0 -100 51q-38 52 -38 160v258zM164 487v-263q0 -132 59 -132q31 0 53 27q24 29 31 53l8 27q-2 84 -2 103v367l-111 -97q-38 -32 -38 -85zM87 1339q0 63 45 102t107 39t107 -39q44 -38 44 -102q0 -63 -44 -101q-45 -39 -107 -39
t-107 39t-45 101zM239 1275q26 0 43 16t17 48q0 33 -17 49t-43 16t-43 -16q-18 -16 -18 -49q0 -31 18 -48q17 -16 43 -16z" />
    <glyph glyph-name="ccedilla" unicode="&#xe7;" horiz-adv-x="479" 
d="M164 919v-695q0 -72 18 -102t58 -30q39 0 57 30t18 102v233h109v-228q0 -104 -41 -166q-39 -60 -113 -72l46 -87q29 -56 29 -86q0 -76 -99 -76h-112v99h88q17 0 17 16q0 10 -12 31l-60 114q-52 24 -82 82t-30 145v684q0 115 50 179q49 63 135 63q84 0 134 -63
q50 -64 50 -179v-227h-109v233q0 71 -18 101q-19 31 -57 31q-39 0 -58 -31q-18 -30 -18 -101z" />
    <glyph glyph-name="egrave" unicode="&#xe8;" horiz-adv-x="477" 
d="M164 472v-248q0 -72 18 -102t57 -30q38 0 56 30t18 102v131h109v-126q0 -114 -50 -178q-50 -63 -133 -63q-85 0 -134 63q-50 64 -50 178v684q0 115 50 179q49 63 134 63q83 0 133 -63q50 -64 50 -179v-441h-258zM164 919v-347h149v347q0 71 -18 101q-19 31 -56 31
q-38 0 -57 -31q-18 -30 -18 -101zM195 1208l-119 222h143l66 -222h-90z" />
    <glyph glyph-name="eacute" unicode="&#xe9;" horiz-adv-x="477" 
d="M164 472v-248q0 -72 18 -102t57 -30q38 0 56 30t18 102v131h109v-126q0 -114 -50 -178q-50 -63 -133 -63q-85 0 -134 63q-50 64 -50 178v684q0 115 50 179q49 63 134 63q83 0 133 -63q50 -64 50 -179v-441h-258zM164 919v-347h149v347q0 71 -18 101q-19 31 -56 31
q-38 0 -57 -31q-18 -30 -18 -101zM401 1430l-118 -222h-90l65 222h143z" />
    <glyph glyph-name="ecircumflex" unicode="&#xea;" horiz-adv-x="477" 
d="M164 472v-248q0 -72 18 -102t57 -30q38 0 56 30t18 102v131h109v-126q0 -114 -50 -178q-50 -63 -133 -63q-85 0 -134 63q-50 64 -50 178v684q0 115 50 179q49 63 134 63q83 0 133 -63q50 -64 50 -179v-441h-258zM164 919v-347h149v347q0 71 -18 101q-19 31 -56 31
q-38 0 -57 -31q-18 -30 -18 -101zM239 1322l-83 -114h-90l105 222h135l106 -222h-90z" />
    <glyph glyph-name="edieresis" unicode="&#xeb;" horiz-adv-x="477" 
d="M164 472v-248q0 -72 18 -102t57 -30q38 0 56 30t18 102v131h109v-126q0 -114 -50 -178q-50 -63 -133 -63q-85 0 -134 63q-50 64 -50 178v684q0 115 50 179q49 63 134 63q83 0 133 -63q50 -64 50 -179v-441h-258zM164 919v-347h149v347q0 71 -18 101q-19 31 -56 31
q-38 0 -57 -31q-18 -30 -18 -101zM391 1406v-198h-110v198h110zM197 1406v-198h-111v198h111z" />
    <glyph glyph-name="igrave" unicode="&#xec;" horiz-adv-x="223" 
d="M57 0v1143h109v-1143h-109zM68 1208l-119 222h143l66 -222h-90z" />
    <glyph glyph-name="iacute" unicode="&#xed;" horiz-adv-x="223" 
d="M57 0v1143h109v-1143h-109zM274 1430l-118 -222h-90l65 222h143z" />
    <glyph glyph-name="icircumflex" unicode="&#xee;" horiz-adv-x="223" 
d="M57 0v1143h109v-1143h-109zM195 1208l-83 114l-83 -114h-90l105 222h135l106 -222h-90z" />
    <glyph glyph-name="idieresis" unicode="&#xef;" horiz-adv-x="223" 
d="M57 0v1143h109v-1143h-109zM-41 1208v198h111v-198h-111zM154 1208v198h110v-198h-110z" />
    <glyph glyph-name="eth" unicode="&#xf0;" horiz-adv-x="483" 
d="M76 1178v87l352 126v-87zM428 937v-708q0 -115 -51 -178t-135 -63q-85 0 -136 63t-51 178v715q0 107 38 159t97 52q26 0 48 -9q19 -7 35 -22q16 -14 23 -25q12 -18 14 -22l4 -9q-20 47 -77 132l-129 191h119l99 -146q60 -87 81 -155t21 -153zM164 919v-695q0 -73 19 -102
q19 -30 59 -30t59 30q18 28 18 102v711q-1 3 -3 13q0 2 -10 27q-6 17 -18 36q-9 15 -27 27q-19 13 -37 13q-30 0 -45 -31q-15 -30 -15 -101z" />
    <glyph glyph-name="ntilde" unicode="&#xf1;" horiz-adv-x="487" 
d="M430 0v944q0 109 -38 159q-40 52 -100 52q-86 0 -128 -94l-7 82h-100v-1143h109v935q1 3 3 13q0 2 10 27q6 17 18 36q9 15 27 27q19 13 37 13q31 0 46 -31q15 -30 15 -101v-919h108zM284 1230l-81 48q-17 10 -25 10q-11 0 -11 -15v-65h-99v114q0 86 67 86q30 0 69 -24
l81 -48q17 -10 24 -10q12 0 12 15v65h99v-114q0 -86 -68 -86q-29 0 -68 24z" />
    <glyph glyph-name="ograve" unicode="&#xf2;" horiz-adv-x="489" 
d="M55 229v684q0 116 51 179t139 63q87 0 138 -63t51 -179v-684q0 -115 -51 -178t-138 -63q-88 0 -139 63t-51 178zM164 919v-695q0 -71 20 -102q20 -30 61 -30t61 30q20 31 20 102v695q0 70 -20 101t-61 31t-61 -31t-20 -101zM201 1208l-119 222h143l66 -222h-90z" />
    <glyph glyph-name="oacute" unicode="&#xf3;" horiz-adv-x="489" 
d="M55 229v684q0 116 51 179t139 63q87 0 138 -63t51 -179v-684q0 -115 -51 -178t-138 -63q-88 0 -139 63t-51 178zM164 919v-695q0 -71 20 -102q20 -30 61 -30t61 30q20 31 20 102v695q0 70 -20 101t-61 31t-61 -31t-20 -101zM408 1430l-119 -222h-90l65 222h144z" />
    <glyph glyph-name="ocircumflex" unicode="&#xf4;" horiz-adv-x="489" 
d="M55 229v684q0 116 51 179t139 63q87 0 138 -63t51 -179v-684q0 -115 -51 -178t-138 -63q-88 0 -139 63t-51 178zM164 919v-695q0 -71 20 -102q20 -30 61 -30t61 30q20 31 20 102v695q0 70 -20 101t-61 31t-61 -31t-20 -101zM328 1208l-83 114l-83 -114h-90l105 222h135
l106 -222h-90z" />
    <glyph glyph-name="otilde" unicode="&#xf5;" horiz-adv-x="489" 
d="M55 229v684q0 116 51 179t139 63q87 0 138 -63t51 -179v-684q0 -115 -51 -178t-138 -63q-88 0 -139 63t-51 178zM164 919v-695q0 -71 20 -102q20 -30 61 -30t61 30q20 31 20 102v695q0 70 -20 101t-61 31t-61 -31t-20 -101zM285 1230l-81 48q-17 10 -25 10q-11 0 -11 -15
v-65h-99v114q0 86 67 86q30 0 69 -24l81 -48q17 -10 24 -10q12 0 12 15v65h99v-114q0 -86 -68 -86q-29 0 -68 24z" />
    <glyph glyph-name="odieresis" unicode="&#xf6;" horiz-adv-x="489" 
d="M55 229v684q0 116 51 179t139 63q87 0 138 -63t51 -179v-684q0 -115 -51 -178t-138 -63q-88 0 -139 63t-51 178zM164 919v-695q0 -71 20 -102q20 -30 61 -30t61 30q20 31 20 102v695q0 70 -20 101t-61 31t-61 -31t-20 -101zM92 1208v198h111v-198h-111zM287 1208v198h110
v-198h-110z" />
    <glyph glyph-name="divide" unicode="&#xf7;" horiz-adv-x="546" 
d="M329 666h-111v152h111v-152zM218 416h111v-153h-111v153zM47 488v105h453v-105h-453z" />
    <glyph glyph-name="oslash" unicode="&#xf8;" horiz-adv-x="489" 
d="M55 229v684q0 116 51 179t139 63q87 0 138 -63t51 -179v-684q0 -115 -51 -178t-138 -63q-88 0 -139 63t-51 178zM164 919v-695q0 -71 20 -102q20 -30 61 -30t61 30q20 31 20 102v695q0 70 -20 101t-61 31t-61 -31t-20 -101zM55 -73l330 1288h49l-330 -1288h-49z" />
    <glyph glyph-name="ugrave" unicode="&#xf9;" horiz-adv-x="487" 
d="M57 199v944h109v-919q0 -71 15 -101q15 -31 45 -31q32 0 56 29q23 28 31 57l9 30v935h108v-1143h-99l-8 82q-40 -94 -127 -94q-61 0 -100 51t-39 160zM200 1208l-119 222h143l66 -222h-90z" />
    <glyph glyph-name="uacute" unicode="&#xfa;" horiz-adv-x="487" 
d="M57 1143v-944q0 -109 39 -160t100 -51q87 0 127 94l8 -82h99v1143h-108v-935q-4 -11 -4 -13q-1 -4 -10 -28q-5 -14 -18 -35q-10 -17 -27 -28q-18 -12 -37 -12q-30 0 -45 31q-15 30 -15 101v919h-109zM407 1430l-119 -222h-90l65 222h144z" />
    <glyph glyph-name="ucircumflex" unicode="&#xfb;" horiz-adv-x="487" 
d="M57 1143v-944q0 -109 39 -160t100 -51q87 0 127 94l8 -82h99v1143h-108v-935q-4 -11 -4 -13q-1 -4 -10 -28q-5 -14 -18 -35q-10 -17 -27 -28q-18 -12 -37 -12q-30 0 -45 31q-15 30 -15 101v919h-109zM327 1208l-83 114l-83 -114h-90l105 222h135l106 -222h-90z" />
    <glyph glyph-name="udieresis" unicode="&#xfc;" horiz-adv-x="487" 
d="M57 1143v-944q0 -109 39 -160t100 -51q87 0 127 94l8 -82h99v1143h-108v-935q-4 -11 -4 -13q-1 -4 -10 -28q-5 -14 -18 -35q-10 -17 -27 -28q-18 -12 -37 -12q-30 0 -45 31q-15 30 -15 101v919h-109zM91 1208v198h111v-198h-111zM286 1208v198h110v-198h-110z" />
    <glyph glyph-name="yacute" unicode="&#xfd;" horiz-adv-x="463" 
d="M127 1143l86 -863l126 863h108l-223 -1401h-108l42 243l-142 1158h111zM394 1430l-119 -222h-90l66 222h143z" />
    <glyph glyph-name="thorn" unicode="&#xfe;" horiz-adv-x="485" 
d="M430 944v-745q0 -110 -38 -160q-39 -51 -100 -51q-86 0 -126 91v-337h-109v1649h109v-327q42 91 126 91q60 0 100 -52q38 -50 38 -159zM166 935v-727q1 -3 3 -13q1 -4 10 -28q5 -14 18 -35q10 -17 27 -28q18 -12 37 -12q31 0 46 31q15 30 15 101v695q0 71 -15 101
q-15 31 -46 31t-55 -29q-25 -29 -32 -57z" />
    <glyph glyph-name="ydieresis" unicode="&#xff;" horiz-adv-x="463" 
d="M127 1143l86 -863l126 863h108l-223 -1401h-108l42 243l-142 1158h111zM79 1208v198h110v-198h-110zM273 1208v198h111v-198h-111z" />
    <glyph glyph-name="Amacron" unicode="&#x100;" horiz-adv-x="501" 
d="M27 0l149 1391h154l145 -1391h-109l-28 278h-172l-27 -278h-112zM253 1167l-77 -785h151zM88 1478v104h326v-104h-326z" />
    <glyph glyph-name="amacron" unicode="&#x101;" horiz-adv-x="479" 
d="M55 457q0 60 14 100q13 37 34 60q24 26 73 65l100 81q26 21 31 33q6 14 6 39v84q0 71 -18 101q-19 31 -56 31q-38 0 -57 -31q-18 -30 -18 -101v-151h-109v145q0 115 50 179q49 63 134 63q83 0 133 -63q50 -64 50 -179v-657q0 -86 4 -143q5 -72 8 -88l4 -25h-102
q-7 27 -13 90q-41 -102 -130 -102q-63 0 -100 51q-38 52 -38 160v258zM164 487v-263q0 -132 59 -132q31 0 53 27q24 29 31 53l8 27q-2 84 -2 103v367l-111 -97q-38 -32 -38 -85zM76 1230v104h325v-104h-325z" />
    <glyph glyph-name="Abreve" unicode="&#x102;" horiz-adv-x="501" 
d="M27 0l149 1391h154l145 -1391h-109l-28 278h-172l-27 -278h-112zM253 1167l-77 -785h151zM411 1673v-19q0 -95 -43 -149q-42 -53 -117 -53t-117 53q-43 54 -43 149v19h93v-18q0 -121 67 -121q66 0 66 121v18h94z" />
    <glyph glyph-name="abreve" unicode="&#x103;" horiz-adv-x="479" 
d="M55 457q0 60 14 100q13 37 34 60q24 26 73 65l100 81q26 21 31 33q6 14 6 39v84q0 71 -18 101q-19 31 -56 31q-38 0 -57 -31q-18 -30 -18 -101v-151h-109v145q0 115 50 179q49 63 134 63q83 0 133 -63q50 -64 50 -179v-657q0 -86 4 -143q5 -72 8 -88l4 -25h-102
q-7 27 -13 90q-41 -102 -130 -102q-63 0 -100 51q-38 52 -38 160v258zM164 487v-263q0 -132 59 -132q31 0 53 27q24 29 31 53l8 27q-2 84 -2 103v367l-111 -97q-38 -32 -38 -85zM398 1425v-19q0 -97 -42 -149q-42 -53 -117 -53q-76 0 -118 53q-42 52 -42 149v19h93v-18
q0 -121 67 -121q66 0 66 121v18h93z" />
    <glyph glyph-name="Aogonek" unicode="&#x104;" horiz-adv-x="501" 
d="M330 1391l145 -1391l-98 -116q-15 -18 -15 -28q0 -15 18 -15h86v-99h-121q-99 0 -99 75q0 26 11 45q13 23 43 60l66 79l-28 277h-172l-27 -278h-112l149 1391h154zM253 1167l-77 -785h151z" />
    <glyph glyph-name="aogonek" unicode="&#x105;" horiz-adv-x="479" 
d="M55 457q0 60 14 100q13 37 34 60q24 26 73 65l100 81q26 21 31 33q6 14 6 39v84q0 71 -18 101q-19 31 -56 31q-38 0 -57 -31q-18 -30 -18 -101v-151h-109v145q0 115 50 179q49 63 134 63q83 0 133 -63q50 -64 50 -179v-657q0 -86 4 -143q5 -72 8 -88l4 -25l-98 -116
q-14 -17 -14 -28q0 -15 17 -15h86v-99h-121q-99 0 -99 75q0 26 11 45q13 23 43 60l71 86q-9 57 -11 82q-41 -102 -130 -102q-63 0 -100 51q-38 52 -38 160v258zM164 487v-263q0 -132 59 -132q31 0 53 27q24 29 31 53l8 27q-2 84 -2 103v367l-111 -97q-38 -32 -38 -85z" />
    <glyph glyph-name="Cacute" unicode="&#x106;" horiz-adv-x="499" 
d="M176 1166v-942q0 -70 19 -102q18 -30 56 -30t56 30q19 32 19 102v363h114v-358q0 -116 -50 -178q-51 -63 -139 -63t-139 63t-51 178v932q0 116 51 179t139 63t139 -63q50 -62 50 -179v-345h-114v350q0 70 -19 102q-18 30 -56 30t-56 -30q-19 -32 -19 -102zM414 1677
l-119 -221h-90l65 221h144z" />
    <glyph glyph-name="cacute" unicode="&#x107;" horiz-adv-x="479" 
d="M164 919v-695q0 -72 18 -102t58 -30q39 0 57 30t18 102v233h109v-228q0 -114 -50 -178q-50 -63 -134 -63q-86 0 -135 63q-50 64 -50 178v684q0 115 50 179q49 63 135 63q84 0 134 -63q50 -64 50 -179v-227h-109v233q0 71 -18 101q-19 31 -57 31q-39 0 -58 -31
q-18 -30 -18 -101zM402 1430l-118 -222h-90l65 222h143z" />
    <glyph glyph-name="Ccircumflex" unicode="&#x108;" horiz-adv-x="499" 
d="M176 1166v-942q0 -70 19 -102q18 -30 56 -30t56 30q19 32 19 102v363h114v-358q0 -116 -50 -178q-51 -63 -139 -63t-139 63t-51 178v932q0 116 51 179t139 63t139 -63q50 -62 50 -179v-345h-114v350q0 70 -19 102q-18 30 -56 30t-56 -30q-19 -32 -19 -102zM334 1456
l-83 114l-83 -114h-90l105 221h135l106 -221h-90z" />
    <glyph glyph-name="ccircumflex" unicode="&#x109;" horiz-adv-x="479" 
d="M164 919v-695q0 -72 18 -102t58 -30q39 0 57 30t18 102v233h109v-228q0 -114 -50 -178q-50 -63 -134 -63q-86 0 -135 63q-50 64 -50 178v684q0 115 50 179q49 63 135 63q84 0 134 -63q50 -64 50 -179v-227h-109v233q0 71 -18 101q-19 31 -57 31q-39 0 -58 -31
q-18 -30 -18 -101zM323 1208l-83 114l-83 -114h-90l105 222h135l106 -222h-90z" />
    <glyph glyph-name="Cdotaccent" unicode="&#x10a;" horiz-adv-x="499" 
d="M176 1166v-942q0 -70 19 -102q18 -30 56 -30t56 30q19 32 19 102v363h114v-358q0 -116 -50 -178q-51 -63 -139 -63t-139 63t-51 178v932q0 116 51 179t139 63t139 -63q50 -62 50 -179v-345h-114v350q0 70 -19 102q-18 30 -56 30t-56 -30q-19 -32 -19 -102zM188 1456v179
h125v-179h-125z" />
    <glyph glyph-name="cdotaccent" unicode="&#x10b;" horiz-adv-x="479" 
d="M164 919v-695q0 -72 18 -102t58 -30q39 0 57 30t18 102v233h109v-228q0 -114 -50 -178q-50 -63 -134 -63q-86 0 -135 63q-50 64 -50 178v684q0 115 50 179q49 63 135 63q84 0 134 -63q50 -64 50 -179v-227h-109v233q0 71 -18 101q-19 31 -57 31q-39 0 -58 -31
q-18 -30 -18 -101zM177 1208v180h125v-180h-125z" />
    <glyph glyph-name="Ccaron" unicode="&#x10c;" horiz-adv-x="499" 
d="M176 1166v-942q0 -70 19 -102q18 -30 56 -30t56 30q19 32 19 102v363h114v-358q0 -116 -50 -178q-51 -63 -139 -63t-139 63t-51 178v932q0 116 51 179t139 63t139 -63q50 -62 50 -179v-345h-114v350q0 70 -19 102q-18 30 -56 30t-56 -30q-19 -32 -19 -102zM251 1564
l83 113h90l-106 -221h-135l-105 221h90z" />
    <glyph glyph-name="ccaron" unicode="&#x10d;" horiz-adv-x="479" 
d="M164 919v-695q0 -72 18 -102t58 -30q39 0 57 30t18 102v233h109v-228q0 -114 -50 -178q-50 -63 -134 -63q-86 0 -135 63q-50 64 -50 178v684q0 115 50 179q49 63 135 63q84 0 134 -63q50 -64 50 -179v-227h-109v233q0 71 -18 101q-19 31 -57 31q-39 0 -58 -31
q-18 -30 -18 -101zM240 1316l83 114h90l-106 -222h-135l-105 222h90z" />
    <glyph glyph-name="Dcaron" unicode="&#x10e;" horiz-adv-x="503" 
d="M63 0v1391h158q99 0 160 -64t61 -178v-907q0 -114 -61 -178t-160 -64h-158zM221 1286h-43v-1182h43q107 0 107 133v917q0 132 -107 132zM247 1564l83 113h90l-106 -221h-135l-105 221h90z" />
    <glyph glyph-name="dcaron" unicode="&#x10f;" horiz-adv-x="485" 
d="M624 1391l-53 -244h-86l13 244h126zM55 944v-745q0 -109 39 -160t100 -51q87 0 127 94l8 -82h99v1391h-109v-327q-42 91 -125 91q-60 0 -100 -52q-39 -51 -39 -159zM319 935v-727q-1 -3 -3 -13q-1 -4 -10 -28q-5 -14 -18 -35q-10 -17 -27 -28q-18 -12 -37 -12
q-30 0 -45 31q-15 30 -15 101v695q0 71 15 101q15 31 45 31q32 0 56 -29q23 -28 31 -57z" />
    <glyph glyph-name="Dcroat" unicode="&#x110;" horiz-adv-x="524" 
d="M10 649v105h74v637h158q98 0 159 -64q62 -65 62 -178v-907q0 -113 -62 -178q-61 -64 -159 -64h-158v649h-74zM242 1286h-43v-532h74v-105h-74v-545h43q106 0 106 133v917q0 132 -106 132z" />
    <glyph glyph-name="dcroat" unicode="&#x111;" horiz-adv-x="485" 
d="M55 199v745q0 108 39 159q40 52 100 52q83 0 125 -91v163h-146v84h146v80h109v-80h68v-84h-68v-1227h-99l-8 82q-40 -94 -127 -94q-61 0 -100 51t-39 160zM319 208v727q-1 3 -3 13q0 2 -10 27q-6 17 -18 36q-9 15 -27 27q-19 13 -37 13q-30 0 -45 -31q-15 -30 -15 -101
v-695q0 -71 15 -101q15 -31 45 -31q32 0 56 29q23 28 31 57z" />
    <glyph glyph-name="Emacron" unicode="&#x112;" horiz-adv-x="421" 
d="M63 0v1391h314v-105h-199v-532h169v-105h-169v-545h199v-104h-314zM57 1478v104h326v-104h-326z" />
    <glyph glyph-name="emacron" unicode="&#x113;" horiz-adv-x="477" 
d="M164 472v-248q0 -72 18 -102t57 -30q38 0 56 30t18 102v131h109v-126q0 -114 -50 -178q-50 -63 -133 -63q-85 0 -134 63q-50 64 -50 178v684q0 115 50 179q49 63 134 63q83 0 133 -63q50 -64 50 -179v-441h-258zM164 919v-347h149v347q0 71 -18 101q-19 31 -56 31
q-38 0 -57 -31q-18 -30 -18 -101zM401 1334v-104h-325v104h325z" />
    <glyph glyph-name="Ebreve" unicode="&#x114;" horiz-adv-x="421" 
d="M63 0v1391h314v-105h-199v-532h169v-105h-169v-545h199v-104h-314zM380 1673v-19q0 -95 -43 -149q-42 -53 -117 -53t-117 53q-43 54 -43 149v19h94v-18q0 -121 66 -121q67 0 67 121v18h93z" />
    <glyph glyph-name="ebreve" unicode="&#x115;" horiz-adv-x="477" 
d="M164 472v-248q0 -72 18 -102t57 -30q38 0 56 30t18 102v131h109v-126q0 -114 -50 -178q-50 -63 -133 -63q-85 0 -134 63q-50 64 -50 178v684q0 115 50 179q49 63 134 63q83 0 133 -63q50 -64 50 -179v-441h-258zM164 919v-347h149v347q0 71 -18 101q-19 31 -56 31
q-38 0 -57 -31q-18 -30 -18 -101zM79 1406v19h93v-18q0 -121 67 -121q66 0 66 121v18h93v-19q0 -97 -42 -149q-42 -53 -117 -53q-76 0 -118 53q-42 52 -42 149z" />
    <glyph glyph-name="Edotaccent" unicode="&#x116;" horiz-adv-x="421" 
d="M63 0v1391h314v-105h-199v-532h169v-105h-169v-545h199v-104h-314zM158 1456v179h125v-179h-125z" />
    <glyph glyph-name="edotaccent" unicode="&#x117;" horiz-adv-x="477" 
d="M164 472v-248q0 -72 18 -102t57 -30q38 0 56 30t18 102v131h109v-126q0 -114 -50 -178q-50 -63 -133 -63q-85 0 -134 63q-50 64 -50 178v684q0 115 50 179q49 63 134 63q83 0 133 -63q50 -64 50 -179v-441h-258zM164 919v-347h149v347q0 71 -18 101q-19 31 -56 31
q-38 0 -57 -31q-18 -30 -18 -101zM301 1388v-180h-125v180h125z" />
    <glyph glyph-name="Eogonek" unicode="&#x118;" horiz-adv-x="421" 
d="M63 0v1391h314v-105h-199v-532h169v-105h-169v-545h199v-104l-98 -116q-15 -18 -15 -28q0 -15 18 -15h86v-99h-121q-100 0 -100 75q0 24 12 45q13 23 43 60l64 78h-203z" />
    <glyph glyph-name="eogonek" unicode="&#x119;" horiz-adv-x="477" 
d="M164 472v-248q0 -72 18 -102t57 -30q38 0 56 30t18 102v131h109v-126q0 -121 -54 -184l-137 -161q-14 -17 -14 -28q0 -15 17 -15h87v-99h-121q-100 0 -100 75q0 24 12 45q13 23 43 60l55 68q-71 10 -113 72t-42 167v684q0 115 50 179q49 63 134 63q83 0 133 -63
q50 -64 50 -179v-441h-258zM164 919v-347h149v347q0 71 -18 101q-19 31 -56 31q-38 0 -57 -31q-18 -30 -18 -101z" />
    <glyph glyph-name="Ecaron" unicode="&#x11a;" horiz-adv-x="421" 
d="M63 0v1391h314v-105h-199v-532h169v-105h-169v-545h199v-104h-314zM220 1564l83 113h90l-105 -221h-135l-106 221h90z" />
    <glyph glyph-name="ecaron" unicode="&#x11b;" horiz-adv-x="477" 
d="M164 472v-248q0 -72 18 -102t57 -30q38 0 56 30t18 102v131h109v-126q0 -114 -50 -178q-50 -63 -133 -63q-85 0 -134 63q-50 64 -50 178v684q0 115 50 179q49 63 134 63q83 0 133 -63q50 -64 50 -179v-441h-258zM164 919v-347h149v347q0 71 -18 101q-19 31 -56 31
q-38 0 -57 -31q-18 -30 -18 -101zM156 1430l83 -114l83 114h90l-106 -222h-135l-105 222h90z" />
    <glyph glyph-name="Gcircumflex" unicode="&#x11c;" 
d="M446 0h-89l-12 58q-43 -70 -125 -70q-75 0 -116 54q-43 57 -43 157v962q0 115 52 179q51 63 141 63t141 -63t51 -179v-186h-114v191q0 73 -19 102q-20 30 -59 30q-40 0 -59 -30q-19 -29 -19 -102v-942q0 -73 19 -102q19 -30 59 -30t59 30q19 29 19 102v417h-78v104h192
v-745zM337 1456l-83 114l-83 -114h-90l105 221h136l105 -221h-90z" />
    <glyph glyph-name="gcircumflex" unicode="&#x11d;" horiz-adv-x="485" 
d="M55 199v745q0 108 39 159q40 52 100 52q87 0 127 -94l8 82h99v-1183q0 -112 -49 -172q-48 -58 -137 -58q-85 0 -133 51q-50 53 -54 152h109q2 -57 21 -78t57 -21q39 0 59 25q18 22 18 92v128q-40 -91 -125 -91q-61 0 -100 51t-39 160zM319 935q-1 3 -3 13q0 2 -10 27
q-6 17 -18 36q-9 15 -27 27q-19 13 -37 13q-30 0 -45 -31q-15 -30 -15 -101v-695q0 -71 15 -101q15 -31 45 -31q32 0 56 29q23 28 31 57l8 30v727zM335 1208l-83 114l-83 -114h-90l105 222h135l106 -222h-90z" />
    <glyph glyph-name="Gbreve" unicode="&#x11e;" 
d="M446 0h-89l-12 58q-43 -70 -125 -70q-75 0 -116 54q-43 57 -43 157v962q0 115 52 179q51 63 141 63t141 -63t51 -179v-186h-114v191q0 73 -19 102q-20 30 -59 30q-40 0 -59 -30q-19 -29 -19 -102v-942q0 -73 19 -102q19 -30 59 -30t59 30q19 29 19 102v417h-78v104h192
v-745zM414 1673v-19q0 -95 -43 -149q-42 -53 -117 -53t-117 53q-43 54 -43 149v19h93v-18q0 -121 67 -121t67 121v18h93z" />
    <glyph glyph-name="gbreve" unicode="&#x11f;" horiz-adv-x="485" 
d="M55 199v745q0 108 39 159q40 52 100 52q87 0 127 -94l8 82h99v-1183q0 -112 -49 -172q-48 -58 -137 -58q-85 0 -133 51q-50 53 -54 152h109q2 -57 21 -78t57 -21q39 0 59 25q18 22 18 92v128q-40 -91 -125 -91q-61 0 -100 51t-39 160zM319 935q-1 3 -3 13q0 2 -10 27
q-6 17 -18 36q-9 15 -27 27q-19 13 -37 13q-30 0 -45 -31q-15 -30 -15 -101v-695q0 -71 15 -101q15 -31 45 -31q32 0 56 29q23 28 31 57l8 30v727zM412 1425v-19q0 -95 -43 -149q-42 -53 -117 -53t-117 53q-43 54 -43 149v19h93v-18q0 -121 67 -121q66 0 66 121v18h94z" />
    <glyph glyph-name="Gdotaccent" unicode="&#x120;" 
d="M446 0h-89l-12 58q-43 -70 -125 -70q-75 0 -116 54q-43 57 -43 157v962q0 115 52 179q51 63 141 63t141 -63t51 -179v-186h-114v191q0 73 -19 102q-20 30 -59 30q-40 0 -59 -30q-19 -29 -19 -102v-942q0 -73 19 -102q19 -30 59 -30t59 30q19 29 19 102v417h-78v104h192
v-745zM191 1456v179h125v-179h-125z" />
    <glyph glyph-name="gdotaccent" unicode="&#x121;" horiz-adv-x="485" 
d="M55 199v745q0 108 39 159q40 52 100 52q87 0 127 -94l8 82h99v-1183q0 -112 -49 -172q-48 -58 -137 -58q-85 0 -133 51q-50 53 -54 152h109q2 -57 21 -78t57 -21q39 0 59 25q18 22 18 92v128q-40 -91 -125 -91q-61 0 -100 51t-39 160zM319 935q-1 3 -3 13q0 2 -10 27
q-6 17 -18 36q-9 15 -27 27q-19 13 -37 13q-30 0 -45 -31q-15 -30 -15 -101v-695q0 -71 15 -101q15 -31 45 -31q32 0 56 29q23 28 31 57l8 30v727zM189 1208v180h125v-180h-125z" />
    <glyph glyph-name="Gcommaaccent" unicode="&#x122;" 
d="M446 0h-89l-12 58q-43 -70 -125 -70q-75 0 -116 54q-43 57 -43 157v962q0 115 52 179q51 63 141 63t141 -63t51 -179v-186h-114v191q0 73 -19 102q-20 30 -59 30q-40 0 -59 -30q-19 -29 -19 -102v-942q0 -73 19 -102q19 -30 59 -30t59 30q19 29 19 102v417h-78v104h192
v-745zM200 -270v204h108v-173q0 -39 -12 -69l-32 -76h-64l41 114h-41z" />
    <glyph glyph-name="gcommaaccent" unicode="&#x123;" horiz-adv-x="485" 
d="M55 199v745q0 108 39 159q40 52 100 52q87 0 127 -94l8 82h99v-1183q0 -112 -49 -172q-48 -58 -137 -58q-85 0 -133 51q-50 53 -54 152h109q2 -57 21 -78t57 -21q39 0 59 25q18 22 18 92v128q-40 -91 -125 -91q-61 0 -100 51t-39 160zM319 935q-1 3 -3 13q0 2 -10 27
q-6 17 -18 36q-9 15 -27 27q-19 13 -37 13q-30 0 -45 -31q-15 -30 -15 -101v-695q0 -71 15 -101q15 -31 45 -31q32 0 56 29q23 28 31 57l8 30v727zM308 1413v-205h-108v173q0 40 12 70l32 76h64l-41 -114h41z" />
    <glyph glyph-name="Hcircumflex" unicode="&#x124;" horiz-adv-x="536" 
d="M351 1456l-83 114l-83 -114h-90l106 221h135l105 -221h-90zM358 0v649h-180v-649h-115v1391h115v-637h180v637h115v-1391h-115z" />
    <glyph glyph-name="hcircumflex" unicode="&#x125;" horiz-adv-x="487" 
d="M430 0v944q0 109 -38 159q-40 52 -100 52q-84 0 -126 -91v327h-109v-1391h109v935q1 3 3 13q0 2 10 27q6 17 18 36q9 15 27 27q19 13 37 13q31 0 46 -31q15 -30 15 -101v-919h108zM195 1456l-83 114l-83 -114h-90l105 221h135l106 -221h-90z" />
    <glyph glyph-name="Hbar" unicode="&#x126;" horiz-adv-x="577" 
d="M379 0v649h-180v-649h-115v1028h-74v88h74v275h115v-275h180v275h115v-275h73v-88h-73v-1028h-115zM199 1028v-274h180v274h-180z" />
    <glyph glyph-name="hbar" unicode="&#x127;" horiz-adv-x="487" 
d="M-10 1227v84h67v80h109v-80h146v-84h-146v-163q42 91 126 91q60 0 100 -52q38 -50 38 -159v-944h-108v919q0 71 -15 101q-15 31 -46 31t-55 -29q-25 -29 -32 -57l-8 -30v-935h-109v1227h-67z" />
    <glyph glyph-name="Itilde" unicode="&#x128;" horiz-adv-x="241" 
d="M63 0v1391h115v-1391h-115zM161 1478l-81 48q-17 10 -25 10q-11 0 -11 -15v-65h-99v114q0 86 67 86q30 0 69 -24l81 -48q17 -10 24 -10q12 0 12 15v65h99v-114q0 -86 -68 -86q-29 0 -68 24z" />
    <glyph glyph-name="itilde" unicode="&#x129;" horiz-adv-x="223" 
d="M57 0v1143h109v-1143h-109zM152 1230l-81 48q-17 10 -25 10q-11 0 -11 -15v-65h-100v114q0 86 68 86q30 0 69 -24l81 -48q17 -10 24 -10q11 0 11 15v65h100v-114q0 -86 -68 -86q-29 0 -68 24z" />
    <glyph glyph-name="Imacron" unicode="&#x12a;" horiz-adv-x="241" 
d="M63 0v1391h115v-1391h-115zM-42 1478v104h326v-104h-326z" />
    <glyph glyph-name="imacron" unicode="&#x12b;" horiz-adv-x="223" 
d="M57 0v1143h109v-1143h-109zM-51 1230v104h325v-104h-325z" />
    <glyph glyph-name="Ibreve" unicode="&#x12c;" horiz-adv-x="241" 
d="M63 0v1391h115v-1391h-115zM281 1673v-19q0 -95 -43 -149q-42 -53 -117 -53t-117 53q-43 54 -43 149v19h93v-18q0 -121 67 -121q66 0 66 121v18h94z" />
    <glyph glyph-name="ibreve" unicode="&#x12d;" horiz-adv-x="223" 
d="M57 0v1143h109v-1143h-109zM271 1425v-19q0 -97 -42 -149q-42 -53 -117 -53q-76 0 -118 53q-42 52 -42 149v19h93v-18q0 -121 67 -121q66 0 66 121v18h93z" />
    <glyph glyph-name="Iogonek" unicode="&#x12e;" horiz-adv-x="241" 
d="M178 0l-98 -116q-14 -17 -14 -28q0 -15 17 -15h86v-99h-121q-99 0 -99 75q0 26 11 45q13 23 43 60l60 73v1396h115v-1391z" />
    <glyph glyph-name="iogonek" unicode="&#x12f;" horiz-adv-x="223" 
d="M166 0l-98 -116q-15 -18 -15 -28q0 -15 18 -15h86v-99h-121q-99 0 -99 75q0 26 11 45q13 23 43 60l66 81v1140h109v-1143zM57 1215v176h109v-176h-109z" />
    <glyph glyph-name="Idotaccent" unicode="&#x130;" horiz-adv-x="241" 
d="M63 0v1391h115v-1391h-115zM58 1456v179h125v-179h-125z" />
    <glyph glyph-name="dotlessi" unicode="&#x131;" horiz-adv-x="223" 
d="M57 0v1143h109v-1143h-109z" />
    <glyph glyph-name="IJ" unicode="&#x132;" horiz-adv-x="749" 
d="M418 521v-297q0 -73 19 -102q19 -30 59 -30q38 0 58 30q19 29 19 102v1167h115v-1162q0 -114 -52 -178q-51 -63 -140 -63q-90 0 -141 63q-52 64 -52 178v292h115zM63 0v1391h115v-1391h-115z" />
    <glyph glyph-name="ij" unicode="&#x133;" horiz-adv-x="446" 
d="M57 0v1143h109v-1143h-109zM57 1215v176h109v-176h-109zM281 1215v176h108v-176h-108zM389 -49q0 -64 -18 -109q-18 -46 -48 -68q-29 -22 -61 -33q-27 -9 -63 -11v104q40 3 61 27t21 90v1192h108v-1192z" />
    <glyph glyph-name="Jcircumflex" unicode="&#x134;" 
d="M176 521v-297q0 -73 19 -102q19 -30 59 -30t59 30q19 29 19 102v1167h114v-1162q0 -115 -51 -178t-141 -63t-141 63q-52 64 -52 178v292h115zM472 1456l-83 114l-83 -114h-90l106 221h135l105 -221h-90z" />
    <glyph glyph-name="jcircumflex" unicode="&#x135;" horiz-adv-x="223" 
d="M166 -49q0 -64 -18 -109t-49 -68q-30 -22 -60 -33q-27 -9 -64 -11v104q41 3 62 27q20 23 20 90v1192h109v-1192zM195 1208l-83 114l-83 -114h-90l105 222h135l106 -222h-90z" />
    <glyph glyph-name="Kcommaaccent" unicode="&#x136;" horiz-adv-x="527" 
d="M63 0v1391h115v-637h23l176 637h121l-189 -676l208 -715h-122l-187 649h-30v-649h-115zM225 -270v204h109v-173q0 -39 -12 -69l-32 -76h-65l41 114h-41z" />
    <glyph glyph-name="kcommaaccent" unicode="&#x137;" horiz-adv-x="496" 
d="M57 0v1391h109v-750h4l200 502h117l-220 -554l220 -589h-117l-201 537h-3v-537h-109zM212 -270v204h109v-173q0 -37 -13 -69l-32 -76h-64l41 114h-41z" />
    <glyph glyph-name="kgreenlandic" unicode="&#x138;" horiz-adv-x="496" 
d="M57 0v1143h109v-502h4l200 502h117l-220 -554l220 -589h-117l-201 537h-3v-537h-109z" />
    <glyph glyph-name="Lacute" unicode="&#x139;" horiz-adv-x="425" 
d="M63 0v1391h115v-1287h213v-104h-328zM284 1677l-119 -221h-90l65 221h144z" />
    <glyph glyph-name="lacute" unicode="&#x13a;" horiz-adv-x="223" 
d="M57 0v1391h109v-1391h-109zM274 1677l-118 -221h-90l65 221h143z" />
    <glyph glyph-name="Lcommaaccent" unicode="&#x13b;" horiz-adv-x="425" 
d="M63 0v1391h115v-1287h213v-104h-328zM173 -270v204h109v-173q0 -37 -13 -69l-31 -76h-65l41 114h-41z" />
    <glyph glyph-name="lcommaaccent" unicode="&#x13c;" horiz-adv-x="223" 
d="M57 0v1391h109v-1391h-109zM57 -270v204h109v-173q0 -39 -12 -69l-32 -76h-65l41 114h-41z" />
    <glyph glyph-name="Lcaron" unicode="&#x13d;" horiz-adv-x="425" 
d="M380 1391l-52 -244h-86l12 244h126zM63 0v1391h115v-1287h213v-104h-328z" />
    <glyph glyph-name="lcaron" unicode="&#x13e;" horiz-adv-x="223" 
d="M361 1391l-52 -244h-86l13 244h125zM57 0v1391h109v-1391h-109z" />
    <glyph glyph-name="Ldot" unicode="&#x13f;" horiz-adv-x="425" 
d="M268 605v179h113v-179h-113zM63 0v1391h115v-1287h213v-104h-328z" />
    <glyph glyph-name="ldot" unicode="&#x140;" horiz-adv-x="442" 
d="M276 605v179h113v-179h-113zM57 0v1391h109v-1391h-109z" />
    <glyph glyph-name="Lslash" unicode="&#x141;" horiz-adv-x="466" 
d="M20 514v124l84 84v669h115v-555l139 139v-124l-139 -139v-608h213v-104h-328v598z" />
    <glyph glyph-name="lslash" unicode="&#x142;" horiz-adv-x="280" 
d="M14 565v121l72 75v630h109v-515l71 75v-121l-71 -75v-755h-109v640z" />
    <glyph glyph-name="Nacute" unicode="&#x143;" horiz-adv-x="561" 
d="M346 0l-172 1077v-1077h-111v1391h152l172 -1078v1078h111v-1391h-152zM443 1677l-118 -221h-91l66 221h143z" />
    <glyph glyph-name="nacute" unicode="&#x144;" horiz-adv-x="487" 
d="M430 0v944q0 109 -38 159q-40 52 -100 52q-86 0 -128 -94l-7 82h-100v-1143h109v935q1 3 3 13q0 2 10 27q6 17 18 36q9 15 27 27q19 13 37 13q31 0 46 -31q15 -30 15 -101v-919h108zM407 1430l-119 -222h-90l65 222h144z" />
    <glyph glyph-name="Ncommaaccent" unicode="&#x145;" horiz-adv-x="561" 
d="M346 0l-172 1077v-1077h-111v1391h152l172 -1078v1078h111v-1391h-152zM226 -270v204h109v-173q0 -39 -12 -69l-32 -76h-65l41 114h-41z" />
    <glyph glyph-name="ncommaaccent" unicode="&#x146;" horiz-adv-x="487" 
d="M430 944v-944h-108v919q0 71 -15 101q-15 31 -46 31t-55 -29q-25 -29 -32 -57l-8 -30v-935h-109v1143h100l7 -82q42 94 128 94q60 0 100 -52q38 -50 38 -159zM189 -270v204h109v-173q0 -39 -12 -69l-32 -76h-65l41 114h-41z" />
    <glyph glyph-name="Ncaron" unicode="&#x147;" horiz-adv-x="561" 
d="M346 0l-172 1077v-1077h-111v1391h152l172 -1078v1078h111v-1391h-152zM281 1564l83 113h90l-106 -221h-135l-105 221h90z" />
    <glyph glyph-name="ncaron" unicode="&#x148;" horiz-adv-x="487" 
d="M430 944v-944h-108v919q0 71 -15 101q-15 31 -46 31t-55 -29q-25 -29 -32 -57l-8 -30v-935h-109v1143h100l7 -82q42 94 128 94q60 0 100 -52q38 -50 38 -159zM244 1316l83 114h90l-106 -222h-135l-105 222h90z" />
    <glyph glyph-name="Eng" unicode="&#x14a;" horiz-adv-x="561" 
d="M215 1391l172 -1078v1078h111v-1440q0 -64 -18 -109t-49 -68q-30 -22 -60 -33q-27 -9 -64 -11v104q61 4 75 63l-208 1195v-1092h-111v1391h152z" />
    <glyph glyph-name="eng" unicode="&#x14b;" horiz-adv-x="487" 
d="M430 944v-993q0 -64 -18 -109q-18 -46 -48 -68q-29 -22 -61 -33q-27 -9 -63 -11v104q40 3 61 27t21 90v968q0 71 -15 101q-15 31 -46 31t-55 -29q-25 -29 -32 -57l-8 -30v-935h-109v1143h100l7 -82q42 94 128 94q60 0 100 -52q38 -50 38 -159z" />
    <glyph glyph-name="Omacron" unicode="&#x14c;" horiz-adv-x="512" 
d="M61 229v932q0 115 53 179q52 63 142 63t142 -63q53 -64 53 -179v-932q0 -114 -53 -178q-52 -63 -142 -63t-142 63q-53 64 -53 178zM176 1166v-942q0 -71 20 -102q20 -30 60 -30t60 30q20 31 20 102v942q0 71 -20 102q-20 30 -60 30t-60 -30q-20 -31 -20 -102zM93 1478
v104h326v-104h-326z" />
    <glyph glyph-name="omacron" unicode="&#x14d;" horiz-adv-x="489" 
d="M55 229v684q0 116 51 179t139 63q87 0 138 -63t51 -179v-684q0 -115 -51 -178t-138 -63q-88 0 -139 63t-51 178zM164 919v-695q0 -71 20 -102q20 -30 61 -30t61 30q20 31 20 102v695q0 70 -20 101t-61 31t-61 -31t-20 -101zM82 1230v104h326v-104h-326z" />
    <glyph glyph-name="Obreve" unicode="&#x14e;" horiz-adv-x="512" 
d="M61 229v932q0 115 53 179q52 63 142 63t142 -63q53 -64 53 -179v-932q0 -114 -53 -178q-52 -63 -142 -63t-142 63q-53 64 -53 178zM176 1166v-942q0 -71 20 -102q20 -30 60 -30t60 30q20 31 20 102v942q0 71 -20 102q-20 30 -60 30t-60 -30q-20 -31 -20 -102zM416 1673
v-19q0 -95 -43 -149q-42 -53 -117 -53t-117 53q-43 54 -43 149v19h93v-18q0 -121 67 -121t67 121v18h93z" />
    <glyph glyph-name="obreve" unicode="&#x14f;" horiz-adv-x="489" 
d="M55 229v684q0 116 51 179t139 63q87 0 138 -63t51 -179v-684q0 -115 -51 -178t-138 -63q-88 0 -139 63t-51 178zM164 919v-695q0 -71 20 -102q20 -30 61 -30t61 30q20 31 20 102v695q0 70 -20 101t-61 31t-61 -31t-20 -101zM404 1425v-19q0 -97 -42 -149
q-42 -53 -117 -53q-76 0 -118 53q-42 52 -42 149v19h93v-18q0 -121 67 -121q66 0 66 121v18h93z" />
    <glyph glyph-name="Ohungarumlaut" unicode="&#x150;" horiz-adv-x="512" 
d="M61 229v932q0 115 53 179q52 63 142 63t142 -63q53 -64 53 -179v-932q0 -114 -53 -178q-52 -63 -142 -63t-142 63q-53 64 -53 178zM176 1166v-942q0 -71 20 -102q20 -30 60 -30t60 30q20 31 20 102v942q0 71 -20 102q-20 30 -60 30t-60 -30q-20 -31 -20 -102zM505 1677
l-119 -221h-86l66 221h139zM306 1677l-119 -221h-86l66 221h139z" />
    <glyph glyph-name="ohungarumlaut" unicode="&#x151;" horiz-adv-x="489" 
d="M55 229v684q0 116 51 179t139 63q87 0 138 -63t51 -179v-684q0 -115 -51 -178t-138 -63q-88 0 -139 63t-51 178zM164 919v-695q0 -71 20 -102q20 -30 61 -30t61 30q20 31 20 102v695q0 70 -20 101t-61 31t-61 -31t-20 -101zM493 1430l-119 -222h-86l65 222h140zM294 1430
l-119 -222h-86l66 222h139z" />
    <glyph glyph-name="Racute" unicode="&#x154;" horiz-adv-x="516" 
d="M63 0v1391h168q99 0 160 -64q62 -65 62 -178v-256q0 -133 -84 -198q84 -64 84 -197v-242q0 -78 7 -138q7 -64 15 -91l8 -27h-112q-7 11 -10 23q-6 21 -14 80q-9 65 -9 147v261q0 132 -107 132h-53v-643h-115zM231 1286h-53v-538h53q107 0 107 132v274q0 132 -107 132z
M404 1677l-118 -221h-90l65 221h143z" />
    <glyph glyph-name="racute" unicode="&#x155;" horiz-adv-x="357" 
d="M323 1143v-109q-28 0 -55 -11q-24 -10 -49 -35q-23 -23 -39 -72q-14 -43 -14 -112v-804h-109v1143h100l8 -92q57 92 158 92zM352 1430l-119 -222h-90l66 222h143z" />
    <glyph glyph-name="Rcommaaccent" unicode="&#x156;" horiz-adv-x="516" 
d="M63 0v1391h168q99 0 160 -64q62 -65 62 -178v-256q0 -133 -84 -198q84 -64 84 -197v-242q0 -78 7 -138q7 -64 15 -91l8 -27h-112q-7 11 -10 23q-6 21 -14 80q-9 65 -9 147v261q0 132 -107 132h-53v-643h-115zM231 1286h-53v-538h53q107 0 107 132v274q0 132 -107 132z
M217 -270v204h109v-173q0 -37 -13 -69l-31 -76h-65l41 114h-41z" />
    <glyph glyph-name="rcommaaccent" unicode="&#x157;" horiz-adv-x="357" 
d="M323 1143v-109q-28 0 -55 -11q-24 -10 -49 -35q-23 -23 -39 -72q-14 -43 -14 -112v-804h-109v1143h100l8 -92q57 92 158 92zM57 -270v204h109v-173q0 -39 -12 -69l-32 -76h-65l41 114h-41z" />
    <glyph glyph-name="Rcaron" unicode="&#x158;" horiz-adv-x="516" 
d="M63 0v1391h168q99 0 160 -64q62 -65 62 -178v-256q0 -133 -84 -198q84 -64 84 -197v-242q0 -78 7 -138q7 -64 15 -91l8 -27h-112q-7 11 -10 23q-6 21 -14 80q-9 65 -9 147v261q0 132 -107 132h-53v-643h-115zM231 1286h-53v-538h53q107 0 107 132v274q0 132 -107 132z
M252 1564l83 113h90l-106 -221h-135l-105 221h90z" />
    <glyph glyph-name="rcaron" unicode="&#x159;" horiz-adv-x="357" 
d="M323 1143v-109q-28 0 -55 -11q-24 -10 -49 -35q-23 -23 -39 -72q-14 -43 -14 -112v-804h-109v1143h100l8 -92q57 92 158 92zM189 1316l83 114h90l-105 -222h-135l-106 222h90z" />
    <glyph glyph-name="Sacute" unicode="&#x15a;" horiz-adv-x="499" 
d="M172 508v-284q0 -73 19 -102q19 -30 59 -30t59 30q19 29 19 102v244q0 44 -10 72q-10 27 -38 54l-139 137q-47 47 -66 93q-18 44 -18 123v214q0 115 52 179q51 63 141 63t141 -63t51 -179v-278h-114v283q0 73 -19 102q-19 30 -59 30t-59 -30q-19 -29 -19 -102v-231
q0 -47 9 -72t39 -54l138 -137q49 -49 67 -93q17 -41 17 -123v-227q0 -115 -51 -178t-141 -63t-141 63q-52 64 -52 178v279h115zM413 1677l-119 -221h-90l65 221h144z" />
    <glyph glyph-name="sacute" unicode="&#x15b;" horiz-adv-x="475" 
d="M51 809v104q0 115 50 179q49 63 136 63q85 0 135 -63q50 -64 50 -179v-176h-109v182q0 72 -19 101q-20 31 -57 31q-38 0 -58 -31q-19 -29 -19 -101v-110q0 -49 8 -70q9 -24 38 -53l134 -134q46 -46 64 -88t18 -112v-123q0 -114 -50 -178q-50 -63 -135 -63q-87 0 -136 63
q-50 64 -50 178v189h109v-194q0 -73 19 -102q19 -30 58 -30q37 0 57 30q19 29 19 102v128q0 42 -9 68t-38 55l-134 134q-44 44 -63 88q-18 42 -18 112zM400 1430l-118 -222h-91l66 222h143z" />
    <glyph glyph-name="Scircumflex" unicode="&#x15c;" horiz-adv-x="499" 
d="M172 508v-284q0 -73 19 -102q19 -30 59 -30t59 30q19 29 19 102v244q0 44 -10 72q-10 27 -38 54l-139 137q-47 47 -66 93q-18 44 -18 123v214q0 115 52 179q51 63 141 63t141 -63t51 -179v-278h-114v283q0 73 -19 102q-19 30 -59 30t-59 -30q-19 -29 -19 -102v-231
q0 -47 9 -72t39 -54l138 -137q49 -49 67 -93q17 -41 17 -123v-227q0 -115 -51 -178t-141 -63t-141 63q-52 64 -52 178v279h115zM333 1456l-83 114l-83 -114h-90l105 221h135l106 -221h-90z" />
    <glyph glyph-name="scircumflex" unicode="&#x15d;" horiz-adv-x="475" 
d="M51 809v104q0 115 50 179q49 63 136 63q85 0 135 -63q50 -64 50 -179v-176h-109v182q0 72 -19 101q-20 31 -57 31q-38 0 -58 -31q-19 -29 -19 -101v-110q0 -49 8 -70q9 -24 38 -53l134 -134q46 -46 64 -88t18 -112v-123q0 -114 -50 -178q-50 -63 -135 -63q-87 0 -136 63
q-50 64 -50 178v189h109v-194q0 -73 19 -102q19 -30 58 -30q37 0 57 30q19 29 19 102v128q0 42 -9 68t-38 55l-134 134q-44 44 -63 88q-18 42 -18 112zM321 1208l-83 114l-83 -114h-90l105 222h135l106 -222h-90z" />
    <glyph glyph-name="Scedilla" unicode="&#x15e;" horiz-adv-x="499" 
d="M172 508v-284q0 -73 19 -102q19 -30 59 -30t59 30q19 29 19 102v244q0 44 -10 72q-10 27 -38 54l-139 137q-47 47 -66 93q-18 44 -18 123v214q0 115 52 179q51 63 141 63t141 -63t51 -179v-278h-114v283q0 73 -19 102q-19 30 -59 30t-59 -30q-19 -29 -19 -102v-231
q0 -47 9 -72t39 -54l138 -137q49 -49 67 -93q17 -41 17 -123v-227q0 -103 -42 -165q-42 -61 -115 -73l46 -87q28 -55 28 -86q0 -76 -99 -76h-112v99h89q16 0 16 16q0 12 -11 31l-59 111q-60 21 -93 79t-33 151v279h115z" />
    <glyph glyph-name="scedilla" unicode="&#x15f;" horiz-adv-x="475" 
d="M51 809v104q0 115 50 179q49 63 136 63q85 0 135 -63q50 -64 50 -179v-176h-109v182q0 72 -19 101q-20 31 -57 31q-38 0 -58 -31q-19 -29 -19 -101v-110q0 -49 8 -70q9 -24 38 -53l134 -134q46 -46 64 -88t18 -112v-123q0 -102 -40 -163t-110 -75l46 -87q29 -56 29 -86
q0 -76 -99 -76h-112v99h88q17 0 17 16q0 10 -12 31l-59 112q-55 21 -87 80t-32 149v189h109v-194q0 -73 19 -102q19 -30 58 -30q37 0 57 30q19 29 19 102v128q0 42 -9 68t-38 55l-134 134q-44 44 -63 88q-18 42 -18 112z" />
    <glyph glyph-name="Scaron" unicode="&#x160;" horiz-adv-x="499" 
d="M172 508v-284q0 -73 19 -102q19 -30 59 -30t59 30q19 29 19 102v244q0 44 -10 72q-10 27 -38 54l-139 137q-47 47 -66 93q-18 44 -18 123v214q0 115 52 179q51 63 141 63t141 -63t51 -179v-278h-114v283q0 73 -19 102q-19 30 -59 30t-59 -30q-19 -29 -19 -102v-231
q0 -47 9 -72t39 -54l138 -137q49 -49 67 -93q17 -41 17 -123v-227q0 -115 -51 -178t-141 -63t-141 63q-52 64 -52 178v279h115zM250 1564l83 113h90l-106 -221h-135l-105 221h90z" />
    <glyph glyph-name="scaron" unicode="&#x161;" horiz-adv-x="475" 
d="M51 809v104q0 115 50 179q49 63 136 63q85 0 135 -63q50 -64 50 -179v-176h-109v182q0 72 -19 101q-20 31 -57 31q-38 0 -58 -31q-19 -29 -19 -101v-110q0 -49 8 -70q9 -24 38 -53l134 -134q46 -46 64 -88t18 -112v-123q0 -114 -50 -178q-50 -63 -135 -63q-87 0 -136 63
q-50 64 -50 178v189h109v-194q0 -73 19 -102q19 -30 58 -30q37 0 57 30q19 29 19 102v128q0 42 -9 68t-38 55l-134 134q-44 44 -63 88q-18 42 -18 112zM238 1316l83 114h90l-106 -222h-135l-105 222h90z" />
    <glyph glyph-name="Tcommaaccent" unicode="&#x162;" horiz-adv-x="411" 
d="M263 1286v-1286h-115v1286h-125v105h366v-105h-126zM152 -270v204h108v-173q0 -39 -12 -69l-32 -76h-64l41 114h-41z" />
    <glyph glyph-name="tcommaaccent" unicode="&#x163;" horiz-adv-x="350" 
d="M29 1034v109h70v177l109 65v-242h103v-109h-103v-829q0 -57 20 -78q21 -23 72 -23h11v-104h-17q-195 0 -195 199v835h-70zM126 -270v204h108v-173q0 -39 -12 -69l-32 -76h-64l41 114h-41z" />
    <glyph glyph-name="Tcaron" unicode="&#x164;" horiz-adv-x="411" 
d="M263 1286v-1286h-115v1286h-125v105h366v-105h-126zM206 1564l83 113h90l-106 -221h-135l-105 221h90z" />
    <glyph glyph-name="tcaron" unicode="&#x165;" horiz-adv-x="350" 
d="M403 1452l-52 -244h-86l13 244h125zM29 1034v109h70v177l109 65v-242h103v-109h-103v-829q0 -57 20 -78q21 -23 72 -23h11v-104h-17q-195 0 -195 199v835h-70z" />
    <glyph glyph-name="Tbar" unicode="&#x166;" horiz-adv-x="411" 
d="M263 1286v-528h126v-88h-126v-670h-115v670h-125v88h125v528h-125v105h366v-105h-126z" />
    <glyph glyph-name="tbar" unicode="&#x167;" horiz-adv-x="350" 
d="M29 1034v109h70v177l109 65v-242h103v-109h-103v-384h103v-88h-103v-357q0 -57 20 -78q21 -23 72 -23h11v-104h-17q-195 0 -195 199v363h-81v88h81v384h-70z" />
    <glyph glyph-name="Utilde" unicode="&#x168;" 
d="M176 1391v-1167q0 -73 19 -102q19 -30 59 -30t59 30q19 29 19 102v1167h114v-1162q0 -115 -51 -178t-141 -63t-141 63q-52 64 -52 178v1162h115zM294 1478l-81 48q-17 10 -25 10q-11 0 -11 -15v-65h-99v114q0 86 67 86q30 0 69 -24l81 -48q17 -10 24 -10q12 0 12 15v65
h99v-114q0 -86 -68 -86q-29 0 -68 24z" />
    <glyph glyph-name="utilde" unicode="&#x169;" horiz-adv-x="487" 
d="M57 1143v-944q0 -109 39 -160t100 -51q87 0 127 94l8 -82h99v1143h-108v-935q-4 -11 -4 -13q-1 -4 -10 -28q-5 -14 -18 -35q-10 -17 -27 -28q-18 -12 -37 -12q-30 0 -45 31q-15 30 -15 101v919h-109zM284 1230l-81 48q-17 10 -25 10q-11 0 -11 -15v-65h-99v114
q0 86 67 86q30 0 69 -24l81 -48q17 -10 24 -10q12 0 12 15v65h99v-114q0 -86 -68 -86q-29 0 -68 24z" />
    <glyph glyph-name="Umacron" unicode="&#x16a;" 
d="M176 1391v-1167q0 -73 19 -102q19 -30 59 -30t59 30q19 29 19 102v1167h114v-1162q0 -115 -51 -178t-141 -63t-141 63q-52 64 -52 178v1162h115zM91 1478v104h326v-104h-326z" />
    <glyph glyph-name="umacron" unicode="&#x16b;" horiz-adv-x="487" 
d="M57 1143v-944q0 -109 39 -160t100 -51q87 0 127 94l8 -82h99v1143h-108v-935q-4 -11 -4 -13q-1 -4 -10 -28q-5 -14 -18 -35q-10 -17 -27 -28q-18 -12 -37 -12q-30 0 -45 31q-15 30 -15 101v919h-109zM81 1230v104h326v-104h-326z" />
    <glyph glyph-name="Ubreve" unicode="&#x16c;" 
d="M176 1391v-1167q0 -73 19 -102q19 -30 59 -30t59 30q19 29 19 102v1167h114v-1162q0 -115 -51 -178t-141 -63t-141 63q-52 64 -52 178v1162h115zM414 1673v-19q0 -95 -43 -149q-42 -53 -117 -53t-117 53q-43 54 -43 149v19h93v-18q0 -121 67 -121t67 121v18h93z" />
    <glyph glyph-name="ubreve" unicode="&#x16d;" horiz-adv-x="487" 
d="M57 1143v-944q0 -109 39 -160t100 -51q87 0 127 94l8 -82h99v1143h-108v-935q-4 -11 -4 -13q-1 -4 -10 -28q-5 -14 -18 -35q-10 -17 -27 -28q-18 -12 -37 -12q-30 0 -45 31q-15 30 -15 101v919h-109zM403 1425v-19q0 -97 -42 -149q-42 -53 -117 -53q-76 0 -118 53
q-42 52 -42 149v19h93v-18q0 -121 67 -121q66 0 66 121v18h93z" />
    <glyph glyph-name="Uring" unicode="&#x16e;" 
d="M176 1391v-1167q0 -73 19 -102q19 -30 59 -30t59 30q19 29 19 102v1167h114v-1162q0 -115 -51 -178t-141 -63t-141 63q-52 64 -52 178v1162h115zM102 1587q0 63 45 102q44 38 107 38t107 -38q45 -39 45 -102t-45 -102q-44 -38 -107 -38t-107 38q-45 39 -45 102zM254 1523
q26 0 43 16t17 48t-17 48q-19 17 -43 17t-43 -17q-17 -16 -17 -48t17 -48t43 -16z" />
    <glyph glyph-name="uring" unicode="&#x16f;" horiz-adv-x="487" 
d="M57 1143v-944q0 -109 39 -160t100 -51q87 0 127 94l8 -82h99v1143h-108v-935q-4 -11 -4 -13q-1 -4 -10 -28q-5 -14 -18 -35q-10 -17 -27 -28q-18 -12 -37 -12q-30 0 -45 31q-15 30 -15 101v919h-109zM92 1339q0 63 45 102t107 39t107 -39q44 -38 44 -102q0 -63 -44 -101
q-45 -39 -107 -39t-107 39t-45 101zM244 1275q26 0 43 16t17 48q0 33 -17 49t-43 16t-43 -16q-18 -16 -18 -49q0 -31 18 -48q17 -16 43 -16z" />
    <glyph glyph-name="Uhungarumlaut" unicode="&#x170;" 
d="M176 1391v-1167q0 -73 19 -102q19 -30 59 -30t59 30q19 29 19 102v1167h114v-1162q0 -115 -51 -178t-141 -63t-141 63q-52 64 -52 178v1162h115zM503 1677l-119 -221h-86l66 221h139zM304 1677l-119 -221h-86l66 221h139z" />
    <glyph glyph-name="uhungarumlaut" unicode="&#x171;" horiz-adv-x="487" 
d="M57 199v944h109v-919q0 -71 15 -101q15 -31 45 -31q32 0 56 29q23 28 31 57l9 30v935h108v-1143h-99l-8 82q-40 -94 -127 -94q-61 0 -100 51t-39 160zM492 1430l-119 -222h-86l65 222h140zM293 1430l-119 -222h-86l66 222h139z" />
    <glyph glyph-name="Uogonek" unicode="&#x172;" 
d="M176 1391v-1167q0 -73 19 -102q19 -30 59 -30t59 30q19 29 19 102v1167h114v-1162q0 -119 -54 -182l-138 -163q-14 -17 -14 -28q0 -15 17 -15h86v-99h-121q-99 0 -99 75q0 26 11 45q13 23 43 60l55 67q-79 7 -125 70t-46 170v1162h115z" />
    <glyph glyph-name="uogonek" unicode="&#x173;" horiz-adv-x="487" 
d="M57 199v944h109v-919q0 -71 15 -101q15 -31 45 -31q32 0 56 29q23 28 31 57l9 30v935h108v-1143l-98 -116q-15 -18 -15 -28q0 -15 18 -15h86v-99h-121q-99 0 -99 75q0 26 11 45q13 23 43 60l75 90l-7 70q-40 -94 -127 -94q-61 0 -100 51t-39 160z" />
    <glyph glyph-name="Wcircumflex" unicode="&#x174;" horiz-adv-x="780" 
d="M33 1391l111 -1391h164l82 1135l82 -1135h164l112 1391h-114l-87 -1173l-83 1173h-148l-83 -1173l-87 1173h-113zM473 1456l-83 114l-83 -114h-90l106 221h135l105 -221h-90z" />
    <glyph glyph-name="wcircumflex" unicode="&#x175;" horiz-adv-x="757" 
d="M478 0l-99 939l-99 -939h-147l-113 1143h109l82 -936l98 936h142l98 -940l82 940h106l-112 -1143h-147zM462 1208l-83 114l-83 -114h-90l105 222h135l106 -222h-90z" />
    <glyph glyph-name="Ycircumflex" unicode="&#x176;" horiz-adv-x="514" 
d="M200 0v397l-184 994h117l124 -761l124 761h117l-184 -994v-397h-114zM340 1456l-83 114l-83 -114h-90l105 221h136l105 -221h-90z" />
    <glyph glyph-name="ycircumflex" unicode="&#x177;" horiz-adv-x="463" 
d="M127 1143l86 -863l126 863h108l-223 -1401h-108l42 243l-142 1158h111zM314 1208l-83 114l-83 -114h-90l106 222h135l105 -222h-90z" />
    <glyph glyph-name="Ydieresis" unicode="&#x178;" horiz-adv-x="514" 
d="M200 0v397l-184 994h117l124 -761l124 761h117l-184 -994v-397h-114zM104 1456v198h111v-198h-111zM299 1456v198h111v-198h-111z" />
    <glyph glyph-name="Zacute" unicode="&#x179;" horiz-adv-x="425" 
d="M37 0v96l233 1190h-227v105h346v-97l-234 -1190h234v-104h-352zM376 1677l-119 -221h-90l65 221h144z" />
    <glyph glyph-name="zacute" unicode="&#x17a;" horiz-adv-x="403" 
d="M35 0v96l219 942h-213v105h328v-96l-219 -943h219v-104h-334zM365 1430l-119 -222h-90l65 222h144z" />
    <glyph glyph-name="Zdotaccent" unicode="&#x17b;" horiz-adv-x="425" 
d="M37 0v96l233 1190h-227v105h346v-97l-234 -1190h234v-104h-352zM159 1456v179h125v-179h-125z" />
    <glyph glyph-name="zdotaccent" unicode="&#x17c;" horiz-adv-x="403" 
d="M35 0v96l219 942h-213v105h328v-96l-219 -943h219v-104h-334zM152 1208v180h124v-180h-124z" />
    <glyph glyph-name="Zcaron" unicode="&#x17d;" horiz-adv-x="425" 
d="M37 0v96l233 1190h-227v105h346v-97l-234 -1190h234v-104h-352zM221 1564l83 113h90l-105 -221h-135l-106 221h90z" />
    <glyph glyph-name="zcaron" unicode="&#x17e;" horiz-adv-x="403" 
d="M35 0v96l219 942h-213v105h328v-96l-219 -943h219v-104h-334zM214 1316l83 114h90l-105 -222h-136l-105 222h90z" />
    <glyph glyph-name="florin" unicode="&#x192;" horiz-adv-x="407" 
d="M87 1056v87h63v93q0 105 55 163q56 59 142 59h22v-87h-22q-44 0 -71 -34q-26 -33 -26 -101v-93h94v-87h-94v-914q0 -105 -55 -163q-56 -59 -143 -59h-13v87h13q44 0 71 34t27 101v914h-63z" />
    <glyph glyph-name="Aringacute" unicode="&#x1fa;" horiz-adv-x="501" 
d="M385 1919l-85 -135h-86l28 135h143zM27 0l149 1391h154l145 -1391h-109l-28 278h-172l-27 -278h-112zM253 1167l-77 -785h151zM99 1587q0 63 45 102q44 38 107 38t107 -38t44 -102t-44 -102t-107 -38t-107 38q-45 39 -45 102zM251 1523q26 0 43 16t17 48t-17 48
q-19 17 -43 17t-43 -17q-18 -17 -18 -48t18 -48q17 -16 43 -16z" />
    <glyph glyph-name="aringacute" unicode="&#x1fb;" horiz-adv-x="479" 
d="M373 1663l-85 -135h-86l27 135h144zM55 457q0 60 14 100q13 37 34 60q24 26 73 65l100 81q26 21 31 33q6 14 6 39v84q0 71 -18 101q-19 31 -56 31q-38 0 -57 -31q-18 -30 -18 -101v-151h-109v145q0 115 50 179q49 63 134 63q83 0 133 -63q50 -64 50 -179v-657
q0 -86 4 -143q5 -72 8 -88l4 -25h-102q-7 27 -13 90q-41 -102 -130 -102q-63 0 -100 51q-38 52 -38 160v258zM164 487v-263q0 -132 59 -132q31 0 53 27q24 29 31 53l8 27q-2 84 -2 103v367l-111 -97q-38 -32 -38 -85zM87 1339q0 63 45 102t107 39t107 -39q44 -38 44 -102
q0 -63 -44 -101q-45 -39 -107 -39t-107 39t-45 101zM239 1275q26 0 43 16t17 48q0 33 -17 49t-43 16t-43 -16q-18 -16 -18 -49q0 -31 18 -48q17 -16 43 -16z" />
    <glyph glyph-name="AEacute" unicode="&#x1fc;" horiz-adv-x="651" 
d="M606 1391v-105h-269l57 -532h183v-105h-171l58 -545h142v-104h-240l-28 278h-172l-27 -278h-112l149 1391h430zM253 1167l-77 -785h151zM526 1677l-118 -221h-91l66 221h143z" />
    <glyph glyph-name="aeacute" unicode="&#x1fd;" horiz-adv-x="735" 
d="M55 457q0 60 14 100q13 37 34 60q24 26 73 65l100 81q26 21 31 33q6 14 6 39v84q0 71 -18 101q-19 31 -56 31q-38 0 -57 -31q-18 -30 -18 -101v-151h-109v145q0 115 50 179q49 63 134 63q81 0 129 -57q48 57 129 57q83 0 133 -63q50 -64 50 -179v-441h-258v-248
q0 -72 18 -102t57 -30q38 0 56 30t18 102v131h109v-126q0 -114 -50 -178q-50 -63 -133 -63q-112 0 -158 101q-46 -101 -146 -101q-63 0 -100 51q-38 52 -38 160v258zM164 487v-263q0 -132 59 -132t91 104q-1 7 -1 33v440l-111 -97q-38 -32 -38 -85zM422 919v-347h149v347
q0 71 -18 101q-19 31 -56 31q-38 0 -57 -31q-18 -30 -18 -101zM530 1430l-118 -222h-90l65 222h143z" />
    <glyph glyph-name="Oslashacute" unicode="&#x1fe;" horiz-adv-x="512" 
d="M61 -73l340 1536h50l-340 -1536h-50zM61 229v932q0 115 53 179q52 63 142 63t142 -63q53 -64 53 -179v-932q0 -114 -53 -178q-52 -63 -142 -63t-142 63q-53 64 -53 178zM176 1166v-942q0 -71 20 -102q20 -30 60 -30t60 30q20 31 20 102v942q0 71 -20 102q-20 30 -60 30
t-60 -30q-20 -31 -20 -102zM419 1677l-119 -221h-90l65 221h144z" />
    <glyph glyph-name="oslashacute" unicode="&#x1ff;" horiz-adv-x="489" 
d="M55 229v684q0 116 51 179t139 63q87 0 138 -63t51 -179v-684q0 -115 -51 -178t-138 -63q-88 0 -139 63t-51 178zM164 919v-695q0 -71 20 -102q20 -30 61 -30t61 30q20 31 20 102v695q0 70 -20 101t-61 31t-61 -31t-20 -101zM55 -73l330 1288h49l-330 -1288h-49zM408 1430
l-119 -222h-90l65 222h144z" />
    <glyph glyph-name="Scommaaccent" unicode="&#x218;" horiz-adv-x="499" 
d="M172 508v-284q0 -73 19 -102q19 -30 59 -30t59 30q19 29 19 102v244q0 44 -10 72q-10 27 -38 54l-139 137q-47 47 -66 93q-18 44 -18 123v214q0 115 52 179q51 63 141 63t141 -63t51 -179v-278h-114v283q0 73 -19 102q-19 30 -59 30t-59 -30q-19 -29 -19 -102v-231
q0 -47 9 -72t39 -54l138 -137q49 -49 67 -93q17 -41 17 -123v-227q0 -115 -51 -178t-141 -63t-141 63q-52 64 -52 178v279h115zM196 -270v204h108v-173q0 -39 -12 -69l-32 -76h-64l41 114h-41z" />
    <glyph glyph-name="scommaaccent" unicode="&#x219;" horiz-adv-x="475" 
d="M51 809v104q0 115 50 179q49 63 136 63q85 0 135 -63q50 -64 50 -179v-176h-109v182q0 72 -19 101q-20 31 -57 31q-38 0 -58 -31q-19 -29 -19 -101v-110q0 -49 8 -70q9 -24 38 -53l134 -134q46 -46 64 -88t18 -112v-123q0 -114 -50 -178q-50 -63 -135 -63q-87 0 -136 63
q-50 64 -50 178v189h109v-194q0 -73 19 -102q19 -30 58 -30q37 0 57 30q19 29 19 102v128q0 42 -9 68t-38 55l-134 134q-44 44 -63 88q-18 42 -18 112zM183 -270v204h109v-173q0 -39 -12 -69l-32 -76h-65l41 114h-41z" />
    <glyph glyph-name="uni021A" unicode="&#x21a;" horiz-adv-x="411" 
d="M263 1286v-1286h-115v1286h-125v105h366v-105h-126zM152 -270v204h108v-173q0 -39 -12 -69l-32 -76h-64l41 114h-41z" />
    <glyph glyph-name="uni021B" unicode="&#x21b;" horiz-adv-x="350" 
d="M29 1034v109h70v177l109 65v-242h103v-109h-103v-829q0 -57 20 -78q21 -23 72 -23h11v-104h-17q-195 0 -195 199v835h-70zM126 -270v204h108v-173q0 -39 -12 -69l-32 -76h-64l41 114h-41z" />
    <glyph glyph-name="uni0237" unicode="&#x237;" horiz-adv-x="223" 
d="M166 -49q0 -64 -18 -109t-49 -68q-30 -22 -60 -33q-27 -9 -64 -11v104q41 3 62 27q20 23 20 90v1192h109v-1192z" />
    <glyph glyph-name="schwa" unicode="&#x259;" horiz-adv-x="477" 
d="M313 671v248q0 71 -18 101q-19 31 -56 31q-38 0 -57 -31q-18 -30 -18 -101v-132h-109v126q0 115 50 179q49 63 134 63q83 0 133 -63q50 -64 50 -179v-684q0 -114 -50 -178q-50 -63 -133 -63q-85 0 -134 63q-50 64 -50 178v442h258zM313 224v346h-149v-346q0 -72 18 -102
t57 -30q38 0 56 30t18 102z" />
    <glyph glyph-name="circumflex" unicode="&#x2c6;" horiz-adv-x="423" 
d="M295 1208l-83 114l-83 -114h-90l105 222h136l105 -222h-90z" />
    <glyph glyph-name="caron" unicode="&#x2c7;" horiz-adv-x="423" 
d="M212 1316l83 114h90l-105 -222h-136l-105 222h90z" />
    <glyph glyph-name="uni02C9" unicode="&#x2c9;" horiz-adv-x="436" 
d="M55 1230v104h326v-104h-326z" />
    <glyph glyph-name="breve" unicode="&#x2d8;" horiz-adv-x="413" 
d="M367 1425v-19q0 -95 -43 -149q-42 -53 -117 -53t-117 53q-43 54 -43 149v19h93v-18q0 -121 67 -121q66 0 66 121v18h94z" />
    <glyph glyph-name="dotaccent" unicode="&#x2d9;" horiz-adv-x="235" 
d="M55 1208v180h125v-180h-125z" />
    <glyph glyph-name="ring" unicode="&#x2da;" horiz-adv-x="405" 
d="M51 1339q0 63 45 102t107 39t107 -39q44 -38 44 -102q0 -63 -44 -101q-45 -39 -107 -39t-107 39t-45 101zM203 1275q26 0 43 16t17 48q0 33 -17 49t-43 16t-43 -16q-18 -16 -18 -49q0 -31 18 -48q17 -16 43 -16z" />
    <glyph glyph-name="ogonek" unicode="&#x2db;" horiz-adv-x="326" 
d="M276 0l-98 -116q-14 -17 -14 -28q0 -15 17 -15h86v-99h-121q-99 0 -99 75q0 26 11 45q13 23 43 60l65 78h110z" />
    <glyph glyph-name="tilde" unicode="&#x2dc;" horiz-adv-x="454" 
d="M267 1230l-81 48q-17 10 -24 10q-11 0 -11 -15v-65h-100v114q0 86 68 86q29 0 68 -24l81 -48q17 -10 25 -10q11 0 11 15v65h99v-114q0 -86 -67 -86q-30 0 -69 24z" />
    <glyph glyph-name="hungarumlaut" unicode="&#x2dd;" horiz-adv-x="489" 
d="M451 1430l-119 -222h-86l65 222h140zM252 1430l-119 -222h-86l66 222h139z" />
    <glyph glyph-name="anoteleia" unicode="&#x387;" horiz-adv-x="221" 
d="M53 436v209h115v-209h-115z" />
    <glyph glyph-name="pi" unicode="&#x3c0;" horiz-adv-x="669" 
d="M23 1038v105h624v-105h-126v-833q0 -55 21 -78t71 -23h12v-104h-18q-194 0 -194 199v839h-156v-1038h-109v1038h-125z" />
    <glyph glyph-name="Wgrave" unicode="&#x1e80;" horiz-adv-x="780" 
d="M144 0l-111 1391h113l87 -1173l83 1173h148l83 -1173l87 1173h114l-112 -1391h-164l-82 1135l-82 -1135h-164zM346 1456l-119 221h144l65 -221h-90z" />
    <glyph glyph-name="wgrave" unicode="&#x1e81;" horiz-adv-x="757" 
d="M478 0l-99 939l-99 -939h-147l-113 1143h109l82 -936l98 936h142l98 -940l82 940h106l-112 -1143h-147zM335 1208l-119 222h143l66 -222h-90z" />
    <glyph glyph-name="Wacute" unicode="&#x1e82;" horiz-adv-x="780" 
d="M33 1391l111 -1391h164l82 1135l82 -1135h164l112 1391h-114l-87 -1173l-83 1173h-148l-83 -1173l-87 1173h-113zM553 1677l-119 -221h-90l66 221h143z" />
    <glyph glyph-name="wacute" unicode="&#x1e83;" horiz-adv-x="757" 
d="M478 0l-99 939l-99 -939h-147l-113 1143h109l82 -936l98 936h142l98 -940l82 940h106l-112 -1143h-147zM542 1430l-119 -222h-90l65 222h144z" />
    <glyph glyph-name="Wdieresis" unicode="&#x1e84;" horiz-adv-x="780" 
d="M33 1391l111 -1391h164l82 1135l82 -1135h164l112 1391h-114l-87 -1173l-83 1173h-148l-83 -1173l-87 1173h-113zM238 1456v198h110v-198h-110zM432 1456v198h111v-198h-111z" />
    <glyph glyph-name="wdieresis" unicode="&#x1e85;" horiz-adv-x="757" 
d="M478 0l-99 939l-99 -939h-147l-113 1143h109l82 -936l98 936h142l98 -940l82 940h106l-112 -1143h-147zM226 1208v198h111v-198h-111zM421 1208v198h110v-198h-110z" />
    <glyph glyph-name="uni1E9E" unicode="&#x1e9e;" 
d="M457 242q0 -115 -53 -179q-52 -63 -140 -63h-19v104h19q39 0 59 31q19 29 19 102v231q0 46 -9 72t-39 54l-49 48v96l93 548h-53q-107 0 -107 -132v-1154h-115v1149q0 113 62 178q61 64 160 64h172v-97l-104 -604l20 -18q51 -48 67 -92q17 -46 17 -124v-214z" />
    <glyph glyph-name="Ygrave" unicode="&#x1ef2;" horiz-adv-x="514" 
d="M200 0v397l-184 994h117l124 -761l124 761h117l-184 -994v-397h-114zM213 1456l-119 221h144l65 -221h-90z" />
    <glyph glyph-name="ygrave" unicode="&#x1ef3;" horiz-adv-x="463" 
d="M127 1143l86 -863l126 863h108l-223 -1401h-108l42 243l-142 1158h111zM187 1208l-118 222h143l66 -222h-91z" />
    <glyph glyph-name="uni2011" unicode="&#x2011;" horiz-adv-x="372" 
d="M47 488v105h279v-105h-279z" />
    <glyph glyph-name="figuredash" unicode="&#x2012;" horiz-adv-x="628" 
d="M47 488v105h535v-105h-535z" />
    <glyph glyph-name="endash" unicode="&#x2013;" horiz-adv-x="628" 
d="M47 488v105h535v-105h-535z" />
    <glyph glyph-name="emdash" unicode="&#x2014;" horiz-adv-x="1050" 
d="M47 488v105h957v-105h-957z" />
    <glyph glyph-name="uni2015" unicode="&#x2015;" horiz-adv-x="1050" 
d="M47 488v105h957v-105h-957z" />
    <glyph glyph-name="quoteleft" unicode="&#x2018;" horiz-adv-x="221" 
d="M168 1218v-209h-115v180q0 53 9 85l35 117h71l-41 -173h41z" />
    <glyph glyph-name="quoteright" unicode="&#x2019;" horiz-adv-x="221" 
d="M53 1182v209h115v-181q0 -54 -9 -85l-35 -116h-71l41 173h-41z" />
    <glyph glyph-name="quotesinglbase" unicode="&#x201a;" horiz-adv-x="221" 
d="M53 0v209h115v-180q0 -53 -9 -85l-35 -117h-71l41 173h-41z" />
    <glyph glyph-name="quotedblleft" unicode="&#x201c;" horiz-adv-x="411" 
d="M358 1218v-209h-114v180q0 53 9 85l35 117h70l-41 -173h41zM168 1218v-209h-115v180q0 53 9 85l35 117h71l-41 -173h41z" />
    <glyph glyph-name="quotedblright" unicode="&#x201d;" horiz-adv-x="411" 
d="M53 1182v209h115v-181q0 -54 -9 -85l-35 -116h-71l41 173h-41zM244 1182v209h114v-181q0 -54 -9 -85l-35 -116h-70l41 173h-41z" />
    <glyph glyph-name="quotedblbase" unicode="&#x201e;" horiz-adv-x="411" 
d="M53 0v209h115v-180q0 -53 -9 -85l-35 -117h-71l41 173h-41zM244 0v209h114v-180q0 -53 -9 -85l-35 -117h-70l41 173h-41z" />
    <glyph glyph-name="dagger" unicode="&#x2020;" horiz-adv-x="493" 
d="M57 1091v98l145 -6l-6 208h102l-7 -208l145 6v-98l-146 6l8 -485h-102l7 485z" />
    <glyph glyph-name="daggerdbl" unicode="&#x2021;" horiz-adv-x="493" 
d="M57 814v98l146 -6l-1 95l1 96l-146 -6v98l145 -6l-6 208h102l-7 -208l145 6v-98l-146 6l2 -96l-2 -95l146 6v-98l-145 6l7 -208h-102l6 208z" />
    <glyph glyph-name="bullet" unicode="&#x2022;" horiz-adv-x="442" 
d="M53 539v5q0 88 47 138t121 50t121 -50t47 -138v-5q0 -89 -47 -139t-121 -50t-121 50t-47 139z" />
    <glyph glyph-name="ellipsis" unicode="&#x2026;" horiz-adv-x="663" 
d="M53 0v209h115v-209h-115zM274 0v209h115v-209h-115zM496 0v209h114v-209h-114z" />
    <glyph glyph-name="perthousand" unicode="&#x2030;" horiz-adv-x="1166" 
d="M161 0l371 1391h99l-372 -1391h-98zM53 697v528q0 83 43 131q42 47 112 47q69 0 113 -47q43 -46 43 -131v-528q0 -85 -43 -131q-44 -47 -113 -47q-70 0 -112 47q-43 48 -43 131zM157 1228v-534q0 -83 51 -83q26 0 39 19t13 64v534q0 45 -13 64t-39 19q-51 0 -51 -83z
M427 166v527q0 83 43 131q42 47 112 47q68 0 112 -47q43 -46 43 -131v-527q0 -85 -43 -131q-44 -47 -112 -47q-70 0 -112 47q-43 48 -43 131zM530 696v-533q0 -83 52 -83q26 0 39 19t13 64v533q0 45 -13 64t-39 19q-52 0 -52 -83zM803 166v527q0 85 42 131q42 47 112 47
q69 0 113 -47q43 -46 43 -131v-527q0 -85 -43 -131q-44 -47 -113 -47q-70 0 -112 47t-42 131zM906 696v-533q0 -83 51 -83q27 0 40 19t13 64v533q0 45 -13 64t-40 19q-51 0 -51 -83z" />
    <glyph glyph-name="guilsinglleft" unicode="&#x2039;" horiz-adv-x="299" 
d="M159 219l-132 352l132 353h107l-132 -353l132 -352h-107z" />
    <glyph glyph-name="guilsinglright" unicode="&#x203a;" horiz-adv-x="299" 
d="M272 571l-132 -352h-107l132 352l-132 353h107z" />
    <glyph glyph-name="fraction" unicode="&#x2044;" horiz-adv-x="375" 
d="M-78 0l437 1391h95l-438 -1391h-94z" />
    <glyph glyph-name="zerosuperior" unicode="&#x2070;" horiz-adv-x="411" 
d="M57 841v508q0 89 40 136q41 48 109 48t108 -48q40 -47 40 -136v-508q0 -89 -40 -136q-41 -49 -108 -49q-68 0 -109 49q-40 47 -40 136zM154 1353v-516q0 -93 52 -93t52 93v516q0 92 -52 92t-52 -92z" />
    <glyph glyph-name="foursuperior" unicode="&#x2074;" horiz-adv-x="421" 
d="M33 805v88l168 633h123v-633h63v-88h-63v-141h-97v141h-194zM118 893h109v464z" />
    <glyph glyph-name="fivesuperior" unicode="&#x2075;" horiz-adv-x="411" 
d="M57 1126v400h290v-88h-189v-196q32 53 89 53q48 0 78 -40q29 -39 29 -122v-292q0 -89 -40 -136q-41 -49 -108 -49q-68 0 -109 49q-40 47 -40 136v185h101v-189q0 -53 11 -72q12 -21 37 -21t37 21q11 19 11 72v275q0 95 -41 95q-19 0 -37 -18q-19 -19 -26 -63h-93z" />
    <glyph glyph-name="sixsuperior" unicode="&#x2076;" horiz-adv-x="411" 
d="M354 1077v-236q0 -89 -40 -136q-41 -49 -108 -49q-68 0 -109 49q-40 47 -40 136v508q0 89 40 136q41 48 109 48t108 -48q40 -47 40 -136v-38h-96v42q0 92 -52 92t-52 -92v-184q30 71 92 71q49 0 79 -40q29 -39 29 -123zM258 837v220q0 95 -39 95q-22 0 -38 -20
q-17 -21 -21 -41l-6 -21v-233q0 -93 52 -93t52 93z" />
    <glyph glyph-name="sevensuperior" unicode="&#x2077;" horiz-adv-x="360" 
d="M332 1526v-73l-200 -789h-99l195 774h-191v88h295z" />
    <glyph glyph-name="eightsuperior" unicode="&#x2078;" horiz-adv-x="411" 
d="M57 842v130q0 95 51 141q-51 45 -51 141v94q0 89 40 136q41 49 109 49q67 0 108 -49q40 -47 40 -136v-94q0 -97 -50 -141q50 -45 50 -141v-130q0 -90 -40 -137q-41 -49 -108 -49q-68 0 -109 49q-40 47 -40 137zM254 837v140q0 53 -11 72q-11 20 -37 20t-37 -20
q-11 -19 -11 -72v-140q0 -53 11 -72q12 -21 37 -21t37 21q11 19 11 72zM158 1353v-104q0 -52 11 -71q12 -21 37 -21t37 21q11 19 11 71v104q0 52 -11 71q-12 21 -37 21t-37 -21q-11 -19 -11 -71z" />
    <glyph glyph-name="ninesuperior" unicode="&#x2079;" horiz-adv-x="411" 
d="M57 1112v237q0 89 40 136q41 48 109 48t108 -48q40 -47 40 -136v-508q0 -89 -40 -136q-41 -49 -108 -49q-68 0 -109 49q-40 47 -40 136v38h97v-42q0 -93 52 -93t52 93v183q-30 -71 -92 -71q-49 0 -79 40q-30 41 -30 123zM154 1353v-220q0 -96 39 -96q21 0 37 21
q18 23 22 41l6 20v234q0 92 -52 92t-52 -92z" />
    <glyph glyph-name="uni2080" unicode="&#x2080;" horiz-adv-x="411" 
d="M57 177v508q0 89 40 136q40 48 109 48q68 0 108 -48q40 -47 40 -136v-508q0 -89 -40 -136q-40 -48 -108 -48t-109 48q-40 47 -40 136zM154 689v-516q0 -92 52 -92t52 92v516q0 92 -52 92t-52 -92z" />
    <glyph glyph-name="uni2081" unicode="&#x2081;" horiz-adv-x="282" 
d="M219 862v-862h-96v711l-96 -15v88q23 3 47 13q22 10 34 20q13 12 22 22q8 9 11 17l3 6h75z" />
    <glyph glyph-name="uni2082" unicode="&#x2082;" horiz-adv-x="395" 
d="M348 639q0 -80 -31 -142l-152 -297q-18 -34 -18 -107v-5h201v-88h-297v93q0 89 30 147l152 296q19 40 19 103v50q0 92 -52 92q-53 0 -53 -92v-105h-96v100q0 90 40 137q41 48 109 48t108 -48q40 -47 40 -137v-45z" />
    <glyph glyph-name="uni2083" unicode="&#x2083;" horiz-adv-x="411" 
d="M151 494h55q52 0 52 92v103q0 92 -52 92t-52 -92v-105h-97v101q0 89 40 136q40 48 109 48q68 0 108 -48q40 -47 40 -136v-84q0 -102 -55 -151q55 -49 55 -152v-121q0 -89 -40 -136q-40 -48 -108 -48t-109 48q-40 47 -40 136v138h97v-142q0 -92 52 -92t52 92v140
q0 93 -52 93h-55v88z" />
    <glyph glyph-name="uni2084" unicode="&#x2084;" horiz-adv-x="421" 
d="M33 141v88l168 633h123v-633h63v-88h-63v-141h-97v141h-194zM118 229h109v464z" />
    <glyph glyph-name="uni2085" unicode="&#x2085;" horiz-adv-x="411" 
d="M57 463v399h290v-88h-189v-195q32 53 89 53q48 0 78 -40q29 -39 29 -123v-292q0 -89 -40 -136q-40 -48 -108 -48t-109 48q-40 47 -40 136v185h101v-189q0 -53 11 -72q11 -20 37 -20t37 20q11 19 11 72v276q0 95 -41 95q-19 0 -37 -18q-19 -19 -26 -63h-93z" />
    <glyph glyph-name="uni2086" unicode="&#x2086;" horiz-adv-x="411" 
d="M354 414v-237q0 -89 -40 -136q-40 -48 -108 -48t-109 48q-40 47 -40 136v508q0 89 40 136q40 48 109 48q68 0 108 -48q40 -47 40 -136v-38h-96v42q0 92 -52 92t-52 -92v-183q30 71 92 71q49 0 79 -40q29 -39 29 -123zM258 173v220q0 95 -39 95q-22 0 -38 -20
q-17 -21 -21 -41l-6 -20v-234q0 -92 52 -92t52 92z" />
    <glyph glyph-name="uni2087" unicode="&#x2087;" horiz-adv-x="360" 
d="M332 862v-72l-200 -790h-99l195 774h-191v88h295z" />
    <glyph glyph-name="uni2088" unicode="&#x2088;" horiz-adv-x="411" 
d="M57 178v130q0 96 51 142q-51 45 -51 141v93q0 90 40 137q40 48 109 48q68 0 108 -48q40 -47 40 -137v-93q0 -97 -50 -141q50 -45 50 -142v-130q0 -90 -40 -137q-40 -48 -108 -48t-109 48q-40 47 -40 137zM254 173v140q0 53 -11 72q-12 21 -37 21t-37 -21q-11 -19 -11 -72
v-140q0 -53 11 -72q11 -20 37 -20t37 20q11 19 11 72zM158 689v-103q0 -53 11 -72q11 -20 37 -20t37 20q11 19 11 72v103q0 53 -11 72q-11 20 -37 20t-37 -20q-11 -19 -11 -72z" />
    <glyph glyph-name="uni2089" unicode="&#x2089;" horiz-adv-x="411" 
d="M57 449v236q0 89 40 136q40 48 109 48q68 0 108 -48q40 -47 40 -136v-508q0 -89 -40 -136q-40 -48 -108 -48t-109 48q-40 47 -40 136v38h97v-42q0 -92 52 -92t52 92v183q-30 -70 -92 -70q-49 0 -79 40t-30 123zM154 689v-220q0 -95 39 -95q21 0 37 20q18 23 22 41l6 21
v233q0 92 -52 92t-52 -92z" />
    <glyph glyph-name="Euro" unicode="&#x20ac;" horiz-adv-x="522" 
d="M37 770v94h51v297q0 115 50 179q49 63 136 63q88 0 137 -63q50 -64 50 -179v-160h-115v165q0 74 -17 102q-18 30 -55 30q-36 0 -54 -30q-17 -28 -17 -102v-302h258v-94h-258v-137h258v-94h-258v-315q0 -74 17 -102q18 -30 54 -30q37 0 55 30q17 28 17 102v177h115v-172
q0 -114 -50 -178q-49 -63 -137 -63q-86 0 -136 63q-50 64 -50 178v310h-51v94h51v137h-51z" />
    <glyph glyph-name="numero" unicode="&#x2116;" horiz-adv-x="977" 
d="M346 0l-172 1077v-1077h-111v1391h152l172 -1078v1078h111v-1391h-152zM612 697v528q0 83 43 131q42 47 112 47q69 0 113 -47q43 -46 43 -131v-528q0 -85 -43 -131q-44 -47 -113 -47q-70 0 -112 47q-43 48 -43 131zM716 1228v-534q0 -83 51 -83q26 0 39 19t13 64v534
q0 45 -13 64t-39 19q-51 0 -51 -83zM612 351v92h311v-92h-311z" />
    <glyph glyph-name="uni2117" unicode="&#x2117;" horiz-adv-x="791" 
d="M736 1142v-893q0 -107 -77 -184t-184 -77h-159q-107 0 -184 77t-77 184v893q0 107 77 184t184 77h159q107 0 184 -77t77 -184zM93 1142v-893q0 -93 65 -160q64 -65 158 -65h159q94 0 158 65q65 67 65 160v893q0 93 -65 160q-64 65 -158 65h-159q-94 0 -158 -65
q-65 -67 -65 -160zM379 577h-29v-410h-114v1057h143q90 0 145 -58q56 -59 56 -161v-209q0 -103 -56 -162q-54 -57 -145 -57zM350 1119v-437h29q86 0 86 109v219q0 109 -86 109h-29z" />
    <glyph glyph-name="servicemark" unicode="&#x2120;" horiz-adv-x="931" 
d="M782 615v562l-102 -562h-95l-103 562v-562h-86v776h119l117 -663l118 663h118v-776h-86zM150 900v-132q0 -76 46 -76t46 76v75q0 29 -5 47q-4 14 -24 34l-95 92q-34 32 -46 63q-13 33 -13 83v72q0 76 38 120q37 43 99 43q61 0 98 -43q38 -44 38 -120v-129h-90v132
q0 76 -46 76t-46 -76v-75q0 -29 5 -47q4 -15 23 -34l95 -92q34 -32 46 -63q13 -32 13 -83v-72q0 -76 -38 -120q-37 -43 -98 -43q-62 0 -99 43q-38 44 -38 120v129h91z" />
    <glyph glyph-name="trademark" unicode="&#x2122;" horiz-adv-x="905" 
d="M756 615v562l-103 -562h-95l-102 562v-562h-86v776h118l117 -663l118 663h119v-776h-86zM209 1307v-692h-90v692h-96v84h282v-84h-96z" />
    <glyph glyph-name="Omega" unicode="&#x2126;" horiz-adv-x="512" 
d="M61 304v857q0 115 53 179q52 63 142 63t142 -63q53 -64 53 -179v-857q0 -136 -73 -200h83v-104h-158v181q33 27 33 118v867q0 71 -20 102q-20 30 -60 30t-60 -30q-20 -31 -20 -102v-867q0 -91 33 -118v-181h-158v104h82q-72 63 -72 200z" />
    <glyph glyph-name="estimated" unicode="&#x212e;" horiz-adv-x="432" 
d="M324 281h35q-25 -139 -60 -211q-37 -76 -81 -76q-74 0 -123 198q-50 200 -50 503q0 304 50 504q49 198 123 198t123 -198q50 -200 50 -504v-17h-230v-586q25 -64 57 -64q29 0 58 66t48 187zM275 714v582q-29 65 -57 65q-30 0 -57 -65v-582h114z" />
    <glyph glyph-name="partialdiff" unicode="&#x2202;" horiz-adv-x="505" 
d="M90 1298v105h162q90 0 141 -63t51 -179v-932q0 -115 -51 -178t-141 -63t-141 63q-52 64 -52 178v735q0 108 39 159q40 52 102 52q86 0 130 -95v86q0 73 -19 102q-19 30 -59 30h-162zM330 224v730q-1 3 -3 13q0 2 -2 6t-4.5 10.5t-4.5 11.5q-5 14 -18 35q-10 17 -27 28
q-18 12 -37 12q-30 0 -45 -31q-15 -30 -15 -101v-714q0 -73 19 -102q19 -30 59 -30t59 30q19 29 19 102z" />
    <glyph glyph-name="Delta" unicode="&#x2206;" horiz-adv-x="497" 
d="M27 0l145 1391h154l145 -1391h-444zM249 1160l-101 -1056h203z" />
    <glyph glyph-name="product" unicode="&#x220f;" horiz-adv-x="694" 
d="M23 1286v105h649v-105h-126v-1366h-109v1366h-180v-1366h-109v1366h-125z" />
    <glyph glyph-name="summation" unicode="&#x2211;" horiz-adv-x="473" 
d="M43 -80v80l202 655l-202 656v80h387v-105h-268l194 -631l-194 -630h268v-105h-387z" />
    <glyph glyph-name="minus" unicode="&#x2212;" horiz-adv-x="546" 
d="M47 488v105h453v-105h-453z" />
    <glyph glyph-name="radical" unicode="&#x221a;" horiz-adv-x="689" 
d="M47 608v87h178l96 -512l239 1275h103l-284 -1458h-116l-119 608h-97z" />
    <glyph glyph-name="infinity" unicode="&#x221e;" horiz-adv-x="759" 
d="M23 527v27q0 104 47 163q46 58 126 58q59 0 100 -35q40 -34 84 -108q42 74 82 108q41 35 102 35q80 0 126 -58q47 -59 47 -163v-27q0 -104 -47 -163q-46 -58 -126 -58q-61 0 -102 35q-38 32 -82 108q-43 -74 -83 -108q-41 -35 -101 -35q-80 0 -126 58q-47 59 -47 163z
M460 590l-28 -49l28 -49q32 -55 50 -71q21 -18 50 -18q37 0 56 27q18 26 18 93v35q0 68 -18 94t-56 26q-29 0 -50 -18q-20 -17 -50 -70zM300 492l28 49l-28 49q-29 52 -51 70q-21 18 -49 18q-38 0 -56 -26t-18 -94v-35q0 -67 18 -93q19 -27 56 -27q28 0 49 18q20 18 51 71z
" />
    <glyph glyph-name="integral" unicode="&#x222b;" horiz-adv-x="399" 
d="M250 1236v-1094q0 -105 -55 -163q-56 -59 -143 -59h-13v87h13q44 0 71 34t27 101v1094q0 105 55 163q56 59 142 59h13v-87h-13q-44 0 -71 -34q-26 -33 -26 -101z" />
    <glyph glyph-name="approxequal" unicode="&#x2248;" horiz-adv-x="581" 
d="M248 760l125 -66q19 -11 35 -11t16 20v84h111v-96q0 -59 -26 -90t-80 -31q-41 0 -95 28l-125 66q-19 11 -35 11t-16 -21v-84h-111v97q0 61 25 90q26 30 81 30q43 0 95 -27zM248 484l125 -65q19 -11 35 -11t16 20v84h111v-96q0 -60 -26 -91q-25 -30 -80 -30q-41 0 -95 28
l-125 65q-19 11 -35 11t-16 -20v-84h-111v96q0 62 25 91q26 30 81 30q41 0 95 -28z" />
    <glyph glyph-name="notequal" unicode="&#x2260;" horiz-adv-x="546" 
d="M47 609v105h246l49 114h108l-50 -114h100v-105h-144l-58 -137h202v-104h-246l-48 -115h-108l48 115h-99v104h143l59 137h-202z" />
    <glyph glyph-name="lessequal" unicode="&#x2264;" horiz-adv-x="546" 
d="M47 421v110l453 170v-109l-322 -116l322 -116v-109zM47 0v104h453v-104h-453z" />
    <glyph glyph-name="greaterequal" unicode="&#x2265;" horiz-adv-x="546" 
d="M500 531v-110l-453 -170v109l322 116l-322 116v109zM500 104v-104h-453v104h453z" />
    <glyph glyph-name="dotmath" unicode="&#x22c5;" horiz-adv-x="221" 
d="M53 436v209h115v-209h-115z" />
    <glyph glyph-name="lozenge" unicode="&#x25ca;" horiz-adv-x="497" 
d="M27 695l145 696h154l145 -696l-145 -695h-154zM361 695l-112 580l-113 -580l113 -579z" />
    <glyph glyph-name="uniF638" unicode="&#xf638;" horiz-adv-x="512" 
d="M61 229v932q0 115 53 179q52 63 142 63t142 -63q53 -64 53 -179v-932q0 -114 -53 -178q-52 -63 -142 -63t-142 63q-53 64 -53 178zM336 944l-160 -720q0 -71 20 -102q20 -30 60 -30t60 30q20 31 20 102v720zM176 445l160 721q0 71 -20 102q-20 30 -60 30t-60 -30
q-20 -31 -20 -102v-721z" />
    <glyph glyph-name="commaaccent" unicode="&#xf6c3;" horiz-adv-x="219" 
d="M55 -270v204h109v-173q0 -39 -12 -69l-32 -76h-65l41 114h-41z" />
    <glyph glyph-name="centsuperior" unicode="&#xf6e0;" horiz-adv-x="378" 
d="M145 528v74q-43 12 -69 50q-25 37 -25 94v426q0 57 25 94q26 38 69 50v75h91v-75q43 -12 69 -50q25 -37 25 -94v-147h-96v151q0 68 -44 68t-44 -68v-433q0 -68 44 -68t44 68v153h96v-150q0 -57 -25 -94q-26 -38 -69 -50v-74h-91z" />
    <glyph glyph-name="dollarsuperior" unicode="&#xf6e4;" horiz-adv-x="399" 
d="M153 460v66q-49 13 -74 50q-26 38 -26 95v187h101v-190q0 -69 46 -69t46 69v150q0 25 -6 40t-24 30l-103 92q-32 29 -46 56q-14 26 -14 71v141q0 117 100 144v68h94v-68q99 -27 99 -144v-185h-100v188q0 69 -46 69t-46 -69v-144q0 -27 5 -40q6 -15 24 -30l104 -92
q32 -29 46 -56q13 -25 13 -71v-147q0 -57 -26 -95t-73 -50v-66h-94z" />
    <glyph glyph-name="apple" unicode="&#xf8ff;" horiz-adv-x="911" 
d="M63 317v785h785v-785h-785zM481 574h175v33h-136v86h110v33h-110v86h136v33h-175v-271zM300 672l42 114l42 -114h-84zM226 574h40l24 65h104l24 -65h40l-99 271h-34z" />
    <glyph glyph-name="doublebar" horiz-adv-x="431" 
d="M57 -143v1648h97v-1648h-97zM374 1505v-1648h-96v1648h96z" />
    <glyph glyph-name="zero_slash.lt" 
d="M59 229v932q0 115 53 179q53 63 142 63q90 0 142 -63q53 -64 53 -179v-932q0 -114 -53 -178q-52 -63 -142 -63t-142 63q-53 64 -53 178zM334 944l-160 -720q0 -71 20 -102q20 -30 60 -30t60 30q20 31 20 102v720zM174 445l160 721q0 71 -20 102q-20 30 -60 30t-60 -30
q-20 -31 -20 -102v-721z" />
    <glyph glyph-name="zero.lt" 
d="M59 229v932q0 115 53 179q53 63 142 63q90 0 142 -63q53 -64 53 -179v-932q0 -114 -53 -178q-52 -63 -142 -63t-142 63q-53 64 -53 178zM174 1166v-942q0 -71 20 -102q20 -30 60 -30t60 30q20 31 20 102v942q0 71 -20 102q-20 30 -60 30t-60 -30q-20 -31 -20 -102z" />
    <glyph glyph-name="one.lt" 
d="M361 1391v-1391h-114v1185l-133 -25v105q33 4 63 20t46 33t28 34t16 27l4 12h90z" />
    <glyph glyph-name="two.lt" 
d="M451 1032q0 -135 -40 -231l-207 -503q-15 -33 -19 -69q-5 -40 -5 -111v-14h271v-104h-385v118q0 143 39 237l207 503q14 33 19 68q5 38 5 106v134q0 73 -19 102q-20 30 -59 30q-40 0 -59 -30q-19 -29 -19 -102v-214h-114v209q0 116 51 179t141 63t141 -63q52 -64 52 -179
v-129z" />
    <glyph glyph-name="three.lt" 
d="M186 778h67q39 0 59 30q19 29 19 102v256q0 73 -19 102q-20 30 -59 30q-40 0 -59 -30q-19 -29 -19 -102v-214h-115v209q0 115 52 179q51 63 141 63t141 -63t51 -179v-241q0 -132 -65 -194q65 -62 65 -194v-303q0 -115 -51 -178t-141 -63t-141 63q-52 64 -52 178v271h115
v-276q0 -73 19 -102q19 -30 59 -30q39 0 59 30q19 29 19 102v318q0 73 -19 102q-20 30 -59 30h-67v104z" />
    <glyph glyph-name="four.lt" 
d="M23 244v104l223 1043h155v-1043h84v-104h-84v-244h-114v244h-264zM127 348h160v821z" />
    <glyph glyph-name="five.lt" 
d="M61 750v641h375v-105h-260v-398q42 94 130 94q62 0 102 -52q38 -50 38 -159v-542q0 -115 -51 -178t-141 -63t-141 63q-52 64 -52 178v346h115v-351q0 -73 19 -102q19 -30 59 -30t59 30q19 29 19 102v521q0 70 -16 102q-16 31 -48 31t-61 -29t-42 -99h-104z" />
    <glyph glyph-name="six.lt" 
d="M446 751v-522q0 -115 -51 -178t-141 -63t-141 63q-52 64 -52 178v932q0 115 52 179q51 63 141 63t141 -63t51 -179v-76h-114v81q0 73 -19 102q-20 30 -59 30q-40 0 -59 -30q-19 -29 -19 -102v-299q42 95 130 95q62 0 102 -52q38 -50 38 -159zM332 224v501q0 71 -15 101
q-15 31 -46 31t-55 -29t-32 -58l-8 -29v-517q0 -73 19 -102q19 -30 59 -30t59 30q19 29 19 102z" />
    <glyph glyph-name="seven.lt" 
d="M451 1391v-80l-275 -1311h-114l270 1286h-263v105h382z" />
    <glyph glyph-name="eight.lt" 
d="M61 229v303q0 131 66 194q-66 63 -66 194v241q0 115 52 179q51 63 141 63t141 -63t51 -179v-241q0 -132 -65 -194q65 -62 65 -194v-303q0 -115 -51 -178t-141 -63t-141 63q-52 64 -52 178zM176 542v-318q0 -73 19 -102q19 -30 59 -30t59 30q19 29 19 102v318
q0 73 -19 102q-20 30 -59 30q-40 0 -59 -30q-19 -29 -19 -102zM176 1166v-256q0 -73 19 -102q19 -30 59 -30t59 30q19 29 19 102v256q0 73 -19 102q-20 30 -59 30q-40 0 -59 -30q-19 -29 -19 -102z" />
    <glyph glyph-name="nine.lt" 
d="M61 640v521q0 115 52 179q51 63 141 63t141 -63t51 -179v-932q0 -115 -51 -178t-141 -63t-141 63q-52 64 -52 178v76h115v-81q0 -73 19 -102q19 -30 59 -30t59 30q19 29 19 102v299q-42 -94 -130 -94q-62 0 -102 52q-39 51 -39 159zM176 1166v-500q0 -72 15 -102t46 -30
t55 29t32 58l8 28v517q0 73 -19 102q-20 30 -59 30q-40 0 -59 -30q-19 -29 -19 -102z" />
    <glyph glyph-name="multiply.lt" 
d="M47 825l77 77l130 -130l130 130l77 -77l-130 -130l130 -130l-77 -77l-130 130l-130 -130l-77 77l130 130z" />
    <glyph glyph-name="plus.lt" 
d="M28 643v105h171v174h110v-174h171v-105h-171v-174h-110v174h-171z" />
    <glyph glyph-name="minus.lt" 
d="M28 643v105h452v-105h-452z" />
    <glyph glyph-name="divide.lt" 
d="M309 820h-110v153h110v-153zM199 570h110v-152h-110v152zM28 643v105h452v-105h-452z" />
    <glyph glyph-name="equal.lt" 
d="M28 764v104h452v-104h-452zM28 522v105h452v-105h-452z" />
    <glyph glyph-name="less.lt" 
d="M28 640v111l452 170v-110l-321 -116l321 -115v-110z" />
    <glyph glyph-name="greater.lt" 
d="M480 751v-111l-452 -170v110l321 115l-321 116v110z" />
    <glyph glyph-name="plusminus.lt" 
d="M28 595v104h171v174h110v-174h171v-104h-171v-174h-110v174h-171zM28 155v104h452v-104h-452z" />
    <glyph glyph-name="lessequal.lt" 
d="M28 575v111l452 170v-110l-321 -115l321 -116v-109zM28 155v104h452v-104h-452z" />
    <glyph glyph-name="greaterequal.lt" 
d="M480 686v-111l-452 -169v109l321 116l-321 115v110zM480 259v-104h-452v104h452z" />
    <glyph glyph-name="notequal.lt" 
d="M28 764v104h245l50 115h107l-49 -115h99v-104h-143l-58 -137h201v-105h-246l-48 -114h-107l48 114h-99v105h143l58 137h-201z" />
    <glyph glyph-name="approxequal.lt" 
d="M211 914l125 -65q19 -11 35 -11t16 20v84h111v-96q0 -62 -25 -91q-25 -30 -81 -30q-41 0 -95 28l-125 65q-19 11 -35 11t-16 -20v-84h-111v96q0 62 25 91q25 30 81 30q41 0 95 -28zM211 639l125 -66q19 -11 35 -11t16 21v84h111v-97q0 -61 -25 -90q-25 -30 -81 -30
q-42 0 -95 27l-125 66q-19 11 -35 11t-16 -20v-84h-111v96q0 61 25 90q26 31 81 31q41 0 95 -28z" />
    <glyph glyph-name="space.tab" horiz-adv-x="253" 
 />
    <glyph glyph-name="period.tab" horiz-adv-x="253" 
d="M70 0v209h114v-209h-114z" />
    <glyph glyph-name="comma.tab" horiz-adv-x="253" 
d="M70 0v209h114v-180q0 -57 -14 -95l-30 -82h-70l41 148h-41z" />
    <glyph glyph-name="colon.tab" horiz-adv-x="253" 
d="M70 0v209h114v-209h-114zM70 934v209h114v-209h-114z" />
    <glyph glyph-name="semicolon.tab" horiz-adv-x="253" 
d="M70 0v209h114v-180q0 -57 -14 -95l-30 -82h-70l41 148h-41zM70 934v209h114v-209h-114z" />
    <glyph glyph-name="zero_slash.op" horiz-adv-x="512" 
d="M61 229v684q0 115 53 179q52 63 142 63t142 -63q53 -64 53 -179v-684q0 -114 -53 -178q-52 -63 -142 -63t-142 63q-53 64 -53 178zM336 755l-160 -531q0 -71 20 -102q20 -30 60 -30t60 30q20 31 20 102v531zM176 919v-532l160 532q0 70 -20 101t-60 31t-60 -31t-20 -101z
" />
    <glyph glyph-name="zero.op" horiz-adv-x="512" 
d="M61 229v684q0 115 53 179q52 63 142 63t142 -63q53 -64 53 -179v-684q0 -114 -53 -178q-52 -63 -142 -63t-142 63q-53 64 -53 178zM176 919v-695q0 -71 20 -102q20 -30 60 -30t60 30q20 31 20 102v695q0 70 -20 101t-60 31t-60 -31t-20 -101z" />
    <glyph glyph-name="one.op" horiz-adv-x="350" 
d="M287 1143v-1143h-115v938l-141 -26v105q35 4 66 20q30 15 48 33q19 19 30 34q15 21 18 28l4 11h90z" />
    <glyph glyph-name="two.op" horiz-adv-x="499" 
d="M55 0v125q0 66 14 108q15 45 56 113l164 278q27 48 36 75t9 82v138q0 70 -20 101t-62 31t-62 -31t-20 -101v-214h-115v208q0 115 53 179q52 63 144 63t144 -63q53 -64 53 -179v-132q0 -66 -14 -108q-15 -45 -56 -113l-164 -277q-26 -47 -36 -76q-9 -27 -9 -82v-21h279
v-104h-394z" />
    <glyph glyph-name="three.op" horiz-adv-x="505" 
d="M185 530h67q39 0 59 31q19 29 19 102v256q0 72 -19 101q-20 31 -59 31t-59 -31q-19 -29 -19 -101v-214h-115v208q0 115 52 179q51 63 141 63t141 -63t51 -179v-241q0 -132 -65 -194q65 -62 65 -193v-303q0 -116 -51 -179t-141 -63t-141 63q-52 64 -52 179v270h115v-276
q0 -72 19 -101q20 -31 59 -31t59 31q19 29 19 101v318q0 73 -19 102q-19 30 -59 30h-67v104z" />
    <glyph glyph-name="four.op" horiz-adv-x="522" 
d="M29 0v104l223 1039h156v-1039h84v-104h-84v-248h-115v248h-264zM133 104h160v819z" />
    <glyph glyph-name="five.op" 
d="M61 502v641h375v-105h-260v-398q42 94 130 94q62 0 102 -52q38 -50 38 -159v-541q0 -116 -51 -179t-141 -63t-141 63q-52 64 -52 179v346h115v-352q0 -72 19 -101q20 -31 59 -31t59 31q19 29 19 101v522q0 70 -16 102q-15 30 -48 30t-61 -28q-29 -29 -42 -100h-104z" />
    <glyph glyph-name="six.op" 
d="M446 751v-522q0 -115 -51 -178t-141 -63t-141 63q-52 64 -52 178v932q0 115 52 179q51 63 141 63t141 -63t51 -179v-76h-114v81q0 73 -19 102q-20 30 -59 30q-40 0 -59 -30q-19 -29 -19 -102v-299q42 95 130 95q62 0 102 -52q38 -50 38 -159zM332 224v501q0 71 -15 101
q-15 31 -46 31t-55 -29t-32 -58l-8 -29v-517q0 -73 19 -102q19 -30 59 -30t59 30q19 29 19 102z" />
    <glyph glyph-name="seven.op" horiz-adv-x="457" 
d="M425 1143v-80l-274 -1311h-114l269 1286h-263v105h382z" />
    <glyph glyph-name="eight.op" 
d="M61 229v303q0 131 66 194q-66 63 -66 194v241q0 115 52 179q51 63 141 63t141 -63t51 -179v-241q0 -132 -65 -194q65 -62 65 -194v-303q0 -115 -51 -178t-141 -63t-141 63q-52 64 -52 178zM176 542v-318q0 -73 19 -102q19 -30 59 -30t59 30q19 29 19 102v318
q0 73 -19 102q-20 30 -59 30q-40 0 -59 -30q-19 -29 -19 -102zM176 1166v-256q0 -73 19 -102q19 -30 59 -30t59 30q19 29 19 102v256q0 73 -19 102q-20 30 -59 30q-40 0 -59 -30q-19 -29 -19 -102z" />
    <glyph glyph-name="nine.op" 
d="M61 392v521q0 115 52 179q51 63 141 63t141 -63t51 -179v-931q0 -116 -51 -179t-141 -63t-141 63q-52 64 -52 179v75h115v-81q0 -72 19 -101q20 -31 59 -31t59 31q19 29 19 101v299q-42 -94 -130 -94q-62 0 -102 52q-39 51 -39 159zM176 919v-501q0 -72 15 -102t46 -30
t55 29t32 58l8 28v518q0 72 -19 101q-20 31 -59 31t-59 -31q-19 -29 -19 -101z" />
    <glyph glyph-name="multiply.op" horiz-adv-x="516" 
d="M51 671l77 77l130 -131l130 131l77 -77l-130 -130l130 -130l-77 -77l-130 130l-130 -130l-77 77l130 130z" />
    <glyph glyph-name="plus.op" horiz-adv-x="546" 
d="M47 488v105h171v174h111v-174h171v-105h-171v-174h-111v174h-171z" />
    <glyph glyph-name="minus.op" horiz-adv-x="546" 
d="M47 488v105h453v-105h-453z" />
    <glyph glyph-name="divide.op" horiz-adv-x="546" 
d="M329 666h-111v152h111v-152zM218 416h111v-153h-111v153zM47 488v105h453v-105h-453z" />
    <glyph glyph-name="equal.op" horiz-adv-x="546" 
d="M47 609v105h453v-105h-453zM47 368v104h453v-104h-453z" />
    <glyph glyph-name="less.op" horiz-adv-x="546" 
d="M47 485v111l453 170v-110l-322 -115l322 -116v-110z" />
    <glyph glyph-name="greater.op" horiz-adv-x="546" 
d="M500 596v-111l-453 -170v110l322 116l-322 115v110z" />
    <glyph glyph-name="plusminus.op" horiz-adv-x="546" 
d="M47 440v105h171v174h111v-174h171v-105h-171v-174h-111v174h-171zM47 0v104h453v-104h-453z" />
    <glyph glyph-name="lessequal.op" horiz-adv-x="546" 
d="M47 421v110l453 170v-109l-322 -116l322 -116v-109zM47 0v104h453v-104h-453z" />
    <glyph glyph-name="greaterequal.op" horiz-adv-x="546" 
d="M500 531v-110l-453 -170v109l322 116l-322 116v109zM500 104v-104h-453v104h453z" />
    <glyph glyph-name="notequal.op" horiz-adv-x="546" 
d="M47 609v105h246l49 114h108l-50 -114h100v-105h-144l-58 -137h202v-104h-246l-48 -115h-108l48 115h-99v104h143l59 137h-202z" />
    <glyph glyph-name="approxequal.op" horiz-adv-x="581" 
d="M248 760l125 -66q19 -11 35 -11t16 20v84h111v-96q0 -59 -26 -90t-80 -31q-41 0 -95 28l-125 66q-19 11 -35 11t-16 -21v-84h-111v97q0 61 25 90q26 30 81 30q43 0 95 -27zM248 484l125 -65q19 -11 35 -11t16 20v84h111v-96q0 -60 -26 -91q-25 -30 -80 -30q-41 0 -95 28
l-125 65q-19 11 -35 11t-16 -20v-84h-111v96q0 62 25 91q26 30 81 30q41 0 95 -28z" />
    <glyph glyph-name="infinity.op" horiz-adv-x="759" 
d="M23 527v27q0 104 47 163q46 58 126 58q59 0 100 -35q40 -34 84 -108q42 74 82 108q41 35 102 35q80 0 126 -58q47 -59 47 -163v-27q0 -104 -47 -163q-46 -58 -126 -58q-61 0 -102 35q-38 32 -82 108q-43 -74 -83 -108q-41 -35 -101 -35q-80 0 -126 58q-47 59 -47 163z
M460 590l-28 -49l28 -49q32 -55 50 -71q21 -18 50 -18q37 0 56 27q18 26 18 93v35q0 68 -18 94t-56 26q-29 0 -50 -18q-20 -17 -50 -70zM300 492l28 49l-28 49q-29 52 -51 70q-21 18 -49 18q-38 0 -56 -26t-18 -94v-35q0 -67 18 -93q19 -27 56 -27q28 0 49 18q20 18 51 71z
" />
    <glyph glyph-name="zero_slash.ot" 
d="M59 229v684q0 115 53 179q52 63 142 63t142 -63q53 -64 53 -179v-684q0 -114 -53 -178q-52 -63 -142 -63t-142 63q-53 64 -53 178zM334 755l-160 -531q0 -71 20 -102q20 -30 60 -30t60 30q20 31 20 102v531zM174 919v-532l160 532q0 70 -20 101t-60 31t-60 -31t-20 -101z
" />
    <glyph glyph-name="zero.ot" 
d="M59 229v684q0 115 53 179q52 63 142 63t142 -63q53 -64 53 -179v-684q0 -114 -53 -178q-52 -63 -142 -63t-142 63q-53 64 -53 178zM174 919v-695q0 -71 20 -102q20 -30 60 -30t60 30q20 31 20 102v695q0 70 -20 101t-60 31t-60 -31t-20 -101z" />
    <glyph glyph-name="one.ot" 
d="M366 1143v-1143h-115v938l-141 -26v105q35 4 66 20q30 15 48 33q19 19 30 34q11 16 16 28l5 11h91z" />
    <glyph glyph-name="two.ot" 
d="M59 0v125q0 66 14 108q15 45 56 113l164 278q27 48 36 75t9 82v138q0 70 -20 101t-62 31t-62 -31t-20 -101v-214h-115v208q0 115 53 179q52 63 144 63t144 -63q53 -64 53 -179v-132q0 -66 -14 -108q-15 -45 -56 -113l-164 -277q-26 -47 -36 -76q-9 -27 -9 -82v-21h279
v-104h-394z" />
    <glyph glyph-name="three.ot" 
d="M186 530h67q39 0 59 31q19 29 19 102v256q0 72 -19 101q-20 31 -59 31t-59 -31q-19 -29 -19 -101v-214h-115v208q0 115 52 179q51 63 141 63t141 -63t51 -179v-241q0 -132 -65 -194q65 -62 65 -193v-303q0 -116 -51 -179t-141 -63t-141 63q-52 64 -52 179v270h115v-276
q0 -72 19 -101q20 -31 59 -31t59 31q19 29 19 101v318q0 73 -19 102q-20 30 -59 30h-67v104z" />
    <glyph glyph-name="four.ot" 
d="M23 0v104l223 1039h155v-1039h84v-104h-84v-248h-114v248h-264zM127 104h160v819z" />
    <glyph glyph-name="five.ot" 
d="M61 502v641h375v-105h-260v-398q42 94 130 94q62 0 102 -52q38 -50 38 -159v-541q0 -116 -51 -179t-141 -63t-141 63q-52 64 -52 179v346h115v-352q0 -72 19 -101q20 -31 59 -31t59 31q19 29 19 101v522q0 70 -16 102q-15 30 -48 30t-61 -28q-29 -29 -42 -100h-104z" />
    <glyph glyph-name="six.ot" 
d="M446 751v-522q0 -115 -51 -178t-141 -63t-141 63q-52 64 -52 178v932q0 115 52 179q51 63 141 63t141 -63t51 -179v-76h-114v81q0 73 -19 102q-20 30 -59 30q-40 0 -59 -30q-19 -29 -19 -102v-299q42 95 130 95q62 0 102 -52q38 -50 38 -159zM332 224v501q0 71 -15 101
q-15 31 -46 31t-55 -29t-32 -58l-8 -29v-517q0 -73 19 -102q19 -30 59 -30t59 30q19 29 19 102z" />
    <glyph glyph-name="seven.ot" 
d="M451 1143v-80l-275 -1311h-114l270 1286h-263v105h382z" />
    <glyph glyph-name="eight.ot" 
d="M61 229v303q0 131 66 194q-66 63 -66 194v241q0 115 52 179q51 63 141 63t141 -63t51 -179v-241q0 -132 -65 -194q65 -62 65 -194v-303q0 -115 -51 -178t-141 -63t-141 63q-52 64 -52 178zM176 542v-318q0 -73 19 -102q19 -30 59 -30t59 30q19 29 19 102v318
q0 73 -19 102q-20 30 -59 30q-40 0 -59 -30q-19 -29 -19 -102zM176 1166v-256q0 -73 19 -102q19 -30 59 -30t59 30q19 29 19 102v256q0 73 -19 102q-20 30 -59 30q-40 0 -59 -30q-19 -29 -19 -102z" />
    <glyph glyph-name="nine.ot" 
d="M61 392v521q0 115 52 179q51 63 141 63t141 -63t51 -179v-931q0 -116 -51 -179t-141 -63t-141 63q-52 64 -52 179v75h115v-81q0 -72 19 -101q20 -31 59 -31t59 31q19 29 19 101v299q-42 -94 -130 -94q-62 0 -102 52q-39 51 -39 159zM176 919v-501q0 -72 15 -102t46 -30
t55 29t32 58l8 28v518q0 72 -19 101q-20 31 -59 31t-59 -31q-19 -29 -19 -101z" />
    <glyph glyph-name="multiply.ot" 
d="M384 748l77 -77l-130 -130l130 -130l-77 -77l-130 130l-130 -130l-77 77l130 130l-130 130l77 77l130 -131z" />
    <glyph glyph-name="plus.ot" 
d="M28 488v105h171v174h110v-174h171v-105h-171v-174h-110v174h-171z" />
    <glyph glyph-name="minus.ot" 
d="M28 488v105h452v-105h-452z" />
    <glyph glyph-name="divide.ot" 
d="M309 666h-110v152h110v-152zM199 416h110v-153h-110v153zM28 488v105h452v-105h-452z" />
    <glyph glyph-name="equal.ot" 
d="M28 609v105h452v-105h-452zM28 368v104h452v-104h-452z" />
    <glyph glyph-name="less.ot" 
d="M28 485v111l452 170v-110l-321 -115l321 -116v-110z" />
    <glyph glyph-name="greater.ot" 
d="M480 596v-111l-452 -170v110l321 116l-321 115v110z" />
    <glyph glyph-name="plusminus.ot" 
d="M480 545v-105h-171v-174h-110v174h-171v105h171v174h110v-174h171zM480 104v-104h-452v104h452z" />
    <glyph glyph-name="lessequal.ot" 
d="M28 421v110l452 170v-109l-321 -116l321 -116v-109zM28 0v104h452v-104h-452z" />
    <glyph glyph-name="greaterequal.ot" 
d="M480 531v-110l-452 -170v109l321 116l-321 116v109zM480 104v-104h-452v104h452z" />
    <glyph glyph-name="notequal.ot" 
d="M28 609v105h245l50 114h107l-49 -114h99v-105h-143l-58 -137h201v-104h-246l-48 -115h-107l48 115h-99v104h143l58 137h-201z" />
    <glyph glyph-name="approxequal.ot" 
d="M211 760l125 -66q19 -11 35 -11t16 20v84h111v-96q0 -61 -25 -90q-26 -31 -81 -31q-41 0 -95 28l-125 66q-19 11 -35 11t-16 -21v-84h-111v97q0 61 25 90q25 30 81 30q42 0 95 -27zM211 484l125 -65q19 -11 35 -11t16 20v84h111v-96q0 -62 -25 -91q-25 -30 -81 -30
q-41 0 -95 28l-125 65q-19 11 -35 11t-16 -20v-84h-111v96q0 62 25 91q25 30 81 30q41 0 95 -28z" />
    <glyph glyph-name="numero.alt3" horiz-adv-x="977" 
d="M346 0l-172 1077v-1077h-111v1391h152l172 -1078v1078h111v-1391h-152zM612 697v528q0 83 43 131q42 47 112 47q69 0 113 -47q43 -46 43 -131v-528q0 -85 -43 -131q-44 -47 -113 -47q-70 0 -112 47q-43 48 -43 131zM716 1228v-534q0 -83 51 -83q26 0 39 19t13 64v534
q0 45 -13 64t-39 19q-51 0 -51 -83z" />
    <glyph glyph-name="Aringacute.alt" horiz-adv-x="501" 
d="M99 1455q0 63 45 102q44 38 107 38t107 -38t44 -102q0 -79 -67 -119l140 -1336h-109l-28 278h-172l-27 -278h-112l143 1334q-71 41 -71 121zM253 1167l-77 -785h151zM385 1787l-85 -135h-86l28 135h143zM251 1391q26 0 43 16t17 48t-17 48q-19 17 -43 17t-43 -17
q-18 -17 -18 -48t18 -48q17 -16 43 -16z" />
    <glyph glyph-name="doublegrave" horiz-adv-x="489" 
d="M158 1208l-119 222h139l66 -222h-86zM356 1208l-118 222h139l65 -222h-86z" />
    <glyph glyph-name="caronSlovak" horiz-adv-x="216" 
d="M187 1391l-52 -244h-86l12 244h126z" />
    <glyph glyph-name="invertedbreve" horiz-adv-x="413" 
d="M367 1228v-20h-94v19q0 121 -66 121q-67 0 -67 -121v-19h-93v20q0 95 43 149q42 53 117 53t117 -53q43 -54 43 -149z" />
    <glyph glyph-name="altcedilla" horiz-adv-x="309" 
d="M144 -112l-75 143h97l67 -127q29 -56 29 -86q0 -76 -99 -76h-112v99h88q17 0 17 16q0 10 -12 31z" />
    <glyph glyph-name="space_uni0326" horiz-adv-x="219" 
d="M55 -270v204h109v-173q0 -39 -12 -69l-32 -76h-65l41 114h-41z" />
    <glyph glyph-name="dotbelow" horiz-adv-x="235" 
d="M55 -258v179h125v-179h-125z" />
    <glyph glyph-name="space.frac" horiz-adv-x="118" 
 />
    <glyph glyph-name="zero.numr" horiz-adv-x="411" 
d="M57 706v507q0 90 40 137q41 48 109 48t108 -48q40 -47 40 -137v-507q0 -90 -40 -137q-40 -48 -108 -48t-109 48q-40 47 -40 137zM154 1218v-517q0 -92 52 -92t52 92v517q0 92 -52 92t-52 -92z" />
    <glyph glyph-name="one.numr" horiz-adv-x="278" 
d="M219 1391v-863h-96v711l-96 -14v88q42 5 70 24q30 20 38 37l9 17h75z" />
    <glyph glyph-name="two.numr" horiz-adv-x="395" 
d="M348 1167q0 -80 -31 -142l-152 -297q-18 -34 -18 -106v-6h201v-88h-297v94q0 88 30 146l152 296q19 40 19 103v51q0 92 -52 92q-53 0 -53 -92v-106h-96v100q0 90 40 137q41 49 109 49q67 0 108 -49q40 -47 40 -137v-45z" />
    <glyph glyph-name="three.numr" horiz-adv-x="411" 
d="M151 1022h55q52 0 52 92v104q0 92 -52 92t-52 -92v-106h-97v101q0 90 40 137q41 48 109 48t108 -48q40 -47 40 -137v-84q0 -102 -55 -151q55 -49 55 -152v-120q0 -90 -40 -137q-40 -48 -108 -48t-109 48q-40 47 -40 137v138h97v-143q0 -92 52 -92t52 92v141q0 92 -52 92
h-55v88z" />
    <glyph glyph-name="four.numr" horiz-adv-x="421" 
d="M33 670v88l168 633h123v-633h63v-88h-63v-142h-97v142h-194zM118 758h109v464z" />
    <glyph glyph-name="five.numr" horiz-adv-x="411" 
d="M57 991v400h290v-88h-189v-196q32 53 89 53q48 0 78 -40q29 -39 29 -123v-291q0 -90 -40 -137q-40 -48 -108 -48t-109 48q-40 47 -40 137v185h101v-190q0 -52 11 -71q12 -21 37 -21t37 21q11 19 11 71v276q0 95 -41 95q-19 0 -37 -18q-19 -19 -26 -63h-93z" />
    <glyph glyph-name="six.numr" horiz-adv-x="411" 
d="M354 942v-236q0 -90 -40 -137q-40 -48 -108 -48t-109 48q-40 47 -40 137v507q0 90 40 137q41 48 109 48t108 -48q40 -47 40 -137v-37h-96v42q0 92 -52 92t-52 -92v-184q30 71 92 71q49 0 79 -40q29 -39 29 -123zM258 701v221q0 95 -39 95q-21 0 -38 -21t-21 -41l-6 -20
v-234q0 -92 52 -92t52 92z" />
    <glyph glyph-name="seven.numr" horiz-adv-x="360" 
d="M332 1391v-73l-200 -790h-99l195 775h-191v88h295z" />
    <glyph glyph-name="eight.numr" horiz-adv-x="411" 
d="M57 707v130q0 95 51 141q-51 45 -51 141v93q0 90 40 137q41 49 109 49q67 0 108 -49q40 -47 40 -137v-93q0 -97 -50 -141q50 -45 50 -141v-130q0 -90 -40 -137q-41 -49 -108 -49q-68 0 -109 49q-40 47 -40 137zM254 701v141q0 52 -11 71q-12 21 -37 21t-37 -21
q-11 -19 -11 -71v-141q0 -52 11 -71q12 -21 37 -21t37 21q11 19 11 71zM158 1218v-104q0 -53 11 -72q11 -20 37 -20t37 20q11 19 11 72v104q0 52 -11 71q-12 21 -37 21t-37 -21q-11 -19 -11 -71z" />
    <glyph glyph-name="nine.numr" horiz-adv-x="411" 
d="M57 977v236q0 90 40 137q41 48 109 48t108 -48q40 -47 40 -137v-507q0 -90 -40 -137q-40 -48 -108 -48t-109 48q-40 47 -40 137v37h97v-42q0 -92 52 -92t52 92v184q-30 -71 -92 -71q-49 0 -79 40t-30 123zM154 1218v-221q0 -95 39 -95q21 0 37 21q18 23 22 41l6 20v234
q0 92 -52 92t-52 -92z" />
    <glyph glyph-name="zero.dnom" horiz-adv-x="411" 
d="M57 177v508q0 89 40 136q40 48 109 48q68 0 108 -48q40 -47 40 -136v-508q0 -89 -40 -136q-40 -48 -108 -48t-109 48q-40 47 -40 136zM154 689v-516q0 -92 52 -92t52 92v516q0 92 -52 92t-52 -92z" />
    <glyph glyph-name="one.dnom" horiz-adv-x="282" 
d="M219 862v-862h-96v711l-96 -15v88q23 3 47 13q22 10 34 20q13 12 22 22q8 9 11 17l3 6h75z" />
    <glyph glyph-name="two.dnom" horiz-adv-x="395" 
d="M348 639q0 -80 -31 -142l-152 -297q-18 -34 -18 -107v-5h201v-88h-297v93q0 89 30 147l152 296q19 40 19 103v50q0 92 -52 92q-53 0 -53 -92v-105h-96v100q0 90 40 137q41 48 109 48t108 -48q40 -47 40 -137v-45z" />
    <glyph glyph-name="three.dnom" horiz-adv-x="411" 
d="M151 494h55q52 0 52 92v103q0 92 -52 92t-52 -92v-105h-97v101q0 89 40 136q40 48 109 48q68 0 108 -48q40 -47 40 -136v-84q0 -102 -55 -151q55 -49 55 -152v-121q0 -89 -40 -136q-40 -48 -108 -48t-109 48q-40 47 -40 136v138h97v-142q0 -92 52 -92t52 92v140
q0 93 -52 93h-55v88z" />
    <glyph glyph-name="four.dnom" horiz-adv-x="421" 
d="M33 141v88l168 633h123v-633h63v-88h-63v-141h-97v141h-194zM118 229h109v464z" />
    <glyph glyph-name="five.dnom" horiz-adv-x="411" 
d="M57 463v399h290v-88h-189v-195q32 53 89 53q48 0 78 -40q29 -39 29 -123v-292q0 -89 -40 -136q-40 -48 -108 -48t-109 48q-40 47 -40 136v185h101v-189q0 -53 11 -72q11 -20 37 -20t37 20q11 19 11 72v276q0 95 -41 95q-19 0 -37 -18q-19 -19 -26 -63h-93z" />
    <glyph glyph-name="six.dnom" horiz-adv-x="411" 
d="M354 414v-237q0 -89 -40 -136q-40 -48 -108 -48t-109 48q-40 47 -40 136v508q0 89 40 136q40 48 109 48q68 0 108 -48q40 -47 40 -136v-38h-96v42q0 92 -52 92t-52 -92v-183q30 71 92 71q49 0 79 -40q29 -39 29 -123zM258 173v220q0 95 -39 95q-22 0 -38 -20
q-17 -21 -21 -41l-6 -20v-234q0 -92 52 -92t52 92z" />
    <glyph glyph-name="seven.dnom" horiz-adv-x="360" 
d="M332 862v-72l-200 -790h-99l195 774h-191v88h295z" />
    <glyph glyph-name="eight.dnom" horiz-adv-x="411" 
d="M57 178v130q0 96 51 142q-51 45 -51 141v93q0 90 40 137q40 48 109 48q68 0 108 -48q40 -47 40 -137v-93q0 -97 -50 -141q50 -45 50 -142v-130q0 -90 -40 -137q-40 -48 -108 -48t-109 48q-40 47 -40 137zM254 173v140q0 53 -11 72q-12 21 -37 21t-37 -21q-11 -19 -11 -72
v-140q0 -53 11 -72q11 -20 37 -20t37 20q11 19 11 72zM158 689v-103q0 -53 11 -72q11 -20 37 -20t37 20q11 19 11 72v103q0 53 -11 72q-11 20 -37 20t-37 -20q-11 -19 -11 -72z" />
    <glyph glyph-name="nine.dnom" horiz-adv-x="411" 
d="M57 449v236q0 89 40 136q40 48 109 48q68 0 108 -48q40 -47 40 -136v-508q0 -89 -40 -136q-40 -48 -108 -48t-109 48q-40 47 -40 136v38h97v-42q0 -92 52 -92t52 92v183q-30 -70 -92 -70q-49 0 -79 40t-30 123zM154 689v-220q0 -95 39 -95q21 0 37 20q18 23 22 41l6 21
v233q0 92 -52 92t-52 -92z" />
    <glyph glyph-name="zero.inf" horiz-adv-x="411" 
d="M57 42v508q0 89 40 136q40 48 109 48q68 0 108 -48q40 -47 40 -136v-508q0 -89 -40 -136q-40 -48 -108 -48t-109 48q-40 47 -40 136zM154 554v-516q0 -92 52 -92t52 92v516q0 92 -52 92t-52 -92z" />
    <glyph glyph-name="one.inf" horiz-adv-x="282" 
d="M219 727v-862h-96v710l-96 -14v88q23 3 47 13q22 10 34 20q17 15 22 21q7 8 11 18l3 6h75z" />
    <glyph glyph-name="two.inf" horiz-adv-x="395" 
d="M348 504q0 -81 -31 -143l-152 -296q-18 -34 -18 -107v-5h201v-88h-297v93q0 87 30 146l152 296q19 40 19 104v50q0 92 -52 92q-53 0 -53 -92v-105h-96v100q0 90 40 137q41 48 109 48t108 -48q40 -47 40 -137v-45z" />
    <glyph glyph-name="three.inf" horiz-adv-x="411" 
d="M151 358h55q52 0 52 93v103q0 92 -52 92t-52 -92v-105h-97v101q0 89 40 136q40 48 109 48q68 0 108 -48q40 -47 40 -136v-84q0 -103 -55 -152q55 -49 55 -151v-121q0 -89 -40 -136q-40 -48 -108 -48t-109 48q-40 47 -40 136v138h97v-142q0 -92 52 -92t52 92v140
q0 92 -52 92h-55v88z" />
    <glyph glyph-name="four.inf" horiz-adv-x="421" 
d="M33 6v88l168 633h123v-633h63v-88h-63v-141h-97v141h-194zM118 94h109v464z" />
    <glyph glyph-name="five.inf" horiz-adv-x="411" 
d="M57 328v399h290v-88h-189v-196q32 54 89 54q48 0 78 -40q29 -39 29 -123v-292q0 -89 -40 -136q-40 -48 -108 -48t-109 48q-40 47 -40 136v185h101v-189q0 -53 11 -72q11 -20 37 -20t37 20q11 19 11 72v275q0 96 -41 96q-19 0 -37 -18q-19 -19 -26 -63h-93z" />
    <glyph glyph-name="six.inf" horiz-adv-x="411" 
d="M354 279v-237q0 -89 -40 -136q-40 -48 -108 -48t-109 48q-40 47 -40 136v508q0 89 40 136q40 48 109 48q68 0 108 -48q40 -47 40 -136v-38h-96v42q0 92 -52 92t-52 -92v-183q30 70 92 70q49 0 79 -40q29 -39 29 -122zM258 38v220q0 95 -39 95q-22 0 -38 -20
q-17 -21 -21 -41l-6 -21v-233q0 -92 52 -92t52 92z" />
    <glyph glyph-name="seven.inf" horiz-adv-x="360" 
d="M332 727v-73l-200 -789h-99l195 774h-191v88h295z" />
    <glyph glyph-name="eight.inf" horiz-adv-x="411" 
d="M57 43v130q0 95 51 141q-51 45 -51 142v93q0 90 40 137q40 48 109 48q68 0 108 -48q40 -47 40 -137v-93q0 -98 -50 -142q50 -45 50 -141v-130q0 -90 -40 -137q-40 -48 -108 -48t-109 48q-40 47 -40 137zM254 38v140q0 53 -11 72q-11 20 -37 20t-37 -20q-11 -19 -11 -72
v-140q0 -53 11 -72q11 -20 37 -20t37 20q11 19 11 72zM158 554v-103q0 -53 11 -72q12 -21 37 -21t37 21q11 19 11 72v103q0 53 -11 72q-11 20 -37 20t-37 -20q-11 -19 -11 -72z" />
    <glyph glyph-name="nine.inf" horiz-adv-x="411" 
d="M57 313v237q0 89 40 136q40 48 109 48q68 0 108 -48q40 -47 40 -136v-508q0 -89 -40 -136q-40 -48 -108 -48t-109 48q-40 47 -40 136v38h97v-42q0 -92 52 -92t52 92v183q-30 -70 -92 -70q-50 0 -79 39q-30 40 -30 123zM154 554v-220q0 -95 39 -95q21 0 37 20q18 23 22 41
l6 21v233q0 92 -52 92t-52 -92z" />
    <glyph glyph-name="hyphen.cap" horiz-adv-x="372" 
d="M47 643v105h279v-105h-279z" />
    <glyph glyph-name="endash.cap" horiz-adv-x="628" 
d="M47 643v105h535v-105h-535z" />
    <glyph glyph-name="emdash.cap" horiz-adv-x="1050" 
d="M47 643v105h957v-105h-957z" />
    <glyph glyph-name="uni2011.cap" horiz-adv-x="372" 
d="M47 643v105h279v-105h-279z" />
    <glyph glyph-name="figuredash.cap" horiz-adv-x="628" 
d="M47 643v105h535v-105h-535z" />
    <glyph glyph-name="uni2015.cap" horiz-adv-x="1050" 
d="M47 643v105h957v-105h-957z" />
    <glyph glyph-name="exclamdown.cap" horiz-adv-x="238" 
d="M55 0l26 1109h77l25 -1109h-128zM63 1182v209h111v-209h-111z" />
    <glyph glyph-name="questiondown.cap" horiz-adv-x="495" 
d="M297 1109v-92q0 -85 -7 -120q-8 -37 -30 -87l-63 -141q-16 -34 -20 -64q-5 -33 -5 -102v-279q0 -132 83 -132t83 132v324h115v-319q0 -114 -55 -178q-54 -63 -143 -63t-143 63q-55 64 -55 178v274q0 93 9 136q9 46 32 88l77 150q26 52 31 71q7 26 7 69v92h84zM310 1391
v-209h-110v209h110z" />
    <glyph glyph-name="at.cap" horiz-adv-x="791" 
d="M222 595q0 41 5 73q4 27 22 53q18 27 34 41q24 22 54 46l90 72q15 12 21 18t12 18t6 28v68q0 67 -17 96t-54 29q-35 0 -53 -29q-17 -27 -17 -96v-123h-103v119q0 107 47 168q47 60 126 60q81 0 127 -60q47 -61 47 -168v-743q0 -33 12 -48t40 -15h26q28 0 40 15
q11 14 11 48v877q0 93 -65 160q-64 65 -158 65h-159q-94 0 -158 -65q-65 -67 -65 -160v-893q0 -93 65 -160q64 -65 158 -65h310v-36h-310q-107 0 -184 77t-77 184v893q0 107 77 184t184 77h159q107 0 184 -77t77 -184v-877q0 -49 -24 -74t-65 -25h-57q-52 0 -78 19t-37 68
q-37 -98 -123 -98q-58 0 -94 49q-36 50 -36 150v241zM325 624v-245q0 -125 56 -125q28 0 49 24q22 25 29 47l8 23q-1 14 -1 37v410l-106 -90q-35 -29 -35 -81z" />
    <glyph glyph-name="guillemotleft.cap" horiz-adv-x="497" 
d="M159 343l-132 352l132 353h107l-132 -353l132 -352h-107zM357 343l-132 352l132 353h108l-132 -353l132 -352h-108z" />
    <glyph glyph-name="guillemotright.cap" horiz-adv-x="497" 
d="M471 695l-132 -352h-108l133 352l-133 353h108zM272 695l-132 -352h-107l132 352l-132 353h107z" />
    <glyph glyph-name="guilsinglleft.cap" horiz-adv-x="299" 
d="M159 343l-132 352l132 353h107l-132 -353l132 -352h-107z" />
    <glyph glyph-name="guilsinglright.cap" horiz-adv-x="299" 
d="M272 695l-132 -352h-107l132 352l-132 353h107z" />
    <glyph glyph-name="periodcentered.cap" horiz-adv-x="221" 
d="M53 591v209h115v-209h-115z" />
    <glyph glyph-name="bullet.cap" horiz-adv-x="442" 
d="M53 663v5q0 88 47 138t121 50t121 -50t47 -138v-5q0 -89 -47 -139t-121 -50t-121 50t-47 139z" />
    <glyph glyph-name="registered.cap" horiz-adv-x="791" 
d="M736 1142v-893q0 -107 -77 -184t-184 -77h-159q-107 0 -184 77t-77 184v893q0 107 77 184t184 77h159q107 0 184 -77t77 -184zM93 1142v-893q0 -93 65 -160q64 -65 158 -65h159q94 0 158 65q65 67 65 160v893q0 93 -65 160q-64 65 -158 65h-159q-94 0 -158 -65
q-65 -67 -65 -160zM588 167h-114q-15 41 -15 151v178q0 108 -86 108h-29v-437h-115v1057h144q90 0 145 -58t55 -161v-155q0 -138 -96 -194q96 -56 96 -192v-142q0 -32 4 -84q2 -30 7 -56zM344 1119v-409h29q86 0 86 108v192q0 109 -86 109h-29z" />
    <glyph glyph-name="plus.cap" horiz-adv-x="546" 
d="M47 643v105h171v174h111v-174h171v-105h-171v-174h-111v174h-171z" />
    <glyph glyph-name="minus.cap" horiz-adv-x="546" 
d="M47 643v105h453v-105h-453z" />
    <glyph glyph-name="asciitilde.cap" horiz-adv-x="581" 
d="M248 778l125 -65q21 -12 35 -12q16 0 16 21v84h111v-100q0 -60 -26 -91q-25 -30 -80 -30q-43 0 -95 27l-125 66q-19 11 -35 11t-16 -20v-84h-111v100q0 62 25 91q26 30 81 30q41 0 95 -28z" />
    <glyph glyph-name="divide.cap" horiz-adv-x="546" 
d="M329 820h-111v153h111v-153zM218 570h111v-152h-111v152zM47 643v105h453v-105h-453z" />
    <glyph glyph-name="equal.cap" horiz-adv-x="546" 
d="M47 764v104h453v-104h-453zM47 522v105h453v-105h-453z" />
    <glyph glyph-name="less.cap" horiz-adv-x="546" 
d="M47 640v111l453 170v-110l-322 -116l322 -115v-110z" />
    <glyph glyph-name="greater.cap" horiz-adv-x="546" 
d="M500 751v-111l-453 -170v110l322 115l-322 116v110z" />
    <glyph glyph-name="plusminus.cap" horiz-adv-x="546" 
d="M47 776v105h171v174h111v-174h171v-105h-171v-174h-111v174h-171zM47 336v104h453v-104h-453z" />
    <glyph glyph-name="lessequal.cap" horiz-adv-x="546" 
d="M47 766v111l453 170v-110l-322 -116l322 -115v-110zM47 345v105h453v-105h-453z" />
    <glyph glyph-name="greaterequal.cap" horiz-adv-x="546" 
d="M500 877v-111l-453 -170v110l322 115l-322 116v110zM500 450v-105h-453v105h453z" />
    <glyph glyph-name="notequal.cap" horiz-adv-x="546" 
d="M47 764v104h246l49 115h108l-50 -115h100v-104h-144l-58 -137h202v-105h-246l-48 -114h-108l48 114h-99v105h143l59 137h-202z" />
    <glyph glyph-name="approxequal.cap" horiz-adv-x="581" 
d="M248 914l125 -65q19 -11 35 -11t16 20v84h111v-96q0 -60 -26 -91q-25 -30 -80 -30q-41 0 -95 28l-125 65q-19 11 -35 11t-16 -20v-84h-111v96q0 62 25 91q26 30 81 30q41 0 95 -28zM248 639l125 -66q19 -11 35 -11t16 21v84h111v-97q0 -59 -26 -90q-25 -30 -80 -30
q-43 0 -95 27l-125 66q-19 11 -35 11t-16 -20v-84h-111v96q0 61 25 90q26 31 81 31q41 0 95 -28z" />
    <glyph glyph-name="logicalnot.cap" horiz-adv-x="546" 
d="M47 643v105h453v-279h-111v174h-342z" />
    <glyph glyph-name="infinity.cap" horiz-adv-x="759" 
d="M23 682v27q0 104 47 163q46 58 126 58q59 0 100 -35q39 -33 84 -109q44 76 82 109q41 35 102 35q80 0 126 -58q47 -59 47 -163v-27q0 -104 -47 -163q-46 -58 -126 -58q-61 0 -102 35q-39 33 -82 107q-42 -72 -83 -107t-101 -35q-80 0 -126 58q-47 59 -47 163zM460 744
l-28 -49l28 -49q32 -55 50 -71q20 -17 50 -17q38 0 56 26t18 94v35q0 67 -18 93q-19 27 -56 27q-29 0 -50 -18q-18 -16 -50 -71zM300 646l28 49l-28 49q-31 53 -51 71q-21 18 -49 18q-37 0 -56 -27q-18 -26 -18 -93v-35q0 -68 18 -94t56 -26q29 0 49 17q20 18 51 71z" />
    <glyph glyph-name="anoteleia.cap" horiz-adv-x="221" 
d="M53 591v209h115v-209h-115z" />
    <glyph glyph-name="dotmath.cap" horiz-adv-x="221" 
d="M53 591v209h115v-209h-115z" />
    <glyph glyph-name="acute.cap" horiz-adv-x="294" 
d="M256 1677l-119 -221h-90l66 221h143z" />
    <glyph glyph-name="grave.cap" horiz-adv-x="294" 
d="M158 1456l-119 221h143l66 -221h-90z" />
    <glyph glyph-name="doublegrave.cap" horiz-adv-x="489" 
d="M158 1456l-119 221h139l66 -221h-86zM356 1456l-118 221h139l65 -221h-86z" />
    <glyph glyph-name="circumflex.cap" horiz-adv-x="423" 
d="M295 1456l-83 114l-83 -114h-90l105 221h136l105 -221h-90z" />
    <glyph glyph-name="dieresis.cap" horiz-adv-x="415" 
d="M55 1456v198h111v-198h-111zM250 1456v198h110v-198h-110z" />
    <glyph glyph-name="tilde.cap" horiz-adv-x="454" 
d="M267 1478l-81 48q-17 10 -24 10q-11 0 -11 -15v-65h-100v114q0 86 68 86q29 0 68 -24l81 -48q17 -10 25 -10q11 0 11 15v65h99v-114q0 -86 -67 -86q-30 0 -69 24z" />
    <glyph glyph-name="ring.cap" horiz-adv-x="405" 
d="M51 1587q0 63 45 102q44 38 107 38t107 -38t44 -102t-44 -102t-107 -38t-107 38q-45 39 -45 102zM203 1523q26 0 43 16t17 48t-17 48q-19 17 -43 17t-43 -17q-18 -17 -18 -48t18 -48q17 -16 43 -16z" />
    <glyph glyph-name="caron.cap" horiz-adv-x="423" 
d="M212 1564l83 113h90l-105 -221h-136l-105 221h90z" />
    <glyph glyph-name="macron.cap" horiz-adv-x="436" 
d="M55 1478v104h326v-104h-326z" />
    <glyph glyph-name="breve.cap" horiz-adv-x="413" 
d="M367 1673v-19q0 -95 -43 -149q-42 -53 -117 -53t-117 53q-43 54 -43 149v19h93v-18q0 -121 67 -121q66 0 66 121v18h94z" />
    <glyph glyph-name="invertedbreve.cap" horiz-adv-x="413" 
d="M367 1476v-20h-94v19q0 120 -66 120q-67 0 -67 -120v-19h-93v20q0 95 43 149q42 52 117 52t117 -52q43 -54 43 -149z" />
    <glyph glyph-name="dotaccent.cap" horiz-adv-x="235" 
d="M55 1456v179h125v-179h-125z" />
    <glyph glyph-name="hungarumlaut.cap" horiz-adv-x="489" 
d="M451 1677l-119 -221h-86l65 221h140zM252 1677l-119 -221h-86l66 221h139z" />
    <glyph glyph-name="hcircumflex.alt2" horiz-adv-x="487" 
d="M430 0v944q0 109 -38 159q-40 52 -100 52q-84 0 -126 -91v327h-109v-1391h109v935q1 3 3 13q0 2 10 27q6 17 18 36q9 15 27 27q19 13 37 13q31 0 46 -31q15 -30 15 -101v-919h108zM285 1456l-83 114l-83 -114h-90l105 221h135l106 -221h-90z" />
    <glyph glyph-name="multiply.cap" horiz-adv-x="516" 
d="M51 825l77 77l130 -130l130 130l77 -77l-130 -130l130 -130l-77 -77l-130 130l-130 -130l-77 77l130 130z" />
    </font>
</defs>
</svg>
