<?xml version="1.0" standalone="no"?>
<!DOCTYPE svg PUBLIC "-//W3C//DTD SVG 1.1//EN" "http://www.w3.org/Graphics/SVG/1.1/DTD/svg11.dtd" >
<svg xmlns="http://www.w3.org/2000/svg" xmlns:xlink="http://www.w3.org/1999/xlink" version="1.1">
<metadata>
Created by FontForge 20201107 at Sun Jun  2 09:40:01 2024
 By 
Copyright 2012 AE Type. http://www.aetype.com Administration Contact: info@aetype.com
</metadata>
<defs>
<font id="Sorren-Bold" horiz-adv-x="520" >
  <font-face 
    font-family="Sorren-Bold"
    font-weight="400"
    font-stretch="normal"
    units-per-em="2048"
    panose-1="2 0 8 8 5 0 0 2 0 4"
    ascent="1714"
    descent="-334"
    x-height="1143"
    cap-height="1391"
    bbox="-93 -384 1167 1903"
    underline-thickness="71"
    underline-position="-91"
    unicode-range="U+0020-FB04"
  />
<missing-glyph horiz-adv-x="619" 
d="M51 0v1391h518v-1391h-518zM81 1361v-1331h458v1331h-458z" />
    <glyph glyph-name="AE" unicode="AE" horiz-adv-x="662" 
d="M633 1391v-160h-255l45 -450h180v-159h-164l47 -462h147v-160h-299l-18 231h-114l-17 -231h-174l145 1391h477zM261 1057l-48 -675h93z" />
    <glyph glyph-name="ae" unicode="ae" horiz-adv-x="735" 
d="M40 480q0 93 23 135q25 45 98 91l86 55q24 15 32 29q7 13 7 47v82q0 42 -11 59t-30 17q-20 0 -31 -17q-10 -16 -10 -59v-127h-164v121q0 113 57 178q57 64 148 64q74 0 123 -40q49 40 122 40q91 0 148 -64q57 -65 57 -178v-449h-245v-240q0 -77 40 -77q41 0 41 77v161
h164v-156q0 -112 -57 -177q-57 -64 -148 -64q-117 0 -172 97q-42 -97 -138 -97q-66 0 -102 54q-38 56 -38 151v287zM204 489v-259q0 -76 39 -76q13 0 24 10q12 10 16 20l5 10q-2 16 -2 35v388l-54 -49q-17 -16 -23 -32q-5 -14 -5 -47zM450 919v-309h81v309q0 43 -10 59
q-11 17 -31 17q-19 0 -30 -17q-10 -16 -10 -59z" />
    <glyph glyph-name="OE" unicode="OE" horiz-adv-x="694" 
d="M340 0q-34 -12 -78 -12q-97 0 -157 64q-59 63 -59 177v932q0 115 59 178q60 64 157 64q44 0 78 -12h325v-160h-187v-450h157v-159h-157v-462h187v-160h-325zM216 1166v-942q0 -77 46 -77t46 77v942q0 77 -46 77t-46 -77z" />
    <glyph glyph-name="oe" unicode="oe" horiz-adv-x="747" 
d="M40 229v684q0 113 59 178q58 64 152 64q80 0 130 -49q49 49 122 49q91 0 148 -64q57 -65 57 -178v-449h-246v-240q0 -77 41 -77t41 77v161h164v-156q0 -112 -57 -177q-57 -64 -148 -64q-76 0 -122 49q-49 -49 -130 -49q-94 0 -152 64q-59 65 -59 177zM204 919v-695
q0 -77 47 -77t47 77v695q0 43 -12 59q-12 17 -35 17t-35 -17q-12 -16 -12 -59zM462 919v-309h82v309q0 43 -10 59q-11 17 -31 17t-31 -17q-10 -16 -10 -59z" />
    <glyph glyph-name="ff" unicode="ff" horiz-adv-x="751" 
d="M9 975v168h65v49q0 199 202 199h95v-160h-80q-53 0 -53 -52v-36h108v-168h-108v-975h-164v975h-65zM385 975v168h65v49q0 199 202 199h94v-160h-79q-54 0 -54 -52v-36h109v-168h-109v-975h-163v975h-65z" />
    <glyph glyph-name="fi" unicode="fi" horiz-adv-x="623" 
d="M418 0v1143h164v-1143h-164zM418 1213v178h164v-178h-164zM9 975v168h65v49q0 199 202 199h95v-160h-80q-53 0 -53 -52v-36h108v-168h-108v-975h-164v975h-65z" />
    <glyph glyph-name="fl" unicode="fl" horiz-adv-x="623" 
d="M418 0v1391h164v-1391h-164zM9 975v168h65v49q0 199 202 199h95v-160h-80q-53 0 -53 -52v-36h108v-168h-108v-975h-164v975h-65z" />
    <glyph glyph-name="ffi" unicode="ffi" horiz-adv-x="999" 
d="M794 0v1143h163v-1143h-163zM794 1213v178h163v-178h-163zM9 975v168h65v49q0 199 202 199h95v-160h-80q-53 0 -53 -52v-36h108v-168h-108v-975h-164v975h-65zM385 975v168h65v49q0 199 202 199h94v-160h-79q-54 0 -54 -52v-36h109v-168h-109v-975h-163v975h-65z" />
    <glyph glyph-name="ffl" unicode="ffl" horiz-adv-x="999" 
d="M794 0v1391h163v-1391h-163zM9 975v168h65v49q0 199 202 199h95v-160h-80q-53 0 -53 -52v-36h108v-168h-108v-975h-164v975h-65zM385 975v168h65v49q0 199 202 199h94v-160h-79q-54 0 -54 -52v-36h109v-168h-109v-975h-163v975h-65z" />
    <glyph glyph-name="fj" unicode="fj" horiz-adv-x="623" 
d="M418 1213v178h164v-178h-164zM582 -36q0 -119 -61 -176q-61 -56 -170 -58v159q34 1 50 16q17 15 17 52v1186h164v-1179zM9 975v168h65v49q0 199 202 199h95v-160h-80q-53 0 -53 -52v-36h108v-168h-108v-975h-164v975h-65z" />
    <glyph glyph-name="ffj" unicode="ffj" horiz-adv-x="999" 
d="M794 1213v178h163v-178h-163zM957 -36q0 -120 -60 -176q-61 -56 -170 -58v159q34 1 50 16q17 15 17 52v1186h163v-1179zM9 975v168h65v49q0 199 202 199h95v-160h-80q-53 0 -53 -52v-36h108v-168h-108v-975h-164v975h-65zM385 975v168h65v49q0 199 202 199h94v-160h-79
q-54 0 -54 -52v-36h109v-168h-109v-975h-163v975h-65z" />
    <glyph glyph-name=".notdef" horiz-adv-x="619" 
d="M51 0v1391h518v-1391h-518zM81 1361v-1331h458v1331h-458z" />
    <glyph glyph-name=".null" horiz-adv-x="0" 
 />
    <glyph glyph-name="nonmarkingreturn" horiz-adv-x="681" 
 />
    <glyph glyph-name="space" unicode=" " horiz-adv-x="176" 
 />
    <glyph glyph-name="exclam" unicode="!" horiz-adv-x="249" 
d="M63 303l-30 1088h185l-31 -1088h-124zM45 0v249h160v-249h-160z" />
    <glyph glyph-name="quotedbl" unicode="&#x22;" horiz-adv-x="437" 
d="M226 1391l-92 -430h-100l28 430h164zM424 1391l-92 -430h-101l29 430h164z" />
    <glyph glyph-name="numbersign" unicode="#" horiz-adv-x="671" 
d="M67 784v140h112l70 467h148l-69 -467h85l69 467h148l-70 -467h92v-140h-112l-27 -178h92v-139h-112l-70 -467h-148l70 467h-85l-70 -467h-148l70 467h-93v139h113l27 178h-92zM307 784l-26 -178h85l26 178h-85z" />
    <glyph glyph-name="dollar" unicode="$" horiz-adv-x="505" 
d="M171 -111v113q-61 24 -95 82t-34 145v288h170v-293q0 -77 41 -77t41 77v244q0 36 -6 54q-6 17 -26 39l-145 166q-45 51 -61 98q-14 42 -14 130v206q0 87 34 145t95 82v117h164v-117q61 -24 95 -82t34 -145v-278h-170v283q0 77 -41 77t-41 -77v-231q0 -36 6 -54
q6 -17 26 -39l145 -166q45 -51 61 -98q14 -42 14 -131v-218q0 -87 -34 -145t-95 -82v-113h-164z" />
    <glyph glyph-name="percent" unicode="%" horiz-adv-x="802" 
d="M167 0l341 1391h129l-341 -1391h-129zM38 718v490q0 93 49 143q50 52 127 52q81 0 129 -51t48 -144v-490q0 -93 -48 -144t-129 -51q-77 0 -127 52q-49 50 -49 143zM181 1211v-496q0 -58 33 -58q35 0 35 58v496q0 58 -35 58q-33 0 -33 -58zM412 183v490q0 93 49 143
q50 51 127 51q80 0 128 -51q49 -52 49 -143v-490q0 -92 -49 -144q-48 -51 -128 -51q-77 0 -127 51q-49 50 -49 144zM555 676v-497q0 -57 33 -57q35 0 35 57v497q0 57 -35 57q-33 0 -33 -57z" />
    <glyph glyph-name="ampersand" unicode="&#x26;" horiz-adv-x="573" 
d="M57 1103v58q0 114 59 178t153 64q95 0 154 -64q58 -62 58 -178v-164h-170v169q0 44 -10 60q-11 17 -32 17q-20 0 -31 -17t-11 -60v-63q0 -59 7 -91q8 -34 27 -87l105 -291l43 263h147l-90 -545l127 -352h-172l-26 70q-49 -82 -152 -82q-95 0 -153 64t-58 177v222
q0 105 9 150q8 42 40 96l50 86l-33 91q-22 64 -31 110q-10 53 -10 119zM202 469v-245q0 -44 10 -60q11 -17 32 -17q20 0 34 18t21 64l11 70l-102 276q-6 -30 -6 -106z" />
    <glyph glyph-name="quotesingle" unicode="'" horiz-adv-x="239" 
d="M226 1391l-92 -430h-100l28 430h164z" />
    <glyph glyph-name="parenleft" unicode="(" horiz-adv-x="349" 
d="M206 116q0 -64 48 -64h72v-132h-74q-86 0 -142 59t-56 163v1094q0 104 56 163t142 59h74v-132h-72q-48 0 -48 -63v-1147z" />
    <glyph glyph-name="parenright" unicode=")" horiz-adv-x="349" 
d="M143 116v1147q0 63 -48 63h-71v132h73q87 0 143 -59q55 -58 55 -163v-1094q0 -105 -55 -163q-56 -59 -143 -59h-73v132h71q48 0 48 64z" />
    <glyph glyph-name="asterisk" unicode="*" horiz-adv-x="530" 
d="M505 1188l-162 -84l162 -84l-55 -118l-140 118l18 -215h-125l18 216l-139 -119l-56 118l160 84l-160 84l56 118l139 -118l-18 215h125l-18 -214l140 117z" />
    <glyph glyph-name="plus" unicode="+" horiz-adv-x="559" 
d="M32 461v160h170v167h156v-167h169v-160h-169v-168h-156v168h-170z" />
    <glyph glyph-name="comma" unicode="," horiz-adv-x="241" 
d="M38 0v249h166v-179q0 -52 -6 -82q-7 -33 -22 -65l-41 -83h-97l51 160h-51z" />
    <glyph glyph-name="hyphen" unicode="-" horiz-adv-x="385" 
d="M32 461v160h321v-160h-321z" />
    <glyph glyph-name="period" unicode="." horiz-adv-x="241" 
d="M38 0v249h166v-249h-166z" />
    <glyph glyph-name="slash" unicode="/" horiz-adv-x="393" 
d="M7 0l232 1391h147l-230 -1391h-149z" />
    <glyph glyph-name="zero" unicode="0" horiz-adv-x="524" 
d="M46 229v932q0 115 59 178q60 64 157 64q96 0 157 -64q59 -62 59 -178v-932q0 -116 -59 -178q-60 -63 -157 -63t-157 64q-59 63 -59 177zM216 1166v-942q0 -77 46 -77t46 77v942q0 77 -46 77t-46 -77z" />
    <glyph glyph-name="one" unicode="1" horiz-adv-x="354" 
d="M306 1391v-1391h-170v1122l-121 -19v162q35 5 64 20q30 16 46 33t28 34q10 14 15 27l4 12h134z" />
    <glyph glyph-name="two" unicode="2" horiz-adv-x="503" 
d="M468 1013q0 -80 -9 -128q-10 -53 -32 -104l-191 -443q-17 -40 -21 -64q-5 -33 -5 -96v-18h258v-160h-428v178q0 81 9 129q9 49 33 104l191 443q16 37 20 64q5 33 5 95v153q0 77 -44 77t-44 -77v-241h-170v236q0 113 59 178q58 64 155 64q96 0 155 -64t59 -178v-148z" />
    <glyph glyph-name="three" unicode="3" horiz-adv-x="518" 
d="M170 806h88q44 0 44 77v283q0 77 -44 77t-44 -77v-241h-170v236q0 114 59 178t155 64q97 0 155 -64q59 -65 59 -178v-252q0 -117 -63 -183q63 -66 63 -182v-315q0 -112 -59 -177q-58 -64 -155 -64q-96 0 -155 63q-59 64 -59 178v298h170v-303q0 -77 44 -77t44 77v345
q0 77 -44 77h-88v160z" />
    <glyph glyph-name="four" unicode="4" horiz-adv-x="534" 
d="M13 218v156l227 1017h195v-1017h84v-156h-84v-218h-170v218h-252zM147 374h118v628z" />
    <glyph glyph-name="five" unicode="5" 
d="M46 731v660h418v-160h-248v-299q42 50 108 50q72 0 111 -53q39 -52 39 -152v-548q0 -114 -59 -178q-59 -63 -155 -63q-97 0 -155 64q-59 65 -59 177v383h170v-388q0 -77 44 -77t44 77v515q0 77 -40 77q-47 0 -59 -85h-159z" />
    <glyph glyph-name="six" unicode="6" 
d="M474 757v-528q0 -114 -59 -178q-59 -63 -155 -63q-97 0 -155 64q-59 65 -59 177v932q0 113 59 178q58 64 155 64q96 0 155 -64t59 -178v-103h-170v108q0 77 -44 77t-44 -77v-255q43 51 108 51q70 0 110 -54q40 -53 40 -151zM304 224v495q0 77 -40 77q-22 0 -35 -22
t-13 -51v-499q0 -77 44 -77t44 77z" />
    <glyph glyph-name="seven" unicode="7" horiz-adv-x="470" 
d="M453 1391v-136l-258 -1255h-173l252 1231h-246v160h425z" />
    <glyph glyph-name="eight" unicode="8" 
d="M46 229v315q0 115 64 182q-64 67 -64 183v252q0 113 59 178q58 64 155 64q96 0 155 -64t59 -178v-252q0 -117 -63 -183q63 -66 63 -182v-315q0 -114 -59 -178q-59 -63 -155 -63q-97 0 -155 64q-59 65 -59 177zM216 569v-345q0 -77 44 -77t44 77v345q0 77 -44 77t-44 -77z
M216 1166v-283q0 -77 44 -77t44 77v283q0 77 -44 77t-44 -77z" />
    <glyph glyph-name="nine" unicode="9" 
d="M46 634v527q0 114 59 178t155 64q97 0 155 -64q59 -65 59 -178v-932q0 -112 -59 -177q-58 -64 -155 -64q-96 0 -155 63q-59 64 -59 178v104h170v-109q0 -77 44 -77t44 77v255q-42 -50 -107 -50q-71 0 -111 54q-40 53 -40 151zM216 1166v-494q0 -77 40 -77q22 0 35 22
t13 51v498q0 77 -44 77t-44 -77z" />
    <glyph glyph-name="colon" unicode=":" horiz-adv-x="241" 
d="M38 0v249h166v-249h-166zM38 894v249h166v-249h-166z" />
    <glyph glyph-name="semicolon" unicode=";" horiz-adv-x="241" 
d="M38 0v249h166v-179q0 -52 -6 -82q-7 -33 -22 -65l-41 -83h-97l51 160h-51zM38 894v249h166v-249h-166z" />
    <glyph glyph-name="less" unicode="&#x3c;" horiz-adv-x="559" 
d="M32 455v172l495 160v-164l-305 -82l305 -82v-165z" />
    <glyph glyph-name="equal" unicode="=" horiz-adv-x="559" 
d="M32 581v154h495v-154h-495zM32 346v156h495v-156h-495z" />
    <glyph glyph-name="greater" unicode="&#x3e;" horiz-adv-x="559" 
d="M527 627v-172l-495 -161v165l305 82l-305 82v164z" />
    <glyph glyph-name="question" unicode="?" horiz-adv-x="500" 
d="M174 312v92q0 86 7 121q8 38 31 86l51 111q17 38 21 63q5 33 5 103v278q0 77 -46 77q-45 0 -45 -77v-323h-170v318q0 115 59 178q60 64 156 64t156 -64t60 -178v-273q0 -94 -9 -138q-9 -42 -33 -86l-67 -119q-26 -47 -32 -69q-6 -24 -6 -72v-92h-138zM163 0v249h160v-249
h-160z" />
    <glyph glyph-name="at" unicode="@" horiz-adv-x="803" 
d="M209 492q0 80 24 123q23 41 83 80l85 55q24 17 31 29q9 15 9 41v70q0 72 -40 72q-39 0 -39 -72v-111h-153v106q0 107 54 167t138 60q87 0 141 -60t54 -167v-744q0 -28 9 -40q8 -11 30 -11h40q22 0 30 11q9 12 9 40v877q0 86 -62 150q-61 63 -149 63h-202q-87 0 -149 -63
q-62 -64 -62 -150v-893q0 -87 62 -151q61 -62 149 -62h352v-48h-352q-107 0 -184 77t-77 184v893q0 107 77 184t184 77h202q107 0 184 -77t77 -184v-877q0 -49 -24 -74t-65 -25h-74q-103 0 -138 81q-41 -92 -124 -92q-59 0 -95 51q-35 50 -35 141v269zM362 496v-236
q0 -73 36 -73q13 0 26 11q11 10 14 20l4 10q-1 7 -1 33v355l-51 -46q-16 -15 -22 -29q-6 -15 -6 -45z" />
    <glyph glyph-name="A" unicode="A" horiz-adv-x="514" 
d="M11 0l145 1391h210l137 -1391h-169l-18 231h-114l-17 -231h-174zM261 1057l-48 -675h93z" />
    <glyph glyph-name="B" unicode="B" horiz-adv-x="524" 
d="M48 0v1391h203q99 0 160 -64t61 -178v-259q0 -116 -64 -181q70 -66 70 -187v-280q0 -114 -61 -178t-160 -64h-209zM257 626h-39v-466h39q51 0 51 77v312q0 77 -51 77zM251 1231h-33v-446h33q51 0 51 77v292q0 77 -51 77z" />
    <glyph glyph-name="C" unicode="C" horiz-adv-x="512" 
d="M216 1166v-942q0 -77 41 -77t41 77v390h170v-385q0 -116 -58 -178q-58 -63 -153 -63t-153 64t-58 177v932q0 114 58 178t153 64q94 0 153 -64q58 -62 58 -178v-373h-170v378q0 77 -41 77t-41 -77z" />
    <glyph glyph-name="D" unicode="D" horiz-adv-x="516" 
d="M48 0v1391h201q99 0 160 -64t61 -178v-907q0 -114 -61 -178t-160 -64h-201zM249 1231h-31v-1071h31q51 0 51 77v917q0 77 -51 77z" />
    <glyph glyph-name="E" unicode="E" horiz-adv-x="434" 
d="M48 0v1391h356v-160h-186v-450h157v-159h-157v-462h186v-160h-356z" />
    <glyph glyph-name="F" unicode="F" horiz-adv-x="419" 
d="M48 0v1391h356v-160h-186v-450h157v-159h-157v-622h-170z" />
    <glyph glyph-name="G" unicode="G" horiz-adv-x="525" 
d="M262 613v160h217v-773h-141l-10 56q-46 -68 -127 -68q-73 0 -114 54q-41 55 -41 151v968q0 116 59 178q61 64 157 64t157 -64q60 -63 60 -178v-214h-170v219q0 44 -12 60q-12 17 -35 17q-46 0 -46 -77v-936q0 -76 46 -76q47 0 47 76v383h-47z" />
    <glyph glyph-name="H" unicode="H" horiz-adv-x="548" 
d="M331 0v622h-113v-622h-170v1391h170v-610h113v610h170v-1391h-170z" />
    <glyph glyph-name="I" unicode="I" horiz-adv-x="266" 
d="M48 0v1391h170v-1391h-170z" />
    <glyph glyph-name="J" unicode="J" 
d="M216 521v-297q0 -77 44 -77t44 77v1167h170v-1162q0 -114 -59 -178q-59 -63 -155 -63q-97 0 -155 64q-59 65 -59 177v292h170z" />
    <glyph glyph-name="K" unicode="K" horiz-adv-x="539" 
d="M48 0v1391h170v-611h15l118 611h174l-143 -658l163 -733h-181l-133 621h-13v-621h-170z" />
    <glyph glyph-name="L" unicode="L" horiz-adv-x="438" 
d="M48 0v1391h170v-1231h201v-160h-371z" />
    <glyph glyph-name="M" unicode="M" horiz-adv-x="798" 
d="M583 0v908l-116 -908h-135l-115 901v-901h-169v1391h217l134 -962l135 962h217v-1391h-168z" />
    <glyph glyph-name="N" unicode="N" horiz-adv-x="573" 
d="M340 0l-124 843v-843h-168v1391h185l125 -843v843h167v-1391h-185z" />
    <glyph glyph-name="O" unicode="O" horiz-adv-x="524" 
d="M46 229v932q0 115 59 178q60 64 157 64q96 0 157 -64q59 -62 59 -178v-932q0 -116 -59 -178q-60 -63 -157 -63t-157 64q-59 63 -59 177zM216 1166v-942q0 -77 46 -77t46 77v942q0 77 -46 77t-46 -77z" />
    <glyph glyph-name="P" unicode="P" horiz-adv-x="509" 
d="M48 0v1391h207q99 0 160 -64t61 -178v-311q0 -114 -61 -178t-160 -64h-37v-596h-170zM255 1231h-37v-475h37q51 0 51 77v321q0 77 -51 77z" />
    <glyph glyph-name="Q" unicode="Q" horiz-adv-x="524" 
d="M46 229v932q0 115 59 178q60 64 157 64q96 0 157 -64q59 -62 59 -178v-932q0 -110 -57 -176l57 -43v-177l-216 155q-97 0 -157 64q-59 63 -59 177zM216 1166v-942q0 -77 46 -77t46 77v942q0 77 -46 77t-46 -77z" />
    <glyph glyph-name="R" unicode="R" horiz-adv-x="528" 
d="M48 0v1391h211q99 0 160 -64t61 -178v-263q0 -134 -84 -198q84 -64 84 -198v-234q0 -69 8 -138q7 -57 16 -91l7 -27h-168q-5 8 -9 23q-8 29 -15 80q-9 65 -9 147v281q0 77 -51 77h-41v-608h-170zM259 1231h-41v-463h41q51 0 51 77v309q0 77 -51 77z" />
    <glyph glyph-name="S" unicode="S" horiz-adv-x="512" 
d="M212 517v-293q0 -77 44 -77t44 77v244q0 36 -6 54q-6 17 -26 39l-151 166q-46 49 -61 96q-14 43 -14 132v206q0 113 59 178q58 64 155 64q96 0 155 -64t59 -178v-278h-170v283q0 77 -44 77t-44 -77v-231q0 -36 6 -54q6 -17 26 -39l151 -166q46 -49 61 -96q14 -43 14 -133
v-218q0 -114 -59 -178q-59 -63 -155 -63q-97 0 -155 64q-59 65 -59 177v288h170z" />
    <glyph glyph-name="T" unicode="T" horiz-adv-x="462" 
d="M316 1231v-1231h-170v1231h-139v160h449v-160h-140z" />
    <glyph glyph-name="U" unicode="U" 
d="M216 1391v-1167q0 -77 44 -77t44 77v1167h170v-1162q0 -114 -59 -178q-59 -63 -155 -63q-97 0 -155 64q-59 65 -59 177v1162h170z" />
    <glyph glyph-name="V" unicode="V" horiz-adv-x="493" 
d="M142 0l-131 1391h174l62 -1099l65 1099h170l-132 -1391h-208z" />
    <glyph glyph-name="W" unicode="W" horiz-adv-x="792" 
d="M124 0l-107 1391h170l49 -1013l68 1013h184l69 -1013l48 1013h170l-106 -1391h-208l-65 984l-64 -984h-208z" />
    <glyph glyph-name="X" unicode="X" horiz-adv-x="521" 
d="M343 0l-81 520l-82 -520h-179l145 718l-145 673h179l82 -497l81 497h177l-145 -673l145 -718h-177z" />
    <glyph glyph-name="Y" unicode="Y" horiz-adv-x="526" 
d="M178 0v397l-177 994h177l85 -689l86 689h176l-177 -994v-397h-170z" />
    <glyph glyph-name="Z" unicode="Z" horiz-adv-x="438" 
d="M22 0v139l218 1092h-212v160h389v-140l-217 -1091h217v-160h-395z" />
    <glyph glyph-name="bracketleft" unicode="[" horiz-adv-x="354" 
d="M54 -68v1514h277v-132h-125v-1249h125v-133h-277z" />
    <glyph glyph-name="backslash" unicode="\" horiz-adv-x="393" 
d="M155 1391l231 -1391h-148l-231 1391h148z" />
    <glyph glyph-name="bracketright" unicode="]" horiz-adv-x="354" 
d="M300 1446v-1514h-276v133h124v1249h-124v132h276z" />
    <glyph glyph-name="asciicircum" unicode="^" horiz-adv-x="522" 
d="M337 1391l153 -578h-155l-74 321l-74 -321h-155l153 578h152z" />
    <glyph glyph-name="underscore" unicode="_" horiz-adv-x="587" 
d="M32 0v160h524v-160h-524z" />
    <glyph glyph-name="grave" unicode="`" horiz-adv-x="307" 
d="M140 1208l-116 222h187l64 -222h-135z" />
    <glyph glyph-name="a" unicode="a" horiz-adv-x="491" 
d="M40 480q0 93 23 135q25 45 98 91l86 55q24 15 32 29q7 13 7 47v82q0 42 -11 59t-30 17q-20 0 -31 -17q-10 -16 -10 -59v-127h-164v121q0 113 57 178q57 64 148 64t148 -64q57 -65 57 -178v-657q0 -86 4 -143q5 -72 8 -88l4 -25h-158q-6 25 -12 74q-36 -86 -116 -86
q-66 0 -102 54q-38 56 -38 151v287zM204 489v-259q0 -76 39 -76q31 0 45 41q-2 88 -2 107v315l-54 -49q-17 -16 -23 -32q-5 -14 -5 -47z" />
    <glyph glyph-name="b" unicode="b" horiz-adv-x="497" 
d="M458 950v-757q0 -94 -38 -150q-37 -55 -99 -55q-80 0 -118 77l-6 -65h-155v1391h164v-308q38 72 115 72q62 0 99 -55q38 -56 38 -150zM294 230v682q0 77 -40 77q-17 0 -28 -11t-16 -24l-4 -11v-742l2 -5q1 -5 2 -8q3 -8 15 -21t29 -13q40 0 40 76z" />
    <glyph glyph-name="c" unicode="c" horiz-adv-x="486" 
d="M204 919v-695q0 -42 10 -60q9 -17 31 -17q21 0 30 17q10 18 10 60v260h164v-255q0 -111 -58 -177q-57 -64 -148 -64t-147 63q-56 64 -56 178v684q0 115 56 179q56 63 147 63t148 -64q58 -66 58 -178v-255h-164v261q0 41 -10 59q-9 17 -30 17q-22 0 -31 -17
q-10 -18 -10 -59z" />
    <glyph glyph-name="d" unicode="d" horiz-adv-x="497" 
d="M40 193v757q0 94 38 150q37 55 99 55q76 0 115 -72v308h164v-1391h-155l-7 65q-38 -77 -117 -77q-62 0 -99 55q-38 56 -38 150zM204 912v-682q0 -76 40 -76q17 0 28 11q12 12 16 23l4 13v742l-2 5q-1 5 -2 8q-1 4 -16 20q-12 13 -28 13q-40 0 -40 -77z" />
    <glyph glyph-name="e" unicode="e" horiz-adv-x="489" 
d="M204 464v-240q0 -77 41 -77t41 77v161h164v-156q0 -112 -57 -177q-57 -64 -148 -64t-148 64q-57 65 -57 177v684q0 113 57 178q57 64 148 64t148 -64q57 -65 57 -178v-449h-246zM204 919v-309h82v309q0 42 -11 59t-30 17q-20 0 -31 -17q-10 -16 -10 -59z" />
    <glyph glyph-name="f" unicode="f" horiz-adv-x="375" 
d="M9 975v168h65v49q0 199 202 199h95v-160h-80q-53 0 -53 -52v-36h108v-168h-108v-975h-164v975h-65z" />
    <glyph glyph-name="g" unicode="g" horiz-adv-x="497" 
d="M40 193v757q0 94 38 150q37 55 99 55q79 0 117 -77l7 65h155v-1190q0 -111 -55 -167t-153 -56t-152 54t-56 163h164q2 -64 44 -64q44 0 44 68v108q-37 -71 -115 -71q-62 0 -99 55q-38 56 -38 150zM204 912v-682q0 -76 40 -76q17 0 28 11q12 12 16 23l4 13v742l-2 5
q-1 5 -2 8q-1 4 -16 20q-12 13 -28 13q-40 0 -40 -77z" />
    <glyph glyph-name="h" unicode="h" horiz-adv-x="499" 
d="M458 950v-950h-164v912q0 77 -40 77q-17 0 -28 -11t-16 -24l-4 -11v-943h-164v1391h164v-308q38 72 115 72q62 0 99 -55q38 -56 38 -150z" />
    <glyph glyph-name="i" unicode="i" horiz-adv-x="247" 
d="M42 0v1143h164v-1143h-164zM42 1206v185h164v-185h-164z" />
    <glyph glyph-name="j" unicode="j" horiz-adv-x="247" 
d="M42 1206v185h164v-185h-164zM206 -36q0 -119 -61 -176q-61 -56 -170 -58v159q35 2 51 16q16 15 16 52v1186h164v-1179z" />
    <glyph glyph-name="k" unicode="k" horiz-adv-x="508" 
d="M42 0v1391h164v-729h11l128 481h170l-149 -561l149 -582h-174l-126 502h-9v-502h-164z" />
    <glyph glyph-name="l" unicode="l" horiz-adv-x="247" 
d="M42 0v1391h164v-1391h-164z" />
    <glyph glyph-name="m" unicode="m" horiz-adv-x="751" 
d="M710 950v-950h-164v912q0 77 -40 77q-17 0 -28 -11t-16 -24l-4 -11v-943h-164v912q0 77 -40 77q-17 0 -28 -11t-16 -24l-4 -11v-943h-164v1143h155l6 -65q38 77 118 77q41 0 73 -29t48 -79q34 108 130 108q63 0 100 -55q38 -56 38 -150z" />
    <glyph glyph-name="n" unicode="n" horiz-adv-x="499" 
d="M458 950v-950h-164v912q0 77 -40 77q-17 0 -28 -11t-16 -24l-4 -11v-943h-164v1143h155l6 -65q38 77 118 77q62 0 99 -55q38 -56 38 -150z" />
    <glyph glyph-name="o" unicode="o" horiz-adv-x="501" 
d="M40 229v684q0 113 59 178q58 64 152 64t152 -64q59 -65 59 -178v-684q0 -112 -59 -177q-58 -64 -152 -64t-152 64q-59 65 -59 177zM204 919v-695q0 -77 47 -77t47 77v695q0 43 -12 59q-12 17 -35 17t-35 -17q-12 -16 -12 -59z" />
    <glyph glyph-name="p" unicode="p" horiz-adv-x="497" 
d="M458 950v-757q0 -94 -38 -150q-37 -55 -99 -55q-78 0 -115 71v-317h-164v1401h155l6 -65q38 77 118 77q62 0 99 -55q38 -56 38 -150zM294 230v682q0 77 -40 77q-17 0 -28 -11t-16 -24l-4 -11v-742l2 -5q1 -5 2 -8q3 -8 15 -21t29 -13q40 0 40 76z" />
    <glyph glyph-name="q" unicode="q" horiz-adv-x="497" 
d="M40 193v757q0 94 38 150q37 55 99 55q79 0 117 -77l7 65h155v-1401h-164v317q-37 -71 -115 -71q-62 0 -99 55q-38 56 -38 150zM204 912v-682q0 -76 40 -76q17 0 28 11q12 12 16 23l4 13v742l-2 5q-1 5 -2 8q-1 4 -16 20q-12 13 -28 13q-40 0 -40 -77z" />
    <glyph glyph-name="r" unicode="r" horiz-adv-x="369" 
d="M350 1143v-168q-28 0 -49 -7q-25 -8 -46 -25q-23 -18 -36 -54q-13 -35 -13 -88v-801h-164v1143h155l8 -82q51 82 145 82z" />
    <glyph glyph-name="s" unicode="s" horiz-adv-x="485" 
d="M36 811v102q0 114 58 178t149 64q92 0 149 -64q58 -66 58 -178v-176h-164v182q0 76 -43 76t-43 -76v-108q0 -57 29 -90l147 -162q41 -44 57 -89q17 -48 17 -118v-123q0 -111 -58 -177q-57 -64 -149 -64q-91 0 -149 64t-58 177v189h164v-194q0 -77 43 -77t43 77v128
q0 58 -30 90l-146 162q-40 44 -57 90q-17 48 -17 117z" />
    <glyph glyph-name="t" unicode="t" horiz-adv-x="362" 
d="M13 975v168h65v144l164 98v-242h97v-168h-97v-761q0 -54 51 -54h46v-160h-55q-206 0 -206 208v767h-65z" />
    <glyph glyph-name="u" unicode="u" horiz-adv-x="499" 
d="M42 193v950h164v-919q0 -77 40 -77q16 0 28 12t16 23l4 13v948h164v-1143h-155l-7 61q-37 -73 -117 -73q-62 0 -99 55q-38 56 -38 150z" />
    <glyph glyph-name="v" unicode="v" horiz-adv-x="474" 
d="M169 1143l69 -846l65 846h166l-133 -1143h-198l-133 1143h164z" />
    <glyph glyph-name="w" unicode="w" horiz-adv-x="770" 
d="M450 0l-68 732l-60 -732h-200l-117 1143h166l55 -841l76 841h172l74 -840l56 840h161l-117 -1143h-198z" />
    <glyph glyph-name="x" unicode="x" horiz-adv-x="485" 
d="M9 1143h164l73 -378l68 378h161l-129 -533l130 -610h-171l-68 394l-59 -394h-169l128 610z" />
    <glyph glyph-name="y" unicode="y" horiz-adv-x="476" 
d="M165 1143l63 -763l81 763h166l-200 -1401h-156l33 222l-151 1179h164z" />
    <glyph glyph-name="z" unicode="z" horiz-adv-x="415" 
d="M19 0v152l210 831h-203v160h370v-152l-210 -831h210v-160h-377z" />
    <glyph glyph-name="braceleft" unicode="{" horiz-adv-x="413" 
d="M114 142v375q0 57 -20 82t-57 25h-15v132h15q37 0 57 24q20 25 20 81v375q0 105 55 163q56 59 142 59h79v-132h-77q-48 0 -48 -63v-370q0 -75 -28 -127q-29 -53 -78 -77q50 -24 78 -76t28 -127v-370q0 -64 48 -64h77v-132h-79q-86 0 -142 59q-55 58 -55 163z" />
    <glyph glyph-name="bar" unicode="|" horiz-adv-x="229" 
d="M42 -143v1648h145v-1648h-145z" />
    <glyph glyph-name="braceright" unicode="}" horiz-adv-x="413" 
d="M300 517v-375q0 -105 -55 -163q-56 -59 -143 -59h-78v132h76q48 0 48 64v370q0 74 29 127q28 52 78 76q-49 24 -78 77t-29 127v370q0 63 -48 63h-76v132h78q87 0 143 -59q55 -58 55 -163v-375q0 -58 19 -81q20 -24 58 -24h15v-132h-15q-38 0 -58 -25q-19 -23 -19 -82z
" />
    <glyph glyph-name="asciitilde" unicode="~" horiz-adv-x="593" 
d="M273 639l86 -47q17 -10 31 -10q16 0 16 18v73h156v-115q0 -149 -131 -149q-50 0 -110 33l-87 47q-19 11 -30 11q-16 0 -16 -19v-72h-156v114q0 150 131 150q48 0 110 -34z" />
    <glyph glyph-name="nbspace" unicode="&#xa0;" horiz-adv-x="176" 
 />
    <glyph glyph-name="exclamdown" unicode="&#xa1;" horiz-adv-x="249" 
d="M33 -258l30 1088h124l31 -1088h-185zM45 894v249h160v-249h-160z" />
    <glyph glyph-name="cent" unicode="&#xa2;" horiz-adv-x="480" 
d="M161 0v127q-56 24 -89 82q-32 57 -32 144v684q0 87 32 144q34 60 89 83v127h157v-127q59 -25 91 -82q33 -58 33 -145v-255h-163v260q0 42 -10 60q-9 17 -27 17q-20 0 -29 -17q-9 -16 -9 -60v-694q0 -44 9 -60q9 -17 29 -17q37 0 37 77v260h163v-255q0 -87 -33 -145
q-32 -57 -91 -82v-126h-157z" />
    <glyph glyph-name="sterling" unicode="&#xa3;" horiz-adv-x="544" 
d="M22 606v145h66v410q0 115 57 178q58 64 151 64q94 0 151 -64q58 -66 58 -178v-268h-170v273q0 77 -39 77q-38 0 -38 -77v-415h197v-145h-197v-79h197v-145h-197v-85q0 -95 -46 -137h293v-160h-483v160h6q60 3 60 73v149h-66v145h66v79h-66z" />
    <glyph glyph-name="currency" unicode="&#xa4;" horiz-adv-x="492" 
d="M167 260h-152l71 199q-16 39 -16 91v291q0 51 15 91l-70 200h152l35 -101q27 5 44 5q18 0 45 -5l35 101h151l-70 -200q16 -42 16 -91v-291q0 -52 -16 -91l70 -199h-151l-36 99q-16 -4 -44 -4q-27 0 -43 4zM213 844v-298q0 -57 33 -57q35 0 35 57v298q0 57 -35 57
q-33 0 -33 -57z" />
    <glyph glyph-name="yen" unicode="&#xa5;" horiz-adv-x="530" 
d="M529 1391l-130 -722h114v-145h-140l-15 -79h155v-145h-163v-300h-170v300h-163v145h154l-14 79h-140v145h114l-130 722h177l87 -694l88 694h176z" />
    <glyph glyph-name="brokenbar" unicode="&#xa6;" horiz-adv-x="229" 
d="M42 -143v773h145v-773h-145zM42 730v775h145v-775h-145z" />
    <glyph glyph-name="section" unicode="&#xa7;" horiz-adv-x="516" 
d="M472 581v-26q0 -100 -39 -166q39 -61 39 -162v-77q0 -115 -59 -179q-59 -63 -155 -63q-97 0 -155 64q-59 65 -59 178v196h170v-202q0 -76 44 -76t44 76v119q0 33 -6 53q-6 18 -24 38l-153 169q-40 43 -58 90q-17 44 -17 117v26q0 102 39 165q-39 63 -39 162v78
q0 113 59 178q58 64 155 64q96 0 155 -64t59 -178v-196h-170v201q0 77 -44 77t-44 -77v-118q0 -33 6 -53q6 -19 24 -39l153 -168q40 -43 58 -90q17 -44 17 -117zM203 708q0 -34 6 -53q6 -21 23 -39l81 -89v76q0 33 -6 53t-23 38l-81 89v-75z" />
    <glyph glyph-name="dieresis" unicode="&#xa8;" horiz-adv-x="428" 
d="M40 1208v215h148v-215h-148zM240 1208v215h148v-215h-148z" />
    <glyph glyph-name="copyright" unicode="&#xa9;" horiz-adv-x="803" 
d="M764 1142v-893q0 -107 -77 -184t-184 -77h-202q-107 0 -184 77t-77 184v893q0 107 77 184t184 77h202q107 0 184 -77t77 -184zM90 1142v-893q0 -87 62 -151q61 -62 149 -62h202q88 0 149 62q62 64 62 151v893q0 86 -62 150q-61 63 -149 63h-202q-87 0 -149 -63
q-62 -64 -62 -150zM209 1008q0 108 54 168t138 60q86 0 140 -60t54 -168v-226h-157v229q0 73 -37 73q-35 0 -35 -73v-630q0 -74 35 -74q37 0 37 74v227h157v-224q0 -106 -54 -168q-54 -61 -140 -61q-84 0 -138 61t-54 168v624z" />
    <glyph glyph-name="ordfeminine" unicode="&#xaa;" horiz-adv-x="368" 
d="M40 953q0 64 16 92q17 30 67 60l60 36q19 13 25 22q7 11 7 32v48q0 48 -29 48t-29 -48v-80h-117v77q0 75 41 119t105 44q65 0 106 -44t41 -119v-445q0 -68 2 -97q1 -21 5 -60l3 -16h-113q-5 21 -8 51q-27 -59 -86 -59q-42 0 -69 38t-27 100v201zM157 958v-180
q0 -49 27 -49q12 0 19 7q9 9 10 14l3 7q-1 14 -1 68v216l-38 -29q-20 -16 -20 -54z" />
    <glyph glyph-name="guillemotleft" unicode="&#xab;" horiz-adv-x="552" 
d="M143 219l-132 352l132 353h162l-132 -353l132 -352h-162zM375 219l-132 352l132 353h161l-133 -353l133 -352h-161z" />
    <glyph glyph-name="logicalnot" unicode="&#xac;" horiz-adv-x="559" 
d="M32 461v160h495v-328h-156v168h-339z" />
    <glyph glyph-name="uni00AD" unicode="&#xad;" horiz-adv-x="385" 
d="M32 461v160h321v-160h-321z" />
    <glyph glyph-name="registered" unicode="&#xae;" horiz-adv-x="536" 
d="M344 1397q56 0 98 -40q40 -39 40 -95v-465q0 -57 -40 -96t-98 -39h-153q-56 0 -97 39q-40 39 -40 96v465q0 56 40 95q42 40 97 40h153zM191 688h153q45 0 77 32t32 77v465q0 44 -32 76t-77 32h-153q-44 0 -76 -32t-32 -76v-465q0 -45 32 -77t76 -32zM398 759h-94
q-13 26 -13 109v66q0 34 -25 34h-16v-209h-95v540h111q54 0 87 -30t33 -85v-86q0 -57 -38 -89q38 -32 38 -90v-48q0 -33 3 -61t6 -40zM250 1218v-168h16q25 0 25 33v102q0 33 -25 33h-16z" />
    <glyph glyph-name="macron" unicode="&#xaf;" horiz-adv-x="448" 
d="M40 1230v144h369v-144h-369z" />
    <glyph glyph-name="degree" unicode="&#xb0;" horiz-adv-x="433" 
d="M40 698v510q0 93 49 143q50 52 127 52q81 0 129 -51t48 -144v-510q0 -93 -48 -144t-129 -51q-78 0 -127 51q-49 50 -49 144zM183 1211v-517q0 -56 33 -56q35 0 35 56v517q0 58 -35 58q-33 0 -33 -58z" />
    <glyph glyph-name="plusminus" unicode="&#xb1;" horiz-adv-x="559" 
d="M32 413v159h170v168h156v-168h169v-159h-169v-168h-156v168h-170zM32 0v160h495v-160h-495z" />
    <glyph glyph-name="twosuperior" unicode="&#xb2;" horiz-adv-x="391" 
d="M359 1299q0 -81 -32 -142l-141 -267q-18 -36 -18 -97v-6h191v-123h-323v129q0 49 6 79q5 26 25 64l141 268q18 34 18 95v62q0 48 -28 48q-30 0 -30 -48v-128h-132v120q0 88 44 133q45 47 118 47q72 0 117 -48q44 -47 44 -132v-54z" />
    <glyph glyph-name="threesuperior" unicode="&#xb3;" horiz-adv-x="405" 
d="M134 1176h68q29 0 29 48v137q0 48 -29 48t-29 -48v-118h-132v110q0 86 44 133t117 47q72 0 117 -47q45 -46 45 -133v-97q0 -93 -56 -143q56 -47 56 -142v-134q0 -85 -45 -133t-117 -48q-74 0 -117 48q-44 49 -44 133v147h132v-156q0 -48 29 -48t29 48v176q0 48 -29 48
h-68v124z" />
    <glyph glyph-name="acute" unicode="&#xb4;" horiz-adv-x="307" 
d="M284 1430l-117 -222h-135l64 222h188z" />
    <glyph glyph-name="mu" unicode="&#xb5;" horiz-adv-x="499" 
d="M42 -258v1401h164v-919q0 -77 40 -77q16 0 28 12q13 13 17 23l3 13v948h164v-1143h-155l-6 60q-30 -62 -91 -70v-248h-164z" />
    <glyph glyph-name="paragraph" unicode="&#xb6;" horiz-adv-x="681" 
d="M255 -80v621q-99 0 -160 64t-61 177v367q0 114 61 178t160 64h379v-1471h-154v1311h-71v-1311h-154z" />
    <glyph glyph-name="periodcentered" unicode="&#xb7;" horiz-adv-x="241" 
d="M38 417v249h166v-249h-166z" />
    <glyph glyph-name="cedilla" unicode="&#xb8;" horiz-adv-x="321" 
d="M130 -72l-43 72h144l31 -52q28 -48 28 -94q0 -112 -133 -112h-121v133h87q21 0 21 19q0 12 -14 34z" />
    <glyph glyph-name="onesuperior" unicode="&#xb9;" horiz-adv-x="277" 
d="M232 1526v-862h-132v672l-89 -11v123q27 3 48 12q23 10 34 21q3 3 7.5 7t8 7.5t5.5 6.5q9 12 11 18l3 6h104z" />
    <glyph glyph-name="ordmasculine" unicode="&#xba;" horiz-adv-x="372" 
d="M40 777v463q0 75 41 119t105 44q65 0 106 -44t41 -119v-463q0 -75 -41 -119t-106 -44q-64 0 -105 44t-41 119zM157 1243v-469q0 -48 29 -48t29 48v469q0 48 -29 48t-29 -48z" />
    <glyph glyph-name="guillemotright" unicode="&#xbb;" horiz-adv-x="552" 
d="M542 571l-132 -352h-162l132 352l-132 353h162zM310 571l-132 -352h-161l133 352l-133 353h161z" />
    <glyph glyph-name="onequarter" unicode="&#xbc;" horiz-adv-x="947" 
d="M232 1379v-862h-132v673l-89 -11v123q27 3 48 12q25 10 34 20q19 19 21 22q10 14 11 16l3 7h104zM550 125v121l169 616h148v-616h64v-121h-64v-125h-131v125h-186zM652 246h84v368zM183 0l450 1391h99l-449 -1391h-100z" />
    <glyph glyph-name="onehalf" unicode="&#xbd;" horiz-adv-x="1004" 
d="M232 1379v-862h-132v673l-89 -11v123q27 3 48 12q25 10 34 20q19 19 21 22q10 14 11 16l3 7h104zM183 0l450 1391h99l-449 -1391h-100zM973 636q0 -79 -33 -142l-140 -268q-19 -38 -19 -97v-5h192v-124h-324v129q0 45 7 80q6 28 24 63l141 269q19 38 19 95v61
q0 48 -29 48q-30 0 -30 -48v-128h-132v120q0 87 45 133q45 47 117 47q73 0 117 -47q45 -48 45 -133v-53z" />
    <glyph glyph-name="threequarters" unicode="&#xbe;" horiz-adv-x="1044" 
d="M134 1029h68q29 0 29 48v137q0 49 -29 49t-29 -49v-117h-132v109q0 86 44 133t117 47q72 0 117 -47t45 -133v-96q0 -93 -56 -143q56 -47 56 -143v-134q0 -84 -45 -132t-117 -48q-74 0 -117 48q-44 49 -44 132v148h132v-156q0 -48 29 -48t29 48v175q0 48 -29 48h-68v124z
M647 125v121l169 616h149v-616h63v-121h-63v-125h-131v125h-187zM750 246h84v368zM281 0l449 1391h99l-449 -1391h-99z" />
    <glyph glyph-name="questiondown" unicode="&#xbf;" horiz-adv-x="500" 
d="M327 830v-102q0 -80 -8 -120q-9 -43 -30 -87l-51 -110q-17 -37 -21 -64q-5 -33 -5 -102v-279q0 -77 45 -77q46 0 46 77v324h170v-319q0 -113 -60 -177t-156 -64t-156 64q-59 63 -59 177v274q0 95 9 138q9 42 33 86l66 119q26 47 32 70q6 22 6 70v102h139zM337 1143v-249
h-160v249h160z" />
    <glyph glyph-name="Agrave" unicode="&#xc0;" horiz-adv-x="514" 
d="M11 0l145 1391h210l137 -1391h-169l-18 231h-114l-17 -231h-174zM261 1057l-48 -675h93zM189 1456l-116 221h187l65 -221h-136z" />
    <glyph glyph-name="Aacute" unicode="&#xc1;" horiz-adv-x="514" 
d="M11 0l145 1391h210l137 -1391h-169l-18 231h-114l-17 -231h-174zM261 1057l-48 -675h93zM441 1677l-116 -221h-136l65 221h187z" />
    <glyph glyph-name="Acircumflex" unicode="&#xc2;" horiz-adv-x="514" 
d="M11 0l145 1391h210l137 -1391h-169l-18 231h-114l-17 -231h-174zM261 1057l-48 -675h93zM308 1456l-51 82l-50 -82h-145l110 221h170l110 -221h-144z" />
    <glyph glyph-name="Atilde" unicode="&#xc3;" horiz-adv-x="514" 
d="M11 0l145 1391h210l137 -1391h-169l-18 231h-114l-17 -231h-174zM261 1057l-48 -675h93zM293 1474l-67 33q-14 7 -21 7q-12 0 -12 -15v-43h-134v113q0 104 89 104q35 0 73 -19l67 -34q14 -7 21 -7q13 0 13 15v43h133v-112q0 -105 -89 -105q-33 0 -73 20z" />
    <glyph glyph-name="Adieresis" unicode="&#xc4;" horiz-adv-x="514" 
d="M11 0l145 1391h210l137 -1391h-169l-18 231h-114l-17 -231h-174zM261 1057l-48 -675h93zM83 1456v215h148v-215h-148zM283 1456v215h148v-215h-148z" />
    <glyph glyph-name="Aring" unicode="&#xc5;" horiz-adv-x="514" 
d="M11 0l145 1391h210l137 -1391h-169l-18 231h-114l-17 -231h-174zM261 1057l-48 -675h93zM84 1577q0 65 47 103q46 37 126 37t126 -37q47 -38 47 -103q0 -68 -47 -104t-126 -36t-126 36t-47 104zM257 1531q50 0 50 46t-50 46t-50 -46t50 -46z" />
    <glyph glyph-name="Ccedilla" unicode="&#xc7;" horiz-adv-x="512" 
d="M216 1166v-942q0 -77 41 -77t41 77v390h170v-385q0 -92 -39 -152q-39 -61 -105 -80l28 -49q28 -48 28 -94q0 -112 -133 -112h-121v133h87q21 0 21 19q0 12 -14 34l-44 74q-61 23 -95 81q-35 59 -35 146v932q0 114 58 178t153 64q94 0 153 -64q58 -62 58 -178v-373h-170
v378q0 77 -41 77t-41 -77z" />
    <glyph glyph-name="Egrave" unicode="&#xc8;" horiz-adv-x="434" 
d="M160 1456l-117 221h187l65 -221h-135zM48 0v1391h356v-160h-186v-450h157v-159h-157v-462h186v-160h-356z" />
    <glyph glyph-name="Eacute" unicode="&#xc9;" horiz-adv-x="434" 
d="M410 1677l-117 -221h-135l64 221h188zM48 0v1391h356v-160h-186v-450h157v-159h-157v-462h186v-160h-356z" />
    <glyph glyph-name="Ecircumflex" unicode="&#xca;" horiz-adv-x="434" 
d="M278 1456l-52 82l-50 -82h-144l109 221h170l110 -221h-143zM48 0v1391h356v-160h-186v-450h157v-159h-157v-462h186v-160h-356z" />
    <glyph glyph-name="Edieresis" unicode="&#xcb;" horiz-adv-x="434" 
d="M52 1456v215h149v-215h-149zM252 1456v215h148v-215h-148zM48 0v1391h356v-160h-186v-450h157v-159h-157v-462h186v-160h-356z" />
    <glyph glyph-name="Igrave" unicode="&#xcc;" horiz-adv-x="266" 
d="M48 0v1391h170v-1391h-170zM67 1456l-117 221h187l65 -221h-135z" />
    <glyph glyph-name="Iacute" unicode="&#xcd;" horiz-adv-x="266" 
d="M48 0v1391h170v-1391h-170zM316 1677l-116 -221h-135l64 221h187z" />
    <glyph glyph-name="Icircumflex" unicode="&#xce;" horiz-adv-x="266" 
d="M48 0v1391h170v-1391h-170zM184 1456l-51 82l-50 -82h-144l109 221h170l110 -221h-144z" />
    <glyph glyph-name="Idieresis" unicode="&#xcf;" horiz-adv-x="266" 
d="M48 0v1391h170v-1391h-170zM-41 1456v215h149v-215h-149zM159 1456v215h148v-215h-148z" />
    <glyph glyph-name="Eth" unicode="&#xd0;" horiz-adv-x="536" 
d="M10 622v159h59v610h200q99 0 160 -64t61 -178v-907q0 -114 -61 -178t-160 -64h-200v622h-59zM269 1231h-30v-450h41v-159h-41v-462h30q52 0 52 77v917q0 77 -52 77z" />
    <glyph glyph-name="Ntilde" unicode="&#xd1;" horiz-adv-x="573" 
d="M340 0l-124 843v-843h-168v1391h185l125 -843v843h167v-1391h-185zM323 1474l-67 33q-14 7 -22 7q-12 0 -12 -15v-43h-133v113q0 104 89 104q35 0 73 -19l66 -34q14 -7 22 -7q12 0 12 15v43h133v-112q0 -105 -89 -105q-32 0 -72 20z" />
    <glyph glyph-name="Ograve" unicode="&#xd2;" horiz-adv-x="524" 
d="M196 1456l-117 221h187l65 -221h-135zM46 229v932q0 115 59 178q60 64 157 64q96 0 157 -64q59 -62 59 -178v-932q0 -116 -59 -178q-60 -63 -157 -63t-157 64q-59 63 -59 177zM216 1166v-942q0 -77 46 -77t46 77v942q0 77 -46 77t-46 -77z" />
    <glyph glyph-name="Oacute" unicode="&#xd3;" horiz-adv-x="524" 
d="M445 1677l-116 -221h-135l64 221h187zM46 229v932q0 115 59 178q60 64 157 64q96 0 157 -64q59 -62 59 -178v-932q0 -116 -59 -178q-60 -63 -157 -63t-157 64q-59 63 -59 177zM216 1166v-942q0 -77 46 -77t46 77v942q0 77 -46 77t-46 -77z" />
    <glyph glyph-name="Ocircumflex" unicode="&#xd4;" horiz-adv-x="524" 
d="M313 1456l-51 82l-50 -82h-144l109 221h170l110 -221h-144zM46 229v932q0 115 59 178q60 64 157 64q96 0 157 -64q59 -62 59 -178v-932q0 -116 -59 -178q-60 -63 -157 -63t-157 64q-59 63 -59 177zM216 1166v-942q0 -77 46 -77t46 77v942q0 77 -46 77t-46 -77z" />
    <glyph glyph-name="Otilde" unicode="&#xd5;" horiz-adv-x="524" 
d="M46 229v932q0 115 59 178q60 64 157 64q96 0 157 -64q59 -62 59 -178v-932q0 -116 -59 -178q-60 -63 -157 -63t-157 64q-59 63 -59 177zM216 1166v-942q0 -77 46 -77t46 77v942q0 77 -46 77t-46 -77zM298 1474l-67 33q-14 7 -21 7q-12 0 -12 -15v-43h-133v113
q0 104 89 104q34 0 72 -19l67 -34q14 -7 21 -7q13 0 13 15v43h133v-112q0 -105 -89 -105q-33 0 -73 20z" />
    <glyph glyph-name="Odieresis" unicode="&#xd6;" horiz-adv-x="524" 
d="M88 1456v215h149v-215h-149zM288 1456v215h148v-215h-148zM46 229v932q0 115 59 178q60 64 157 64q96 0 157 -64q59 -62 59 -178v-932q0 -116 -59 -178q-60 -63 -157 -63t-157 64q-59 63 -59 177zM216 1166v-942q0 -77 46 -77t46 77v942q0 77 -46 77t-46 -77z" />
    <glyph glyph-name="multiply" unicode="&#xd7;" horiz-adv-x="551" 
d="M36 672l110 108l129 -129l131 129l110 -108l-130 -131l130 -129l-110 -111l-131 130l-129 -130l-110 111l130 129z" />
    <glyph glyph-name="Oslash" unicode="&#xd8;" horiz-adv-x="524" 
d="M46 -73l383 1536h49l-383 -1536h-49zM46 229v932q0 115 59 178q60 64 157 64q96 0 157 -64q59 -62 59 -178v-932q0 -116 -59 -178q-60 -63 -157 -63t-157 64q-59 63 -59 177zM216 1166v-942q0 -77 46 -77t46 77v942q0 77 -46 77t-46 -77z" />
    <glyph glyph-name="Ugrave" unicode="&#xd9;" 
d="M194 1456l-117 221h187l65 -221h-135zM216 1391v-1167q0 -77 44 -77t44 77v1167h170v-1162q0 -114 -59 -178q-59 -63 -155 -63q-97 0 -155 64q-59 65 -59 177v1162h170z" />
    <glyph glyph-name="Uacute" unicode="&#xda;" 
d="M443 1677l-116 -221h-136l65 221h187zM216 1391v-1167q0 -77 44 -77t44 77v1167h170v-1162q0 -114 -59 -178q-59 -63 -155 -63q-97 0 -155 64q-59 65 -59 177v1162h170z" />
    <glyph glyph-name="Ucircumflex" unicode="&#xdb;" 
d="M311 1456l-51 82l-50 -82h-144l109 221h170l110 -221h-144zM216 1391v-1167q0 -77 44 -77t44 77v1167h170v-1162q0 -114 -59 -178q-59 -63 -155 -63q-97 0 -155 64q-59 65 -59 177v1162h170z" />
    <glyph glyph-name="Udieresis" unicode="&#xdc;" 
d="M86 1456v215h148v-215h-148zM286 1456v215h148v-215h-148zM216 1391v-1167q0 -77 44 -77t44 77v1167h170v-1162q0 -114 -59 -178q-59 -63 -155 -63q-97 0 -155 64q-59 65 -59 177v1162h170z" />
    <glyph glyph-name="Yacute" unicode="&#xdd;" horiz-adv-x="526" 
d="M178 0v397l-177 994h177l85 -689l86 689h176l-177 -994v-397h-170zM446 1677l-116 -221h-135l64 221h187z" />
    <glyph glyph-name="Thorn" unicode="&#xde;" horiz-adv-x="509" 
d="M48 0v1391h170v-236h37q99 0 160 -64t61 -178v-311q0 -114 -61 -178t-160 -64h-37v-360h-170zM255 995h-37v-475h37q51 0 51 77v322q0 76 -51 76z" />
    <glyph glyph-name="germandbls" unicode="&#xdf;" horiz-adv-x="503" 
d="M244 0v160h12q44 0 44 77v312q0 45 -11 60q-12 17 -34 17h-11v159h7q43 0 43 77v304q0 77 -44 77t-44 -77v-1166h-164v1161q0 114 58 178t150 64t150 -64t58 -178v-271q0 -115 -61 -182q67 -67 67 -186v-280q0 -117 -58 -179q-58 -63 -154 -63h-8z" />
    <glyph glyph-name="agrave" unicode="&#xe0;" horiz-adv-x="491" 
d="M40 480q0 93 23 135q25 45 98 91l86 55q24 15 32 29q7 13 7 47v82q0 42 -11 59t-30 17q-20 0 -31 -17q-10 -16 -10 -59v-127h-164v121q0 113 57 178q57 64 148 64t148 -64q57 -65 57 -178v-657q0 -86 4 -143q5 -72 8 -88l4 -25h-158q-6 25 -12 74q-36 -86 -116 -86
q-66 0 -102 54q-38 56 -38 151v287zM204 489v-259q0 -76 39 -76q31 0 45 41q-2 88 -2 107v315l-54 -49q-17 -16 -23 -32q-5 -14 -5 -47zM178 1208l-117 222h188l64 -222h-135z" />
    <glyph glyph-name="aacute" unicode="&#xe1;" horiz-adv-x="491" 
d="M40 480q0 93 23 135q25 45 98 91l86 55q24 15 32 29q7 13 7 47v82q0 42 -11 59t-30 17q-20 0 -31 -17q-10 -16 -10 -59v-127h-164v121q0 113 57 178q57 64 148 64t148 -64q57 -65 57 -178v-657q0 -86 4 -143q5 -72 8 -88l4 -25h-158q-6 25 -12 74q-36 -86 -116 -86
q-66 0 -102 54q-38 56 -38 151v287zM204 489v-259q0 -76 39 -76q31 0 45 41q-2 88 -2 107v315l-54 -49q-17 -16 -23 -32q-5 -14 -5 -47zM428 1430l-117 -222h-135l65 222h187z" />
    <glyph glyph-name="acircumflex" unicode="&#xe2;" horiz-adv-x="491" 
d="M40 480q0 93 23 135q25 45 98 91l86 55q24 15 32 29q7 13 7 47v82q0 42 -11 59t-30 17q-20 0 -31 -17q-10 -16 -10 -59v-127h-164v121q0 113 57 178q57 64 148 64t148 -64q57 -65 57 -178v-657q0 -86 4 -143q5 -72 8 -88l4 -25h-158q-6 25 -12 74q-36 -86 -116 -86
q-66 0 -102 54q-38 56 -38 151v287zM204 489v-259q0 -76 39 -76q31 0 45 41q-2 88 -2 107v315l-54 -49q-17 -16 -23 -32q-5 -14 -5 -47zM296 1208l-51 82l-50 -82h-145l110 222h170l109 -222h-143z" />
    <glyph glyph-name="atilde" unicode="&#xe3;" horiz-adv-x="491" 
d="M40 480q0 93 23 135q25 45 98 91l86 55q24 15 32 29q7 13 7 47v82q0 42 -11 59t-30 17q-20 0 -31 -17q-10 -16 -10 -59v-127h-164v121q0 113 57 178q57 64 148 64t148 -64q57 -65 57 -178v-657q0 -86 4 -143q5 -72 8 -88l4 -25h-158q-6 25 -12 74q-36 -86 -116 -86
q-66 0 -102 54q-38 56 -38 151v287zM204 489v-259q0 -76 39 -76q31 0 45 41q-2 88 -2 107v315l-54 -49q-17 -16 -23 -32q-5 -14 -5 -47zM282 1226l-67 34q-14 7 -21 7q-13 0 -13 -16v-43h-133v113q0 104 89 104q35 0 73 -19l66 -34q14 -7 22 -7q12 0 12 15v43h133v-112
q0 -105 -89 -105q-32 0 -72 20z" />
    <glyph glyph-name="adieresis" unicode="&#xe4;" horiz-adv-x="491" 
d="M40 480q0 93 23 135q25 45 98 91l86 55q24 15 32 29q7 13 7 47v82q0 42 -11 59t-30 17q-20 0 -31 -17q-10 -16 -10 -59v-127h-164v121q0 113 57 178q57 64 148 64t148 -64q57 -65 57 -178v-657q0 -86 4 -143q5 -72 8 -88l4 -25h-158q-6 25 -12 74q-36 -86 -116 -86
q-66 0 -102 54q-38 56 -38 151v287zM204 489v-259q0 -76 39 -76q31 0 45 41q-2 88 -2 107v315l-54 -49q-17 -16 -23 -32q-5 -14 -5 -47zM71 1208v215h148v-215h-148zM270 1208v215h149v-215h-149z" />
    <glyph glyph-name="aring" unicode="&#xe5;" horiz-adv-x="491" 
d="M40 480q0 93 23 135q25 45 98 91l86 55q24 15 32 29q7 13 7 47v82q0 42 -11 59t-30 17q-20 0 -31 -17q-10 -16 -10 -59v-127h-164v121q0 113 57 178q57 64 148 64t148 -64q57 -65 57 -178v-657q0 -86 4 -143q5 -72 8 -88l4 -25h-158q-6 25 -12 74q-36 -86 -116 -86
q-66 0 -102 54q-38 56 -38 151v287zM204 489v-259q0 -76 39 -76q31 0 45 41q-2 88 -2 107v315l-54 -49q-17 -16 -23 -32q-5 -14 -5 -47zM72 1329q0 66 47 104q45 36 126 36t126 -36q47 -38 47 -104q0 -68 -47 -104t-126 -36t-126 36t-47 104zM245 1283q50 0 50 46t-50 46
t-50 -46t50 -46z" />
    <glyph glyph-name="ccedilla" unicode="&#xe7;" horiz-adv-x="487" 
d="M204 919v-695q0 -42 10 -60q9 -17 31 -17q21 0 30 17q10 18 10 60v260h164v-255q0 -90 -38 -151q-37 -59 -101 -80l30 -50q28 -48 28 -94q0 -112 -134 -112h-120v133h87q21 0 21 19q0 12 -14 34l-45 75q-58 24 -90 81q-33 58 -33 145v684q0 115 56 179q56 63 147 63
t148 -64q58 -66 58 -178v-255h-164v261q0 41 -10 59q-9 17 -30 17q-22 0 -31 -17q-10 -18 -10 -59z" />
    <glyph glyph-name="egrave" unicode="&#xe8;" horiz-adv-x="489" 
d="M178 1208l-117 222h188l64 -222h-135zM204 464v-240q0 -77 41 -77t41 77v161h164v-156q0 -112 -57 -177q-57 -64 -148 -64t-148 64q-57 65 -57 177v684q0 113 57 178q57 64 148 64t148 -64q57 -65 57 -178v-449h-246zM204 919v-309h82v309q0 42 -11 59t-30 17
q-20 0 -31 -17q-10 -16 -10 -59z" />
    <glyph glyph-name="eacute" unicode="&#xe9;" horiz-adv-x="489" 
d="M428 1430l-117 -222h-135l65 222h187zM204 464v-240q0 -77 41 -77t41 77v161h164v-156q0 -112 -57 -177q-57 -64 -148 -64t-148 64q-57 65 -57 177v684q0 113 57 178q57 64 148 64t148 -64q57 -65 57 -178v-449h-246zM204 919v-309h82v309q0 42 -11 59t-30 17
q-20 0 -31 -17q-10 -16 -10 -59z" />
    <glyph glyph-name="ecircumflex" unicode="&#xea;" horiz-adv-x="489" 
d="M245 1290l-51 -82h-144l110 222h170l109 -222h-144zM204 464v-240q0 -77 41 -77t41 77v161h164v-156q0 -112 -57 -177q-57 -64 -148 -64t-148 64q-57 65 -57 177v684q0 113 57 178q57 64 148 64t148 -64q57 -65 57 -178v-449h-246zM204 919v-309h82v309q0 42 -11 59
t-30 17q-20 0 -31 -17q-10 -16 -10 -59z" />
    <glyph glyph-name="edieresis" unicode="&#xeb;" horiz-adv-x="489" 
d="M419 1423v-215h-149v215h149zM219 1423v-215h-148v215h148zM204 464v-240q0 -77 41 -77t41 77v161h164v-156q0 -112 -57 -177q-57 -64 -148 -64t-148 64q-57 65 -57 177v684q0 113 57 178q57 64 148 64t148 -64q57 -65 57 -178v-449h-246zM204 919v-309h82v309
q0 42 -11 59t-30 17q-20 0 -31 -17q-10 -16 -10 -59z" />
    <glyph glyph-name="igrave" unicode="&#xec;" horiz-adv-x="247" 
d="M57 1208l-116 222h187l65 -222h-136zM42 0v1143h164v-1143h-164z" />
    <glyph glyph-name="iacute" unicode="&#xed;" horiz-adv-x="247" 
d="M307 1430l-117 -222h-135l65 222h187zM42 0v1143h164v-1143h-164z" />
    <glyph glyph-name="icircumflex" unicode="&#xee;" horiz-adv-x="247" 
d="M175 1208l-51 82l-50 -82h-145l110 222h170l109 -222h-143zM42 0v1143h164v-1143h-164z" />
    <glyph glyph-name="idieresis" unicode="&#xef;" horiz-adv-x="247" 
d="M-50 1208v215h148v-215h-148zM150 1208v215h148v-215h-148zM42 0v1143h164v-1143h-164z" />
    <glyph glyph-name="eth" unicode="&#xf0;" horiz-adv-x="495" 
d="M456 937v-708q0 -113 -58 -177t-150 -64t-150 64t-58 177v721q0 94 33 150q33 55 89 55q23 0 41 -7q19 -8 33 -18q18 -14 23 -20q9 -11 13 -17l4 -8q-14 25 -54 87l-147 219h180l106 -157q59 -88 76 -147q19 -65 19 -150zM204 912v-688q0 -77 44 -77t44 77v719l-2 5
q-1 5 -2 8q-3 7 -16 20t-29 13q-39 0 -39 -77zM60 1175v112l396 104v-113z" />
    <glyph glyph-name="ntilde" unicode="&#xf1;" horiz-adv-x="499" 
d="M458 950v-950h-164v912q0 77 -40 77q-17 0 -28 -11t-16 -24l-4 -11v-943h-164v1143h155l6 -65q38 77 118 77q62 0 99 -55q38 -56 38 -150zM286 1226l-67 34q-14 7 -21 7q-13 0 -13 -16v-43h-133v113q0 104 89 104q35 0 73 -19l67 -34q14 -7 21 -7q12 0 12 15v43h133v-112
q0 -105 -89 -105q-32 0 -72 20z" />
    <glyph glyph-name="ograve" unicode="&#xf2;" horiz-adv-x="501" 
d="M184 1208l-116 222h187l64 -222h-135zM40 229v684q0 113 59 178q58 64 152 64t152 -64q59 -65 59 -178v-684q0 -112 -59 -177q-58 -64 -152 -64t-152 64q-59 65 -59 177zM204 919v-695q0 -77 47 -77t47 77v695q0 43 -12 59q-12 17 -35 17t-35 -17q-12 -16 -12 -59z" />
    <glyph glyph-name="oacute" unicode="&#xf3;" horiz-adv-x="501" 
d="M434 1430l-117 -222h-135l65 222h187zM40 229v684q0 113 59 178q58 64 152 64t152 -64q59 -65 59 -178v-684q0 -112 -59 -177q-58 -64 -152 -64t-152 64q-59 65 -59 177zM204 919v-695q0 -77 47 -77t47 77v695q0 43 -12 59q-12 17 -35 17t-35 -17q-12 -16 -12 -59z" />
    <glyph glyph-name="ocircumflex" unicode="&#xf4;" horiz-adv-x="501" 
d="M302 1208l-51 82l-50 -82h-145l110 222h170l109 -222h-143zM40 229v684q0 113 59 178q58 64 152 64t152 -64q59 -65 59 -178v-684q0 -112 -59 -177q-58 -64 -152 -64t-152 64q-59 65 -59 177zM204 919v-695q0 -77 47 -77t47 77v695q0 43 -12 59q-12 17 -35 17t-35 -17
q-12 -16 -12 -59z" />
    <glyph glyph-name="otilde" unicode="&#xf5;" horiz-adv-x="501" 
d="M40 229v684q0 113 59 178q58 64 152 64t152 -64q59 -65 59 -178v-684q0 -112 -59 -177q-58 -64 -152 -64t-152 64q-59 65 -59 177zM204 919v-695q0 -77 47 -77t47 77v695q0 43 -12 59q-12 17 -35 17t-35 -17q-12 -16 -12 -59zM287 1226l-67 34q-14 7 -21 7q-13 0 -13 -16
v-43h-133v113q0 104 89 104q35 0 73 -19l67 -34q14 -7 21 -7q12 0 12 15v43h134v-112q0 -105 -90 -105q-32 0 -72 20z" />
    <glyph glyph-name="odieresis" unicode="&#xf6;" horiz-adv-x="501" 
d="M77 1208v215h148v-215h-148zM276 1208v215h149v-215h-149zM40 229v684q0 113 59 178q58 64 152 64t152 -64q59 -65 59 -178v-684q0 -112 -59 -177q-58 -64 -152 -64t-152 64q-59 65 -59 177zM204 919v-695q0 -77 47 -77t47 77v695q0 43 -12 59q-12 17 -35 17t-35 -17
q-12 -16 -12 -59z" />
    <glyph glyph-name="divide" unicode="&#xf7;" horiz-adv-x="559" 
d="M361 675h-162v185h162v-185zM199 407h162v-186h-162v186zM32 461v160h495v-160h-495z" />
    <glyph glyph-name="oslash" unicode="&#xf8;" horiz-adv-x="501" 
d="M40 229v684q0 113 59 178q58 64 152 64t152 -64q59 -65 59 -178v-684q0 -112 -59 -177q-58 -64 -152 -64t-152 64q-59 65 -59 177zM204 919v-695q0 -77 47 -77t47 77v695q0 43 -12 59q-12 17 -35 17t-35 -17q-12 -16 -12 -59zM40 -73l373 1288h49l-373 -1288h-49z" />
    <glyph glyph-name="ugrave" unicode="&#xf9;" horiz-adv-x="499" 
d="M183 1208l-116 222h187l64 -222h-135zM42 193v950h164v-919q0 -77 40 -77q16 0 28 12t16 23l4 13v948h164v-1143h-155l-7 61q-37 -73 -117 -73q-62 0 -99 55q-38 56 -38 150z" />
    <glyph glyph-name="uacute" unicode="&#xfa;" horiz-adv-x="499" 
d="M433 1430l-117 -222h-135l65 222h187zM42 193v950h164v-919q0 -77 40 -77q16 0 28 12t16 23l4 13v948h164v-1143h-155l-7 61q-37 -73 -117 -73q-62 0 -99 55q-38 56 -38 150z" />
    <glyph glyph-name="ucircumflex" unicode="&#xfb;" horiz-adv-x="499" 
d="M302 1208l-51 82l-50 -82h-145l110 222h170l109 -222h-143zM42 193v950h164v-919q0 -77 40 -77q16 0 28 12t16 23l4 13v948h164v-1143h-155l-7 61q-37 -73 -117 -73q-62 0 -99 55q-38 56 -38 150z" />
    <glyph glyph-name="udieresis" unicode="&#xfc;" horiz-adv-x="499" 
d="M77 1208v215h148v-215h-148zM276 1208v215h149v-215h-149zM42 193v950h164v-919q0 -77 40 -77q16 0 28 12t16 23l4 13v948h164v-1143h-155l-7 61q-37 -73 -117 -73q-62 0 -99 55q-38 56 -38 150z" />
    <glyph glyph-name="yacute" unicode="&#xfd;" horiz-adv-x="476" 
d="M165 1143l63 -763l81 763h166l-200 -1401h-156l33 222l-151 1179h164zM421 1430l-117 -222h-135l64 222h188z" />
    <glyph glyph-name="thorn" unicode="&#xfe;" horiz-adv-x="499" 
d="M458 950v-757q0 -94 -38 -150q-37 -55 -99 -55q-78 0 -115 71v-317h-164v1649h164v-308q38 72 115 72q62 0 99 -55q38 -56 38 -150zM294 230v682q0 77 -40 77q-17 0 -28 -11t-16 -24l-4 -11v-742l2 -5q1 -5 2 -8q3 -8 15 -21t29 -13q40 0 40 76z" />
    <glyph glyph-name="ydieresis" unicode="&#xff;" horiz-adv-x="476" 
d="M165 1143l63 -763l81 763h166l-200 -1401h-156l33 222l-151 1179h164zM63 1208v215h149v-215h-149zM263 1208v215h149v-215h-149z" />
    <glyph glyph-name="Amacron" unicode="&#x100;" horiz-adv-x="514" 
d="M11 0l145 1391h210l137 -1391h-169l-18 231h-114l-17 -231h-174zM261 1057l-48 -675h93zM73 1478v144h368v-144h-368z" />
    <glyph glyph-name="amacron" unicode="&#x101;" horiz-adv-x="491" 
d="M40 480q0 93 23 135q25 45 98 91l86 55q24 15 32 29q7 13 7 47v82q0 42 -11 59t-30 17q-20 0 -31 -17q-10 -16 -10 -59v-127h-164v121q0 113 57 178q57 64 148 64t148 -64q57 -65 57 -178v-657q0 -86 4 -143q5 -72 8 -88l4 -25h-158q-6 25 -12 74q-36 -86 -116 -86
q-66 0 -102 54q-38 56 -38 151v287zM204 489v-259q0 -76 39 -76q31 0 45 41q-2 88 -2 107v315l-54 -49q-17 -16 -23 -32q-5 -14 -5 -47zM60 1230v144h369v-144h-369z" />
    <glyph glyph-name="Abreve" unicode="&#x102;" horiz-adv-x="514" 
d="M11 0l145 1391h210l137 -1391h-169l-18 231h-114l-17 -231h-174zM261 1057l-48 -675h93zM438 1673v-19q0 -98 -47 -149q-48 -53 -134 -53q-85 0 -133 53t-48 149v19h135v-18q0 -88 46 -88q47 0 47 88v18h134z" />
    <glyph glyph-name="abreve" unicode="&#x103;" horiz-adv-x="491" 
d="M40 480q0 93 23 135q25 45 98 91l86 55q24 15 32 29q7 13 7 47v82q0 42 -11 59t-30 17q-20 0 -31 -17q-10 -16 -10 -59v-127h-164v121q0 113 57 178q57 64 148 64t148 -64q57 -65 57 -178v-657q0 -86 4 -143q5 -72 8 -88l4 -25h-158q-6 25 -12 74q-36 -86 -116 -86
q-66 0 -102 54q-38 56 -38 151v287zM204 489v-259q0 -76 39 -76q31 0 45 41q-2 88 -2 107v315l-54 -49q-17 -16 -23 -32q-5 -14 -5 -47zM426 1425v-19q0 -96 -48 -149t-133 -53t-133 53q-49 54 -49 149v19h136v-18q0 -88 46 -88q47 0 47 88v18h134z" />
    <glyph glyph-name="Aogonek" unicode="&#x104;" horiz-adv-x="514" 
d="M11 0l145 1391h210l137 -1391l-88 -87q-13 -13 -13 -24q0 -14 18 -14h75v-133h-150q-51 0 -82 24q-32 24 -32 73t58 109l45 46l-18 237h-114l-17 -231h-174zM261 1057l-48 -675h93z" />
    <glyph glyph-name="aogonek" unicode="&#x105;" horiz-adv-x="491" 
d="M40 480q0 93 23 135q25 45 98 91l86 55q24 15 32 29q7 13 7 47v82q0 42 -11 59t-30 17q-20 0 -31 -17q-10 -16 -10 -59v-127h-164v121q0 113 57 178q57 64 148 64t148 -64q57 -65 57 -178v-657q0 -86 4 -143q5 -72 8 -88l4 -25l-88 -87q-12 -12 -12 -24q0 -14 17 -14h75
v-133h-150q-50 0 -82 24q-31 24 -31 73q0 51 57 109l55 56q-2 9 -11 70q-36 -86 -116 -86q-66 0 -102 54q-38 56 -38 151v287zM204 489v-259q0 -76 39 -76q31 0 45 41q-2 88 -2 107v315l-54 -49q-17 -16 -23 -32q-5 -14 -5 -47z" />
    <glyph glyph-name="Cacute" unicode="&#x106;" horiz-adv-x="512" 
d="M440 1677l-116 -221h-136l65 221h187zM216 1166v-942q0 -77 41 -77t41 77v390h170v-385q0 -116 -58 -178q-58 -63 -153 -63t-153 64t-58 177v932q0 114 58 178t153 64q94 0 153 -64q58 -62 58 -178v-373h-170v378q0 77 -41 77t-41 -77z" />
    <glyph glyph-name="cacute" unicode="&#x107;" horiz-adv-x="487" 
d="M428 1430l-117 -222h-135l65 222h187zM204 919v-695q0 -42 10 -60q9 -17 31 -17q21 0 30 17q10 18 10 60v260h164v-255q0 -111 -58 -177q-57 -64 -148 -64t-147 63q-56 64 -56 178v684q0 115 56 179q56 63 147 63t148 -64q58 -66 58 -178v-255h-164v261q0 41 -10 59
q-9 17 -30 17q-22 0 -31 -17q-10 -18 -10 -59z" />
    <glyph glyph-name="Ccircumflex" unicode="&#x108;" horiz-adv-x="512" 
d="M308 1456l-51 82l-50 -82h-145l110 221h170l110 -221h-144zM216 1166v-942q0 -77 41 -77t41 77v390h170v-385q0 -116 -58 -178q-58 -63 -153 -63t-153 64t-58 177v932q0 114 58 178t153 64q94 0 153 -64q58 -62 58 -178v-373h-170v378q0 77 -41 77t-41 -77z" />
    <glyph glyph-name="ccircumflex" unicode="&#x109;" horiz-adv-x="487" 
d="M296 1208l-51 82l-50 -82h-145l110 222h170l109 -222h-143zM204 919v-695q0 -42 10 -60q9 -17 31 -17q21 0 30 17q10 18 10 60v260h164v-255q0 -111 -58 -177q-57 -64 -148 -64t-147 63q-56 64 -56 178v684q0 115 56 179q56 63 147 63t148 -64q58 -66 58 -178v-255h-164
v261q0 41 -10 59q-9 17 -30 17q-22 0 -31 -17q-10 -18 -10 -59z" />
    <glyph glyph-name="Cdotaccent" unicode="&#x10a;" horiz-adv-x="512" 
d="M216 1166v-942q0 -77 41 -77t41 77v390h170v-385q0 -116 -58 -178q-58 -63 -153 -63t-153 64t-58 177v932q0 114 58 178t153 64q94 0 153 -64q58 -62 58 -178v-373h-170v378q0 77 -41 77t-41 -77zM173 1456v190h168v-190h-168z" />
    <glyph glyph-name="cdotaccent" unicode="&#x10b;" horiz-adv-x="487" 
d="M204 919v-695q0 -42 10 -60q9 -17 31 -17q21 0 30 17q10 18 10 60v260h164v-255q0 -111 -58 -177q-57 -64 -148 -64t-147 63q-56 64 -56 178v684q0 115 56 179q56 63 147 63t148 -64q58 -66 58 -178v-255h-164v261q0 41 -10 59q-9 17 -30 17q-22 0 -31 -17
q-10 -18 -10 -59zM161 1208v190h168v-190h-168z" />
    <glyph glyph-name="Ccaron" unicode="&#x10c;" horiz-adv-x="512" 
d="M257 1596l51 81h144l-110 -221h-170l-110 221h145zM216 1166v-942q0 -77 41 -77t41 77v390h170v-385q0 -116 -58 -178q-58 -63 -153 -63t-153 64t-58 177v932q0 114 58 178t153 64q94 0 153 -64q58 -62 58 -178v-373h-170v378q0 77 -41 77t-41 -77z" />
    <glyph glyph-name="ccaron" unicode="&#x10d;" horiz-adv-x="487" 
d="M245 1349l51 81h143l-109 -222h-170l-110 222h145zM204 919v-695q0 -42 10 -60q9 -17 31 -17q21 0 30 17q10 18 10 60v260h164v-255q0 -111 -58 -177q-57 -64 -148 -64t-147 63q-56 64 -56 178v684q0 115 56 179q56 63 147 63t148 -64q58 -66 58 -178v-255h-164v261
q0 41 -10 59q-9 17 -30 17q-22 0 -31 -17q-10 -18 -10 -59z" />
    <glyph glyph-name="Dcaron" unicode="&#x10e;" horiz-adv-x="516" 
d="M253 1596l51 81h143l-109 -221h-170l-110 221h145zM48 0v1391h201q99 0 160 -64t61 -178v-907q0 -114 -61 -178t-160 -64h-201zM249 1231h-31v-1071h31q51 0 51 77v917q0 77 -51 77z" />
    <glyph glyph-name="dcaron" unicode="&#x10f;" horiz-adv-x="497" 
d="M686 1391l-69 -198h-119l14 198h174zM40 950v-757q0 -94 38 -150q37 -55 99 -55q79 0 117 77l7 -65h155v1391h-164v-308q-39 72 -115 72q-62 0 -99 -55q-38 -56 -38 -150zM204 230v682q0 77 40 77q17 0 28 -11t16 -24l4 -11v-742l-2 -5q-1 -5 -2 -8q-2 -5 -16 -21
q-12 -13 -28 -13q-40 0 -40 76z" />
    <glyph glyph-name="Dcroat" unicode="&#x110;" horiz-adv-x="536" 
d="M10 622v159h59v610h200q99 0 160 -64t61 -178v-907q0 -114 -61 -178t-160 -64h-200v622h-59zM269 1231h-30v-450h41v-159h-41v-462h30q52 0 52 77v917q0 77 -52 77z" />
    <glyph glyph-name="dcroat" unicode="&#x111;" horiz-adv-x="497" 
d="M157 1210v111h135v70h164v-70h52v-111h-52v-1210h-155l-7 65q-38 -77 -117 -77q-62 0 -99 55q-38 56 -38 150v757q0 94 38 150q37 55 99 55q76 0 115 -72v127h-135zM204 912v-682q0 -76 40 -76q17 0 28 11q12 12 16 23l4 13v742l-2 5q-1 5 -2 8q-1 4 -16 20
q-12 13 -28 13q-40 0 -40 -77z" />
    <glyph glyph-name="Emacron" unicode="&#x112;" horiz-adv-x="434" 
d="M48 0v1391h356v-160h-186v-450h157v-159h-157v-462h186v-160h-356zM42 1478v144h369v-144h-369z" />
    <glyph glyph-name="emacron" unicode="&#x113;" horiz-adv-x="489" 
d="M204 464v-240q0 -77 41 -77t41 77v161h164v-156q0 -112 -57 -177q-57 -64 -148 -64t-148 64q-57 65 -57 177v684q0 113 57 178q57 64 148 64t148 -64q57 -65 57 -178v-449h-246zM204 919v-309h82v309q0 42 -11 59t-30 17q-20 0 -31 -17q-10 -16 -10 -59zM429 1374v-144
h-369v144h369z" />
    <glyph glyph-name="Ebreve" unicode="&#x114;" horiz-adv-x="434" 
d="M48 0v1391h356v-160h-186v-450h157v-159h-157v-462h186v-160h-356zM408 1673v-19q0 -96 -48 -149t-134 -53q-85 0 -133 53t-48 149v19h135v-18q0 -88 46 -88q47 0 47 88v18h135z" />
    <glyph glyph-name="ebreve" unicode="&#x115;" horiz-adv-x="489" 
d="M204 464v-240q0 -77 41 -77t41 77v161h164v-156q0 -112 -57 -177q-57 -64 -148 -64t-148 64q-57 65 -57 177v684q0 113 57 178q57 64 148 64t148 -64q57 -65 57 -178v-449h-246zM204 919v-309h82v309q0 42 -11 59t-30 17q-20 0 -31 -17q-10 -16 -10 -59zM63 1406v19h135
v-18q0 -88 47 -88q46 0 46 88v18h135v-19q0 -96 -48 -149t-133 -53q-86 0 -134 53t-48 149z" />
    <glyph glyph-name="Edotaccent" unicode="&#x116;" horiz-adv-x="434" 
d="M48 0v1391h356v-160h-186v-450h157v-159h-157v-462h186v-160h-356zM142 1456v190h168v-190h-168z" />
    <glyph glyph-name="edotaccent" unicode="&#x117;" horiz-adv-x="489" 
d="M204 464v-240q0 -77 41 -77t41 77v161h164v-156q0 -112 -57 -177q-57 -64 -148 -64t-148 64q-57 65 -57 177v684q0 113 57 178q57 64 148 64t148 -64q57 -65 57 -178v-449h-246zM204 919v-309h82v309q0 42 -11 59t-30 17q-20 0 -31 -17q-10 -16 -10 -59zM329 1398v-190
h-168v190h168z" />
    <glyph glyph-name="Eogonek" unicode="&#x118;" horiz-adv-x="434" 
d="M48 0v1391h356v-160h-186v-450h157v-159h-157v-462h186v-160l-88 -87q-12 -12 -12 -24q0 -14 18 -14h74v-133h-149q-51 0 -83 24q-31 24 -31 73q0 51 57 109l52 52h-194z" />
    <glyph glyph-name="eogonek" unicode="&#x119;" horiz-adv-x="489" 
d="M204 464v-240q0 -77 41 -77t41 77v161h164v-156q0 -121 -66 -187l-131 -129q-12 -12 -12 -24q0 -14 17 -14h75v-133h-150q-51 0 -82 24t-31 73q0 51 57 109l50 51q-63 19 -100 79q-37 59 -37 151v684q0 113 57 178q57 64 148 64t148 -64q57 -65 57 -178v-449h-246z
M204 919v-309h82v309q0 42 -11 59t-30 17q-20 0 -31 -17q-10 -16 -10 -59z" />
    <glyph glyph-name="Ecaron" unicode="&#x11a;" horiz-adv-x="434" 
d="M226 1596l52 81h143l-110 -221h-170l-109 221h144zM48 0v1391h356v-160h-186v-450h157v-159h-157v-462h186v-160h-356z" />
    <glyph glyph-name="ecaron" unicode="&#x11b;" horiz-adv-x="489" 
d="M194 1430l51 -81l50 81h144l-109 -222h-170l-110 222h144zM204 464v-240q0 -77 41 -77t41 77v161h164v-156q0 -112 -57 -177q-57 -64 -148 -64t-148 64q-57 65 -57 177v684q0 113 57 178q57 64 148 64t148 -64q57 -65 57 -178v-449h-246zM204 919v-309h82v309
q0 42 -11 59t-30 17q-20 0 -31 -17q-10 -16 -10 -59z" />
    <glyph glyph-name="Gcircumflex" unicode="&#x11c;" horiz-adv-x="525" 
d="M313 1456l-51 82l-50 -82h-144l109 221h170l110 -221h-144zM262 613v160h217v-773h-141l-10 56q-46 -68 -127 -68q-73 0 -114 54q-41 55 -41 151v968q0 116 59 178q61 64 157 64t157 -64q60 -63 60 -178v-214h-170v219q0 44 -12 60q-12 17 -35 17q-46 0 -46 -77v-936
q0 -76 46 -76q47 0 47 76v383h-47z" />
    <glyph glyph-name="gcircumflex" unicode="&#x11d;" horiz-adv-x="497" 
d="M311 1208l-51 82l-50 -82h-144l109 222h170l110 -222h-144zM40 193v757q0 94 38 150q37 55 99 55q79 0 117 -77l7 65h155v-1190q0 -111 -55 -167t-153 -56t-152 54t-56 163h164q2 -64 44 -64q44 0 44 68v108q-37 -71 -115 -71q-62 0 -99 55q-38 56 -38 150zM204 912v-682
q0 -76 40 -76q17 0 28 11q12 12 16 23l4 13v742l-2 5q-1 5 -2 8q-1 4 -16 20q-12 13 -28 13q-40 0 -40 -77z" />
    <glyph glyph-name="Gbreve" unicode="&#x11e;" horiz-adv-x="525" 
d="M262 613v160h217v-773h-141l-10 56q-46 -68 -127 -68q-73 0 -114 54q-41 55 -41 151v968q0 116 59 178q61 64 157 64t157 -64q60 -63 60 -178v-214h-170v219q0 44 -12 60q-12 17 -35 17q-46 0 -46 -77v-936q0 -76 46 -76q47 0 47 76v383h-47zM443 1673v-19
q0 -98 -47 -149q-48 -53 -134 -53q-85 0 -133 53t-48 149v19h135v-18q0 -88 46 -88q47 0 47 88v18h134z" />
    <glyph glyph-name="gbreve" unicode="&#x11f;" horiz-adv-x="497" 
d="M40 193v757q0 94 38 150q37 55 99 55q79 0 117 -77l7 65h155v-1190q0 -111 -55 -167t-153 -56t-152 54t-56 163h164q2 -64 44 -64q44 0 44 68v108q-37 -71 -115 -71q-62 0 -99 55q-38 56 -38 150zM204 912v-682q0 -76 40 -76q17 0 28 11q12 12 16 23l4 13v742l-2 5
q-1 5 -2 8q-1 4 -16 20q-12 13 -28 13q-40 0 -40 -77zM441 1425v-19q0 -98 -47 -149q-48 -53 -134 -53q-85 0 -133 53t-48 149v19h135v-18q0 -88 46 -88q47 0 47 88v18h134z" />
    <glyph glyph-name="Gdotaccent" unicode="&#x120;" horiz-adv-x="525" 
d="M262 613v160h217v-773h-141l-10 56q-46 -68 -127 -68q-73 0 -114 54q-41 55 -41 151v968q0 116 59 178q61 64 157 64t157 -64q60 -63 60 -178v-214h-170v219q0 44 -12 60q-12 17 -35 17q-46 0 -46 -77v-936q0 -76 46 -76q47 0 47 76v383h-47zM178 1456v190h168v-190h-168
z" />
    <glyph glyph-name="gdotaccent" unicode="&#x121;" horiz-adv-x="497" 
d="M40 193v757q0 94 38 150q37 55 99 55q79 0 117 -77l7 65h155v-1190q0 -111 -55 -167t-153 -56t-152 54t-56 163h164q2 -64 44 -64q44 0 44 68v108q-37 -71 -115 -71q-62 0 -99 55q-38 56 -38 150zM204 912v-682q0 -76 40 -76q17 0 28 11q12 12 16 23l4 13v742l-2 5
q-1 5 -2 8q-1 4 -16 20q-12 13 -28 13q-40 0 -40 -77zM176 1208v190h168v-190h-168z" />
    <glyph glyph-name="Gcommaaccent" unicode="&#x122;" horiz-adv-x="525" 
d="M184 -270v204h157v-122q0 -76 -25 -124l-37 -72h-95l52 114h-52zM262 613v160h217v-773h-141l-10 56q-46 -68 -127 -68q-73 0 -114 54q-41 55 -41 151v968q0 116 59 178q61 64 157 64t157 -64q60 -63 60 -178v-214h-170v219q0 44 -12 60q-12 17 -35 17q-46 0 -46 -77
v-936q0 -76 46 -76q47 0 47 76v383h-47z" />
    <glyph glyph-name="gcommaaccent" unicode="&#x123;" horiz-adv-x="497" 
d="M338 1413v-205h-157v123q0 76 25 124l38 72h94l-51 -114h51zM40 193v757q0 94 38 150q37 55 99 55q79 0 117 -77l7 65h155v-1190q0 -111 -55 -167t-153 -56t-152 54t-56 163h164q2 -64 44 -64q44 0 44 68v108q-37 -71 -115 -71q-62 0 -99 55q-38 56 -38 150zM204 912
v-682q0 -76 40 -76q17 0 28 11q12 12 16 23l4 13v742l-2 5q-1 5 -2 8q-1 4 -16 20q-12 13 -28 13q-40 0 -40 -77z" />
    <glyph glyph-name="Hcircumflex" unicode="&#x124;" horiz-adv-x="548" 
d="M326 1456l-52 82l-50 -82h-144l109 221h170l110 -221h-143zM331 0v622h-113v-622h-170v1391h170v-610h113v610h170v-1391h-170z" />
    <glyph glyph-name="hcircumflex" unicode="&#x125;" horiz-adv-x="499" 
d="M175 1456l-51 82l-50 -82h-145l110 221h170l109 -221h-143zM458 950v-950h-164v912q0 77 -40 77q-17 0 -28 -11t-16 -24l-4 -11v-943h-164v1391h164v-308q38 72 115 72q62 0 99 -55q38 -56 38 -150z" />
    <glyph glyph-name="Hbar" unicode="&#x126;" horiz-adv-x="589" 
d="M351 0v622h-112v-622h-170v1026h-59v120h59v245h170v-245h112v245h170v-245h59v-120h-59v-1026h-170zM239 1026v-245h112v245h-112z" />
    <glyph glyph-name="hbar" unicode="&#x127;" horiz-adv-x="499" 
d="M458 950v-950h-164v912q0 77 -40 77q-17 0 -28 -11t-16 -24l-4 -11v-943h-164v1210h-52v111h52v70h164v-70h135v-111h-135v-127q38 72 115 72q62 0 99 -55q38 -56 38 -150z" />
    <glyph glyph-name="Itilde" unicode="&#x128;" horiz-adv-x="266" 
d="M48 0v1391h170v-1391h-170zM169 1474l-67 33q-14 7 -21 7q-12 0 -12 -15v-43h-134v113q0 104 90 104q34 0 72 -19l67 -34q14 -7 21 -7q13 0 13 15v43h133v-112q0 -105 -89 -105q-33 0 -73 20z" />
    <glyph glyph-name="itilde" unicode="&#x129;" horiz-adv-x="247" 
d="M42 0v1143h164v-1143h-164zM160 1226l-67 34q-14 7 -21 7q-13 0 -13 -16v-43h-133v113q0 104 89 104q35 0 73 -19l67 -34q14 -7 21 -7q12 0 12 15v43h134v-112q0 -105 -90 -105q-32 0 -72 20z" />
    <glyph glyph-name="Imacron" unicode="&#x12a;" horiz-adv-x="266" 
d="M48 0v1391h170v-1391h-170zM-51 1478v144h368v-144h-368z" />
    <glyph glyph-name="imacron" unicode="&#x12b;" horiz-adv-x="247" 
d="M42 0v1143h164v-1143h-164zM-60 1230v144h368v-144h-368z" />
    <glyph glyph-name="Ibreve" unicode="&#x12c;" horiz-adv-x="266" 
d="M48 0v1391h170v-1391h-170zM314 1673v-19q0 -98 -47 -149q-48 -53 -134 -53q-85 0 -133 53t-48 149v19h135v-18q0 -88 46 -88q47 0 47 88v18h134z" />
    <glyph glyph-name="ibreve" unicode="&#x12d;" horiz-adv-x="247" 
d="M42 0v1143h164v-1143h-164zM305 1425v-19q0 -98 -47 -149q-48 -53 -134 -53q-85 0 -133 53t-48 149v19h135v-18q0 -88 46 -88q47 0 47 88v18h134z" />
    <glyph glyph-name="Iogonek" unicode="&#x12e;" horiz-adv-x="266" 
d="M218 3l-91 -90q-12 -12 -12 -24q0 -14 17 -14h75v-133h-150q-50 0 -82 24q-31 24 -31 73q0 51 57 109l47 48v1395h170v-1388z" />
    <glyph glyph-name="iogonek" unicode="&#x12f;" horiz-adv-x="247" 
d="M206 0l-88 -87q-13 -13 -13 -24q0 -14 18 -14h75v-133h-150q-51 0 -82 24q-32 24 -32 73t58 109l50 51v1144h164v-1143zM42 1206v185h164v-185h-164z" />
    <glyph glyph-name="Idotaccent" unicode="&#x130;" horiz-adv-x="266" 
d="M48 0v1391h170v-1391h-170zM49 1456v190h168v-190h-168z" />
    <glyph glyph-name="dotlessi" unicode="&#x131;" horiz-adv-x="247" 
d="M42 0v1143h164v-1143h-164z" />
    <glyph glyph-name="IJ" unicode="&#x132;" horiz-adv-x="786" 
d="M48 0v1391h170v-1391h-170zM482 521v-297q0 -77 44 -77t44 77v1167h170v-1162q0 -114 -59 -178q-59 -63 -155 -63q-97 0 -155 64q-59 65 -59 177v292h170z" />
    <glyph glyph-name="ij" unicode="&#x133;" horiz-adv-x="495" 
d="M42 0v1143h164v-1143h-164zM42 1206v185h164v-185h-164zM290 1206v185h164v-185h-164zM454 -36q0 -119 -61 -176q-61 -56 -170 -58v159q34 1 50 16q17 15 17 52v1186h164v-1179z" />
    <glyph glyph-name="Jcircumflex" unicode="&#x134;" 
d="M440 1456l-51 82l-50 -82h-144l109 221h170l110 -221h-144zM216 521v-297q0 -77 44 -77t44 77v1167h170v-1162q0 -114 -59 -178q-59 -63 -155 -63q-97 0 -155 64q-59 65 -59 177v292h170z" />
    <glyph glyph-name="jcircumflex" unicode="&#x135;" horiz-adv-x="247" 
d="M175 1208l-51 82l-50 -82h-145l110 222h170l109 -222h-143zM206 -36q0 -119 -61 -176q-61 -56 -170 -58v159q35 2 51 16q16 15 16 52v1186h164v-1179z" />
    <glyph glyph-name="Kcommaaccent" unicode="&#x136;" horiz-adv-x="539" 
d="M209 -270v204h157v-122q0 -76 -25 -124l-38 -72h-94l51 114h-51zM48 0v1391h170v-611h15l118 611h174l-143 -658l163 -733h-181l-133 621h-13v-621h-170z" />
    <glyph glyph-name="kcommaaccent" unicode="&#x137;" horiz-adv-x="508" 
d="M195 -270v204h156v-122q0 -78 -24 -124l-38 -72h-94l51 114h-51zM42 0v1391h164v-729h11l128 481h170l-149 -561l149 -582h-174l-126 502h-9v-502h-164z" />
    <glyph glyph-name="kgreenlandic" unicode="&#x138;" horiz-adv-x="508" 
d="M42 0v1143h164v-481h11l128 481h170l-149 -561l149 -582h-174l-126 502h-9v-502h-164z" />
    <glyph glyph-name="Lacute" unicode="&#x139;" horiz-adv-x="438" 
d="M316 1677l-116 -221h-135l64 221h187zM48 0v1391h170v-1231h201v-160h-371z" />
    <glyph glyph-name="lacute" unicode="&#x13a;" horiz-adv-x="247" 
d="M307 1677l-117 -221h-135l65 221h187zM42 0v1391h164v-1391h-164z" />
    <glyph glyph-name="Lcommaaccent" unicode="&#x13b;" horiz-adv-x="438" 
d="M156 -270v204h156v-122q0 -78 -24 -124l-38 -72h-94l51 114h-51zM48 0v1391h170v-1231h201v-160h-371z" />
    <glyph glyph-name="lcommaaccent" unicode="&#x13c;" horiz-adv-x="247" 
d="M46 -270v204h157v-122q0 -76 -25 -124l-38 -72h-94l51 114h-51zM42 0v1391h164v-1391h-164z" />
    <glyph glyph-name="Lcaron" unicode="&#x13d;" horiz-adv-x="438" 
d="M455 1391l-69 -240h-120l15 240h174zM48 0v1391h170v-1231h201v-160h-371z" />
    <glyph glyph-name="lcaron" unicode="&#x13e;" horiz-adv-x="247" 
d="M436 1391l-68 -198h-120l14 198h174zM42 0v1391h164v-1391h-164z" />
    <glyph glyph-name="Ldot" unicode="&#x13f;" horiz-adv-x="438" 
d="M268 590v189h141v-189h-141zM48 0v1391h170v-1231h201v-160h-371z" />
    <glyph glyph-name="ldot" unicode="&#x140;" horiz-adv-x="463" 
d="M286 590v189h140v-189h-140zM42 0v1391h164v-1391h-164z" />
    <glyph glyph-name="Lslash" unicode="&#x141;" horiz-adv-x="472" 
d="M13 514v155l69 56v666h170v-525l131 109v-155l-131 -108v-552h201v-160h-371v570z" />
    <glyph glyph-name="lslash" unicode="&#x142;" horiz-adv-x="295" 
d="M8 565v152l59 49v625h163v-488l58 48v-151l-58 -48v-752h-163v614z" />
    <glyph glyph-name="Nacute" unicode="&#x143;" horiz-adv-x="573" 
d="M470 1677l-117 -221h-135l65 221h187zM340 0l-124 843v-843h-168v1391h185l125 -843v843h167v-1391h-185z" />
    <glyph glyph-name="nacute" unicode="&#x144;" horiz-adv-x="499" 
d="M433 1430l-117 -222h-135l65 222h187zM458 950v-950h-164v912q0 77 -40 77q-17 0 -28 -11t-16 -24l-4 -11v-943h-164v1143h155l6 -65q38 77 118 77q62 0 99 -55q38 -56 38 -150z" />
    <glyph glyph-name="Ncommaaccent" unicode="&#x145;" horiz-adv-x="573" 
d="M209 -270v204h157v-122q0 -76 -25 -124l-38 -72h-94l51 114h-51zM340 0l-124 843v-843h-168v1391h185l125 -843v843h167v-1391h-185z" />
    <glyph glyph-name="ncommaaccent" unicode="&#x146;" horiz-adv-x="499" 
d="M172 -270v204h157v-122q0 -76 -25 -124l-38 -72h-94l51 114h-51zM458 950v-950h-164v912q0 77 -40 77q-17 0 -28 -11t-16 -24l-4 -11v-943h-164v1143h155l6 -65q38 77 118 77q62 0 99 -55q38 -56 38 -150z" />
    <glyph glyph-name="Ncaron" unicode="&#x147;" horiz-adv-x="573" 
d="M287 1596l51 81h143l-109 -221h-170l-110 221h145zM340 0l-124 843v-843h-168v1391h185l125 -843v843h167v-1391h-185z" />
    <glyph glyph-name="ncaron" unicode="&#x148;" horiz-adv-x="499" 
d="M250 1349l51 81h143l-109 -222h-170l-110 222h145zM458 950v-950h-164v912q0 77 -40 77q-17 0 -28 -11t-16 -24l-4 -11v-943h-164v1143h155l6 -65q38 77 118 77q62 0 99 -55q38 -56 38 -150z" />
    <glyph glyph-name="Eng" unicode="&#x14a;" horiz-adv-x="573" 
d="M233 1391l125 -843v843h167v-1427q0 -119 -61 -176q-61 -56 -172 -58v159q34 1 50 16t16 52v10l-142 881v-848h-168v1391h185z" />
    <glyph glyph-name="eng" unicode="&#x14b;" horiz-adv-x="499" 
d="M458 950v-986q0 -119 -61 -176q-61 -56 -170 -58v159q35 2 51 16q16 15 16 52v955q0 77 -40 77q-17 0 -28 -11t-16 -24l-4 -11v-943h-164v1143h155l6 -65q38 77 118 77q62 0 99 -55q38 -56 38 -150z" />
    <glyph glyph-name="Omacron" unicode="&#x14c;" horiz-adv-x="524" 
d="M78 1478v144h368v-144h-368zM46 229v932q0 115 59 178q60 64 157 64q96 0 157 -64q59 -62 59 -178v-932q0 -116 -59 -178q-60 -63 -157 -63t-157 64q-59 63 -59 177zM216 1166v-942q0 -77 46 -77t46 77v942q0 77 -46 77t-46 -77z" />
    <glyph glyph-name="omacron" unicode="&#x14d;" horiz-adv-x="501" 
d="M67 1230v144h368v-144h-368zM40 229v684q0 113 59 178q58 64 152 64t152 -64q59 -65 59 -178v-684q0 -112 -59 -177q-58 -64 -152 -64t-152 64q-59 65 -59 177zM204 919v-695q0 -77 47 -77t47 77v695q0 43 -12 59q-12 17 -35 17t-35 -17q-12 -16 -12 -59z" />
    <glyph glyph-name="Obreve" unicode="&#x14e;" horiz-adv-x="524" 
d="M46 229v932q0 115 59 178q60 64 157 64q96 0 157 -64q59 -62 59 -178v-932q0 -116 -59 -178q-60 -63 -157 -63t-157 64q-59 63 -59 177zM216 1166v-942q0 -77 46 -77t46 77v942q0 77 -46 77t-46 -77zM443 1673v-19q0 -98 -47 -149q-48 -53 -134 -53q-85 0 -133 53
t-48 149v19h135v-18q0 -88 46 -88q47 0 47 88v18h134z" />
    <glyph glyph-name="obreve" unicode="&#x14f;" horiz-adv-x="501" 
d="M40 229v684q0 113 59 178q58 64 152 64t152 -64q59 -65 59 -178v-684q0 -112 -59 -177q-58 -64 -152 -64t-152 64q-59 65 -59 177zM204 919v-695q0 -77 47 -77t47 77v695q0 43 -12 59q-12 17 -35 17t-35 -17q-12 -16 -12 -59zM432 1425v-19q0 -98 -47 -149
q-48 -53 -134 -53q-85 0 -133 53t-48 149v19h135v-18q0 -88 46 -88q47 0 47 88v18h134z" />
    <glyph glyph-name="Ohungarumlaut" unicode="&#x150;" horiz-adv-x="524" 
d="M530 1677l-109 -221h-131l56 221h184zM332 1677l-110 -221h-131l56 221h185zM46 229v932q0 115 59 178q60 64 157 64q96 0 157 -64q59 -62 59 -178v-932q0 -116 -59 -178q-60 -63 -157 -63t-157 64q-59 63 -59 177zM216 1166v-942q0 -77 46 -77t46 77v942q0 77 -46 77
t-46 -77z" />
    <glyph glyph-name="ohungarumlaut" unicode="&#x151;" horiz-adv-x="501" 
d="M518 1430l-109 -222h-131l56 222h184zM319 1430l-109 -222h-131l56 222h184zM40 229v684q0 113 59 178q58 64 152 64t152 -64q59 -65 59 -178v-684q0 -112 -59 -177q-58 -64 -152 -64t-152 64q-59 65 -59 177zM204 919v-695q0 -77 47 -77t47 77v695q0 43 -12 59
q-12 17 -35 17t-35 -17q-12 -16 -12 -59z" />
    <glyph glyph-name="Racute" unicode="&#x154;" horiz-adv-x="528" 
d="M427 1677l-117 -221h-135l65 221h187zM48 0v1391h211q99 0 160 -64t61 -178v-263q0 -134 -84 -198q84 -64 84 -198v-234q0 -69 8 -138q7 -57 16 -91l7 -27h-168q-5 8 -9 23q-8 29 -15 80q-9 65 -9 147v281q0 77 -51 77h-41v-608h-170zM259 1231h-41v-463h41q51 0 51 77
v309q0 77 -51 77z" />
    <glyph glyph-name="racute" unicode="&#x155;" horiz-adv-x="369" 
d="M379 1430l-117 -222h-135l64 222h188zM350 1143v-168q-28 0 -49 -7q-25 -8 -46 -25q-23 -18 -36 -54q-13 -35 -13 -88v-801h-164v1143h155l8 -82q51 82 145 82z" />
    <glyph glyph-name="Rcommaaccent" unicode="&#x156;" horiz-adv-x="528" 
d="M200 -270v204h156v-122q0 -78 -24 -124l-38 -72h-94l51 114h-51zM48 0v1391h211q99 0 160 -64t61 -178v-263q0 -134 -84 -198q84 -64 84 -198v-234q0 -69 8 -138q7 -57 16 -91l7 -27h-168q-5 8 -9 23q-8 29 -15 80q-9 65 -9 147v281q0 77 -51 77h-41v-608h-170zM259 1231
h-41v-463h41q51 0 51 77v309q0 77 -51 77z" />
    <glyph glyph-name="rcommaaccent" unicode="&#x157;" horiz-adv-x="369" 
d="M46 -270v204h157v-122q0 -76 -25 -124l-38 -72h-94l51 114h-51zM350 1143v-168q-28 0 -49 -7q-25 -8 -46 -25q-23 -18 -36 -54q-13 -35 -13 -88v-801h-164v1143h155l8 -82q51 82 145 82z" />
    <glyph glyph-name="Rcaron" unicode="&#x158;" horiz-adv-x="528" 
d="M254 1596l51 81h144l-110 -221h-170l-110 221h145zM48 0v1391h211q99 0 160 -64t61 -178v-263q0 -134 -84 -198q84 -64 84 -198v-234q0 -69 8 -138q7 -57 16 -91l7 -27h-168q-5 8 -9 23q-8 29 -15 80q-9 65 -9 147v281q0 77 -51 77h-41v-608h-170zM259 1231h-41v-463h41
q51 0 51 77v309q0 77 -51 77z" />
    <glyph glyph-name="rcaron" unicode="&#x159;" horiz-adv-x="369" 
d="M196 1349l51 81h143l-109 -222h-170l-110 222h144zM350 1143v-168q-28 0 -49 -7q-25 -8 -46 -25q-23 -18 -36 -54q-13 -35 -13 -88v-801h-164v1143h155l8 -82q51 82 145 82z" />
    <glyph glyph-name="Sacute" unicode="&#x15a;" horiz-adv-x="512" 
d="M439 1677l-116 -221h-136l65 221h187zM212 517v-293q0 -77 44 -77t44 77v244q0 36 -6 54q-6 17 -26 39l-151 166q-46 49 -61 96q-14 43 -14 132v206q0 113 59 178q58 64 155 64q96 0 155 -64t59 -178v-278h-170v283q0 77 -44 77t-44 -77v-231q0 -36 6 -54q6 -17 26 -39
l151 -166q46 -49 61 -96q14 -43 14 -133v-218q0 -114 -59 -178q-59 -63 -155 -63q-97 0 -155 64q-59 65 -59 177v288h170z" />
    <glyph glyph-name="sacute" unicode="&#x15b;" horiz-adv-x="486" 
d="M427 1430l-117 -222h-135l65 222h187zM36 811v102q0 114 58 178t149 64q92 0 149 -64q58 -66 58 -178v-176h-164v182q0 76 -43 76t-43 -76v-108q0 -57 29 -90l147 -162q41 -44 57 -89q17 -48 17 -118v-123q0 -111 -58 -177q-57 -64 -149 -64q-91 0 -149 64t-58 177v189
h164v-194q0 -77 43 -77t43 77v128q0 58 -30 90l-146 162q-40 44 -57 90q-17 48 -17 117z" />
    <glyph glyph-name="Scircumflex" unicode="&#x15c;" horiz-adv-x="512" 
d="M307 1456l-51 82l-50 -82h-145l110 221h170l110 -221h-144zM212 517v-293q0 -77 44 -77t44 77v244q0 36 -6 54q-6 17 -26 39l-151 166q-46 49 -61 96q-14 43 -14 132v206q0 113 59 178q58 64 155 64q96 0 155 -64t59 -178v-278h-170v283q0 77 -44 77t-44 -77v-231
q0 -36 6 -54q6 -17 26 -39l151 -166q46 -49 61 -96q14 -43 14 -133v-218q0 -114 -59 -178q-59 -63 -155 -63q-97 0 -155 64q-59 65 -59 177v288h170z" />
    <glyph glyph-name="scircumflex" unicode="&#x15d;" horiz-adv-x="486" 
d="M294 1208l-51 82l-50 -82h-145l110 222h170l109 -222h-143zM36 811v102q0 114 58 178t149 64q92 0 149 -64q58 -66 58 -178v-176h-164v182q0 76 -43 76t-43 -76v-108q0 -57 29 -90l147 -162q41 -44 57 -89q17 -48 17 -118v-123q0 -111 -58 -177q-57 -64 -149 -64
q-91 0 -149 64t-58 177v189h164v-194q0 -77 43 -77t43 77v128q0 58 -30 90l-146 162q-40 44 -57 90q-17 48 -17 117z" />
    <glyph glyph-name="Scedilla" unicode="&#x15e;" horiz-adv-x="512" 
d="M212 517v-293q0 -77 44 -77t44 77v244q0 36 -6 54q-6 17 -26 39l-151 166q-46 49 -61 96q-14 43 -14 132v206q0 113 59 178q58 64 155 64q96 0 155 -64t59 -178v-278h-170v283q0 77 -44 77t-44 -77v-231q0 -36 6 -54q6 -17 26 -39l151 -166q46 -49 61 -96q14 -43 14 -133
v-218q0 -94 -40 -153q-42 -62 -108 -79l28 -49q28 -48 28 -94q0 -112 -133 -112h-121v133h87q21 0 21 19q0 12 -14 34l-44 74q-61 22 -97 81q-35 57 -35 146v288h170z" />
    <glyph glyph-name="scedilla" unicode="&#x15f;" horiz-adv-x="486" 
d="M36 811v102q0 114 58 178t149 64q92 0 149 -64q58 -66 58 -178v-176h-164v182q0 76 -43 76t-43 -76v-108q0 -57 29 -90l147 -162q41 -44 57 -89q17 -48 17 -118v-123q0 -92 -39 -152t-104 -79l30 -50q28 -48 28 -94q0 -112 -134 -112h-120v133h87q21 0 21 19q0 12 -14 34
l-46 76q-57 24 -90 83q-33 58 -33 142v189h164v-194q0 -77 43 -77t43 77v128q0 58 -30 90l-146 162q-40 44 -57 90q-17 48 -17 117z" />
    <glyph glyph-name="Scaron" unicode="&#x160;" horiz-adv-x="512" 
d="M256 1596l51 81h144l-110 -221h-170l-110 221h145zM212 517v-293q0 -77 44 -77t44 77v244q0 36 -6 54q-6 17 -26 39l-151 166q-46 49 -61 96q-14 43 -14 132v206q0 113 59 178q58 64 155 64q96 0 155 -64t59 -178v-278h-170v283q0 77 -44 77t-44 -77v-231q0 -36 6 -54
q6 -17 26 -39l151 -166q46 -49 61 -96q14 -43 14 -133v-218q0 -114 -59 -178q-59 -63 -155 -63q-97 0 -155 64q-59 65 -59 177v288h170z" />
    <glyph glyph-name="scaron" unicode="&#x161;" horiz-adv-x="486" 
d="M243 1349l51 81h143l-109 -222h-170l-110 222h145zM36 811v102q0 114 58 178t149 64q92 0 149 -64q58 -66 58 -178v-176h-164v182q0 76 -43 76t-43 -76v-108q0 -57 29 -90l147 -162q41 -44 57 -89q17 -48 17 -118v-123q0 -111 -58 -177q-57 -64 -149 -64q-91 0 -149 64
t-58 177v189h164v-194q0 -77 43 -77t43 77v128q0 58 -30 90l-146 162q-40 44 -57 90q-17 48 -17 117z" />
    <glyph glyph-name="Tcommaaccent" unicode="&#x162;" horiz-adv-x="462" 
d="M154 -270v204h156v-122q0 -78 -24 -124l-38 -72h-94l51 114h-51zM316 1231v-1231h-170v1231h-139v160h449v-160h-140z" />
    <glyph glyph-name="tcommaaccent" unicode="&#x163;" horiz-adv-x="362" 
d="M109 -270v204h156v-122q0 -78 -24 -124l-38 -72h-94l51 114h-51zM13 975v168h65v144l164 98v-242h97v-168h-97v-761q0 -54 51 -54h46v-160h-55q-206 0 -206 208v767h-65z" />
    <glyph glyph-name="Tcaron" unicode="&#x164;" horiz-adv-x="462" 
d="M231 1596l52 81h143l-110 -221h-170l-109 221h144zM316 1231v-1231h-170v1231h-139v160h449v-160h-140z" />
    <glyph glyph-name="tcaron" unicode="&#x165;" horiz-adv-x="362" 
d="M476 1406l-67 -198h-120l14 198h173zM13 975v168h65v144l164 98v-242h97v-168h-97v-761q0 -54 51 -54h46v-160h-55q-206 0 -206 208v767h-65z" />
    <glyph glyph-name="Tbar" unicode="&#x166;" horiz-adv-x="462" 
d="M316 1231v-457h140v-121h-140v-653h-170v653h-139v121h139v457h-139v160h449v-160h-140z" />
    <glyph glyph-name="tbar" unicode="&#x167;" horiz-adv-x="362" 
d="M13 975v168h65v144l164 98v-242h97v-168h-97v-313h97v-111h-97v-337q0 -54 51 -54h46v-160h-55q-206 0 -206 208v343h-75v111h75v313h-65z" />
    <glyph glyph-name="Utilde" unicode="&#x168;" 
d="M216 1391v-1167q0 -77 44 -77t44 77v1167h170v-1162q0 -114 -59 -178q-59 -63 -155 -63q-97 0 -155 64q-59 65 -59 177v1162h170zM296 1474l-67 33q-14 7 -21 7q-12 0 -12 -15v-43h-134v113q0 104 90 104q34 0 72 -19l67 -34q14 -7 21 -7q13 0 13 15v43h133v-112
q0 -105 -89 -105q-33 0 -73 20z" />
    <glyph glyph-name="utilde" unicode="&#x169;" horiz-adv-x="499" 
d="M42 193v950h164v-919q0 -77 40 -77q16 0 28 12t16 23l4 13v948h164v-1143h-155l-7 61q-37 -73 -117 -73q-62 0 -99 55q-38 56 -38 150zM287 1226l-67 34q-14 7 -21 7q-13 0 -13 -16v-43h-133v113q0 104 89 104q35 0 73 -19l67 -34q14 -7 21 -7q12 0 12 15v43h134v-112
q0 -105 -90 -105q-32 0 -72 20z" />
    <glyph glyph-name="Umacron" unicode="&#x16a;" 
d="M216 1391v-1167q0 -77 44 -77t44 77v1167h170v-1162q0 -114 -59 -178q-59 -63 -155 -63q-97 0 -155 64q-59 65 -59 177v1162h170zM76 1478v144h368v-144h-368z" />
    <glyph glyph-name="umacron" unicode="&#x16b;" horiz-adv-x="499" 
d="M42 193v950h164v-919q0 -77 40 -77q16 0 28 12t16 23l4 13v948h164v-1143h-155l-7 61q-37 -73 -117 -73q-62 0 -99 55q-38 56 -38 150zM67 1230v144h368v-144h-368z" />
    <glyph glyph-name="Ubreve" unicode="&#x16c;" 
d="M216 1391v-1167q0 -77 44 -77t44 77v1167h170v-1162q0 -114 -59 -178q-59 -63 -155 -63q-97 0 -155 64q-59 65 -59 177v1162h170zM441 1673v-19q0 -98 -47 -149q-48 -53 -134 -53q-85 0 -133 53t-48 149v19h135v-18q0 -88 46 -88q47 0 47 88v18h134z" />
    <glyph glyph-name="ubreve" unicode="&#x16d;" horiz-adv-x="499" 
d="M42 193v950h164v-919q0 -77 40 -77q16 0 28 12t16 23l4 13v948h164v-1143h-155l-7 61q-37 -73 -117 -73q-62 0 -99 55q-38 56 -38 150zM432 1425v-19q0 -98 -47 -149q-48 -53 -134 -53q-85 0 -133 53t-48 149v19h135v-18q0 -88 46 -88q47 0 47 88v18h134z" />
    <glyph glyph-name="Uring" unicode="&#x16e;" 
d="M87 1577q0 65 47 103q46 37 126 37t126 -37q47 -38 47 -103q0 -68 -46 -104q-47 -36 -127 -36t-126 36q-47 36 -47 104zM260 1531q50 0 50 46t-50 46t-50 -46t50 -46zM216 1391v-1167q0 -77 44 -77t44 77v1167h170v-1162q0 -114 -59 -178q-59 -63 -155 -63q-97 0 -155 64
q-59 65 -59 177v1162h170z" />
    <glyph glyph-name="uring" unicode="&#x16f;" horiz-adv-x="499" 
d="M78 1329q0 66 47 104q45 36 126 36t126 -36q47 -38 47 -104q0 -68 -47 -104t-126 -36t-126 36t-47 104zM251 1283q50 0 50 46t-50 46t-50 -46t50 -46zM42 193v950h164v-919q0 -77 40 -77q16 0 28 12t16 23l4 13v948h164v-1143h-155l-7 61q-37 -73 -117 -73q-62 0 -99 55
q-38 56 -38 150z" />
    <glyph glyph-name="Uhungarumlaut" unicode="&#x170;" 
d="M216 1391v-1167q0 -77 44 -77t44 77v1167h170v-1162q0 -114 -59 -178q-59 -63 -155 -63q-97 0 -155 64q-59 65 -59 177v1162h170zM528 1677l-109 -221h-131l56 221h184zM330 1677l-110 -221h-131l56 221h185z" />
    <glyph glyph-name="uhungarumlaut" unicode="&#x171;" horiz-adv-x="499" 
d="M42 193v950h164v-919q0 -77 40 -77q16 0 28 12t16 23l4 13v948h164v-1143h-155l-7 61q-37 -73 -117 -73q-62 0 -99 55q-38 56 -38 150zM516 1430l-109 -222h-132l57 222h184zM317 1430l-109 -222h-131l56 222h184z" />
    <glyph glyph-name="Uogonek" unicode="&#x172;" 
d="M216 1391v-1167q0 -77 44 -77t44 77v1167h170v-1162q0 -120 -65 -185l-134 -131q-12 -12 -12 -24q0 -14 18 -14h74v-133h-149q-52 0 -83 24t-31 73t58 109l47 48q-69 18 -110 79t-41 154v1162h170z" />
    <glyph glyph-name="uogonek" unicode="&#x173;" horiz-adv-x="499" 
d="M42 193v950h164v-919q0 -77 40 -77q16 0 28 12t16 23l4 13v948h164v-1143l-88 -87q-13 -13 -13 -24q0 -14 18 -14h75v-133h-150q-51 0 -82 24q-32 24 -32 73t58 109l58 59l-6 54q-37 -73 -117 -73q-62 0 -99 55q-38 56 -38 150z" />
    <glyph glyph-name="Wcircumflex" unicode="&#x174;" horiz-adv-x="792" 
d="M447 1456l-51 82l-50 -82h-144l109 221h170l110 -221h-144zM124 0l-107 1391h170l49 -1013l68 1013h184l69 -1013l48 1013h170l-106 -1391h-208l-65 984l-64 -984h-208z" />
    <glyph glyph-name="wcircumflex" unicode="&#x175;" horiz-adv-x="770" 
d="M436 1208l-51 82l-50 -82h-145l110 222h170l110 -222h-144zM450 0l-68 732l-60 -732h-200l-117 1143h166l55 -841l76 841h172l74 -840l56 840h161l-117 -1143h-198z" />
    <glyph glyph-name="Ycircumflex" unicode="&#x176;" horiz-adv-x="526" 
d="M178 0v397l-177 994h177l85 -689l86 689h176l-177 -994v-397h-170zM314 1456l-51 82l-50 -82h-144l109 221h170l110 -221h-144z" />
    <glyph glyph-name="ycircumflex" unicode="&#x177;" horiz-adv-x="476" 
d="M165 1143l63 -763l81 763h166l-200 -1401h-156l33 222l-151 1179h164zM289 1208l-51 82l-51 -82h-144l110 222h170l109 -222h-143z" />
    <glyph glyph-name="Ydieresis" unicode="&#x178;" horiz-adv-x="526" 
d="M178 0v397l-177 994h177l85 -689l86 689h176l-177 -994v-397h-170zM89 1456v215h149v-215h-149zM289 1456v215h148v-215h-148z" />
    <glyph glyph-name="Zacute" unicode="&#x179;" horiz-adv-x="438" 
d="M402 1677l-116 -221h-135l64 221h187zM22 0v139l218 1092h-212v160h389v-140l-217 -1091h217v-160h-395z" />
    <glyph glyph-name="zacute" unicode="&#x17a;" horiz-adv-x="415" 
d="M391 1430l-117 -222h-135l65 222h187zM19 0v152l210 831h-203v160h370v-152l-210 -831h210v-160h-377z" />
    <glyph glyph-name="Zdotaccent" unicode="&#x17b;" horiz-adv-x="438" 
d="M22 0v139l218 1092h-212v160h389v-140l-217 -1091h217v-160h-395zM143 1456v190h168v-190h-168z" />
    <glyph glyph-name="zdotaccent" unicode="&#x17c;" horiz-adv-x="415" 
d="M19 0v152l210 831h-203v160h370v-152l-210 -831h210v-160h-377zM136 1208v190h168v-190h-168z" />
    <glyph glyph-name="Zcaron" unicode="&#x17d;" horiz-adv-x="438" 
d="M22 0v139l218 1092h-212v160h389v-140l-217 -1091h217v-160h-395zM227 1596l52 81h143l-110 -221h-170l-109 221h144z" />
    <glyph glyph-name="zcaron" unicode="&#x17e;" horiz-adv-x="415" 
d="M220 1349l51 81h144l-110 -222h-170l-109 222h144zM19 0v152l210 831h-203v160h370v-152l-210 -831h210v-160h-377z" />
    <glyph glyph-name="florin" unicode="&#x192;" horiz-adv-x="446" 
d="M81 1011v132h62v93q0 104 56 163t142 59h82v-132h-80q-48 0 -48 -63v-120h103v-132h-103v-869q0 -105 -55 -163q-56 -59 -143 -59h-73v132h71q21 0 35 17q13 16 13 47v895h-62z" />
    <glyph glyph-name="Aringacute" unicode="&#x1fa;" horiz-adv-x="514" 
d="M413 1903l-84 -136h-131l27 136h188zM11 0l145 1391h210l137 -1391h-169l-18 231h-114l-17 -231h-174zM261 1057l-48 -675h93zM84 1577q0 65 47 103q46 37 126 37t126 -37q47 -38 47 -103q0 -68 -47 -104t-126 -36t-126 36t-47 104zM257 1531q50 0 50 46t-50 46t-50 -46
t50 -46z" />
    <glyph glyph-name="aringacute" unicode="&#x1fb;" horiz-adv-x="491" 
d="M400 1653l-84 -135h-131l28 135h187zM40 480q0 93 23 135q25 45 98 91l86 55q24 15 32 29q7 13 7 47v82q0 42 -11 59t-30 17q-20 0 -31 -17q-10 -16 -10 -59v-127h-164v121q0 113 57 178q57 64 148 64t148 -64q57 -65 57 -178v-657q0 -86 4 -143q5 -72 8 -88l4 -25h-158
q-6 25 -12 74q-36 -86 -116 -86q-66 0 -102 54q-38 56 -38 151v287zM204 489v-259q0 -76 39 -76q31 0 45 41q-2 88 -2 107v315l-54 -49q-17 -16 -23 -32q-5 -14 -5 -47zM72 1329q0 66 47 104q45 36 126 36t126 -36q47 -38 47 -104q0 -68 -47 -104t-126 -36t-126 36t-47 104z
M245 1283q50 0 50 46t-50 46t-50 -46t50 -46z" />
    <glyph glyph-name="AEacute" unicode="&#x1fc;" horiz-adv-x="662" 
d="M545 1677l-117 -221h-135l64 221h188zM633 1391v-160h-255l45 -450h180v-159h-164l47 -462h147v-160h-299l-18 231h-114l-17 -231h-174l145 1391h477zM261 1057l-48 -675h93z" />
    <glyph glyph-name="aeacute" unicode="&#x1fd;" horiz-adv-x="735" 
d="M551 1430l-117 -222h-135l65 222h187zM40 480q0 93 23 135q25 45 98 91l86 55q24 15 32 29q7 13 7 47v82q0 42 -11 59t-30 17q-20 0 -31 -17q-10 -16 -10 -59v-127h-164v121q0 113 57 178q57 64 148 64q74 0 123 -40q49 40 122 40q91 0 148 -64q57 -65 57 -178v-449h-245
v-240q0 -77 40 -77q41 0 41 77v161h164v-156q0 -112 -57 -177q-57 -64 -148 -64q-117 0 -172 97q-42 -97 -138 -97q-66 0 -102 54q-38 56 -38 151v287zM204 489v-259q0 -76 39 -76q13 0 24 10q12 10 16 20l5 10q-2 16 -2 35v388l-54 -49q-17 -16 -23 -32q-5 -14 -5 -47z
M450 919v-309h81v309q0 43 -10 59q-11 17 -31 17q-19 0 -30 -17q-10 -16 -10 -59z" />
    <glyph glyph-name="Oslashacute" unicode="&#x1fe;" horiz-adv-x="524" 
d="M46 -73l383 1536h49l-383 -1536h-49zM46 229v932q0 115 59 178q60 64 157 64q96 0 157 -64q59 -62 59 -178v-932q0 -116 -59 -178q-60 -63 -157 -63t-157 64q-59 63 -59 177zM216 1166v-942q0 -77 46 -77t46 77v942q0 77 -46 77t-46 -77zM445 1677l-116 -221h-135l64 221
h187z" />
    <glyph glyph-name="oslashacute" unicode="&#x1ff;" horiz-adv-x="501" 
d="M40 229v684q0 113 59 178q58 64 152 64t152 -64q59 -65 59 -178v-684q0 -112 -59 -177q-58 -64 -152 -64t-152 64q-59 65 -59 177zM204 919v-695q0 -77 47 -77t47 77v695q0 43 -12 59q-12 17 -35 17t-35 -17q-12 -16 -12 -59zM40 -73l373 1288h49l-373 -1288h-49z
M434 1430l-117 -222h-135l65 222h187z" />
    <glyph glyph-name="Scommaaccent" unicode="&#x218;" horiz-adv-x="512" 
d="M178 -270v204h157v-122q0 -76 -25 -124l-38 -72h-94l51 114h-51zM212 517v-293q0 -77 44 -77t44 77v244q0 36 -6 54q-6 17 -26 39l-151 166q-46 49 -61 96q-14 43 -14 132v206q0 113 59 178q58 64 155 64q96 0 155 -64t59 -178v-278h-170v283q0 77 -44 77t-44 -77v-231
q0 -36 6 -54q6 -17 26 -39l151 -166q46 -49 61 -96q14 -43 14 -133v-218q0 -114 -59 -178q-59 -63 -155 -63q-97 0 -155 64q-59 65 -59 177v288h170z" />
    <glyph glyph-name="scommaaccent" unicode="&#x219;" horiz-adv-x="486" 
d="M165 -270v204h157v-122q0 -76 -25 -124l-38 -72h-94l51 114h-51zM36 811v102q0 114 58 178t149 64q92 0 149 -64q58 -66 58 -178v-176h-164v182q0 76 -43 76t-43 -76v-108q0 -57 29 -90l147 -162q41 -44 57 -89q17 -48 17 -118v-123q0 -111 -58 -177q-57 -64 -149 -64
q-91 0 -149 64t-58 177v189h164v-194q0 -77 43 -77t43 77v128q0 58 -30 90l-146 162q-40 44 -57 90q-17 48 -17 117z" />
    <glyph glyph-name="uni021A" unicode="&#x21a;" horiz-adv-x="462" 
d="M154 -270v204h156v-122q0 -78 -24 -124l-38 -72h-94l51 114h-51zM316 1231v-1231h-170v1231h-139v160h449v-160h-140z" />
    <glyph glyph-name="uni021B" unicode="&#x21b;" horiz-adv-x="362" 
d="M109 -270v204h156v-122q0 -78 -24 -124l-38 -72h-94l51 114h-51zM13 975v168h65v144l164 98v-242h97v-168h-97v-761q0 -54 51 -54h46v-160h-55q-206 0 -206 208v767h-65z" />
    <glyph glyph-name="uni0237" unicode="&#x237;" horiz-adv-x="247" 
d="M206 -36q0 -119 -61 -176q-61 -56 -170 -58v159q35 2 51 16q16 15 16 52v1186h164v-1179z" />
    <glyph glyph-name="schwa" unicode="&#x259;" horiz-adv-x="489" 
d="M286 679v240q0 76 -41 76t-41 -76v-161h-164v155q0 113 57 178q57 64 148 64t148 -64q57 -65 57 -178v-684q0 -112 -57 -177q-57 -64 -148 -64t-148 64q-57 65 -57 177v450h246zM286 224v308h-82v-308q0 -44 10 -60q11 -17 31 -17q19 0 30 17t11 60z" />
    <glyph glyph-name="circumflex" unicode="&#x2c6;" horiz-adv-x="436" 
d="M269 1208l-51 82l-50 -82h-144l109 222h170l110 -222h-144z" />
    <glyph glyph-name="caron" unicode="&#x2c7;" horiz-adv-x="436" 
d="M218 1349l51 81h144l-110 -222h-170l-109 222h144z" />
    <glyph glyph-name="uni02C9" unicode="&#x2c9;" horiz-adv-x="448" 
d="M40 1230v144h369v-144h-369z" />
    <glyph glyph-name="breve" unicode="&#x2d8;" horiz-adv-x="425" 
d="M394 1425v-19q0 -98 -47 -149q-48 -53 -134 -53q-85 0 -133 53t-48 149v19h135v-18q0 -88 46 -88q47 0 47 88v18h134z" />
    <glyph glyph-name="dotaccent" unicode="&#x2d9;" horiz-adv-x="247" 
d="M40 1208v190h168v-190h-168z" />
    <glyph glyph-name="ring" unicode="&#x2da;" horiz-adv-x="417" 
d="M36 1329q0 66 47 104q45 36 126 36t126 -36q47 -38 47 -104q0 -68 -47 -104t-126 -36t-126 36t-47 104zM209 1283q50 0 50 46t-50 46t-50 -46t50 -46z" />
    <glyph glyph-name="ogonek" unicode="&#x2db;" horiz-adv-x="338" 
d="M303 0l-88 -87q-12 -12 -12 -24q0 -14 17 -14h75v-133h-150q-51 0 -82 24t-31 73q0 51 57 109l51 52h163z" />
    <glyph glyph-name="tilde" unicode="&#x2dc;" horiz-adv-x="466" 
d="M269 1226l-66 34q-14 7 -22 7q-12 0 -12 -16v-43h-133v113q0 104 89 104q35 0 73 -19l66 -34q14 -7 22 -7q12 0 12 15v43h133v-112q0 -105 -89 -105q-33 0 -73 20z" />
    <glyph glyph-name="hungarumlaut" unicode="&#x2dd;" horiz-adv-x="494" 
d="M471 1430l-110 -222h-131l57 222h184zM272 1430l-109 -222h-131l56 222h184z" />
    <glyph glyph-name="anoteleia" unicode="&#x387;" horiz-adv-x="241" 
d="M38 416v249h166v-249h-166z" />
    <glyph glyph-name="pi" unicode="&#x3c0;" horiz-adv-x="656" 
d="M7 983v160h642v-160h-124v-769q0 -54 50 -54h58v-160h-54q-207 0 -207 208v775h-88v-983h-153v983h-124z" />
    <glyph glyph-name="Wgrave" unicode="&#x1e80;" horiz-adv-x="792" 
d="M330 1456l-117 221h187l65 -221h-135zM124 0l-107 1391h170l49 -1013l68 1013h184l69 -1013l48 1013h170l-106 -1391h-208l-65 984l-64 -984h-208z" />
    <glyph glyph-name="wgrave" unicode="&#x1e81;" horiz-adv-x="770" 
d="M318 1208l-116 222h187l65 -222h-136zM450 0l-68 732l-60 -732h-200l-117 1143h166l55 -841l76 841h172l74 -840l56 840h161l-117 -1143h-198z" />
    <glyph glyph-name="Wacute" unicode="&#x1e82;" horiz-adv-x="792" 
d="M580 1677l-117 -221h-135l64 221h188zM124 0l-107 1391h170l49 -1013l68 1013h184l69 -1013l48 1013h170l-106 -1391h-208l-65 984l-64 -984h-208z" />
    <glyph glyph-name="wacute" unicode="&#x1e83;" horiz-adv-x="770" 
d="M568 1430l-116 -222h-136l65 222h187zM450 0l-68 732l-60 -732h-200l-117 1143h166l55 -841l76 841h172l74 -840l56 840h161l-117 -1143h-198z" />
    <glyph glyph-name="Wdieresis" unicode="&#x1e84;" horiz-adv-x="792" 
d="M222 1456v215h149v-215h-149zM422 1456v215h148v-215h-148zM124 0l-107 1391h170l49 -1013l68 1013h184l69 -1013l48 1013h170l-106 -1391h-208l-65 984l-64 -984h-208z" />
    <glyph glyph-name="wdieresis" unicode="&#x1e85;" horiz-adv-x="770" 
d="M211 1208v215h148v-215h-148zM411 1208v215h148v-215h-148zM450 0l-68 732l-60 -732h-200l-117 1143h166l55 -841l76 841h172l74 -840l56 840h161l-117 -1143h-198z" />
    <glyph glyph-name="uni1E9E" unicode="&#x1e9e;" 
d="M484 1251l-75 -525q45 -48 61 -97q14 -43 14 -132v-255q0 -116 -57 -179t-151 -63h-20v160h20q38 0 38 77v280q0 35 -6 55q-6 19 -25 38l-27 28v139l57 454h-45q-50 0 -50 -77v-1154h-170v1149q0 114 61 178t159 64h216v-140z" />
    <glyph glyph-name="Ygrave" unicode="&#x1ef2;" horiz-adv-x="526" 
d="M178 0v397l-177 994h177l85 -689l86 689h176l-177 -994v-397h-170zM197 1456l-117 221h187l65 -221h-135z" />
    <glyph glyph-name="ygrave" unicode="&#x1ef3;" horiz-adv-x="476" 
d="M165 1143l63 -763l81 763h166l-200 -1401h-156l33 222l-151 1179h164zM171 1208l-117 222h188l64 -222h-135z" />
    <glyph glyph-name="uni2011" unicode="&#x2011;" horiz-adv-x="385" 
d="M32 461v160h321v-160h-321z" />
    <glyph glyph-name="figuredash" unicode="&#x2012;" horiz-adv-x="641" 
d="M32 461v160h577v-160h-577z" />
    <glyph glyph-name="endash" unicode="&#x2013;" horiz-adv-x="641" 
d="M32 461v160h577v-160h-577z" />
    <glyph glyph-name="emdash" unicode="&#x2014;" horiz-adv-x="1062" 
d="M32 461v160h999v-160h-999z" />
    <glyph glyph-name="uni2015" unicode="&#x2015;" horiz-adv-x="1062" 
d="M32 461v160h999v-160h-999z" />
    <glyph glyph-name="quoteleft" unicode="&#x2018;" horiz-adv-x="241" 
d="M204 1206v-249h-166v180q0 77 22 136l45 118h99l-51 -185h51z" />
    <glyph glyph-name="quoteright" unicode="&#x2019;" horiz-adv-x="241" 
d="M38 1142v249h166v-180q0 -79 -23 -136l-46 -118h-97l51 185h-51z" />
    <glyph glyph-name="quotesinglbase" unicode="&#x201a;" horiz-adv-x="241" 
d="M38 0v249h166v-179q0 -80 -23 -138l-46 -116h-97l51 184h-51z" />
    <glyph glyph-name="quotedblleft" unicode="&#x201c;" horiz-adv-x="450" 
d="M413 1206v-249h-166v180q0 77 22 136l45 118h99l-52 -185h52zM204 1206v-249h-166v180q0 77 22 136l45 118h99l-51 -185h51z" />
    <glyph glyph-name="quotedblright" unicode="&#x201d;" horiz-adv-x="450" 
d="M38 1142v249h166v-180q0 -79 -23 -136l-46 -118h-97l51 185h-51zM247 1142v249h166v-180q0 -79 -23 -136l-46 -118h-97l51 185h-51z" />
    <glyph glyph-name="quotedblbase" unicode="&#x201e;" horiz-adv-x="450" 
d="M38 0v249h166v-179q0 -80 -23 -138l-46 -116h-97l51 184h-51zM247 0v249h166v-179q0 -80 -23 -138l-46 -116h-97l51 184h-51z" />
    <glyph glyph-name="dagger" unicode="&#x2020;" horiz-adv-x="505" 
d="M42 1071v138l146 -6l-6 188h143l-7 -188l146 6v-138l-147 5l8 -464h-143l7 464z" />
    <glyph glyph-name="daggerdbl" unicode="&#x2021;" horiz-adv-x="505" 
d="M182 1391h143l-7 -188l146 6v-138l-147 5l1 -75l-1 -74l147 6v-138l-146 5l7 -188h-143l6 188l-146 -5v138l147 -6l-1 74l1 75l-147 -5v138l146 -6z" />
    <glyph glyph-name="bullet" unicode="&#x2022;" horiz-adv-x="459" 
d="M38 538v7q0 100 54 157q55 58 137 58q84 0 139 -58q54 -57 54 -157v-7q0 -101 -54 -158t-139 -57q-83 0 -137 57t-54 158z" />
    <glyph glyph-name="ellipsis" unicode="&#x2026;" horiz-adv-x="723" 
d="M38 0v249h166v-249h-166zM280 0v249h164v-249h-164zM520 0v249h166v-249h-166z" />
    <glyph glyph-name="perthousand" unicode="&#x2030;" horiz-adv-x="1205" 
d="M167 0l341 1391h129l-341 -1391h-129zM38 718v490q0 93 49 143q50 52 127 52q81 0 129 -51t48 -144v-490q0 -93 -48 -144t-129 -51q-77 0 -127 52q-49 50 -49 143zM181 1211v-496q0 -58 33 -58q35 0 35 58v496q0 58 -35 58q-33 0 -33 -58zM412 183v490q0 93 49 143
q50 51 127 51q80 0 128 -51q49 -52 49 -143v-490q0 -92 -49 -144q-48 -51 -128 -51q-77 0 -127 51q-49 50 -49 144zM555 676v-497q0 -57 33 -57q35 0 35 57v497q0 57 -35 57q-33 0 -33 -57zM814 183v490q0 91 49 143q48 51 127 51q81 0 129 -51t48 -143v-490q0 -93 -48 -144
t-129 -51q-79 0 -127 51q-49 52 -49 144zM957 676v-497q0 -57 33 -57q34 0 34 57v497q0 57 -34 57q-33 0 -33 -57z" />
    <glyph glyph-name="guilsinglleft" unicode="&#x2039;" horiz-adv-x="322" 
d="M143 219l-132 352l132 353h162l-132 -353l132 -352h-162z" />
    <glyph glyph-name="guilsinglright" unicode="&#x203a;" horiz-adv-x="322" 
d="M311 571l-132 -352h-162l133 352l-133 353h162z" />
    <glyph glyph-name="fraction" unicode="&#x2044;" horiz-adv-x="362" 
d="M-93 0l449 1391h100l-450 -1391h-99z" />
    <glyph glyph-name="zerosuperior" unicode="&#x2070;" horiz-adv-x="407" 
d="M42 837v516q0 87 45 133q45 47 117 47t117 -48t45 -132v-516q0 -85 -45 -133t-117 -48t-117 48t-45 133zM174 1361v-533q0 -48 30 -48q28 0 28 48v533q0 48 -28 48q-30 0 -30 -48z" />
    <glyph glyph-name="foursuperior" unicode="&#x2074;" horiz-adv-x="411" 
d="M14 788v121l169 617h149v-617h63v-121h-63v-124h-131v124h-187zM117 909h84v369z" />
    <glyph glyph-name="fivesuperior" unicode="&#x2075;" horiz-adv-x="407" 
d="M42 1116v410h316v-124h-183v-137q30 30 77 30q54 0 84 -34q30 -35 30 -103v-321q0 -85 -45 -133t-117 -48t-117 48t-45 133v210h133v-219q0 -48 29 -48q27 0 27 48v291q0 47 -25 47q-31 0 -39 -50h-125z" />
    <glyph glyph-name="sixsuperior" unicode="&#x2076;" horiz-adv-x="407" 
d="M366 1085v-248q0 -85 -45 -133t-117 -48t-117 48t-45 133v516q0 87 45 133q45 47 117 47t117 -48t45 -132v-56h-134v64q0 48 -28 48q-30 0 -30 -48v-155q30 34 78 34q53 0 83 -40q31 -42 31 -115zM232 828v240q0 48 -25 48q-13 0 -22 -13q-10 -14 -11 -28v-247
q0 -48 30 -48q28 0 28 48z" />
    <glyph glyph-name="sevensuperior" unicode="&#x2077;" horiz-adv-x="355" 
d="M342 1526v-109l-189 -753h-136l185 738h-180v124h320z" />
    <glyph glyph-name="eightsuperior" unicode="&#x2078;" horiz-adv-x="407" 
d="M42 838v151q0 81 49 124q-49 43 -49 125v115q0 87 45 133q45 47 117 47t117 -48t45 -132v-115q0 -79 -51 -125q51 -45 51 -124v-151q0 -86 -45 -134t-117 -48t-117 48t-45 134zM231 828v176q0 48 -27 48q-29 0 -29 -48v-176q0 -48 29 -48q27 0 27 48zM175 1361v-138
q0 -47 29 -47q27 0 27 47v138q0 48 -27 48q-29 0 -29 -48z" />
    <glyph glyph-name="ninesuperior" unicode="&#x2079;" horiz-adv-x="407" 
d="M42 1104v249q0 84 45 132t117 48t117 -48t45 -132v-516q0 -87 -45 -134t-117 -47t-117 48t-45 133v55h133v-64q0 -48 29 -48t29 48v155q-30 -34 -77 -34q-54 0 -84 41q-30 40 -30 114zM175 1361v-240q0 -48 26 -48q13 0 22 13q8 13 10 28v247q0 48 -29 48t-29 -48z" />
    <glyph glyph-name="uni2080" unicode="&#x2080;" horiz-adv-x="407" 
d="M42 173v516q0 87 45 133q45 47 117 47q73 0 117 -47q45 -48 45 -133v-516q0 -85 -45 -133q-44 -47 -117 -47t-117 47q-45 48 -45 133zM174 697v-532q0 -48 30 -48q28 0 28 48v532q0 48 -28 48q-30 0 -30 -48z" />
    <glyph glyph-name="uni2081" unicode="&#x2081;" horiz-adv-x="277" 
d="M232 862v-862h-132v673l-89 -11v122q24 3 48 13q24 11 34 20q19 18 21 22q10 13 11 17l3 6h104z" />
    <glyph glyph-name="uni2082" unicode="&#x2082;" horiz-adv-x="391" 
d="M359 636q0 -81 -32 -142l-141 -268q-18 -36 -18 -97v-5h191v-124h-323v129q0 50 6 80q5 24 25 63l141 269q18 35 18 95v61q0 48 -28 48q-30 0 -30 -48v-128h-132v120q0 88 44 133q45 47 118 47t117 -47t44 -133v-53z" />
    <glyph glyph-name="uni2083" unicode="&#x2083;" horiz-adv-x="405" 
d="M134 512h68q29 0 29 48v137q0 48 -29 48t-29 -48v-117h-132v109q0 86 44 133t117 47q72 0 117 -47q45 -46 45 -133v-96q0 -93 -56 -143q56 -47 56 -143v-134q0 -85 -45 -133q-44 -47 -117 -47q-74 0 -117 47q-44 49 -44 133v148h132v-156q0 -48 29 -48t29 48v175
q0 48 -29 48h-68v124z" />
    <glyph glyph-name="uni2084" unicode="&#x2084;" horiz-adv-x="411" 
d="M14 125v121l169 616h149v-616h63v-121h-63v-125h-131v125h-187zM117 246h84v368z" />
    <glyph glyph-name="uni2085" unicode="&#x2085;" horiz-adv-x="407" 
d="M42 453v409h316v-124h-183v-137q31 31 77 31q54 0 84 -35t30 -102v-322q0 -85 -45 -133q-44 -47 -117 -47t-117 47q-45 48 -45 133v210h133v-218q0 -48 29 -48q27 0 27 48v291q0 47 -25 47q-31 0 -39 -50h-125z" />
    <glyph glyph-name="uni2086" unicode="&#x2086;" horiz-adv-x="407" 
d="M366 422v-249q0 -85 -45 -133q-44 -47 -117 -47t-117 47q-45 48 -45 133v516q0 87 45 133q45 47 117 47q73 0 117 -47q45 -48 45 -133v-55h-134v63q0 48 -28 48q-30 0 -30 -48v-154q30 34 78 34q53 0 83 -41q31 -42 31 -114zM232 165v239q0 49 -25 49q-13 0 -22 -13
q-10 -14 -11 -28v-247q0 -48 30 -48q28 0 28 48z" />
    <glyph glyph-name="uni2087" unicode="&#x2087;" horiz-adv-x="355" 
d="M342 862v-108l-189 -754h-136l185 738h-180v124h320z" />
    <glyph glyph-name="uni2088" unicode="&#x2088;" horiz-adv-x="407" 
d="M42 174v152q0 81 49 124q-49 43 -49 124v115q0 87 45 133q45 47 117 47q73 0 117 -47q45 -48 45 -133v-115q0 -78 -51 -124q51 -45 51 -124v-152q0 -86 -45 -134q-44 -47 -117 -47t-117 47q-45 48 -45 134zM231 165v175q0 48 -27 48q-29 0 -29 -48v-175q0 -48 29 -48
q27 0 27 48zM175 697v-138q0 -47 29 -47q27 0 27 47v138q0 48 -27 48q-29 0 -29 -48z" />
    <glyph glyph-name="uni2089" unicode="&#x2089;" horiz-adv-x="407" 
d="M42 440v249q0 85 45 133q44 47 117 47t117 -47q45 -48 45 -133v-516q0 -87 -45 -133q-45 -47 -117 -47q-73 0 -117 47q-45 48 -45 133v55h133v-63q0 -48 29 -48t29 48v154q-29 -33 -77 -33q-54 0 -84 40t-30 114zM175 697v-239q0 -48 26 -48q14 0 22 12q8 13 10 29v246
q0 48 -29 48t-29 -48z" />
    <glyph glyph-name="Euro" unicode="&#x20ac;" horiz-adv-x="534" 
d="M22 741v145h51v275q0 113 57 178q57 64 151 64q92 0 150 -64q57 -63 57 -178v-196h-170v201q0 77 -37 77q-38 0 -38 -77v-280h245v-145h-245v-78h245v-146h-245v-293q0 -77 38 -77q37 0 37 77v214h170v-209q0 -115 -57 -178t-150 -63q-94 0 -151 64q-57 65 -57 177v288
h-51v146h51v78h-51z" />
    <glyph glyph-name="numero" unicode="&#x2116;" horiz-adv-x="1008" 
d="M609 715v493q0 93 49 143q50 52 127 52q81 0 129 -51q49 -52 49 -144v-493q0 -92 -49 -144t-129 -52q-77 0 -127 52q-49 50 -49 144zM753 1211v-500q0 -58 32 -58q35 0 35 58v500q0 58 -35 58q-32 0 -32 -58zM609 331v134h354v-134h-354zM340 0l-124 843v-843h-168v1391
h185l125 -843v843h167v-1391h-185z" />
    <glyph glyph-name="uni2117" unicode="&#x2117;" horiz-adv-x="803" 
d="M764 1142v-893q0 -107 -77 -184t-184 -77h-202q-107 0 -184 77t-77 184v893q0 107 77 184t184 77h202q107 0 184 -77t77 -184zM90 1142v-893q0 -87 62 -151q61 -62 149 -62h202q88 0 149 62q62 64 62 151v893q0 86 -62 150q-61 63 -149 63h-202q-87 0 -149 -63
q-62 -64 -62 -150zM407 554h-29v-387h-157v1057h186q88 0 144 -59t56 -165v-224q0 -104 -56 -163t-144 -59zM378 1072v-366h29q44 0 44 68v230q0 68 -44 68h-29z" />
    <glyph glyph-name="servicemark" unicode="&#x2120;" horiz-adv-x="925" 
d="M765 615v501l-83 -501h-101l-82 495v-495h-113v776h156l89 -566l90 566h157v-776h-113zM161 900v-132q0 -48 29 -48t29 48v75q0 37 -20 60l-107 123q-48 56 -48 136v72q0 75 41 119t105 44q65 0 106 -44t41 -119v-129h-118v132q0 48 -29 48t-29 -48v-75q0 -38 19 -60
l108 -123q25 -29 37 -60q12 -30 12 -76v-72q0 -75 -41 -119t-106 -44q-64 0 -105 44t-41 119v129h117z" />
    <glyph glyph-name="trademark" unicode="&#x2122;" horiz-adv-x="899" 
d="M738 615v501l-83 -501h-101l-82 495v-495h-113v776h156l89 -566l90 566h157v-776h-113zM217 1279v-664h-118v664h-92v112h303v-112h-93z" />
    <glyph glyph-name="Omega" unicode="&#x2126;" horiz-adv-x="524" 
d="M46 358v803q0 115 59 178q60 64 157 64q96 0 157 -64q59 -62 59 -178v-803q0 -135 -82 -198h92v-160h-195v288q15 18 15 65v813q0 77 -46 77t-46 -77v-813q0 -49 16 -65v-288h-196v160h91q-81 64 -81 198z" />
    <glyph glyph-name="estimated" unicode="&#x212e;" horiz-adv-x="444" 
d="M335 281h48q-26 -134 -68 -211q-42 -76 -91 -76q-55 0 -98 88q-45 92 -70 250q-26 165 -26 363t26 363q25 158 70 250q44 89 98 89q55 0 99 -89q45 -92 70 -250q26 -165 26 -363v-23h-274v-522q37 -108 79 -108q31 0 61 62q28 60 50 177zM303 720v522q-38 107 -79 107
q-43 0 -79 -109v-520h158z" />
    <glyph glyph-name="partialdiff" unicode="&#x2202;" horiz-adv-x="518" 
d="M75 1243v160h183q96 0 155 -64t59 -178v-932q0 -114 -59 -178q-59 -63 -155 -63q-97 0 -155 64q-59 65 -59 177v713q0 98 40 151q40 54 111 54q63 0 107 -50v69q0 77 -44 77h-183zM302 224v684q0 29 -13 51t-35 22q-40 0 -40 -77v-680q0 -77 44 -77t44 77z" />
    <glyph glyph-name="Delta" unicode="&#x2206;" horiz-adv-x="509" 
d="M11 0l139 1391h210l139 -1391h-488zM256 1037l-60 -877h122z" />
    <glyph glyph-name="product" unicode="&#x220f;" horiz-adv-x="680" 
d="M7 1231v160h667v-160h-124v-1311h-154v1311h-112v-1311h-153v1311h-124z" />
    <glyph glyph-name="summation" unicode="&#x2211;" horiz-adv-x="485" 
d="M28 -80v135l172 600l-172 600v136h430v-160h-267l165 -576l-165 -575h267v-160h-430z" />
    <glyph glyph-name="minus" unicode="&#x2212;" horiz-adv-x="559" 
d="M32 461v160h495v-160h-495z" />
    <glyph glyph-name="radical" unicode="&#x221a;" horiz-adv-x="701" 
d="M32 563v132h223l77 -441l204 1204h154l-268 -1458h-180l-106 563h-104z" />
    <glyph glyph-name="infinity" unicode="&#x221e;" horiz-adv-x="802" 
d="M780 554v-27q0 -104 -52 -162q-53 -59 -137 -59q-53 0 -91 26q-34 23 -94 94l-5 4l-4 -4q-60 -71 -94 -94q-38 -26 -91 -26q-84 0 -137 59q-52 58 -52 162v27q0 104 52 162q53 59 136 59q55 0 93 -27t93 -93l4 -5l5 5q56 66 93 93t93 27q83 0 136 -59q52 -58 52 -162z
M173 558v-35q0 -70 41 -70q13 0 22 6q10 6 25 26l47 56l-47 55q-17 22 -25 27q-9 6 -22 6q-41 0 -41 -71zM630 523v35q0 71 -41 71q-13 0 -22 -6q-8 -5 -25 -27l-47 -55l47 -56q15 -20 25 -26q9 -6 22 -6q41 0 41 70z" />
    <glyph glyph-name="integral" unicode="&#x222b;" horiz-adv-x="438" 
d="M295 1263v-1121q0 -105 -55 -163q-56 -59 -143 -59h-73v132h71q21 0 35 17q13 16 13 47v1120q0 104 56 163t142 59h74v-132h-72q-48 0 -48 -63z" />
    <glyph glyph-name="approxequal" unicode="&#x2248;" horiz-adv-x="593" 
d="M273 782l86 -47q17 -10 30 -10q17 0 17 18v73h156v-104q0 -150 -130 -150q-49 0 -111 34l-87 47q-17 10 -29 10q-17 0 -17 -18v-73h-156v105q0 149 130 149q49 0 111 -34zM273 486l86 -47q17 -10 30 -10q17 0 17 18v73h156v-104q0 -150 -130 -150q-49 0 -111 34l-87 47
q-17 10 -29 10q-17 0 -17 -18v-73h-156v105q0 149 130 149q49 0 111 -34z" />
    <glyph glyph-name="notequal" unicode="&#x2260;" horiz-adv-x="559" 
d="M32 581v154h251l43 115h140l-43 -115h104v-154h-161l-30 -79h191v-156h-249l-44 -115h-140l43 115h-105v156h164l29 79h-193z" />
    <glyph glyph-name="lessequal" unicode="&#x2264;" horiz-adv-x="559" 
d="M32 390v172l495 161v-165l-305 -82l305 -82v-165zM32 0v160h495v-160h-495z" />
    <glyph glyph-name="greaterequal" unicode="&#x2265;" horiz-adv-x="559" 
d="M527 562v-172l-495 -161v165l305 82l-305 82v165zM527 160v-160h-495v160h495z" />
    <glyph glyph-name="dotmath" unicode="&#x22c5;" horiz-adv-x="241" 
d="M38 416v249h166v-249h-166z" />
    <glyph glyph-name="lozenge" unicode="&#x25ca;" horiz-adv-x="509" 
d="M150 0l-139 695l139 696h210l139 -696l-139 -695h-210zM330 695l-75 526l-75 -526l75 -526z" />
    <glyph glyph-name="uniF638" unicode="&#xf638;" horiz-adv-x="524" 
d="M46 229v932q0 115 59 178q60 64 157 64q96 0 157 -64q59 -62 59 -178v-932q0 -116 -59 -178q-60 -63 -157 -63t-157 64q-59 63 -59 177zM216 377v-153q0 -77 46 -77t46 77v569zM216 1166v-568l92 416v152q0 77 -46 77t-46 -77z" />
    <glyph glyph-name="commaaccent" unicode="&#xf6c3;" horiz-adv-x="236" 
d="M40 -270v204h157v-122q0 -76 -25 -124l-38 -72h-94l51 114h-51z" />
    <glyph glyph-name="centsuperior" unicode="&#xf6e0;" horiz-adv-x="372" 
d="M126 528v79q-90 33 -90 139v426q0 106 90 140v79h124v-79q40 -15 65 -52q24 -36 24 -88v-159h-128v163q0 42 -24 42q-23 0 -23 -42v-433q0 -42 23 -42q24 0 24 42v167h128v-164q0 -52 -24 -88t-65 -51v-79h-124z" />
    <glyph glyph-name="dollarsuperior" unicode="&#xf6e4;" horiz-adv-x="395" 
d="M133 460v70q-95 32 -95 141v187h133v-190q0 -42 27 -42q25 0 25 42v150q0 36 -17 52l-114 109q-26 25 -41 56q-13 27 -13 72v141q0 53 25 88q27 38 70 52v72h128v-72q45 -15 71 -52q25 -35 25 -88v-180h-134v183q0 42 -25 42q-27 0 -27 -42v-144q0 -34 18 -52l114 -108
q28 -27 42 -56q12 -25 12 -73v-147q0 -54 -25 -89q-26 -37 -71 -52v-70h-128z" />
    <glyph glyph-name="apple" unicode="&#xf8ff;" horiz-adv-x="880" 
d="M48 317v785h785v-785h-785zM466 574h175v33h-136v86h109v33h-109v86h136v33h-175v-271zM285 672l42 114l42 -114h-84zM211 574h40l23 65h105l23 -65h40l-98 271h-35z" />
    <glyph glyph-name="doublebar" horiz-adv-x="443" 
d="M42 -143v1648h145v-1648h-145zM401 1505v-1648h-145v1648h145z" />
    <glyph glyph-name="zero_slash.lt" 
d="M44 229v932q0 115 59 178q60 64 157 64q96 0 157 -64q59 -62 59 -178v-932q0 -116 -59 -178q-60 -63 -157 -63t-157 64q-59 63 -59 177zM214 377v-153q0 -77 46 -77t46 77v569zM214 1166v-568l92 416v152q0 77 -46 77t-46 -77z" />
    <glyph glyph-name="zero.lt" 
d="M44 229v932q0 115 59 178q60 64 157 64q96 0 157 -64q59 -62 59 -178v-932q0 -116 -59 -178q-60 -63 -157 -63t-157 64q-59 63 -59 177zM214 1166v-942q0 -77 46 -77t46 77v942q0 77 -46 77t-46 -77z" />
    <glyph glyph-name="one.lt" 
d="M389 1391v-1391h-170v1122l-121 -19v162q35 5 64 20q30 16 46 33t28 34q10 14 15 27l4 12h134z" />
    <glyph glyph-name="two.lt" 
d="M477 1013q0 -80 -9 -128q-10 -53 -32 -104l-191 -443q-17 -40 -21 -64q-5 -33 -5 -96v-18h258v-160h-428v178q0 81 9 129q9 49 33 104l192 443q14 33 19 64q5 33 5 95v153q0 77 -44 77t-44 -77v-241h-170v236q0 113 59 178q58 64 155 64q96 0 155 -64t59 -178v-148z" />
    <glyph glyph-name="three.lt" 
d="M171 806h88q44 0 44 77v283q0 77 -44 77t-44 -77v-241h-170v236q0 114 59 178t155 64q97 0 155 -64q59 -65 59 -178v-252q0 -117 -63 -183q63 -66 63 -182v-315q0 -112 -59 -177q-58 -64 -155 -64t-155 63q-59 64 -59 178v298h170v-303q0 -77 44 -77t44 77v345
q0 77 -44 77h-88v160z" />
    <glyph glyph-name="four.lt" 
d="M7 218v156l226 1017h196v-1017h84v-156h-84v-218h-170v218h-252zM141 374h118v628z" />
    <glyph glyph-name="five.lt" 
d="M46 731v660h418v-160h-248v-299q42 50 108 50q72 0 111 -53q39 -52 39 -152v-548q0 -114 -59 -178q-59 -63 -155 -63q-97 0 -155 64q-59 65 -59 177v383h170v-388q0 -77 44 -77t44 77v515q0 77 -40 77q-47 0 -59 -85h-159z" />
    <glyph glyph-name="six.lt" 
d="M474 757v-528q0 -114 -59 -178q-59 -63 -155 -63q-97 0 -155 64q-59 65 -59 177v932q0 113 59 178q58 64 155 64q96 0 155 -64t59 -178v-103h-170v108q0 77 -44 77t-44 -77v-255q43 51 108 51q70 0 110 -54q40 -53 40 -151zM304 224v495q0 77 -40 77q-22 0 -35 -22
t-13 -51v-499q0 -77 44 -77t44 77z" />
    <glyph glyph-name="seven.lt" 
d="M478 1391v-136l-258 -1255h-173l253 1231h-247v160h425z" />
    <glyph glyph-name="eight.lt" 
d="M46 229v315q0 115 64 182q-64 67 -64 183v252q0 113 59 178q58 64 155 64q96 0 155 -64t59 -178v-252q0 -117 -63 -183q63 -66 63 -182v-315q0 -114 -59 -178q-59 -63 -155 -63q-97 0 -155 64q-59 65 -59 177zM216 569v-345q0 -77 44 -77t44 77v345q0 77 -44 77t-44 -77z
M216 1166v-283q0 -77 44 -77t44 77v283q0 77 -44 77t-44 -77z" />
    <glyph glyph-name="nine.lt" 
d="M46 634v527q0 114 59 178t155 64q97 0 155 -64q59 -65 59 -178v-932q0 -112 -59 -177q-58 -64 -155 -64q-96 0 -155 63q-59 64 -59 178v104h170v-109q0 -77 44 -77t44 77v255q-42 -50 -107 -50q-71 0 -111 54q-40 53 -40 151zM216 1166v-494q0 -77 40 -77q22 0 35 22
t13 51v498q0 77 -44 77t-44 -77z" />
    <glyph glyph-name="multiply.lt" 
d="M20 826l111 109l129 -129l130 129l111 -109l-130 -131l130 -129l-111 -110l-130 130l-129 -130l-111 110l131 129z" />
    <glyph glyph-name="plus.lt" 
d="M12 615v160h170v168h157v-168h169v-160h-169v-168h-157v168h-170z" />
    <glyph glyph-name="minus.lt" 
d="M12 615v160h496v-160h-496z" />
    <glyph glyph-name="divide.lt" 
d="M342 829h-163v186h163v-186zM179 561h163v-185h-163v185zM12 615v160h496v-160h-496z" />
    <glyph glyph-name="equal.lt" 
d="M12 735v155h496v-155h-496zM12 501v155h496v-155h-496z" />
    <glyph glyph-name="less.lt" 
d="M12 609v172l496 161v-165l-305 -82l305 -82v-164z" />
    <glyph glyph-name="greater.lt" 
d="M508 781v-172l-496 -160v164l305 82l-305 82v165z" />
    <glyph glyph-name="plusminus.lt" 
d="M12 567v160h170v168h157v-168h169v-160h-169v-168h-157v168h-170zM12 155v159h496v-159h-496z" />
    <glyph glyph-name="lessequal.lt" 
d="M12 545v172l496 161v-165l-305 -82l305 -82v-165zM12 155v159h496v-159h-496z" />
    <glyph glyph-name="greaterequal.lt" 
d="M508 717v-172l-496 -161v165l305 82l-305 82v165zM508 314v-159h-496v159h496z" />
    <glyph glyph-name="notequal.lt" 
d="M12 735v155h251l43 115h140l-43 -115h105v-155h-162l-30 -79h192v-155h-250l-43 -115h-140l43 115h-106v155h164l30 79h-194z" />
    <glyph glyph-name="approxequal.lt" 
d="M237 937l86 -47q17 -10 29 -10q17 0 17 18v73h156v-105q0 -149 -130 -149q-49 0 -111 34l-86 47q-17 10 -30 10q-16 0 -16 -18v-73h-157v104q0 150 130 150q50 0 112 -34zM237 641l86 -47q17 -10 29 -10q17 0 17 18v73h156v-105q0 -149 -130 -149q-49 0 -111 34l-86 47
q-17 10 -30 10q-16 0 -16 -18v-73h-157v104q0 150 130 150q50 0 112 -34z" />
    <glyph glyph-name="space.tab" horiz-adv-x="260" 
 />
    <glyph glyph-name="period.tab" horiz-adv-x="260" 
d="M47 0v249h166v-249h-166z" />
    <glyph glyph-name="comma.tab" horiz-adv-x="260" 
d="M47 0v249h166v-179q0 -52 -6 -82q-7 -33 -22 -65l-41 -83h-97l51 160h-51z" />
    <glyph glyph-name="colon.tab" horiz-adv-x="260" 
d="M47 0v249h166v-249h-166zM47 894v249h166v-249h-166z" />
    <glyph glyph-name="semicolon.tab" horiz-adv-x="260" 
d="M47 0v249h166v-179q0 -52 -6 -82q-7 -33 -22 -65l-41 -83h-97l51 160h-51zM47 894v249h166v-249h-166z" />
    <glyph glyph-name="zero_slash.op" horiz-adv-x="524" 
d="M46 229v684q0 115 59 178q60 64 157 64t157 -63q59 -62 59 -179v-684q0 -116 -59 -178q-60 -63 -157 -63t-157 64q-59 63 -59 177zM216 919v-419l92 306v113q0 76 -46 76t-46 -76zM216 336v-112q0 -77 46 -77t46 77v418z" />
    <glyph glyph-name="zero.op" horiz-adv-x="524" 
d="M46 229v684q0 115 59 178q60 64 157 64t157 -63q59 -62 59 -179v-684q0 -116 -59 -178q-60 -63 -157 -63t-157 64q-59 63 -59 177zM216 919v-695q0 -77 46 -77t46 77v695q0 76 -46 76t-46 -76z" />
    <glyph glyph-name="one.op" horiz-adv-x="362" 
d="M314 1143v-1143h-170v876l-129 -21v162q37 4 68 20q30 15 48 33q16 16 29 34q11 16 16 28l4 11h134z" />
    <glyph glyph-name="two.op" horiz-adv-x="512" 
d="M40 0v171q0 72 14 115q15 47 58 109l155 225q25 37 32 60q7 22 7 73v166q0 76 -48 76t-48 -76v-242h-170v236q0 113 60 178q60 64 158 64t158 -63t60 -179v-160q0 -68 -14 -116q-13 -43 -58 -109l-155 -224q-25 -37 -32 -60q-7 -22 -7 -73v-11h266v-160h-436z" />
    <glyph glyph-name="three.op" horiz-adv-x="518" 
d="M170 558h88q44 0 44 77v284q0 76 -44 76t-44 -76v-242h-170v236q0 115 59 179q59 63 155 63q97 0 155 -64q59 -65 59 -178v-251q0 -118 -63 -184q63 -66 63 -182v-314q0 -113 -59 -178q-58 -64 -155 -64q-96 0 -155 63q-59 64 -59 179v298h170v-304q0 -76 44 -76t44 76
v346q0 76 -44 76h-88v160z" />
    <glyph glyph-name="four.op" horiz-adv-x="534" 
d="M13 0v156l227 987h195v-987h84v-156h-84v-248h-170v248h-252zM147 156h118v610z" />
    <glyph glyph-name="five.op" 
d="M46 483v660h418v-160h-248v-299q42 50 108 50q72 0 111 -53q39 -52 39 -152v-547q0 -115 -59 -179q-59 -63 -155 -63q-97 0 -155 64q-59 65 -59 178v383h170v-389q0 -76 44 -76t44 76v516q0 76 -40 76q-47 0 -59 -85h-159z" />
    <glyph glyph-name="six.op" 
d="M474 757v-528q0 -114 -59 -178q-59 -63 -155 -63q-97 0 -155 64q-59 65 -59 177v932q0 113 59 178q58 64 155 64q96 0 155 -64t59 -178v-103h-170v108q0 77 -44 77t-44 -77v-255q43 51 108 51q70 0 110 -54q40 -53 40 -151zM304 224v495q0 77 -40 77q-22 0 -35 -22
t-13 -51v-499q0 -77 44 -77t44 77z" />
    <glyph glyph-name="seven.op" horiz-adv-x="470" 
d="M453 1143v-135l-258 -1256h-173l252 1231h-246v160h425z" />
    <glyph glyph-name="eight.op" 
d="M46 229v315q0 115 64 182q-64 67 -64 183v252q0 113 59 178q58 64 155 64q96 0 155 -64t59 -178v-252q0 -117 -63 -183q63 -66 63 -182v-315q0 -114 -59 -178q-59 -63 -155 -63q-97 0 -155 64q-59 65 -59 177zM216 569v-345q0 -77 44 -77t44 77v345q0 77 -44 77t-44 -77z
M216 1166v-283q0 -77 44 -77t44 77v283q0 77 -44 77t-44 -77z" />
    <glyph glyph-name="nine.op" 
d="M46 386v527q0 115 59 179q59 63 155 63q97 0 155 -64q59 -65 59 -178v-931q0 -113 -59 -178q-58 -64 -155 -64q-96 0 -155 63q-59 64 -59 179v103h170v-109q0 -76 44 -76t44 76v255q-42 -50 -107 -50q-71 0 -111 54q-40 53 -40 151zM216 919v-495q0 -77 40 -77
q22 0 35 22t13 51v499q0 76 -44 76t-44 -76z" />
    <glyph glyph-name="multiply.op" horiz-adv-x="551" 
d="M36 672l110 108l129 -129l131 129l110 -108l-130 -131l130 -129l-110 -111l-131 130l-129 -130l-110 111l130 129z" />
    <glyph glyph-name="plus.op" horiz-adv-x="559" 
d="M32 461v160h170v167h156v-167h169v-160h-169v-168h-156v168h-170z" />
    <glyph glyph-name="minus.op" horiz-adv-x="559" 
d="M32 461v160h495v-160h-495z" />
    <glyph glyph-name="divide.op" horiz-adv-x="559" 
d="M361 675h-162v185h162v-185zM199 407h162v-186h-162v186zM32 461v160h495v-160h-495z" />
    <glyph glyph-name="equal.op" horiz-adv-x="559" 
d="M32 581v154h495v-154h-495zM32 346v156h495v-156h-495z" />
    <glyph glyph-name="less.op" horiz-adv-x="559" 
d="M32 455v172l495 160v-164l-305 -82l305 -82v-165z" />
    <glyph glyph-name="greater.op" horiz-adv-x="559" 
d="M527 627v-172l-495 -161v165l305 82l-305 82v164z" />
    <glyph glyph-name="plusminus.op" horiz-adv-x="559" 
d="M32 413v159h170v168h156v-168h169v-159h-169v-168h-156v168h-170zM32 0v160h495v-160h-495z" />
    <glyph glyph-name="lessequal.op" horiz-adv-x="559" 
d="M32 390v172l495 161v-165l-305 -82l305 -82v-165zM32 0v160h495v-160h-495z" />
    <glyph glyph-name="greaterequal.op" horiz-adv-x="559" 
d="M527 562v-172l-495 -161v165l305 82l-305 82v165zM527 160v-160h-495v160h495z" />
    <glyph glyph-name="notequal.op" horiz-adv-x="559" 
d="M32 581v154h251l43 115h140l-43 -115h104v-154h-161l-30 -79h191v-156h-249l-44 -115h-140l43 115h-105v156h164l29 79h-193z" />
    <glyph glyph-name="approxequal.op" horiz-adv-x="593" 
d="M273 782l86 -47q17 -10 30 -10q17 0 17 18v73h156v-104q0 -150 -130 -150q-49 0 -111 34l-87 47q-17 10 -29 10q-17 0 -17 -18v-73h-156v105q0 149 130 149q49 0 111 -34zM273 486l86 -47q17 -10 30 -10q17 0 17 18v73h156v-104q0 -150 -130 -150q-49 0 -111 34l-87 47
q-17 10 -29 10q-17 0 -17 -18v-73h-156v105q0 149 130 149q49 0 111 -34z" />
    <glyph glyph-name="infinity.op" horiz-adv-x="802" 
d="M780 554v-27q0 -104 -52 -162q-53 -59 -137 -59q-53 0 -91 26q-34 23 -94 94l-5 4l-4 -4q-60 -71 -94 -94q-38 -26 -91 -26q-84 0 -137 59q-52 58 -52 162v27q0 104 52 162q53 59 136 59q55 0 93 -27t93 -93l4 -5l5 5q56 66 93 93t93 27q83 0 136 -59q52 -58 52 -162z
M173 558v-35q0 -70 41 -70q13 0 22 6q10 6 25 26l47 56l-47 55q-17 22 -25 27q-9 6 -22 6q-41 0 -41 -71zM630 523v35q0 71 -41 71q-13 0 -22 -6q-8 -5 -25 -27l-47 -55l47 -56q15 -20 25 -26q9 -6 22 -6q41 0 41 70z" />
    <glyph glyph-name="zero_slash.ot" 
d="M44 229v684q0 115 59 178q60 64 157 64t157 -63q59 -62 59 -179v-684q0 -116 -59 -178q-60 -63 -157 -63t-157 64q-59 63 -59 177zM214 919v-419l92 306v113q0 76 -46 76t-46 -76zM214 336v-112q0 -77 46 -77t46 77v418z" />
    <glyph glyph-name="zero.ot" 
d="M44 229v684q0 115 59 178q60 64 157 64t157 -63q59 -62 59 -179v-684q0 -116 -59 -178q-60 -63 -157 -63t-157 64q-59 63 -59 177zM214 919v-695q0 -77 46 -77t46 77v695q0 76 -46 76t-46 -76z" />
    <glyph glyph-name="one.ot" 
d="M393 1143v-1143h-170v876l-129 -21v162q37 4 68 20q30 15 48 33q16 16 29 34q11 16 16 28l4 11h134z" />
    <glyph glyph-name="two.ot" 
d="M44 0v171q0 72 14 115q15 47 58 109l155 225q25 37 32 60q7 22 7 73v166q0 76 -48 76t-48 -76v-242h-170v236q0 113 60 178q60 64 158 64t158 -63t60 -179v-160q0 -68 -14 -116q-13 -46 -57 -109l-156 -224q-25 -37 -32 -60q-7 -22 -7 -73v-11h266v-160h-436z" />
    <glyph glyph-name="three.ot" 
d="M171 558h88q44 0 44 77v284q0 76 -44 76t-44 -76v-242h-170v236q0 115 59 179q58 63 155 63t155 -64q59 -65 59 -178v-251q0 -118 -63 -184q63 -66 63 -182v-314q0 -113 -59 -178q-58 -64 -155 -64t-155 63q-59 64 -59 179v298h170v-304q0 -76 44 -76t44 76v346
q0 76 -44 76h-88v160z" />
    <glyph glyph-name="four.ot" 
d="M7 0v156l226 987h196v-987h84v-156h-84v-248h-170v248h-252zM141 156h118v610z" />
    <glyph glyph-name="five.ot" 
d="M46 483v660h418v-160h-248v-299q42 50 108 50q72 0 111 -53q39 -52 39 -152v-547q0 -115 -59 -179q-59 -63 -155 -63q-97 0 -155 64q-59 65 -59 178v383h170v-389q0 -76 44 -76t44 76v516q0 76 -40 76q-47 0 -59 -85h-159z" />
    <glyph glyph-name="six.ot" 
d="M474 757v-528q0 -114 -59 -178q-59 -63 -155 -63q-97 0 -155 64q-59 65 -59 177v932q0 113 59 178q58 64 155 64q96 0 155 -64t59 -178v-103h-170v108q0 77 -44 77t-44 -77v-255q43 51 108 51q70 0 110 -54q40 -53 40 -151zM304 224v495q0 77 -40 77q-22 0 -35 -22
t-13 -51v-499q0 -77 44 -77t44 77z" />
    <glyph glyph-name="seven.ot" 
d="M478 1143v-135l-258 -1256h-173l253 1231h-247v160h425z" />
    <glyph glyph-name="eight.ot" 
d="M46 229v315q0 115 64 182q-64 67 -64 183v252q0 113 59 178q58 64 155 64q96 0 155 -64t59 -178v-252q0 -117 -63 -183q63 -66 63 -182v-315q0 -114 -59 -178q-59 -63 -155 -63q-97 0 -155 64q-59 65 -59 177zM216 569v-345q0 -77 44 -77t44 77v345q0 77 -44 77t-44 -77z
M216 1166v-283q0 -77 44 -77t44 77v283q0 77 -44 77t-44 -77z" />
    <glyph glyph-name="nine.ot" 
d="M46 386v527q0 115 59 179q59 63 155 63q97 0 155 -64q59 -65 59 -178v-931q0 -113 -59 -178q-58 -64 -155 -64q-96 0 -155 63q-59 64 -59 179v103h170v-109q0 -76 44 -76t44 76v255q-42 -50 -107 -50q-71 0 -111 54q-40 53 -40 151zM216 919v-495q0 -77 40 -77
q22 0 35 22t13 51v499q0 76 -44 76t-44 -76z" />
    <glyph glyph-name="multiply.ot" 
d="M389 780l111 -108l-130 -131l130 -129l-111 -111l-129 130l-130 -130l-111 111l131 129l-131 131l111 108l130 -129z" />
    <glyph glyph-name="plus.ot" 
d="M12 461v160h170v167h157v-167h169v-160h-169v-168h-157v168h-170z" />
    <glyph glyph-name="minus.ot" 
d="M12 461v160h496v-160h-496z" />
    <glyph glyph-name="divide.ot" 
d="M342 675h-163v185h163v-185zM179 407h163v-186h-163v186zM12 461v160h496v-160h-496z" />
    <glyph glyph-name="equal.ot" 
d="M12 581v154h496v-154h-496zM12 346v156h496v-156h-496z" />
    <glyph glyph-name="less.ot" 
d="M12 455v172l496 160v-164l-305 -82l305 -82v-165z" />
    <glyph glyph-name="greater.ot" 
d="M508 627v-172l-496 -161v165l305 82l-305 82v164z" />
    <glyph glyph-name="plusminus.ot" 
d="M508 572v-159h-170v-168h-157v168h-169v159h169v168h157v-168h170zM508 160v-160h-496v160h496z" />
    <glyph glyph-name="lessequal.ot" 
d="M12 390v172l496 161v-165l-305 -82l305 -82v-165zM12 0v160h496v-160h-496z" />
    <glyph glyph-name="greaterequal.ot" 
d="M508 562v-172l-496 -161v165l305 82l-305 82v165zM508 160v-160h-496v160h496z" />
    <glyph glyph-name="notequal.ot" 
d="M12 581v154h251l43 115h140l-43 -115h105v-154h-162l-30 -79h192v-156h-250l-43 -115h-140l43 115h-106v156h164l30 79h-194z" />
    <glyph glyph-name="approxequal.ot" 
d="M237 782l86 -47q17 -10 29 -10q17 0 17 18v73h156v-104q0 -150 -130 -150q-49 0 -111 34l-86 47q-17 10 -30 10q-16 0 -16 -18v-73h-157v105q0 149 130 149q50 0 112 -34zM237 486l86 -47q17 -10 29 -10q17 0 17 18v73h156v-104q0 -150 -130 -150q-49 0 -111 34l-86 47
q-17 10 -30 10q-16 0 -16 -18v-73h-157v105q0 149 130 149q50 0 112 -34z" />
    <glyph glyph-name="numero.alt3" horiz-adv-x="1008" 
d="M609 715v493q0 93 49 143q50 52 127 52q81 0 129 -51q49 -52 49 -144v-493q0 -92 -49 -144t-129 -52q-77 0 -127 52q-49 50 -49 144zM753 1211v-500q0 -58 32 -58q35 0 35 58v500q0 58 -35 58q-32 0 -32 -58zM340 0l-124 843v-843h-168v1391h185l125 -843v843h167v-1391
h-185z" />
    <glyph glyph-name="Aringacute.alt" horiz-adv-x="514" 
d="M11 0l137 1322q-64 36 -64 116q0 65 47 103q46 37 126 37t126 -37q47 -38 47 -103q0 -76 -58 -113l131 -1325h-169l-18 231h-114l-17 -231h-174zM261 1057l-48 -675h93zM413 1762l-84 -135h-131l27 135h188zM257 1392q50 0 50 46t-50 46t-50 -46t50 -46z" />
    <glyph glyph-name="doublegrave" horiz-adv-x="494" 
d="M133 1208l-109 222h184l56 -222h-131zM332 1208l-110 222h185l56 -222h-131z" />
    <glyph glyph-name="caronSlovak" horiz-adv-x="235" 
d="M222 1391l-68 -198h-120l14 198h174z" />
    <glyph glyph-name="invertedbreve" horiz-adv-x="425" 
d="M394 1228v-20h-134v19q0 88 -47 88q-46 0 -46 -88v-19h-135v20q0 96 48 149t133 53q86 0 134 -53q47 -51 47 -149z" />
    <glyph glyph-name="altcedilla" horiz-adv-x="321" 
d="M130 -72l-61 103h144l49 -83q28 -48 28 -94q0 -112 -133 -112h-121v133h87q21 0 21 19q0 12 -14 34z" />
    <glyph glyph-name="space_uni0326" horiz-adv-x="236" 
d="M40 -270v204h157v-122q0 -76 -25 -124l-38 -72h-94l51 114h-51z" />
    <glyph glyph-name="dotbelow" horiz-adv-x="247" 
d="M40 -258v189h168v-189h-168z" />
    <glyph glyph-name="space.frac" horiz-adv-x="96" 
 />
    <glyph glyph-name="one.numr" horiz-adv-x="276" 
d="M232 1391v-863h-132v673l-89 -11v123q27 3 48 12q23 10 34 21q3 3 7.5 7t8 7.5t5.5 6.5q10 13 11 17l3 7h104z" />
    <glyph glyph-name="four.numr" horiz-adv-x="411" 
d="M14 653v121l169 617h149v-617h63v-121h-63v-125h-131v125h-187zM117 774h84v369z" />
    <glyph glyph-name="two.numr" horiz-adv-x="391" 
d="M359 1164q0 -81 -32 -142l-141 -267q-18 -36 -18 -98v-5h191v-124h-323v129q0 50 6 80q5 26 25 64l141 268q18 35 18 95v62q0 48 -28 48q-30 0 -30 -48v-128h-132v120q0 88 44 133q45 47 118 47q72 0 117 -48q44 -47 44 -132v-54z" />
    <glyph glyph-name="three.numr" horiz-adv-x="405" 
d="M134 1040h68q29 0 29 49v137q0 48 -29 48t-29 -48v-118h-132v110q0 86 44 133t117 47q72 0 117 -47t45 -133v-97q0 -93 -56 -143q56 -47 56 -142v-135q0 -84 -45 -132t-117 -48q-74 0 -117 48q-44 49 -44 132v148h132v-156q0 -48 29 -48t29 48v175q0 48 -29 48h-68v124z
" />
    <glyph glyph-name="zero.numr" horiz-adv-x="407" 
d="M42 701v517q0 86 45 133t117 47t117 -48t45 -132v-517q0 -84 -45 -132t-117 -48t-117 48t-45 132zM174 1226v-533q0 -48 30 -48q28 0 28 48v533q0 48 -28 48q-30 0 -30 -48z" />
    <glyph glyph-name="five.numr" horiz-adv-x="407" 
d="M42 981v410h316v-124h-183v-138q31 31 77 31q54 0 84 -35t30 -102v-322q0 -84 -45 -132t-117 -48t-117 48t-45 132v210h133v-218q0 -48 29 -48q27 0 27 48v291q0 47 -25 47q-31 0 -39 -50h-125z" />
    <glyph glyph-name="six.numr" horiz-adv-x="407" 
d="M366 950v-249q0 -84 -45 -132t-117 -48t-117 48t-45 132v517q0 86 45 133t117 47t117 -48t45 -132v-56h-134v64q0 48 -28 48q-30 0 -30 -48v-155q30 34 78 34q53 0 83 -41q31 -42 31 -114zM232 693v240q0 48 -25 48q-13 0 -22 -13q-10 -14 -11 -28v-247q0 -48 30 -48
q28 0 28 48z" />
    <glyph glyph-name="seven.numr" horiz-adv-x="355" 
d="M342 1391v-109l-189 -754h-136l185 739h-180v124h320z" />
    <glyph glyph-name="eight.numr" horiz-adv-x="407" 
d="M42 702v152q0 81 49 124q-49 43 -49 125v115q0 86 45 133t117 47t117 -48t45 -132v-115q0 -79 -51 -125q51 -45 51 -124v-152q0 -85 -45 -133t-117 -48t-117 48t-45 133zM231 693v175q0 48 -27 48q-29 0 -29 -48v-175q0 -48 29 -48q27 0 27 48zM175 1226v-139
q0 -47 29 -47q27 0 27 47v139q0 48 -27 48q-29 0 -29 -48z" />
    <glyph glyph-name="nine.numr" horiz-adv-x="407" 
d="M42 969v249q0 84 45 132t117 48t117 -48t45 -132v-517q0 -87 -45 -133q-45 -47 -117 -47t-117 48t-45 132v56h133v-64q0 -48 29 -48t29 48v155q-30 -34 -77 -34q-54 0 -84 41t-30 114zM175 1226v-240q0 -48 26 -48q13 0 22 13q8 13 10 28v247q0 48 -29 48t-29 -48z" />
    <glyph glyph-name="zero.dnom" horiz-adv-x="407" 
d="M42 173v516q0 87 45 133q45 47 117 47q73 0 117 -47q45 -48 45 -133v-516q0 -85 -45 -133q-44 -47 -117 -47t-117 47q-45 48 -45 133zM174 697v-532q0 -48 30 -48q28 0 28 48v532q0 48 -28 48q-30 0 -30 -48z" />
    <glyph glyph-name="one.dnom" horiz-adv-x="277" 
d="M232 862v-862h-132v673l-89 -11v122q24 3 48 13q24 11 34 20q19 18 21 22q10 13 11 17l3 6h104z" />
    <glyph glyph-name="two.dnom" horiz-adv-x="391" 
d="M359 636q0 -81 -32 -142l-141 -268q-18 -36 -18 -97v-5h191v-124h-323v129q0 50 6 80q5 24 25 63l141 269q18 35 18 95v61q0 48 -28 48q-30 0 -30 -48v-128h-132v120q0 88 44 133q45 47 118 47t117 -47t44 -133v-53z" />
    <glyph glyph-name="three.dnom" horiz-adv-x="405" 
d="M134 512h68q29 0 29 48v137q0 48 -29 48t-29 -48v-117h-132v109q0 86 44 133t117 47q72 0 117 -47q45 -46 45 -133v-96q0 -93 -56 -143q56 -47 56 -143v-134q0 -85 -45 -133q-44 -47 -117 -47q-74 0 -117 47q-44 49 -44 133v148h132v-156q0 -48 29 -48t29 48v175
q0 48 -29 48h-68v124z" />
    <glyph glyph-name="four.dnom" horiz-adv-x="411" 
d="M14 125v121l169 616h149v-616h63v-121h-63v-125h-131v125h-187zM117 246h84v368z" />
    <glyph glyph-name="five.dnom" horiz-adv-x="407" 
d="M42 453v409h316v-124h-183v-137q31 31 77 31q54 0 84 -35t30 -102v-322q0 -85 -45 -133q-44 -47 -117 -47t-117 47q-45 48 -45 133v210h133v-218q0 -48 29 -48q27 0 27 48v291q0 47 -25 47q-31 0 -39 -50h-125z" />
    <glyph glyph-name="six.dnom" horiz-adv-x="407" 
d="M366 422v-249q0 -85 -45 -133q-44 -47 -117 -47t-117 47q-45 48 -45 133v516q0 87 45 133q45 47 117 47q73 0 117 -47q45 -48 45 -133v-55h-134v63q0 48 -28 48q-30 0 -30 -48v-154q30 34 78 34q53 0 83 -41q31 -42 31 -114zM232 165v239q0 49 -25 49q-13 0 -22 -13
q-10 -14 -11 -28v-247q0 -48 30 -48q28 0 28 48z" />
    <glyph glyph-name="seven.dnom" horiz-adv-x="355" 
d="M342 862v-108l-189 -754h-136l185 738h-180v124h320z" />
    <glyph glyph-name="eight.dnom" horiz-adv-x="407" 
d="M42 174v152q0 81 49 124q-49 43 -49 124v115q0 87 45 133q45 47 117 47q73 0 117 -47q45 -48 45 -133v-115q0 -78 -51 -124q51 -45 51 -124v-152q0 -86 -45 -134q-44 -47 -117 -47t-117 47q-45 48 -45 134zM231 165v175q0 48 -27 48q-29 0 -29 -48v-175q0 -48 29 -48
q27 0 27 48zM175 697v-138q0 -47 29 -47q27 0 27 47v138q0 48 -27 48q-29 0 -29 -48z" />
    <glyph glyph-name="nine.dnom" horiz-adv-x="407" 
d="M42 440v249q0 85 45 133q44 47 117 47t117 -47q45 -48 45 -133v-516q0 -87 -45 -133q-45 -47 -117 -47q-73 0 -117 47q-45 48 -45 133v55h133v-63q0 -48 29 -48t29 48v154q-29 -33 -77 -33q-54 0 -84 40t-30 114zM175 697v-239q0 -48 26 -48q14 0 22 12q8 13 10 29v246
q0 48 -29 48t-29 -48z" />
    <glyph glyph-name="zero.inf" horiz-adv-x="407" 
d="M42 38v516q0 86 45 133t117 47q73 0 117 -47q45 -48 45 -133v-516q0 -85 -45 -133q-44 -47 -117 -47t-117 47q-45 48 -45 133zM174 562v-532q0 -48 30 -48q28 0 28 48v532q0 48 -28 48q-30 0 -30 -48z" />
    <glyph glyph-name="one.inf" horiz-adv-x="277" 
d="M232 727v-862h-132v673l-89 -12v123q24 3 48 13t34 20q3 3 7.5 7t8 7.5t5.5 6.5q9 12 11 18l3 6h104z" />
    <glyph glyph-name="two.inf" horiz-adv-x="391" 
d="M359 496q0 -82 -32 -143l-141 -267q-18 -36 -18 -97v-5h191v-124h-323v129q0 50 6 80q5 24 25 63l141 268q18 36 18 96v61q0 48 -28 48q-30 0 -30 -48v-128h-132v120q0 88 44 133q45 47 118 47q72 0 117 -48q44 -47 44 -132v-53z" />
    <glyph glyph-name="three.inf" horiz-adv-x="405" 
d="M134 377h68q29 0 29 48v137q0 48 -29 48t-29 -48v-118h-132v110q0 86 44 133t117 47q72 0 117 -47t45 -133v-96q0 -94 -56 -144q56 -47 56 -142v-134q0 -85 -45 -133q-44 -47 -117 -47q-74 0 -117 47q-44 49 -44 133v147h132v-155q0 -48 29 -48t29 48v175q0 48 -29 48
h-68v124z" />
    <glyph glyph-name="four.inf" horiz-adv-x="411" 
d="M14 -10v121l169 616h149v-616h63v-121h-63v-125h-131v125h-187zM117 111h84v368z" />
    <glyph glyph-name="five.inf" horiz-adv-x="407" 
d="M42 317v410h316v-124h-183v-137q31 31 77 31q54 0 84 -35q30 -34 30 -103v-321q0 -85 -45 -133q-44 -47 -117 -47t-117 47q-45 48 -45 133v210h133v-218q0 -48 29 -48q27 0 27 48v291q0 47 -25 47q-31 0 -39 -51h-125z" />
    <glyph glyph-name="six.inf" horiz-adv-x="407" 
d="M366 287v-249q0 -85 -45 -133q-44 -47 -117 -47t-117 47q-45 48 -45 133v516q0 86 45 133t117 47q73 0 117 -47q45 -48 45 -133v-55h-134v63q0 48 -28 48q-30 0 -30 -48v-154q29 33 78 33q53 0 83 -40q31 -42 31 -114zM232 30v239q0 48 -25 48q-14 0 -22 -12
q-10 -14 -11 -29v-246q0 -48 30 -48q28 0 28 48z" />
    <glyph glyph-name="seven.inf" horiz-adv-x="355" 
d="M342 727v-109l-189 -753h-136l185 738h-180v124h320z" />
    <glyph glyph-name="eight.inf" horiz-adv-x="407" 
d="M42 39v151q0 81 49 124q-49 43 -49 125v115q0 86 45 133t117 47q73 0 117 -47q45 -48 45 -133v-115q0 -79 -51 -125q51 -45 51 -124v-151q0 -86 -45 -134q-44 -47 -117 -47t-117 47q-45 48 -45 134zM231 30v175q0 48 -27 48q-29 0 -29 -48v-175q0 -48 29 -48q27 0 27 48z
M175 562v-138q0 -47 29 -47q27 0 27 47v138q0 48 -27 48q-29 0 -29 -48z" />
    <glyph glyph-name="nine.inf" horiz-adv-x="407" 
d="M42 305v249q0 85 45 133q44 47 117 47t117 -47q45 -48 45 -133v-516q0 -86 -45 -133t-117 -47q-73 0 -117 47q-45 48 -45 133v55h133v-63q0 -48 29 -48t29 48v154q-29 -33 -77 -33q-54 0 -84 40q-30 41 -30 114zM175 562v-239q0 -49 26 -49q13 0 22 13q8 13 10 28v247
q0 48 -29 48t-29 -48z" />
    <glyph glyph-name="hyphen.cap" horiz-adv-x="385" 
d="M32 615v160h321v-160h-321z" />
    <glyph glyph-name="endash.cap" horiz-adv-x="641" 
d="M32 615v160h577v-160h-577z" />
    <glyph glyph-name="emdash.cap" horiz-adv-x="1062" 
d="M32 615v160h999v-160h-999z" />
    <glyph glyph-name="uni2011.cap" horiz-adv-x="385" 
d="M32 615v160h321v-160h-321z" />
    <glyph glyph-name="figuredash.cap" horiz-adv-x="641" 
d="M32 615v160h577v-160h-577z" />
    <glyph glyph-name="uni2015.cap" horiz-adv-x="1062" 
d="M32 615v160h999v-160h-999z" />
    <glyph glyph-name="exclamdown.cap" horiz-adv-x="249" 
d="M33 0l30 1087h124l31 -1087h-185zM45 1142v249h160v-249h-160z" />
    <glyph glyph-name="questiondown.cap" horiz-adv-x="500" 
d="M327 1078v-92q0 -81 -8 -121q-8 -41 -30 -86l-51 -110q-17 -37 -21 -64q-5 -33 -5 -102v-279q0 -77 46 -77q45 0 45 77v324h170v-319q0 -114 -59 -177q-60 -64 -156 -64t-156 64t-60 177v274q0 95 9 138q9 42 33 86l67 119q25 44 31 68t6 72v92h139zM338 1391v-249h-160
v249h160z" />
    <glyph glyph-name="at.cap" horiz-adv-x="803" 
d="M209 615q0 81 24 124q23 41 83 80l85 54q23 16 31 30q9 15 9 41v70q0 71 -40 71q-39 0 -39 -71v-111h-153v106q0 107 54 167t138 60q87 0 141 -60t54 -167v-744q0 -28 9 -40q8 -11 30 -11h40q22 0 30 11q9 12 9 40v877q0 86 -62 150q-61 63 -149 63h-202q-87 0 -149 -63
q-62 -64 -62 -150v-893q0 -87 62 -151q61 -62 149 -62h352v-48h-352q-107 0 -184 77t-77 184v893q0 107 77 184t184 77h202q107 0 184 -77t77 -184v-877q0 -49 -24 -74t-65 -25h-74q-103 0 -138 81q-41 -92 -124 -92q-59 0 -95 51q-35 50 -35 141v268zM362 620v-236
q0 -73 36 -73q13 0 26 11q11 10 14 20l4 10q-1 7 -1 33v355l-51 -46q-16 -15 -22 -29q-6 -15 -6 -45z" />
    <glyph glyph-name="guillemotleft.cap" horiz-adv-x="552" 
d="M143 343l-132 352l132 353h162l-132 -353l132 -352h-162zM375 343l-132 352l132 353h161l-133 -353l133 -352h-161z" />
    <glyph glyph-name="guillemotright.cap" horiz-adv-x="552" 
d="M542 695l-132 -352h-162l132 352l-132 353h162zM310 695l-132 -352h-161l133 352l-133 353h161z" />
    <glyph glyph-name="guilsinglleft.cap" horiz-adv-x="322" 
d="M143 343l-132 352l132 353h162l-132 -353l132 -352h-162z" />
    <glyph glyph-name="guilsinglright.cap" horiz-adv-x="322" 
d="M311 695l-132 -352h-162l133 352l-133 353h162z" />
    <glyph glyph-name="periodcentered.cap" horiz-adv-x="241" 
d="M38 571v249h166v-249h-166z" />
    <glyph glyph-name="bullet.cap" horiz-adv-x="459" 
d="M38 662v7q0 100 54 157q55 58 137 58q84 0 139 -58q54 -57 54 -157v-7q0 -101 -54 -158q-55 -58 -139 -58q-82 0 -137 58q-54 57 -54 158z" />
    <glyph glyph-name="registered.cap" horiz-adv-x="803" 
d="M764 1142v-893q0 -107 -77 -184t-184 -77h-202q-107 0 -184 77t-77 184v893q0 107 77 184t184 77h202q107 0 184 -77t77 -184zM90 1142v-893q0 -87 62 -151q61 -62 149 -62h202q88 0 149 62q62 64 62 151v893q0 86 -62 150q-61 63 -149 63h-202q-87 0 -149 -63
q-62 -64 -62 -150zM621 167h-155q-22 57 -22 209v137q0 68 -44 68h-28v-414h-157v1057h185q89 0 145 -59t56 -165v-170q0 -115 -65 -174q65 -62 65 -173v-103q0 -57 5 -115q5 -54 9 -76zM372 1072v-339h28q44 0 44 68v203q0 68 -44 68h-28z" />
    <glyph glyph-name="plus.cap" horiz-adv-x="559" 
d="M32 615v160h170v168h156v-168h169v-160h-169v-168h-156v168h-170z" />
    <glyph glyph-name="minus.cap" horiz-adv-x="559" 
d="M32 615v160h495v-160h-495z" />
    <glyph glyph-name="asciitilde.cap" horiz-adv-x="593" 
d="M273 794l86 -48q17 -10 31 -10q16 0 16 19v72h156v-114q0 -150 -131 -150q-48 0 -110 34l-87 47q-17 10 -30 10q-16 0 -16 -18v-73h-156v115q0 149 131 149q50 0 110 -33z" />
    <glyph glyph-name="divide.cap" horiz-adv-x="559" 
d="M361 829h-162v186h162v-186zM199 561h162v-185h-162v185zM32 615v160h495v-160h-495z" />
    <glyph glyph-name="equal.cap" horiz-adv-x="559" 
d="M32 735v155h495v-155h-495zM32 501v155h495v-155h-495z" />
    <glyph glyph-name="less.cap" horiz-adv-x="559" 
d="M32 609v172l495 161v-165l-305 -82l305 -82v-164z" />
    <glyph glyph-name="greater.cap" horiz-adv-x="559" 
d="M527 781v-172l-495 -160v164l305 82l-305 82v165z" />
    <glyph glyph-name="plusminus.cap" horiz-adv-x="559" 
d="M32 738v160h170v168h156v-168h169v-160h-169v-168h-156v168h-170zM32 326v159h495v-159h-495z" />
    <glyph glyph-name="lessequal.cap" horiz-adv-x="559" 
d="M32 725v172l495 161v-165l-305 -82l305 -82v-165zM32 335v160h495v-160h-495z" />
    <glyph glyph-name="greaterequal.cap" horiz-adv-x="559" 
d="M527 897v-172l-495 -161v165l305 82l-305 82v165zM527 495v-160h-495v160h495z" />
    <glyph glyph-name="notequal.cap" horiz-adv-x="559" 
d="M32 735v155h251l43 115h140l-43 -115h104v-155h-161l-30 -79h191v-155h-249l-44 -115h-140l43 115h-105v155h164l29 79h-193z" />
    <glyph glyph-name="approxequal.cap" horiz-adv-x="593" 
d="M273 937l86 -47q17 -10 30 -10q17 0 17 18v73h156v-105q0 -149 -130 -149q-49 0 -111 34l-87 47q-17 10 -29 10q-17 0 -17 -18v-73h-156v104q0 150 130 150q49 0 111 -34zM273 641l86 -47q17 -10 30 -10q17 0 17 18v73h156v-105q0 -149 -130 -149q-49 0 -111 34l-87 47
q-17 10 -29 10q-17 0 -17 -18v-73h-156v104q0 150 130 150q49 0 111 -34z" />
    <glyph glyph-name="logicalnot.cap" horiz-adv-x="559" 
d="M32 615v160h495v-328h-156v168h-339z" />
    <glyph glyph-name="infinity.cap" horiz-adv-x="802" 
d="M780 709v-27q0 -104 -52 -162q-53 -59 -137 -59q-53 0 -91 26q-34 23 -94 94l-5 4l-4 -4q-60 -71 -94 -94q-38 -26 -91 -26q-84 0 -137 59q-52 58 -52 162v27q0 104 52 162q53 59 136 59q55 0 93 -27t93 -93l4 -5l5 5q56 66 93 93t93 27q83 0 136 -59q52 -58 52 -162z
M173 713v-35q0 -71 41 -71q13 0 22 6q8 5 25 27l47 55l-47 56q-15 20 -25 26q-9 6 -22 6q-41 0 -41 -70zM630 678v35q0 70 -41 70q-13 0 -22 -6q-10 -6 -25 -26l-47 -56l47 -55q17 -22 25 -27q9 -6 22 -6q41 0 41 71z" />
    <glyph glyph-name="anoteleia.cap" horiz-adv-x="241" 
d="M38 571v249h166v-249h-166z" />
    <glyph glyph-name="dotmath.cap" horiz-adv-x="241" 
d="M38 571v249h166v-249h-166z" />
    <glyph glyph-name="acute.cap" horiz-adv-x="307" 
d="M284 1677l-117 -221h-135l64 221h188z" />
    <glyph glyph-name="grave.cap" horiz-adv-x="307" 
d="M140 1456l-116 221h187l64 -221h-135z" />
    <glyph glyph-name="doublegrave.cap" horiz-adv-x="494" 
d="M133 1456l-109 221h184l56 -221h-131zM332 1456l-110 221h185l56 -221h-131z" />
    <glyph glyph-name="circumflex.cap" horiz-adv-x="436" 
d="M269 1456l-51 82l-50 -82h-144l109 221h170l110 -221h-144z" />
    <glyph glyph-name="dieresis.cap" horiz-adv-x="428" 
d="M40 1456v215h148v-215h-148zM240 1456v215h148v-215h-148z" />
    <glyph glyph-name="tilde.cap" horiz-adv-x="466" 
d="M269 1474l-66 33q-14 7 -22 7q-12 0 -12 -15v-43h-133v113q0 104 89 104q35 0 73 -19l66 -34q14 -7 22 -7q12 0 12 15v43h133v-112q0 -105 -89 -105q-33 0 -73 20z" />
    <glyph glyph-name="ring.cap" horiz-adv-x="417" 
d="M36 1577q0 65 47 103q46 37 126 37t126 -37q47 -38 47 -103q0 -68 -47 -104t-126 -36t-126 36t-47 104zM209 1531q50 0 50 46t-50 46t-50 -46t50 -46z" />
    <glyph glyph-name="caron.cap" horiz-adv-x="436" 
d="M218 1596l51 81h144l-110 -221h-170l-109 221h144z" />
    <glyph glyph-name="macron.cap" horiz-adv-x="448" 
d="M40 1478v144h369v-144h-369z" />
    <glyph glyph-name="breve.cap" horiz-adv-x="425" 
d="M394 1673v-19q0 -98 -47 -149q-48 -53 -134 -53q-85 0 -133 53t-48 149v19h135v-18q0 -88 46 -88q47 0 47 88v18h134z" />
    <glyph glyph-name="invertedbreve.cap" horiz-adv-x="425" 
d="M394 1476v-20h-134v19q0 88 -47 88q-46 0 -46 -88v-19h-135v20q0 97 48 149t133 52q86 0 134 -52q47 -51 47 -149z" />
    <glyph glyph-name="dotaccent.cap" horiz-adv-x="247" 
d="M40 1456v190h168v-190h-168z" />
    <glyph glyph-name="hungarumlaut.cap" horiz-adv-x="494" 
d="M471 1677l-110 -221h-131l57 221h184zM272 1677l-109 -221h-131l56 221h184z" />
    <glyph glyph-name="hcircumflex.alt2" horiz-adv-x="499" 
d="M259 1456l-51 82l-50 -82h-145l110 221h170l109 -221h-143zM458 950v-950h-164v912q0 77 -40 77q-17 0 -28 -11t-16 -24l-4 -11v-943h-164v1391h164v-308q38 72 115 72q62 0 99 -55q38 -56 38 -150z" />
    <glyph glyph-name="multiply.cap" horiz-adv-x="551" 
d="M36 826l110 109l129 -129l131 129l110 -109l-130 -131l130 -129l-110 -110l-131 130l-129 -130l-110 110l130 129z" />
    </font>
</defs>
</svg>
